# MagicaVoxel @ Ephtracy

# group
o 

# material
mtllib droopy_purple.mtl
usemtl palette

# normals
vn -1 0 0
vn 1 0 0
vn 0 0 1
vn 0 0 -1
vn 0 -1 0
vn 0 1 0

# texcoords
vt 0.0371094 0.5
vt 0.0644531 0.5
vt 0.0683594 0.5

# verts
v -0.2 0.2 0
v -0.2 0.2 -0.1
v -0.2 0.3 0
v -0.2 0.3 -0.1
v -0.1 0.3 0
v -0.1 0.3 -0.1
v -0.1 0.5 0
v -0.1 0.5 -0.1
v 0 0 0
v 0 0 -0.1
v 0 0.2 0.2
v 0 0.2 0.1
v 0 0.2 -0.2
v 0 0.2 -0.3
v 0 0.3 0.2
v 0 0.3 0.1
v 0 0.3 0
v 0 0.3 -0.1
v 0 0.3 -0.2
v 0 0.3 -0.3
v 0 0.5 0.1
v 0 0.5 0
v 0 0.5 -0.1
v 0 0.5 -0.2
v 0 0.6 0
v 0 0.6 -0.1
v 0.2 0.2 0
v 0.2 0.2 -0.1
v 0.2 0.3 0
v 0.2 0.3 -0.1
v -0.1 0.2 0
v -0.1 0.2 -0.1
v -0.1 0.3 0
v -0.1 0.3 -0.1
v 0.1 0 0
v 0.1 0 -0.1
v 0.1 0.2 0.2
v 0.1 0.2 0.1
v 0.1 0.2 -0.2
v 0.1 0.2 -0.3
v 0.1 0.3 0.2
v 0.1 0.3 0.1
v 0.1 0.3 0
v 0.1 0.3 -0.1
v 0.1 0.3 -0.2
v 0.1 0.3 -0.3
v 0.1 0.5 0.1
v 0.1 0.5 0
v 0.1 0.5 -0.1
v 0.1 0.5 -0.2
v 0.1 0.6 0
v 0.1 0.6 -0.1
v 0.2 0.3 0
v 0.2 0.3 -0.1
v 0.2 0.5 0
v 0.2 0.5 -0.1
v 0.3 0.2 0
v 0.3 0.2 -0.1
v 0.3 0.3 0
v 0.3 0.3 -0.1
v 0 0.2 0.2
v 0 0.3 0.2
v 0.1 0.2 0.2
v 0.1 0.3 0.2
v 0 0.3 0.1
v 0 0.5 0.1
v 0.1 0.3 0.1
v 0.1 0.5 0.1
v -0.2 0.2 0
v -0.2 0.3 0
v -0.1 0.2 0
v -0.1 0.3 0
v -0.1 0.5 0
v 0 0 0
v 0 0.3 0
v 0 0.5 0
v 0 0.6 0
v 0.1 0 0
v 0.1 0.3 0
v 0.1 0.5 0
v 0.1 0.6 0
v 0.2 0.2 0
v 0.2 0.3 0
v 0.2 0.5 0
v 0.3 0.2 0
v 0.3 0.3 0
v 0 0.2 -0.2
v 0 0.3 -0.2
v 0.1 0.2 -0.2
v 0.1 0.3 -0.2
v 0 0.2 0.1
v 0 0.3 0.1
v 0.1 0.2 0.1
v 0.1 0.3 0.1
v -0.2 0.2 -0.1
v -0.2 0.3 -0.1
v -0.1 0.2 -0.1
v -0.1 0.3 -0.1
v -0.1 0.5 -0.1
v 0 0 -0.1
v 0 0.3 -0.1
v 0 0.5 -0.1
v 0 0.6 -0.1
v 0.1 0 -0.1
v 0.1 0.3 -0.1
v 0.1 0.5 -0.1
v 0.1 0.6 -0.1
v 0.2 0.2 -0.1
v 0.2 0.3 -0.1
v 0.2 0.5 -0.1
v 0.3 0.2 -0.1
v 0.3 0.3 -0.1
v 0 0.3 -0.2
v 0 0.5 -0.2
v 0.1 0.3 -0.2
v 0.1 0.5 -0.2
v 0 0.2 -0.3
v 0 0.3 -0.3
v 0.1 0.2 -0.3
v 0.1 0.3 -0.3
v 0 0 0
v 0.1 0 0
v 0 0 -0.1
v 0.1 0 -0.1
v 0 0.2 0.2
v 0.1 0.2 0.2
v 0 0.2 0.1
v 0.1 0.2 0.1
v -0.2 0.2 0
v -0.1 0.2 0
v 0.2 0.2 0
v 0.3 0.2 0
v -0.2 0.2 -0.1
v -0.1 0.2 -0.1
v 0.2 0.2 -0.1
v 0.3 0.2 -0.1
v 0 0.2 -0.2
v 0.1 0.2 -0.2
v 0 0.2 -0.3
v 0.1 0.2 -0.3
v 0 0.3 0.1
v 0.1 0.3 0.1
v -0.1 0.3 0
v 0 0.3 0
v 0.1 0.3 0
v 0.2 0.3 0
v -0.1 0.3 -0.1
v 0 0.3 -0.1
v 0.1 0.3 -0.1
v 0.2 0.3 -0.1
v 0 0.3 -0.2
v 0.1 0.3 -0.2
v 0 0.3 0.2
v 0.1 0.3 0.2
v 0 0.3 0.1
v 0.1 0.3 0.1
v -0.2 0.3 0
v -0.1 0.3 0
v 0.2 0.3 0
v 0.3 0.3 0
v -0.2 0.3 -0.1
v -0.1 0.3 -0.1
v 0.2 0.3 -0.1
v 0.3 0.3 -0.1
v 0 0.3 -0.2
v 0.1 0.3 -0.2
v 0 0.3 -0.3
v 0.1 0.3 -0.3
v 0 0.5 0.1
v 0.1 0.5 0.1
v -0.1 0.5 0
v 0 0.5 0
v 0.1 0.5 0
v 0.2 0.5 0
v -0.1 0.5 -0.1
v 0 0.5 -0.1
v 0.1 0.5 -0.1
v 0.2 0.5 -0.1
v 0 0.5 -0.2
v 0.1 0.5 -0.2
v 0 0.6 0
v 0.1 0.6 0
v 0 0.6 -0.1
v 0.1 0.6 -0.1

# faces
f 3/2/1 2/2/1 1/2/1
f 4/2/1 2/2/1 3/2/1
f 7/2/1 6/2/1 5/2/1
f 8/2/1 6/2/1 7/2/1
f 15/2/1 12/2/1 11/2/1
f 16/2/1 12/2/1 15/2/1
f 17/1/1 10/1/1 9/1/1
f 18/1/1 10/1/1 17/1/1
f 19/2/1 14/2/1 13/2/1
f 20/2/1 14/2/1 19/2/1
f 21/2/1 17/2/1 16/2/1
f 22/2/1 17/2/1 21/2/1
f 23/2/1 19/2/1 18/2/1
f 24/2/1 19/2/1 23/2/1
f 25/3/1 23/3/1 22/3/1
f 26/3/1 23/3/1 25/3/1
f 29/2/1 28/2/1 27/2/1
f 30/2/1 28/2/1 29/2/1
f 31/2/2 32/2/2 33/2/2
f 33/2/2 32/2/2 34/2/2
f 37/2/2 38/2/2 41/2/2
f 41/2/2 38/2/2 42/2/2
f 35/1/2 36/1/2 43/1/2
f 43/1/2 36/1/2 44/1/2
f 39/2/2 40/2/2 45/2/2
f 45/2/2 40/2/2 46/2/2
f 42/2/2 43/2/2 47/2/2
f 47/2/2 43/2/2 48/2/2
f 44/2/2 45/2/2 49/2/2
f 49/2/2 45/2/2 50/2/2
f 48/3/2 49/3/2 51/3/2
f 51/3/2 49/3/2 52/3/2
f 53/2/2 54/2/2 55/2/2
f 55/2/2 54/2/2 56/2/2
f 57/2/2 58/2/2 59/2/2
f 59/2/2 58/2/2 60/2/2
f 63/2/3 62/2/3 61/2/3
f 64/2/3 62/2/3 63/2/3
f 67/2/3 66/2/3 65/2/3
f 68/2/3 66/2/3 67/2/3
f 71/2/3 70/2/3 69/2/3
f 72/2/3 70/2/3 71/2/3
f 75/2/3 73/2/3 72/2/3
f 76/2/3 73/2/3 75/2/3
f 78/1/3 75/1/3 74/1/3
f 79/1/3 75/1/3 78/1/3
f 80/3/3 77/3/3 76/3/3
f 81/3/3 77/3/3 80/3/3
f 83/2/3 80/2/3 79/2/3
f 84/2/3 80/2/3 83/2/3
f 85/2/3 83/2/3 82/2/3
f 86/2/3 83/2/3 85/2/3
f 89/2/3 88/2/3 87/2/3
f 90/2/3 88/2/3 89/2/3
f 91/2/4 92/2/4 93/2/4
f 93/2/4 92/2/4 94/2/4
f 95/2/4 96/2/4 97/2/4
f 97/2/4 96/2/4 98/2/4
f 98/2/4 99/2/4 101/2/4
f 101/2/4 99/2/4 102/2/4
f 100/1/4 101/1/4 104/1/4
f 104/1/4 101/1/4 105/1/4
f 102/3/4 103/3/4 106/3/4
f 106/3/4 103/3/4 107/3/4
f 105/2/4 106/2/4 109/2/4
f 109/2/4 106/2/4 110/2/4
f 108/2/4 109/2/4 111/2/4
f 111/2/4 109/2/4 112/2/4
f 113/2/4 114/2/4 115/2/4
f 115/2/4 114/2/4 116/2/4
f 117/2/4 118/2/4 119/2/4
f 119/2/4 118/2/4 120/2/4
f 123/1/5 122/1/5 121/1/5
f 124/1/5 122/1/5 123/1/5
f 127/2/5 126/2/5 125/2/5
f 128/2/5 126/2/5 127/2/5
f 133/2/5 130/2/5 129/2/5
f 134/2/5 130/2/5 133/2/5
f 135/2/5 132/2/5 131/2/5
f 136/2/5 132/2/5 135/2/5
f 139/2/5 138/2/5 137/2/5
f 140/2/5 138/2/5 139/2/5
f 144/2/5 142/2/5 141/2/5
f 145/2/5 142/2/5 144/2/5
f 147/2/5 144/2/5 143/2/5
f 148/2/5 144/2/5 147/2/5
f 149/2/5 146/2/5 145/2/5
f 150/2/5 146/2/5 149/2/5
f 151/2/5 149/2/5 148/2/5
f 152/2/5 149/2/5 151/2/5
f 153/2/6 154/2/6 155/2/6
f 155/2/6 154/2/6 156/2/6
f 157/2/6 158/2/6 161/2/6
f 161/2/6 158/2/6 162/2/6
f 159/2/6 160/2/6 163/2/6
f 163/2/6 160/2/6 164/2/6
f 165/2/6 166/2/6 167/2/6
f 167/2/6 166/2/6 168/2/6
f 169/2/6 170/2/6 172/2/6
f 172/2/6 170/2/6 173/2/6
f 171/2/6 172/2/6 175/2/6
f 175/2/6 172/2/6 176/2/6
f 173/2/6 174/2/6 177/2/6
f 177/2/6 174/2/6 178/2/6
f 176/2/6 177/2/6 179/2/6
f 179/2/6 177/2/6 180/2/6
f 181/3/6 182/3/6 183/3/6
f 183/3/6 182/3/6 184/3/6
