ply
format ascii 1.0
comment : MagicaVoxel @ Ephtracy
element vertex 232
property float x
property float y
property float z
property uchar red
property uchar green
property uchar blue
element face 174
property list uchar int vertex_index
end_header
4.105 -4.095 0.005 255 240 147
4.195 -4.095 0.005 255 240 147
4.105 -4.005 0.005 255 240 147
4.195 -4.005 0.005 255 240 147
4.105 -4.095 0.095 255 240 147
4.195 -4.095 0.095 255 240 147
4.105 -4.005 0.095 255 240 147
4.195 -4.005 0.095 255 240 147
4.105 -4.195 0.105 201 185 94
4.195 -4.195 0.105 201 185 94
4.105 -4.105 0.105 201 185 94
4.195 -4.105 0.105 201 185 94
4.105 -4.195 0.195 201 185 94
4.195 -4.195 0.195 201 185 94
4.105 -4.105 0.195 201 185 94
4.195 -4.105 0.195 201 185 94
4.005 -4.095 0.105 201 185 94
4.095 -4.095 0.105 201 185 94
4.005 -4.005 0.105 201 185 94
4.095 -4.005 0.105 201 185 94
4.005 -4.095 0.195 201 185 94
4.095 -4.095 0.195 201 185 94
4.005 -4.005 0.195 201 185 94
4.095 -4.005 0.195 201 185 94
4.105 -4.095 0.105 255 240 147
4.195 -4.095 0.105 255 240 147
4.105 -4.005 0.105 255 240 147
4.195 -4.005 0.105 255 240 147
4.105 -4.095 0.195 255 240 147
4.195 -4.095 0.195 255 240 147
4.105 -4.005 0.195 255 240 147
4.195 -4.005 0.195 255 240 147
4.205 -4.095 0.105 201 185 94
4.295 -4.095 0.105 201 185 94
4.205 -4.005 0.105 201 185 94
4.295 -4.005 0.105 201 185 94
4.205 -4.095 0.195 201 185 94
4.295 -4.095 0.195 201 185 94
4.205 -4.005 0.195 201 185 94
4.295 -4.005 0.195 201 185 94
4.105 -3.995 0.105 201 185 94
4.195 -3.995 0.105 201 185 94
4.105 -3.905 0.105 201 185 94
4.195 -3.905 0.105 201 185 94
4.105 -3.995 0.195 201 185 94
4.195 -3.995 0.195 201 185 94
4.105 -3.905 0.195 201 185 94
4.195 -3.905 0.195 201 185 94
4.105 -4.195 0.205 201 185 94
4.195 -4.195 0.205 201 185 94
4.105 -4.105 0.205 201 185 94
4.195 -4.105 0.205 201 185 94
4.105 -4.195 0.295 201 185 94
4.195 -4.195 0.295 201 185 94
4.105 -4.105 0.295 201 185 94
4.195 -4.105 0.295 201 185 94
4.005 -4.095 0.205 201 185 94
4.095 -4.095 0.205 201 185 94
4.005 -4.005 0.205 201 185 94
4.095 -4.005 0.205 201 185 94
4.005 -4.095 0.295 201 185 94
4.095 -4.095 0.295 201 185 94
4.005 -4.005 0.295 201 185 94
4.095 -4.005 0.295 201 185 94
4.105 -4.095 0.205 255 240 147
4.195 -4.095 0.205 255 240 147
4.105 -4.005 0.205 255 240 147
4.195 -4.005 0.205 255 240 147
4.105 -4.095 0.295 255 240 147
4.195 -4.095 0.295 255 240 147
4.105 -4.005 0.295 255 240 147
4.195 -4.005 0.295 255 240 147
4.205 -4.095 0.205 201 185 94
4.295 -4.095 0.205 201 185 94
4.205 -4.005 0.205 201 185 94
4.295 -4.005 0.205 201 185 94
4.205 -4.095 0.295 201 185 94
4.295 -4.095 0.295 201 185 94
4.205 -4.005 0.295 201 185 94
4.295 -4.005 0.295 201 185 94
4.105 -3.995 0.205 201 185 94
4.195 -3.995 0.205 201 185 94
4.105 -3.905 0.205 201 185 94
4.195 -3.905 0.205 201 185 94
4.105 -3.995 0.295 201 185 94
4.195 -3.995 0.295 201 185 94
4.105 -3.905 0.295 201 185 94
4.195 -3.905 0.295 201 185 94
4.105 -4.295 0.305 201 185 94
4.195 -4.295 0.305 201 185 94
4.105 -4.205 0.305 201 185 94
4.195 -4.205 0.305 201 185 94
4.105 -4.295 0.395 201 185 94
4.195 -4.295 0.395 201 185 94
4.105 -4.205 0.395 201 185 94
4.195 -4.205 0.395 201 185 94
3.905 -4.095 0.305 201 185 94
3.995 -4.095 0.305 201 185 94
3.905 -4.005 0.305 201 185 94
3.995 -4.005 0.305 201 185 94
3.905 -4.095 0.395 201 185 94
3.995 -4.095 0.395 201 185 94
3.905 -4.005 0.395 201 185 94
3.995 -4.005 0.395 201 185 94
4.105 -4.095 0.305 255 240 147
4.195 -4.095 0.305 255 240 147
4.105 -4.005 0.305 255 240 147
4.195 -4.005 0.305 255 240 147
4.105 -4.095 0.395 255 240 147
4.195 -4.095 0.395 255 240 147
4.105 -4.005 0.395 255 240 147
4.195 -4.005 0.395 255 240 147
4.305 -4.095 0.305 201 185 94
4.395 -4.095 0.305 201 185 94
4.305 -4.005 0.305 201 185 94
4.395 -4.005 0.305 201 185 94
4.305 -4.095 0.395 201 185 94
4.395 -4.095 0.395 201 185 94
4.305 -4.005 0.395 201 185 94
4.395 -4.005 0.395 201 185 94
4.105 -3.895 0.305 201 185 94
4.195 -3.895 0.305 201 185 94
4.105 -3.805 0.305 201 185 94
4.195 -3.805 0.305 201 185 94
4.105 -3.895 0.395 201 185 94
4.195 -3.895 0.395 201 185 94
4.105 -3.805 0.395 201 185 94
4.195 -3.805 0.395 201 185 94
4.105 -4.195 0.405 201 185 94
4.195 -4.195 0.405 201 185 94
4.105 -4.105 0.405 201 185 94
4.195 -4.105 0.405 201 185 94
4.105 -4.195 0.495 201 185 94
4.195 -4.195 0.495 201 185 94
4.105 -4.105 0.495 201 185 94
4.195 -4.105 0.495 201 185 94
4.005 -4.095 0.405 201 185 94
4.095 -4.095 0.405 201 185 94
4.005 -4.005 0.405 201 185 94
4.095 -4.005 0.405 201 185 94
4.005 -4.095 0.495 201 185 94
4.095 -4.095 0.495 201 185 94
4.005 -4.005 0.495 201 185 94
4.095 -4.005 0.495 201 185 94
4.105 -4.095 0.405 255 240 147
4.195 -4.095 0.405 255 240 147
4.105 -4.005 0.405 255 240 147
4.195 -4.005 0.405 255 240 147
4.105 -4.095 0.495 255 240 147
4.195 -4.095 0.495 255 240 147
4.105 -4.005 0.495 255 240 147
4.195 -4.005 0.495 255 240 147
4.205 -4.095 0.405 201 185 94
4.295 -4.095 0.405 201 185 94
4.205 -4.005 0.405 201 185 94
4.295 -4.005 0.405 201 185 94
4.205 -4.095 0.495 201 185 94
4.295 -4.095 0.495 201 185 94
4.205 -4.005 0.495 201 185 94
4.295 -4.005 0.495 201 185 94
4.105 -3.995 0.405 201 185 94
4.195 -3.995 0.405 201 185 94
4.105 -3.905 0.405 201 185 94
4.195 -3.905 0.405 201 185 94
4.105 -3.995 0.495 201 185 94
4.195 -3.995 0.495 201 185 94
4.105 -3.905 0.495 201 185 94
4.195 -3.905 0.495 201 185 94
4.105 -4.195 0.505 201 185 94
4.195 -4.195 0.505 201 185 94
4.105 -4.105 0.505 201 185 94
4.195 -4.105 0.505 201 185 94
4.105 -4.195 0.595 201 185 94
4.195 -4.195 0.595 201 185 94
4.105 -4.105 0.595 201 185 94
4.195 -4.105 0.595 201 185 94
4.005 -4.095 0.505 201 185 94
4.095 -4.095 0.505 201 185 94
4.005 -4.005 0.505 201 185 94
4.095 -4.005 0.505 201 185 94
4.005 -4.095 0.595 201 185 94
4.095 -4.095 0.595 201 185 94
4.005 -4.005 0.595 201 185 94
4.095 -4.005 0.595 201 185 94
4.205 -4.095 0.505 201 185 94
4.295 -4.095 0.505 201 185 94
4.205 -4.005 0.505 201 185 94
4.295 -4.005 0.505 201 185 94
4.205 -4.095 0.595 201 185 94
4.295 -4.095 0.595 201 185 94
4.205 -4.005 0.595 201 185 94
4.295 -4.005 0.595 201 185 94
4.105 -3.995 0.505 201 185 94
4.195 -3.995 0.505 201 185 94
4.105 -3.905 0.505 201 185 94
4.195 -3.905 0.505 201 185 94
4.105 -3.995 0.595 201 185 94
4.195 -3.995 0.595 201 185 94
4.105 -3.905 0.595 201 185 94
4.195 -3.905 0.595 201 185 94
4.105 -4.295 0.605 201 185 94
4.195 -4.295 0.605 201 185 94
4.105 -4.205 0.605 201 185 94
4.195 -4.205 0.605 201 185 94
4.105 -4.295 0.695 201 185 94
4.195 -4.295 0.695 201 185 94
4.105 -4.205 0.695 201 185 94
4.195 -4.205 0.695 201 185 94
3.905 -4.095 0.605 201 185 94
3.995 -4.095 0.605 201 185 94
3.905 -4.005 0.605 201 185 94
3.995 -4.005 0.605 201 185 94
3.905 -4.095 0.695 201 185 94
3.995 -4.095 0.695 201 185 94
3.905 -4.005 0.695 201 185 94
3.995 -4.005 0.695 201 185 94
4.305 -4.095 0.605 201 185 94
4.395 -4.095 0.605 201 185 94
4.305 -4.005 0.605 201 185 94
4.395 -4.005 0.605 201 185 94
4.305 -4.095 0.695 201 185 94
4.395 -4.095 0.695 201 185 94
4.305 -4.005 0.695 201 185 94
4.395 -4.005 0.695 201 185 94
4.105 -3.895 0.605 201 185 94
4.195 -3.895 0.605 201 185 94
4.105 -3.805 0.605 201 185 94
4.195 -3.805 0.605 201 185 94
4.105 -3.895 0.695 201 185 94
4.195 -3.895 0.695 201 185 94
4.105 -3.805 0.695 201 185 94
4.195 -3.805 0.695 201 185 94
4 0 4 6 2
4 1 3 7 5
4 0 1 5 4
4 2 6 7 3
4 0 2 3 1
4 4 5 7 6
4 8 12 14 10
4 9 11 15 13
4 8 9 13 12
4 10 14 15 11
4 8 10 11 9
4 12 13 15 14
4 16 20 22 18
4 17 19 23 21
4 16 17 21 20
4 18 22 23 19
4 16 18 19 17
4 20 21 23 22
4 24 28 30 26
4 25 27 31 29
4 24 25 29 28
4 26 30 31 27
4 24 26 27 25
4 28 29 31 30
4 32 36 38 34
4 33 35 39 37
4 32 33 37 36
4 34 38 39 35
4 32 34 35 33
4 36 37 39 38
4 40 44 46 42
4 41 43 47 45
4 40 41 45 44
4 42 46 47 43
4 40 42 43 41
4 44 45 47 46
4 48 52 54 50
4 49 51 55 53
4 48 49 53 52
4 50 54 55 51
4 48 50 51 49
4 52 53 55 54
4 56 60 62 58
4 57 59 63 61
4 56 57 61 60
4 58 62 63 59
4 56 58 59 57
4 60 61 63 62
4 64 68 70 66
4 65 67 71 69
4 64 65 69 68
4 66 70 71 67
4 64 66 67 65
4 68 69 71 70
4 72 76 78 74
4 73 75 79 77
4 72 73 77 76
4 74 78 79 75
4 72 74 75 73
4 76 77 79 78
4 80 84 86 82
4 81 83 87 85
4 80 81 85 84
4 82 86 87 83
4 80 82 83 81
4 84 85 87 86
4 88 92 94 90
4 89 91 95 93
4 88 89 93 92
4 90 94 95 91
4 88 90 91 89
4 92 93 95 94
4 96 100 102 98
4 97 99 103 101
4 96 97 101 100
4 98 102 103 99
4 96 98 99 97
4 100 101 103 102
4 104 108 110 106
4 105 107 111 109
4 104 105 109 108
4 106 110 111 107
4 104 106 107 105
4 108 109 111 110
4 112 116 118 114
4 113 115 119 117
4 112 113 117 116
4 114 118 119 115
4 112 114 115 113
4 116 117 119 118
4 120 124 126 122
4 121 123 127 125
4 120 121 125 124
4 122 126 127 123
4 120 122 123 121
4 124 125 127 126
4 128 132 134 130
4 129 131 135 133
4 128 129 133 132
4 130 134 135 131
4 128 130 131 129
4 132 133 135 134
4 136 140 142 138
4 137 139 143 141
4 136 137 141 140
4 138 142 143 139
4 136 138 139 137
4 140 141 143 142
4 144 148 150 146
4 145 147 151 149
4 144 145 149 148
4 146 150 151 147
4 144 146 147 145
4 148 149 151 150
4 152 156 158 154
4 153 155 159 157
4 152 153 157 156
4 154 158 159 155
4 152 154 155 153
4 156 157 159 158
4 160 164 166 162
4 161 163 167 165
4 160 161 165 164
4 162 166 167 163
4 160 162 163 161
4 164 165 167 166
4 168 172 174 170
4 169 171 175 173
4 168 169 173 172
4 170 174 175 171
4 168 170 171 169
4 172 173 175 174
4 176 180 182 178
4 177 179 183 181
4 176 177 181 180
4 178 182 183 179
4 176 178 179 177
4 180 181 183 182
4 184 188 190 186
4 185 187 191 189
4 184 185 189 188
4 186 190 191 187
4 184 186 187 185
4 188 189 191 190
4 192 196 198 194
4 193 195 199 197
4 192 193 197 196
4 194 198 199 195
4 192 194 195 193
4 196 197 199 198
4 200 204 206 202
4 201 203 207 205
4 200 201 205 204
4 202 206 207 203
4 200 202 203 201
4 204 205 207 206
4 208 212 214 210
4 209 211 215 213
4 208 209 213 212
4 210 214 215 211
4 208 210 211 209
4 212 213 215 214
4 216 220 222 218
4 217 219 223 221
4 216 217 221 220
4 218 222 223 219
4 216 218 219 217
4 220 221 223 222
4 224 228 230 226
4 225 227 231 229
4 224 225 229 228
4 226 230 231 227
4 224 226 227 225
4 228 229 231 230
