ply
format ascii 1.0
comment : MagicaVoxel @ Ephtracy
element vertex 40
property float x
property float y
property float z
property uchar red
property uchar green
property uchar blue
element face 30
property list uchar int vertex_index
end_header
5.305 -4.095 0.005 255 240 147
5.395 -4.095 0.005 255 240 147
5.305 -4.005 0.005 255 240 147
5.395 -4.005 0.005 255 240 147
5.305 -4.095 0.095 255 240 147
5.395 -4.095 0.095 255 240 147
5.305 -4.005 0.095 255 240 147
5.395 -4.005 0.095 255 240 147
5.305 -4.195 0.105 201 185 94
5.395 -4.195 0.105 201 185 94
5.305 -4.105 0.105 201 185 94
5.395 -4.105 0.105 201 185 94
5.305 -4.195 0.195 201 185 94
5.395 -4.195 0.195 201 185 94
5.305 -4.105 0.195 201 185 94
5.395 -4.105 0.195 201 185 94
5.205 -4.095 0.105 201 185 94
5.295 -4.095 0.105 201 185 94
5.205 -4.005 0.105 201 185 94
5.295 -4.005 0.105 201 185 94
5.205 -4.095 0.195 201 185 94
5.295 -4.095 0.195 201 185 94
5.205 -4.005 0.195 201 185 94
5.295 -4.005 0.195 201 185 94
5.405 -4.095 0.105 201 185 94
5.495 -4.095 0.105 201 185 94
5.405 -4.005 0.105 201 185 94
5.495 -4.005 0.105 201 185 94
5.405 -4.095 0.195 201 185 94
5.495 -4.095 0.195 201 185 94
5.405 -4.005 0.195 201 185 94
5.495 -4.005 0.195 201 185 94
5.305 -3.995 0.105 201 185 94
5.395 -3.995 0.105 201 185 94
5.305 -3.905 0.105 201 185 94
5.395 -3.905 0.105 201 185 94
5.305 -3.995 0.195 201 185 94
5.395 -3.995 0.195 201 185 94
5.305 -3.905 0.195 201 185 94
5.395 -3.905 0.195 201 185 94
4 0 4 6 2
4 1 3 7 5
4 0 1 5 4
4 2 6 7 3
4 0 2 3 1
4 4 5 7 6
4 8 12 14 10
4 9 11 15 13
4 8 9 13 12
4 10 14 15 11
4 8 10 11 9
4 12 13 15 14
4 16 20 22 18
4 17 19 23 21
4 16 17 21 20
4 18 22 23 19
4 16 18 19 17
4 20 21 23 22
4 24 28 30 26
4 25 27 31 29
4 24 25 29 28
4 26 30 31 27
4 24 26 27 25
4 28 29 31 30
4 32 36 38 34
4 33 35 39 37
4 32 33 37 36
4 34 38 39 35
4 32 34 35 33
4 36 37 39 38
