ply
format ascii 1.0
comment : MagicaVoxel @ Ephtracy
element vertex 1912
property float x
property float y
property float z
property uchar red
property uchar green
property uchar blue
element face 1434
property list uchar int vertex_index
end_header
2.005 -1.895 0.005 100 73 32
2.095 -1.895 0.005 100 73 32
2.005 -1.805 0.005 100 73 32
2.095 -1.805 0.005 100 73 32
2.005 -1.895 0.095 100 73 32
2.095 -1.895 0.095 100 73 32
2.005 -1.805 0.095 100 73 32
2.095 -1.805 0.095 100 73 32
2.105 -1.895 0.005 100 73 32
2.195 -1.895 0.005 100 73 32
2.105 -1.805 0.005 100 73 32
2.195 -1.805 0.005 100 73 32
2.105 -1.895 0.095 100 73 32
2.195 -1.895 0.095 100 73 32
2.105 -1.805 0.095 100 73 32
2.195 -1.805 0.095 100 73 32
2.205 -1.895 0.005 100 73 32
2.295 -1.895 0.005 100 73 32
2.205 -1.805 0.005 100 73 32
2.295 -1.805 0.005 100 73 32
2.205 -1.895 0.095 100 73 32
2.295 -1.895 0.095 100 73 32
2.205 -1.805 0.095 100 73 32
2.295 -1.805 0.095 100 73 32
1.905 -1.795 0.005 100 73 32
1.995 -1.795 0.005 100 73 32
1.905 -1.705 0.005 100 73 32
1.995 -1.705 0.005 100 73 32
1.905 -1.795 0.095 100 73 32
1.995 -1.795 0.095 100 73 32
1.905 -1.705 0.095 100 73 32
1.995 -1.705 0.095 100 73 32
2.005 -1.795 0.005 100 73 32
2.095 -1.795 0.005 100 73 32
2.005 -1.705 0.005 100 73 32
2.095 -1.705 0.005 100 73 32
2.005 -1.795 0.095 100 73 32
2.095 -1.795 0.095 100 73 32
2.005 -1.705 0.095 100 73 32
2.095 -1.705 0.095 100 73 32
2.105 -1.795 0.005 100 73 32
2.195 -1.795 0.005 100 73 32
2.105 -1.705 0.005 100 73 32
2.195 -1.705 0.005 100 73 32
2.105 -1.795 0.095 100 73 32
2.195 -1.795 0.095 100 73 32
2.105 -1.705 0.095 100 73 32
2.195 -1.705 0.095 100 73 32
2.205 -1.795 0.005 100 73 32
2.295 -1.795 0.005 100 73 32
2.205 -1.705 0.005 100 73 32
2.295 -1.705 0.005 100 73 32
2.205 -1.795 0.095 100 73 32
2.295 -1.795 0.095 100 73 32
2.205 -1.705 0.095 100 73 32
2.295 -1.705 0.095 100 73 32
2.305 -1.795 0.005 100 73 32
2.395 -1.795 0.005 100 73 32
2.305 -1.705 0.005 100 73 32
2.395 -1.705 0.005 100 73 32
2.305 -1.795 0.095 100 73 32
2.395 -1.795 0.095 100 73 32
2.305 -1.705 0.095 100 73 32
2.395 -1.705 0.095 100 73 32
1.805 -1.695 0.005 100 73 32
1.895 -1.695 0.005 100 73 32
1.805 -1.605 0.005 100 73 32
1.895 -1.605 0.005 100 73 32
1.805 -1.695 0.095 100 73 32
1.895 -1.695 0.095 100 73 32
1.805 -1.605 0.095 100 73 32
1.895 -1.605 0.095 100 73 32
1.905 -1.695 0.005 100 73 32
1.995 -1.695 0.005 100 73 32
1.905 -1.605 0.005 100 73 32
1.995 -1.605 0.005 100 73 32
1.905 -1.695 0.095 100 73 32
1.995 -1.695 0.095 100 73 32
1.905 -1.605 0.095 100 73 32
1.995 -1.605 0.095 100 73 32
2.005 -1.695 0.005 111 84 43
2.095 -1.695 0.005 111 84 43
2.005 -1.605 0.005 111 84 43
2.095 -1.605 0.005 111 84 43
2.005 -1.695 0.095 111 84 43
2.095 -1.695 0.095 111 84 43
2.005 -1.605 0.095 111 84 43
2.095 -1.605 0.095 111 84 43
2.105 -1.695 0.005 111 84 43
2.195 -1.695 0.005 111 84 43
2.105 -1.605 0.005 111 84 43
2.195 -1.605 0.005 111 84 43
2.105 -1.695 0.095 111 84 43
2.195 -1.695 0.095 111 84 43
2.105 -1.605 0.095 111 84 43
2.195 -1.605 0.095 111 84 43
2.205 -1.695 0.005 111 84 43
2.295 -1.695 0.005 111 84 43
2.205 -1.605 0.005 111 84 43
2.295 -1.605 0.005 111 84 43
2.205 -1.695 0.095 111 84 43
2.295 -1.695 0.095 111 84 43
2.205 -1.605 0.095 111 84 43
2.295 -1.605 0.095 111 84 43
2.305 -1.695 0.005 100 73 32
2.395 -1.695 0.005 100 73 32
2.305 -1.605 0.005 100 73 32
2.395 -1.605 0.005 100 73 32
2.305 -1.695 0.095 100 73 32
2.395 -1.695 0.095 100 73 32
2.305 -1.605 0.095 100 73 32
2.395 -1.605 0.095 100 73 32
2.405 -1.695 0.005 100 73 32
2.495 -1.695 0.005 100 73 32
2.405 -1.605 0.005 100 73 32
2.495 -1.605 0.005 100 73 32
2.405 -1.695 0.095 100 73 32
2.495 -1.695 0.095 100 73 32
2.405 -1.605 0.095 100 73 32
2.495 -1.605 0.095 100 73 32
1.705 -1.595 0.005 100 73 32
1.795 -1.595 0.005 100 73 32
1.705 -1.505 0.005 100 73 32
1.795 -1.505 0.005 100 73 32
1.705 -1.595 0.095 100 73 32
1.795 -1.595 0.095 100 73 32
1.705 -1.505 0.095 100 73 32
1.795 -1.505 0.095 100 73 32
1.805 -1.595 0.005 100 73 32
1.895 -1.595 0.005 100 73 32
1.805 -1.505 0.005 100 73 32
1.895 -1.505 0.005 100 73 32
1.805 -1.595 0.095 100 73 32
1.895 -1.595 0.095 100 73 32
1.805 -1.505 0.095 100 73 32
1.895 -1.505 0.095 100 73 32
1.905 -1.595 0.005 111 84 43
1.995 -1.595 0.005 111 84 43
1.905 -1.505 0.005 111 84 43
1.995 -1.505 0.005 111 84 43
1.905 -1.595 0.095 111 84 43
1.995 -1.595 0.095 111 84 43
1.905 -1.505 0.095 111 84 43
1.995 -1.505 0.095 111 84 43
2.005 -1.595 0.005 111 84 43
2.095 -1.595 0.005 111 84 43
2.005 -1.505 0.005 111 84 43
2.095 -1.505 0.005 111 84 43
2.005 -1.595 0.095 111 84 43
2.095 -1.595 0.095 111 84 43
2.005 -1.505 0.095 111 84 43
2.095 -1.505 0.095 111 84 43
2.105 -1.595 0.005 111 84 43
2.195 -1.595 0.005 111 84 43
2.105 -1.505 0.005 111 84 43
2.195 -1.505 0.005 111 84 43
2.105 -1.595 0.095 111 84 43
2.195 -1.595 0.095 111 84 43
2.105 -1.505 0.095 111 84 43
2.195 -1.505 0.095 111 84 43
2.205 -1.595 0.005 111 84 43
2.295 -1.595 0.005 111 84 43
2.205 -1.505 0.005 111 84 43
2.295 -1.505 0.005 111 84 43
2.205 -1.595 0.095 111 84 43
2.295 -1.595 0.095 111 84 43
2.205 -1.505 0.095 111 84 43
2.295 -1.505 0.095 111 84 43
2.305 -1.595 0.005 111 84 43
2.395 -1.595 0.005 111 84 43
2.305 -1.505 0.005 111 84 43
2.395 -1.505 0.005 111 84 43
2.305 -1.595 0.095 111 84 43
2.395 -1.595 0.095 111 84 43
2.305 -1.505 0.095 111 84 43
2.395 -1.505 0.095 111 84 43
2.405 -1.595 0.005 100 73 32
2.495 -1.595 0.005 100 73 32
2.405 -1.505 0.005 100 73 32
2.495 -1.505 0.005 100 73 32
2.405 -1.595 0.095 100 73 32
2.495 -1.595 0.095 100 73 32
2.405 -1.505 0.095 100 73 32
2.495 -1.505 0.095 100 73 32
2.505 -1.595 0.005 100 73 32
2.595 -1.595 0.005 100 73 32
2.505 -1.505 0.005 100 73 32
2.595 -1.505 0.005 100 73 32
2.505 -1.595 0.095 100 73 32
2.595 -1.595 0.095 100 73 32
2.505 -1.505 0.095 100 73 32
2.595 -1.505 0.095 100 73 32
1.605 -1.495 0.005 100 73 32
1.695 -1.495 0.005 100 73 32
1.605 -1.405 0.005 100 73 32
1.695 -1.405 0.005 100 73 32
1.605 -1.495 0.095 100 73 32
1.695 -1.495 0.095 100 73 32
1.605 -1.405 0.095 100 73 32
1.695 -1.405 0.095 100 73 32
1.705 -1.495 0.005 100 73 32
1.795 -1.495 0.005 100 73 32
1.705 -1.405 0.005 100 73 32
1.795 -1.405 0.005 100 73 32
1.705 -1.495 0.095 100 73 32
1.795 -1.495 0.095 100 73 32
1.705 -1.405 0.095 100 73 32
1.795 -1.405 0.095 100 73 32
1.805 -1.495 0.005 111 84 43
1.895 -1.495 0.005 111 84 43
1.805 -1.405 0.005 111 84 43
1.895 -1.405 0.005 111 84 43
1.805 -1.495 0.095 111 84 43
1.895 -1.495 0.095 111 84 43
1.805 -1.405 0.095 111 84 43
1.895 -1.405 0.095 111 84 43
1.905 -1.495 0.005 111 84 43
1.995 -1.495 0.005 111 84 43
1.905 -1.405 0.005 111 84 43
1.995 -1.405 0.005 111 84 43
1.905 -1.495 0.095 111 84 43
1.995 -1.495 0.095 111 84 43
1.905 -1.405 0.095 111 84 43
1.995 -1.405 0.095 111 84 43
2.005 -1.495 0.005 111 84 43
2.095 -1.495 0.005 111 84 43
2.005 -1.405 0.005 111 84 43
2.095 -1.405 0.005 111 84 43
2.005 -1.495 0.095 111 84 43
2.095 -1.495 0.095 111 84 43
2.005 -1.405 0.095 111 84 43
2.095 -1.405 0.095 111 84 43
2.105 -1.495 0.005 111 84 43
2.195 -1.495 0.005 111 84 43
2.105 -1.405 0.005 111 84 43
2.195 -1.405 0.005 111 84 43
2.105 -1.495 0.095 111 84 43
2.195 -1.495 0.095 111 84 43
2.105 -1.405 0.095 111 84 43
2.195 -1.405 0.095 111 84 43
2.205 -1.495 0.005 111 84 43
2.295 -1.495 0.005 111 84 43
2.205 -1.405 0.005 111 84 43
2.295 -1.405 0.005 111 84 43
2.205 -1.495 0.095 111 84 43
2.295 -1.495 0.095 111 84 43
2.205 -1.405 0.095 111 84 43
2.295 -1.405 0.095 111 84 43
2.305 -1.495 0.005 111 84 43
2.395 -1.495 0.005 111 84 43
2.305 -1.405 0.005 111 84 43
2.395 -1.405 0.005 111 84 43
2.305 -1.495 0.095 111 84 43
2.395 -1.495 0.095 111 84 43
2.305 -1.405 0.095 111 84 43
2.395 -1.405 0.095 111 84 43
2.405 -1.495 0.005 111 84 43
2.495 -1.495 0.005 111 84 43
2.405 -1.405 0.005 111 84 43
2.495 -1.405 0.005 111 84 43
2.405 -1.495 0.095 111 84 43
2.495 -1.495 0.095 111 84 43
2.405 -1.405 0.095 111 84 43
2.495 -1.405 0.095 111 84 43
2.505 -1.495 0.005 100 73 32
2.595 -1.495 0.005 100 73 32
2.505 -1.405 0.005 100 73 32
2.595 -1.405 0.005 100 73 32
2.505 -1.495 0.095 100 73 32
2.595 -1.495 0.095 100 73 32
2.505 -1.405 0.095 100 73 32
2.595 -1.405 0.095 100 73 32
2.605 -1.495 0.005 100 73 32
2.695 -1.495 0.005 100 73 32
2.605 -1.405 0.005 100 73 32
2.695 -1.405 0.005 100 73 32
2.605 -1.495 0.095 100 73 32
2.695 -1.495 0.095 100 73 32
2.605 -1.405 0.095 100 73 32
2.695 -1.405 0.095 100 73 32
1.605 -1.395 0.005 100 73 32
1.695 -1.395 0.005 100 73 32
1.605 -1.305 0.005 100 73 32
1.695 -1.305 0.005 100 73 32
1.605 -1.395 0.095 100 73 32
1.695 -1.395 0.095 100 73 32
1.605 -1.305 0.095 100 73 32
1.695 -1.305 0.095 100 73 32
1.705 -1.395 0.005 100 73 32
1.795 -1.395 0.005 100 73 32
1.705 -1.305 0.005 100 73 32
1.795 -1.305 0.005 100 73 32
1.705 -1.395 0.095 100 73 32
1.795 -1.395 0.095 100 73 32
1.705 -1.305 0.095 100 73 32
1.795 -1.305 0.095 100 73 32
1.805 -1.395 0.005 111 84 43
1.895 -1.395 0.005 111 84 43
1.805 -1.305 0.005 111 84 43
1.895 -1.305 0.005 111 84 43
1.805 -1.395 0.095 111 84 43
1.895 -1.395 0.095 111 84 43
1.805 -1.305 0.095 111 84 43
1.895 -1.305 0.095 111 84 43
1.905 -1.395 0.005 111 84 43
1.995 -1.395 0.005 111 84 43
1.905 -1.305 0.005 111 84 43
1.995 -1.305 0.005 111 84 43
1.905 -1.395 0.095 111 84 43
1.995 -1.395 0.095 111 84 43
1.905 -1.305 0.095 111 84 43
1.995 -1.305 0.095 111 84 43
2.005 -1.395 0.005 111 84 43
2.095 -1.395 0.005 111 84 43
2.005 -1.305 0.005 111 84 43
2.095 -1.305 0.005 111 84 43
2.005 -1.395 0.095 111 84 43
2.095 -1.395 0.095 111 84 43
2.005 -1.305 0.095 111 84 43
2.095 -1.305 0.095 111 84 43
2.105 -1.395 0.005 100 73 32
2.195 -1.395 0.005 100 73 32
2.105 -1.305 0.005 100 73 32
2.195 -1.305 0.005 100 73 32
2.105 -1.395 0.095 100 73 32
2.195 -1.395 0.095 100 73 32
2.105 -1.305 0.095 100 73 32
2.195 -1.305 0.095 100 73 32
2.205 -1.395 0.005 111 84 43
2.295 -1.395 0.005 111 84 43
2.205 -1.305 0.005 111 84 43
2.295 -1.305 0.005 111 84 43
2.205 -1.395 0.095 111 84 43
2.295 -1.395 0.095 111 84 43
2.205 -1.305 0.095 111 84 43
2.295 -1.305 0.095 111 84 43
2.305 -1.395 0.005 111 84 43
2.395 -1.395 0.005 111 84 43
2.305 -1.305 0.005 111 84 43
2.395 -1.305 0.005 111 84 43
2.305 -1.395 0.095 111 84 43
2.395 -1.395 0.095 111 84 43
2.305 -1.305 0.095 111 84 43
2.395 -1.305 0.095 111 84 43
2.405 -1.395 0.005 111 84 43
2.495 -1.395 0.005 111 84 43
2.405 -1.305 0.005 111 84 43
2.495 -1.305 0.005 111 84 43
2.405 -1.395 0.095 111 84 43
2.495 -1.395 0.095 111 84 43
2.405 -1.305 0.095 111 84 43
2.495 -1.305 0.095 111 84 43
2.505 -1.395 0.005 100 73 32
2.595 -1.395 0.005 100 73 32
2.505 -1.305 0.005 100 73 32
2.595 -1.305 0.005 100 73 32
2.505 -1.395 0.095 100 73 32
2.595 -1.395 0.095 100 73 32
2.505 -1.305 0.095 100 73 32
2.595 -1.305 0.095 100 73 32
2.605 -1.395 0.005 100 73 32
2.695 -1.395 0.005 100 73 32
2.605 -1.305 0.005 100 73 32
2.695 -1.305 0.005 100 73 32
2.605 -1.395 0.095 100 73 32
2.695 -1.395 0.095 100 73 32
2.605 -1.305 0.095 100 73 32
2.695 -1.305 0.095 100 73 32
1.605 -1.295 0.005 100 73 32
1.695 -1.295 0.005 100 73 32
1.605 -1.205 0.005 100 73 32
1.695 -1.205 0.005 100 73 32
1.605 -1.295 0.095 100 73 32
1.695 -1.295 0.095 100 73 32
1.605 -1.205 0.095 100 73 32
1.695 -1.205 0.095 100 73 32
1.705 -1.295 0.005 100 73 32
1.795 -1.295 0.005 100 73 32
1.705 -1.205 0.005 100 73 32
1.795 -1.205 0.005 100 73 32
1.705 -1.295 0.095 100 73 32
1.795 -1.295 0.095 100 73 32
1.705 -1.205 0.095 100 73 32
1.795 -1.205 0.095 100 73 32
1.805 -1.295 0.005 111 84 43
1.895 -1.295 0.005 111 84 43
1.805 -1.205 0.005 111 84 43
1.895 -1.205 0.005 111 84 43
1.805 -1.295 0.095 111 84 43
1.895 -1.295 0.095 111 84 43
1.805 -1.205 0.095 111 84 43
1.895 -1.205 0.095 111 84 43
1.905 -1.295 0.005 111 84 43
1.995 -1.295 0.005 111 84 43
1.905 -1.205 0.005 111 84 43
1.995 -1.205 0.005 111 84 43
1.905 -1.295 0.095 111 84 43
1.995 -1.295 0.095 111 84 43
1.905 -1.205 0.095 111 84 43
1.995 -1.205 0.095 111 84 43
2.005 -1.295 0.005 111 84 43
2.095 -1.295 0.005 111 84 43
2.005 -1.205 0.005 111 84 43
2.095 -1.205 0.005 111 84 43
2.005 -1.295 0.095 111 84 43
2.095 -1.295 0.095 111 84 43
2.005 -1.205 0.095 111 84 43
2.095 -1.205 0.095 111 84 43
2.105 -1.295 0.005 111 84 43
2.195 -1.295 0.005 111 84 43
2.105 -1.205 0.005 111 84 43
2.195 -1.205 0.005 111 84 43
2.105 -1.295 0.095 111 84 43
2.195 -1.295 0.095 111 84 43
2.105 -1.205 0.095 111 84 43
2.195 -1.205 0.095 111 84 43
2.205 -1.295 0.005 111 84 43
2.295 -1.295 0.005 111 84 43
2.205 -1.205 0.005 111 84 43
2.295 -1.205 0.005 111 84 43
2.205 -1.295 0.095 111 84 43
2.295 -1.295 0.095 111 84 43
2.205 -1.205 0.095 111 84 43
2.295 -1.205 0.095 111 84 43
2.305 -1.295 0.005 111 84 43
2.395 -1.295 0.005 111 84 43
2.305 -1.205 0.005 111 84 43
2.395 -1.205 0.005 111 84 43
2.305 -1.295 0.095 111 84 43
2.395 -1.295 0.095 111 84 43
2.305 -1.205 0.095 111 84 43
2.395 -1.205 0.095 111 84 43
2.405 -1.295 0.005 111 84 43
2.495 -1.295 0.005 111 84 43
2.405 -1.205 0.005 111 84 43
2.495 -1.205 0.005 111 84 43
2.405 -1.295 0.095 111 84 43
2.495 -1.295 0.095 111 84 43
2.405 -1.205 0.095 111 84 43
2.495 -1.205 0.095 111 84 43
2.505 -1.295 0.005 100 73 32
2.595 -1.295 0.005 100 73 32
2.505 -1.205 0.005 100 73 32
2.595 -1.205 0.005 100 73 32
2.505 -1.295 0.095 100 73 32
2.595 -1.295 0.095 100 73 32
2.505 -1.205 0.095 100 73 32
2.595 -1.205 0.095 100 73 32
2.605 -1.295 0.005 100 73 32
2.695 -1.295 0.005 100 73 32
2.605 -1.205 0.005 100 73 32
2.695 -1.205 0.005 100 73 32
2.605 -1.295 0.095 100 73 32
2.695 -1.295 0.095 100 73 32
2.605 -1.205 0.095 100 73 32
2.695 -1.205 0.095 100 73 32
1.705 -1.195 0.005 100 73 32
1.795 -1.195 0.005 100 73 32
1.705 -1.105 0.005 100 73 32
1.795 -1.105 0.005 100 73 32
1.705 -1.195 0.095 100 73 32
1.795 -1.195 0.095 100 73 32
1.705 -1.105 0.095 100 73 32
1.795 -1.105 0.095 100 73 32
1.805 -1.195 0.005 100 73 32
1.895 -1.195 0.005 100 73 32
1.805 -1.105 0.005 100 73 32
1.895 -1.105 0.005 100 73 32
1.805 -1.195 0.095 100 73 32
1.895 -1.195 0.095 100 73 32
1.805 -1.105 0.095 100 73 32
1.895 -1.105 0.095 100 73 32
1.905 -1.195 0.005 111 84 43
1.995 -1.195 0.005 111 84 43
1.905 -1.105 0.005 111 84 43
1.995 -1.105 0.005 111 84 43
1.905 -1.195 0.095 111 84 43
1.995 -1.195 0.095 111 84 43
1.905 -1.105 0.095 111 84 43
1.995 -1.105 0.095 111 84 43
2.005 -1.195 0.005 100 73 32
2.095 -1.195 0.005 100 73 32
2.005 -1.105 0.005 100 73 32
2.095 -1.105 0.005 100 73 32
2.005 -1.195 0.095 100 73 32
2.095 -1.195 0.095 100 73 32
2.005 -1.105 0.095 100 73 32
2.095 -1.105 0.095 100 73 32
2.105 -1.195 0.005 100 73 32
2.195 -1.195 0.005 100 73 32
2.105 -1.105 0.005 100 73 32
2.195 -1.105 0.005 100 73 32
2.105 -1.195 0.095 100 73 32
2.195 -1.195 0.095 100 73 32
2.105 -1.105 0.095 100 73 32
2.195 -1.105 0.095 100 73 32
2.205 -1.195 0.005 100 73 32
2.295 -1.195 0.005 100 73 32
2.205 -1.105 0.005 100 73 32
2.295 -1.105 0.005 100 73 32
2.205 -1.195 0.095 100 73 32
2.295 -1.195 0.095 100 73 32
2.205 -1.105 0.095 100 73 32
2.295 -1.105 0.095 100 73 32
2.305 -1.195 0.005 111 84 43
2.395 -1.195 0.005 111 84 43
2.305 -1.105 0.005 111 84 43
2.395 -1.105 0.005 111 84 43
2.305 -1.195 0.095 111 84 43
2.395 -1.195 0.095 111 84 43
2.305 -1.105 0.095 111 84 43
2.395 -1.105 0.095 111 84 43
2.405 -1.195 0.005 100 73 32
2.495 -1.195 0.005 100 73 32
2.405 -1.105 0.005 100 73 32
2.495 -1.105 0.005 100 73 32
2.405 -1.195 0.095 100 73 32
2.495 -1.195 0.095 100 73 32
2.405 -1.105 0.095 100 73 32
2.495 -1.105 0.095 100 73 32
2.505 -1.195 0.005 100 73 32
2.595 -1.195 0.005 100 73 32
2.505 -1.105 0.005 100 73 32
2.595 -1.105 0.005 100 73 32
2.505 -1.195 0.095 100 73 32
2.595 -1.195 0.095 100 73 32
2.505 -1.105 0.095 100 73 32
2.595 -1.105 0.095 100 73 32
1.805 -1.095 0.005 100 73 32
1.895 -1.095 0.005 100 73 32
1.805 -1.005 0.005 100 73 32
1.895 -1.005 0.005 100 73 32
1.805 -1.095 0.095 100 73 32
1.895 -1.095 0.095 100 73 32
1.805 -1.005 0.095 100 73 32
1.895 -1.005 0.095 100 73 32
1.905 -1.095 0.005 100 73 32
1.995 -1.095 0.005 100 73 32
1.905 -1.005 0.005 100 73 32
1.995 -1.005 0.005 100 73 32
1.905 -1.095 0.095 100 73 32
1.995 -1.095 0.095 100 73 32
1.905 -1.005 0.095 100 73 32
1.995 -1.005 0.095 100 73 32
2.005 -1.095 0.005 111 84 43
2.095 -1.095 0.005 111 84 43
2.005 -1.005 0.005 111 84 43
2.095 -1.005 0.005 111 84 43
2.005 -1.095 0.095 111 84 43
2.095 -1.095 0.095 111 84 43
2.005 -1.005 0.095 111 84 43
2.095 -1.005 0.095 111 84 43
2.105 -1.095 0.005 111 84 43
2.195 -1.095 0.005 111 84 43
2.105 -1.005 0.005 111 84 43
2.195 -1.005 0.005 111 84 43
2.105 -1.095 0.095 111 84 43
2.195 -1.095 0.095 111 84 43
2.105 -1.005 0.095 111 84 43
2.195 -1.005 0.095 111 84 43
2.205 -1.095 0.005 111 84 43
2.295 -1.095 0.005 111 84 43
2.205 -1.005 0.005 111 84 43
2.295 -1.005 0.005 111 84 43
2.205 -1.095 0.095 111 84 43
2.295 -1.095 0.095 111 84 43
2.205 -1.005 0.095 111 84 43
2.295 -1.005 0.095 111 84 43
2.305 -1.095 0.005 100 73 32
2.395 -1.095 0.005 100 73 32
2.305 -1.005 0.005 100 73 32
2.395 -1.005 0.005 100 73 32
2.305 -1.095 0.095 100 73 32
2.395 -1.095 0.095 100 73 32
2.305 -1.005 0.095 100 73 32
2.395 -1.005 0.095 100 73 32
2.405 -1.095 0.005 100 73 32
2.495 -1.095 0.005 100 73 32
2.405 -1.005 0.005 100 73 32
2.495 -1.005 0.005 100 73 32
2.405 -1.095 0.095 100 73 32
2.495 -1.095 0.095 100 73 32
2.405 -1.005 0.095 100 73 32
2.495 -1.005 0.095 100 73 32
1.905 -0.995 0.005 100 73 32
1.995 -0.995 0.005 100 73 32
1.905 -0.905 0.005 100 73 32
1.995 -0.905 0.005 100 73 32
1.905 -0.995 0.095 100 73 32
1.995 -0.995 0.095 100 73 32
1.905 -0.905 0.095 100 73 32
1.995 -0.905 0.095 100 73 32
2.005 -0.995 0.005 100 73 32
2.095 -0.995 0.005 100 73 32
2.005 -0.905 0.005 100 73 32
2.095 -0.905 0.005 100 73 32
2.005 -0.995 0.095 100 73 32
2.095 -0.995 0.095 100 73 32
2.005 -0.905 0.095 100 73 32
2.095 -0.905 0.095 100 73 32
2.105 -0.995 0.005 100 73 32
2.195 -0.995 0.005 100 73 32
2.105 -0.905 0.005 100 73 32
2.195 -0.905 0.005 100 73 32
2.105 -0.995 0.095 100 73 32
2.195 -0.995 0.095 100 73 32
2.105 -0.905 0.095 100 73 32
2.195 -0.905 0.095 100 73 32
2.205 -0.995 0.005 100 73 32
2.295 -0.995 0.005 100 73 32
2.205 -0.905 0.005 100 73 32
2.295 -0.905 0.005 100 73 32
2.205 -0.995 0.095 100 73 32
2.295 -0.995 0.095 100 73 32
2.205 -0.905 0.095 100 73 32
2.295 -0.905 0.095 100 73 32
2.305 -0.995 0.005 100 73 32
2.395 -0.995 0.005 100 73 32
2.305 -0.905 0.005 100 73 32
2.395 -0.905 0.005 100 73 32
2.305 -0.995 0.095 100 73 32
2.395 -0.995 0.095 100 73 32
2.305 -0.905 0.095 100 73 32
2.395 -0.905 0.095 100 73 32
2.005 -0.895 0.005 100 73 32
2.095 -0.895 0.005 100 73 32
2.005 -0.805 0.005 100 73 32
2.095 -0.805 0.005 100 73 32
2.005 -0.895 0.095 100 73 32
2.095 -0.895 0.095 100 73 32
2.005 -0.805 0.095 100 73 32
2.095 -0.805 0.095 100 73 32
2.105 -0.895 0.005 100 73 32
2.195 -0.895 0.005 100 73 32
2.105 -0.805 0.005 100 73 32
2.195 -0.805 0.005 100 73 32
2.105 -0.895 0.095 100 73 32
2.195 -0.895 0.095 100 73 32
2.105 -0.805 0.095 100 73 32
2.195 -0.805 0.095 100 73 32
2.205 -0.895 0.005 100 73 32
2.295 -0.895 0.005 100 73 32
2.205 -0.805 0.005 100 73 32
2.295 -0.805 0.005 100 73 32
2.205 -0.895 0.095 100 73 32
2.295 -0.895 0.095 100 73 32
2.205 -0.805 0.095 100 73 32
2.295 -0.805 0.095 100 73 32
2.105 -1.895 0.105 100 73 32
2.195 -1.895 0.105 100 73 32
2.105 -1.805 0.105 100 73 32
2.195 -1.805 0.105 100 73 32
2.105 -1.895 0.195 100 73 32
2.195 -1.895 0.195 100 73 32
2.105 -1.805 0.195 100 73 32
2.195 -1.805 0.195 100 73 32
1.905 -1.795 0.105 100 73 32
1.995 -1.795 0.105 100 73 32
1.905 -1.705 0.105 100 73 32
1.995 -1.705 0.105 100 73 32
1.905 -1.795 0.195 100 73 32
1.995 -1.795 0.195 100 73 32
1.905 -1.705 0.195 100 73 32
1.995 -1.705 0.195 100 73 32
2.005 -1.795 0.105 100 73 32
2.095 -1.795 0.105 100 73 32
2.005 -1.705 0.105 100 73 32
2.095 -1.705 0.105 100 73 32
2.005 -1.795 0.195 100 73 32
2.095 -1.795 0.195 100 73 32
2.005 -1.705 0.195 100 73 32
2.095 -1.705 0.195 100 73 32
2.105 -1.795 0.105 100 73 32
2.195 -1.795 0.105 100 73 32
2.105 -1.705 0.105 100 73 32
2.195 -1.705 0.105 100 73 32
2.105 -1.795 0.195 100 73 32
2.195 -1.795 0.195 100 73 32
2.105 -1.705 0.195 100 73 32
2.195 -1.705 0.195 100 73 32
2.205 -1.795 0.105 100 73 32
2.295 -1.795 0.105 100 73 32
2.205 -1.705 0.105 100 73 32
2.295 -1.705 0.105 100 73 32
2.205 -1.795 0.195 100 73 32
2.295 -1.795 0.195 100 73 32
2.205 -1.705 0.195 100 73 32
2.295 -1.705 0.195 100 73 32
2.305 -1.795 0.105 100 73 32
2.395 -1.795 0.105 100 73 32
2.305 -1.705 0.105 100 73 32
2.395 -1.705 0.105 100 73 32
2.305 -1.795 0.195 100 73 32
2.395 -1.795 0.195 100 73 32
2.305 -1.705 0.195 100 73 32
2.395 -1.705 0.195 100 73 32
1.805 -1.695 0.105 100 73 32
1.895 -1.695 0.105 100 73 32
1.805 -1.605 0.105 100 73 32
1.895 -1.605 0.105 100 73 32
1.805 -1.695 0.195 100 73 32
1.895 -1.695 0.195 100 73 32
1.805 -1.605 0.195 100 73 32
1.895 -1.605 0.195 100 73 32
1.905 -1.695 0.105 100 73 32
1.995 -1.695 0.105 100 73 32
1.905 -1.605 0.105 100 73 32
1.995 -1.605 0.105 100 73 32
1.905 -1.695 0.195 100 73 32
1.995 -1.695 0.195 100 73 32
1.905 -1.605 0.195 100 73 32
1.995 -1.605 0.195 100 73 32
2.005 -1.695 0.105 111 84 43
2.095 -1.695 0.105 111 84 43
2.005 -1.605 0.105 111 84 43
2.095 -1.605 0.105 111 84 43
2.005 -1.695 0.195 111 84 43
2.095 -1.695 0.195 111 84 43
2.005 -1.605 0.195 111 84 43
2.095 -1.605 0.195 111 84 43
2.105 -1.695 0.105 111 84 43
2.195 -1.695 0.105 111 84 43
2.105 -1.605 0.105 111 84 43
2.195 -1.605 0.105 111 84 43
2.105 -1.695 0.195 111 84 43
2.195 -1.695 0.195 111 84 43
2.105 -1.605 0.195 111 84 43
2.195 -1.605 0.195 111 84 43
2.205 -1.695 0.105 111 84 43
2.295 -1.695 0.105 111 84 43
2.205 -1.605 0.105 111 84 43
2.295 -1.605 0.105 111 84 43
2.205 -1.695 0.195 111 84 43
2.295 -1.695 0.195 111 84 43
2.205 -1.605 0.195 111 84 43
2.295 -1.605 0.195 111 84 43
2.305 -1.695 0.105 100 73 32
2.395 -1.695 0.105 100 73 32
2.305 -1.605 0.105 100 73 32
2.395 -1.605 0.105 100 73 32
2.305 -1.695 0.195 100 73 32
2.395 -1.695 0.195 100 73 32
2.305 -1.605 0.195 100 73 32
2.395 -1.605 0.195 100 73 32
2.405 -1.695 0.105 100 73 32
2.495 -1.695 0.105 100 73 32
2.405 -1.605 0.105 100 73 32
2.495 -1.605 0.105 100 73 32
2.405 -1.695 0.195 100 73 32
2.495 -1.695 0.195 100 73 32
2.405 -1.605 0.195 100 73 32
2.495 -1.605 0.195 100 73 32
1.705 -1.595 0.105 100 73 32
1.795 -1.595 0.105 100 73 32
1.705 -1.505 0.105 100 73 32
1.795 -1.505 0.105 100 73 32
1.705 -1.595 0.195 100 73 32
1.795 -1.595 0.195 100 73 32
1.705 -1.505 0.195 100 73 32
1.795 -1.505 0.195 100 73 32
1.805 -1.595 0.105 100 73 32
1.895 -1.595 0.105 100 73 32
1.805 -1.505 0.105 100 73 32
1.895 -1.505 0.105 100 73 32
1.805 -1.595 0.195 100 73 32
1.895 -1.595 0.195 100 73 32
1.805 -1.505 0.195 100 73 32
1.895 -1.505 0.195 100 73 32
1.905 -1.595 0.105 111 84 43
1.995 -1.595 0.105 111 84 43
1.905 -1.505 0.105 111 84 43
1.995 -1.505 0.105 111 84 43
1.905 -1.595 0.195 111 84 43
1.995 -1.595 0.195 111 84 43
1.905 -1.505 0.195 111 84 43
1.995 -1.505 0.195 111 84 43
2.005 -1.595 0.105 100 73 32
2.095 -1.595 0.105 100 73 32
2.005 -1.505 0.105 100 73 32
2.095 -1.505 0.105 100 73 32
2.005 -1.595 0.195 100 73 32
2.095 -1.595 0.195 100 73 32
2.005 -1.505 0.195 100 73 32
2.095 -1.505 0.195 100 73 32
2.105 -1.595 0.105 100 73 32
2.195 -1.595 0.105 100 73 32
2.105 -1.505 0.105 100 73 32
2.195 -1.505 0.105 100 73 32
2.105 -1.595 0.195 100 73 32
2.195 -1.595 0.195 100 73 32
2.105 -1.505 0.195 100 73 32
2.195 -1.505 0.195 100 73 32
2.205 -1.595 0.105 100 73 32
2.295 -1.595 0.105 100 73 32
2.205 -1.505 0.105 100 73 32
2.295 -1.505 0.105 100 73 32
2.205 -1.595 0.195 100 73 32
2.295 -1.595 0.195 100 73 32
2.205 -1.505 0.195 100 73 32
2.295 -1.505 0.195 100 73 32
2.305 -1.595 0.105 111 84 43
2.395 -1.595 0.105 111 84 43
2.305 -1.505 0.105 111 84 43
2.395 -1.505 0.105 111 84 43
2.305 -1.595 0.195 111 84 43
2.395 -1.595 0.195 111 84 43
2.305 -1.505 0.195 111 84 43
2.395 -1.505 0.195 111 84 43
2.405 -1.595 0.105 100 73 32
2.495 -1.595 0.105 100 73 32
2.405 -1.505 0.105 100 73 32
2.495 -1.505 0.105 100 73 32
2.405 -1.595 0.195 100 73 32
2.495 -1.595 0.195 100 73 32
2.405 -1.505 0.195 100 73 32
2.495 -1.505 0.195 100 73 32
2.505 -1.595 0.105 100 73 32
2.595 -1.595 0.105 100 73 32
2.505 -1.505 0.105 100 73 32
2.595 -1.505 0.105 100 73 32
2.505 -1.595 0.195 100 73 32
2.595 -1.595 0.195 100 73 32
2.505 -1.505 0.195 100 73 32
2.595 -1.505 0.195 100 73 32
1.705 -1.495 0.105 100 73 32
1.795 -1.495 0.105 100 73 32
1.705 -1.405 0.105 100 73 32
1.795 -1.405 0.105 100 73 32
1.705 -1.495 0.195 100 73 32
1.795 -1.495 0.195 100 73 32
1.705 -1.405 0.195 100 73 32
1.795 -1.405 0.195 100 73 32
1.805 -1.495 0.105 111 84 43
1.895 -1.495 0.105 111 84 43
1.805 -1.405 0.105 111 84 43
1.895 -1.405 0.105 111 84 43
1.805 -1.495 0.195 111 84 43
1.895 -1.495 0.195 111 84 43
1.805 -1.405 0.195 111 84 43
1.895 -1.405 0.195 111 84 43
1.905 -1.495 0.105 100 73 32
1.995 -1.495 0.105 100 73 32
1.905 -1.405 0.105 100 73 32
1.995 -1.405 0.105 100 73 32
1.905 -1.495 0.195 100 73 32
1.995 -1.495 0.195 100 73 32
1.905 -1.405 0.195 100 73 32
1.995 -1.405 0.195 100 73 32
2.005 -1.495 0.105 111 84 43
2.095 -1.495 0.105 111 84 43
2.005 -1.405 0.105 111 84 43
2.095 -1.405 0.105 111 84 43
2.005 -1.495 0.195 111 84 43
2.095 -1.495 0.195 111 84 43
2.005 -1.405 0.195 111 84 43
2.095 -1.405 0.195 111 84 43
2.105 -1.495 0.105 111 84 43
2.195 -1.495 0.105 111 84 43
2.105 -1.405 0.105 111 84 43
2.195 -1.405 0.105 111 84 43
2.105 -1.495 0.195 111 84 43
2.195 -1.495 0.195 111 84 43
2.105 -1.405 0.195 111 84 43
2.195 -1.405 0.195 111 84 43
2.205 -1.495 0.105 111 84 43
2.295 -1.495 0.105 111 84 43
2.205 -1.405 0.105 111 84 43
2.295 -1.405 0.105 111 84 43
2.205 -1.495 0.195 111 84 43
2.295 -1.495 0.195 111 84 43
2.205 -1.405 0.195 111 84 43
2.295 -1.405 0.195 111 84 43
2.305 -1.495 0.105 111 84 43
2.395 -1.495 0.105 111 84 43
2.305 -1.405 0.105 111 84 43
2.395 -1.405 0.105 111 84 43
2.305 -1.495 0.195 111 84 43
2.395 -1.495 0.195 111 84 43
2.305 -1.405 0.195 111 84 43
2.395 -1.405 0.195 111 84 43
2.405 -1.495 0.105 111 84 43
2.495 -1.495 0.105 111 84 43
2.405 -1.405 0.105 111 84 43
2.495 -1.405 0.105 111 84 43
2.405 -1.495 0.195 111 84 43
2.495 -1.495 0.195 111 84 43
2.405 -1.405 0.195 111 84 43
2.495 -1.405 0.195 111 84 43
2.505 -1.495 0.105 100 73 32
2.595 -1.495 0.105 100 73 32
2.505 -1.405 0.105 100 73 32
2.595 -1.405 0.105 100 73 32
2.505 -1.495 0.195 100 73 32
2.595 -1.495 0.195 100 73 32
2.505 -1.405 0.195 100 73 32
2.595 -1.405 0.195 100 73 32
1.605 -1.395 0.105 100 73 32
1.695 -1.395 0.105 100 73 32
1.605 -1.305 0.105 100 73 32
1.695 -1.305 0.105 100 73 32
1.605 -1.395 0.195 100 73 32
1.695 -1.395 0.195 100 73 32
1.605 -1.305 0.195 100 73 32
1.695 -1.305 0.195 100 73 32
1.705 -1.395 0.105 100 73 32
1.795 -1.395 0.105 100 73 32
1.705 -1.305 0.105 100 73 32
1.795 -1.305 0.105 100 73 32
1.705 -1.395 0.195 100 73 32
1.795 -1.395 0.195 100 73 32
1.705 -1.305 0.195 100 73 32
1.795 -1.305 0.195 100 73 32
1.805 -1.395 0.105 111 84 43
1.895 -1.395 0.105 111 84 43
1.805 -1.305 0.105 111 84 43
1.895 -1.305 0.105 111 84 43
1.805 -1.395 0.195 111 84 43
1.895 -1.395 0.195 111 84 43
1.805 -1.305 0.195 111 84 43
1.895 -1.305 0.195 111 84 43
1.905 -1.395 0.105 100 73 32
1.995 -1.395 0.105 100 73 32
1.905 -1.305 0.105 100 73 32
1.995 -1.305 0.105 100 73 32
1.905 -1.395 0.195 100 73 32
1.995 -1.395 0.195 100 73 32
1.905 -1.305 0.195 100 73 32
1.995 -1.305 0.195 100 73 32
2.005 -1.395 0.105 111 84 43
2.095 -1.395 0.105 111 84 43
2.005 -1.305 0.105 111 84 43
2.095 -1.305 0.105 111 84 43
2.005 -1.395 0.195 111 84 43
2.095 -1.395 0.195 111 84 43
2.005 -1.305 0.195 111 84 43
2.095 -1.305 0.195 111 84 43
2.105 -1.395 0.105 100 73 32
2.195 -1.395 0.105 100 73 32
2.105 -1.305 0.105 100 73 32
2.195 -1.305 0.105 100 73 32
2.105 -1.395 0.195 100 73 32
2.195 -1.395 0.195 100 73 32
2.105 -1.305 0.195 100 73 32
2.195 -1.305 0.195 100 73 32
2.205 -1.395 0.105 111 84 43
2.295 -1.395 0.105 111 84 43
2.205 -1.305 0.105 111 84 43
2.295 -1.305 0.105 111 84 43
2.205 -1.395 0.195 111 84 43
2.295 -1.395 0.195 111 84 43
2.205 -1.305 0.195 111 84 43
2.295 -1.305 0.195 111 84 43
2.305 -1.395 0.105 111 84 43
2.395 -1.395 0.105 111 84 43
2.305 -1.305 0.105 111 84 43
2.395 -1.305 0.105 111 84 43
2.305 -1.395 0.195 111 84 43
2.395 -1.395 0.195 111 84 43
2.305 -1.305 0.195 111 84 43
2.395 -1.305 0.195 111 84 43
2.405 -1.395 0.105 111 84 43
2.495 -1.395 0.105 111 84 43
2.405 -1.305 0.105 111 84 43
2.495 -1.305 0.105 111 84 43
2.405 -1.395 0.195 111 84 43
2.495 -1.395 0.195 111 84 43
2.405 -1.305 0.195 111 84 43
2.495 -1.305 0.195 111 84 43
2.505 -1.395 0.105 100 73 32
2.595 -1.395 0.105 100 73 32
2.505 -1.305 0.105 100 73 32
2.595 -1.305 0.105 100 73 32
2.505 -1.395 0.195 100 73 32
2.595 -1.395 0.195 100 73 32
2.505 -1.305 0.195 100 73 32
2.595 -1.305 0.195 100 73 32
2.605 -1.395 0.105 100 73 32
2.695 -1.395 0.105 100 73 32
2.605 -1.305 0.105 100 73 32
2.695 -1.305 0.105 100 73 32
2.605 -1.395 0.195 100 73 32
2.695 -1.395 0.195 100 73 32
2.605 -1.305 0.195 100 73 32
2.695 -1.305 0.195 100 73 32
1.705 -1.295 0.105 100 73 32
1.795 -1.295 0.105 100 73 32
1.705 -1.205 0.105 100 73 32
1.795 -1.205 0.105 100 73 32
1.705 -1.295 0.195 100 73 32
1.795 -1.295 0.195 100 73 32
1.705 -1.205 0.195 100 73 32
1.795 -1.205 0.195 100 73 32
1.805 -1.295 0.105 111 84 43
1.895 -1.295 0.105 111 84 43
1.805 -1.205 0.105 111 84 43
1.895 -1.205 0.105 111 84 43
1.805 -1.295 0.195 111 84 43
1.895 -1.295 0.195 111 84 43
1.805 -1.205 0.195 111 84 43
1.895 -1.205 0.195 111 84 43
1.905 -1.295 0.105 100 73 32
1.995 -1.295 0.105 100 73 32
1.905 -1.205 0.105 100 73 32
1.995 -1.205 0.105 100 73 32
1.905 -1.295 0.195 100 73 32
1.995 -1.295 0.195 100 73 32
1.905 -1.205 0.195 100 73 32
1.995 -1.205 0.195 100 73 32
2.005 -1.295 0.105 111 84 43
2.095 -1.295 0.105 111 84 43
2.005 -1.205 0.105 111 84 43
2.095 -1.205 0.105 111 84 43
2.005 -1.295 0.195 111 84 43
2.095 -1.295 0.195 111 84 43
2.005 -1.205 0.195 111 84 43
2.095 -1.205 0.195 111 84 43
2.105 -1.295 0.105 111 84 43
2.195 -1.295 0.105 111 84 43
2.105 -1.205 0.105 111 84 43
2.195 -1.205 0.105 111 84 43
2.105 -1.295 0.195 111 84 43
2.195 -1.295 0.195 111 84 43
2.105 -1.205 0.195 111 84 43
2.195 -1.205 0.195 111 84 43
2.205 -1.295 0.105 111 84 43
2.295 -1.295 0.105 111 84 43
2.205 -1.205 0.105 111 84 43
2.295 -1.205 0.105 111 84 43
2.205 -1.295 0.195 111 84 43
2.295 -1.295 0.195 111 84 43
2.205 -1.205 0.195 111 84 43
2.295 -1.205 0.195 111 84 43
2.305 -1.295 0.105 111 84 43
2.395 -1.295 0.105 111 84 43
2.305 -1.205 0.105 111 84 43
2.395 -1.205 0.105 111 84 43
2.305 -1.295 0.195 111 84 43
2.395 -1.295 0.195 111 84 43
2.305 -1.205 0.195 111 84 43
2.395 -1.205 0.195 111 84 43
2.405 -1.295 0.105 111 84 43
2.495 -1.295 0.105 111 84 43
2.405 -1.205 0.105 111 84 43
2.495 -1.205 0.105 111 84 43
2.405 -1.295 0.195 111 84 43
2.495 -1.295 0.195 111 84 43
2.405 -1.205 0.195 111 84 43
2.495 -1.205 0.195 111 84 43
2.505 -1.295 0.105 100 73 32
2.595 -1.295 0.105 100 73 32
2.505 -1.205 0.105 100 73 32
2.595 -1.205 0.105 100 73 32
2.505 -1.295 0.195 100 73 32
2.595 -1.295 0.195 100 73 32
2.505 -1.205 0.195 100 73 32
2.595 -1.205 0.195 100 73 32
1.705 -1.195 0.105 100 73 32
1.795 -1.195 0.105 100 73 32
1.705 -1.105 0.105 100 73 32
1.795 -1.105 0.105 100 73 32
1.705 -1.195 0.195 100 73 32
1.795 -1.195 0.195 100 73 32
1.705 -1.105 0.195 100 73 32
1.795 -1.105 0.195 100 73 32
1.805 -1.195 0.105 100 73 32
1.895 -1.195 0.105 100 73 32
1.805 -1.105 0.105 100 73 32
1.895 -1.105 0.105 100 73 32
1.805 -1.195 0.195 100 73 32
1.895 -1.195 0.195 100 73 32
1.805 -1.105 0.195 100 73 32
1.895 -1.105 0.195 100 73 32
1.905 -1.195 0.105 111 84 43
1.995 -1.195 0.105 111 84 43
1.905 -1.105 0.105 111 84 43
1.995 -1.105 0.105 111 84 43
1.905 -1.195 0.195 111 84 43
1.995 -1.195 0.195 111 84 43
1.905 -1.105 0.195 111 84 43
1.995 -1.105 0.195 111 84 43
2.005 -1.195 0.105 100 73 32
2.095 -1.195 0.105 100 73 32
2.005 -1.105 0.105 100 73 32
2.095 -1.105 0.105 100 73 32
2.005 -1.195 0.195 100 73 32
2.095 -1.195 0.195 100 73 32
2.005 -1.105 0.195 100 73 32
2.095 -1.105 0.195 100 73 32
2.105 -1.195 0.105 100 73 32
2.195 -1.195 0.105 100 73 32
2.105 -1.105 0.105 100 73 32
2.195 -1.105 0.105 100 73 32
2.105 -1.195 0.195 100 73 32
2.195 -1.195 0.195 100 73 32
2.105 -1.105 0.195 100 73 32
2.195 -1.105 0.195 100 73 32
2.205 -1.195 0.105 100 73 32
2.295 -1.195 0.105 100 73 32
2.205 -1.105 0.105 100 73 32
2.295 -1.105 0.105 100 73 32
2.205 -1.195 0.195 100 73 32
2.295 -1.195 0.195 100 73 32
2.205 -1.105 0.195 100 73 32
2.295 -1.105 0.195 100 73 32
2.305 -1.195 0.105 111 84 43
2.395 -1.195 0.105 111 84 43
2.305 -1.105 0.105 111 84 43
2.395 -1.105 0.105 111 84 43
2.305 -1.195 0.195 111 84 43
2.395 -1.195 0.195 111 84 43
2.305 -1.105 0.195 111 84 43
2.395 -1.105 0.195 111 84 43
2.405 -1.195 0.105 100 73 32
2.495 -1.195 0.105 100 73 32
2.405 -1.105 0.105 100 73 32
2.495 -1.105 0.105 100 73 32
2.405 -1.195 0.195 100 73 32
2.495 -1.195 0.195 100 73 32
2.405 -1.105 0.195 100 73 32
2.495 -1.105 0.195 100 73 32
2.505 -1.195 0.105 100 73 32
2.595 -1.195 0.105 100 73 32
2.505 -1.105 0.105 100 73 32
2.595 -1.105 0.105 100 73 32
2.505 -1.195 0.195 100 73 32
2.595 -1.195 0.195 100 73 32
2.505 -1.105 0.195 100 73 32
2.595 -1.105 0.195 100 73 32
1.805 -1.095 0.105 100 73 32
1.895 -1.095 0.105 100 73 32
1.805 -1.005 0.105 100 73 32
1.895 -1.005 0.105 100 73 32
1.805 -1.095 0.195 100 73 32
1.895 -1.095 0.195 100 73 32
1.805 -1.005 0.195 100 73 32
1.895 -1.005 0.195 100 73 32
1.905 -1.095 0.105 100 73 32
1.995 -1.095 0.105 100 73 32
1.905 -1.005 0.105 100 73 32
1.995 -1.005 0.105 100 73 32
1.905 -1.095 0.195 100 73 32
1.995 -1.095 0.195 100 73 32
1.905 -1.005 0.195 100 73 32
1.995 -1.005 0.195 100 73 32
2.005 -1.095 0.105 111 84 43
2.095 -1.095 0.105 111 84 43
2.005 -1.005 0.105 111 84 43
2.095 -1.005 0.105 111 84 43
2.005 -1.095 0.195 111 84 43
2.095 -1.095 0.195 111 84 43
2.005 -1.005 0.195 111 84 43
2.095 -1.005 0.195 111 84 43
2.105 -1.095 0.105 111 84 43
2.195 -1.095 0.105 111 84 43
2.105 -1.005 0.105 111 84 43
2.195 -1.005 0.105 111 84 43
2.105 -1.095 0.195 111 84 43
2.195 -1.095 0.195 111 84 43
2.105 -1.005 0.195 111 84 43
2.195 -1.005 0.195 111 84 43
2.205 -1.095 0.105 111 84 43
2.295 -1.095 0.105 111 84 43
2.205 -1.005 0.105 111 84 43
2.295 -1.005 0.105 111 84 43
2.205 -1.095 0.195 111 84 43
2.295 -1.095 0.195 111 84 43
2.205 -1.005 0.195 111 84 43
2.295 -1.005 0.195 111 84 43
2.305 -1.095 0.105 100 73 32
2.395 -1.095 0.105 100 73 32
2.305 -1.005 0.105 100 73 32
2.395 -1.005 0.105 100 73 32
2.305 -1.095 0.195 100 73 32
2.395 -1.095 0.195 100 73 32
2.305 -1.005 0.195 100 73 32
2.395 -1.005 0.195 100 73 32
2.405 -1.095 0.105 100 73 32
2.495 -1.095 0.105 100 73 32
2.405 -1.005 0.105 100 73 32
2.495 -1.005 0.105 100 73 32
2.405 -1.095 0.195 100 73 32
2.495 -1.095 0.195 100 73 32
2.405 -1.005 0.195 100 73 32
2.495 -1.005 0.195 100 73 32
1.905 -0.995 0.105 100 73 32
1.995 -0.995 0.105 100 73 32
1.905 -0.905 0.105 100 73 32
1.995 -0.905 0.105 100 73 32
1.905 -0.995 0.195 100 73 32
1.995 -0.995 0.195 100 73 32
1.905 -0.905 0.195 100 73 32
1.995 -0.905 0.195 100 73 32
2.005 -0.995 0.105 100 73 32
2.095 -0.995 0.105 100 73 32
2.005 -0.905 0.105 100 73 32
2.095 -0.905 0.105 100 73 32
2.005 -0.995 0.195 100 73 32
2.095 -0.995 0.195 100 73 32
2.005 -0.905 0.195 100 73 32
2.095 -0.905 0.195 100 73 32
2.105 -0.995 0.105 100 73 32
2.195 -0.995 0.105 100 73 32
2.105 -0.905 0.105 100 73 32
2.195 -0.905 0.105 100 73 32
2.105 -0.995 0.195 100 73 32
2.195 -0.995 0.195 100 73 32
2.105 -0.905 0.195 100 73 32
2.195 -0.905 0.195 100 73 32
2.205 -0.995 0.105 100 73 32
2.295 -0.995 0.105 100 73 32
2.205 -0.905 0.105 100 73 32
2.295 -0.905 0.105 100 73 32
2.205 -0.995 0.195 100 73 32
2.295 -0.995 0.195 100 73 32
2.205 -0.905 0.195 100 73 32
2.295 -0.905 0.195 100 73 32
2.305 -0.995 0.105 100 73 32
2.395 -0.995 0.105 100 73 32
2.305 -0.905 0.105 100 73 32
2.395 -0.905 0.105 100 73 32
2.305 -0.995 0.195 100 73 32
2.395 -0.995 0.195 100 73 32
2.305 -0.905 0.195 100 73 32
2.395 -0.905 0.195 100 73 32
2.105 -0.895 0.105 100 73 32
2.195 -0.895 0.105 100 73 32
2.105 -0.805 0.105 100 73 32
2.195 -0.805 0.105 100 73 32
2.105 -0.895 0.195 100 73 32
2.195 -0.895 0.195 100 73 32
2.105 -0.805 0.195 100 73 32
2.195 -0.805 0.195 100 73 32
2.005 -1.795 0.205 100 73 32
2.095 -1.795 0.205 100 73 32
2.005 -1.705 0.205 100 73 32
2.095 -1.705 0.205 100 73 32
2.005 -1.795 0.295 100 73 32
2.095 -1.795 0.295 100 73 32
2.005 -1.705 0.295 100 73 32
2.095 -1.705 0.295 100 73 32
2.105 -1.795 0.205 100 73 32
2.195 -1.795 0.205 100 73 32
2.105 -1.705 0.205 100 73 32
2.195 -1.705 0.205 100 73 32
2.105 -1.795 0.295 100 73 32
2.195 -1.795 0.295 100 73 32
2.105 -1.705 0.295 100 73 32
2.195 -1.705 0.295 100 73 32
2.205 -1.795 0.205 100 73 32
2.295 -1.795 0.205 100 73 32
2.205 -1.705 0.205 100 73 32
2.295 -1.705 0.205 100 73 32
2.205 -1.795 0.295 100 73 32
2.295 -1.795 0.295 100 73 32
2.205 -1.705 0.295 100 73 32
2.295 -1.705 0.295 100 73 32
1.805 -1.695 0.205 100 73 32
1.895 -1.695 0.205 100 73 32
1.805 -1.605 0.205 100 73 32
1.895 -1.605 0.205 100 73 32
1.805 -1.695 0.295 100 73 32
1.895 -1.695 0.295 100 73 32
1.805 -1.605 0.295 100 73 32
1.895 -1.605 0.295 100 73 32
1.905 -1.695 0.205 100 73 32
1.995 -1.695 0.205 100 73 32
1.905 -1.605 0.205 100 73 32
1.995 -1.605 0.205 100 73 32
1.905 -1.695 0.295 100 73 32
1.995 -1.695 0.295 100 73 32
1.905 -1.605 0.295 100 73 32
1.995 -1.605 0.295 100 73 32
2.005 -1.695 0.205 111 84 43
2.095 -1.695 0.205 111 84 43
2.005 -1.605 0.205 111 84 43
2.095 -1.605 0.205 111 84 43
2.005 -1.695 0.295 111 84 43
2.095 -1.695 0.295 111 84 43
2.005 -1.605 0.295 111 84 43
2.095 -1.605 0.295 111 84 43
2.105 -1.695 0.205 111 84 43
2.195 -1.695 0.205 111 84 43
2.105 -1.605 0.205 111 84 43
2.195 -1.605 0.205 111 84 43
2.105 -1.695 0.295 111 84 43
2.195 -1.695 0.295 111 84 43
2.105 -1.605 0.295 111 84 43
2.195 -1.605 0.295 111 84 43
2.205 -1.695 0.205 111 84 43
2.295 -1.695 0.205 111 84 43
2.205 -1.605 0.205 111 84 43
2.295 -1.605 0.205 111 84 43
2.205 -1.695 0.295 111 84 43
2.295 -1.695 0.295 111 84 43
2.205 -1.605 0.295 111 84 43
2.295 -1.605 0.295 111 84 43
2.305 -1.695 0.205 100 73 32
2.395 -1.695 0.205 100 73 32
2.305 -1.605 0.205 100 73 32
2.395 -1.605 0.205 100 73 32
2.305 -1.695 0.295 100 73 32
2.395 -1.695 0.295 100 73 32
2.305 -1.605 0.295 100 73 32
2.395 -1.605 0.295 100 73 32
2.405 -1.695 0.205 100 73 32
2.495 -1.695 0.205 100 73 32
2.405 -1.605 0.205 100 73 32
2.495 -1.605 0.205 100 73 32
2.405 -1.695 0.295 100 73 32
2.495 -1.695 0.295 100 73 32
2.405 -1.605 0.295 100 73 32
2.495 -1.605 0.295 100 73 32
1.805 -1.595 0.205 100 73 32
1.895 -1.595 0.205 100 73 32
1.805 -1.505 0.205 100 73 32
1.895 -1.505 0.205 100 73 32
1.805 -1.595 0.295 100 73 32
1.895 -1.595 0.295 100 73 32
1.805 -1.505 0.295 100 73 32
1.895 -1.505 0.295 100 73 32
1.905 -1.595 0.205 111 84 43
1.995 -1.595 0.205 111 84 43
1.905 -1.505 0.205 111 84 43
1.995 -1.505 0.205 111 84 43
1.905 -1.595 0.295 111 84 43
1.995 -1.595 0.295 111 84 43
1.905 -1.505 0.295 111 84 43
1.995 -1.505 0.295 111 84 43
2.005 -1.595 0.205 100 73 32
2.095 -1.595 0.205 100 73 32
2.005 -1.505 0.205 100 73 32
2.095 -1.505 0.205 100 73 32
2.005 -1.595 0.295 100 73 32
2.095 -1.595 0.295 100 73 32
2.005 -1.505 0.295 100 73 32
2.095 -1.505 0.295 100 73 32
2.105 -1.595 0.205 100 73 32
2.195 -1.595 0.205 100 73 32
2.105 -1.505 0.205 100 73 32
2.195 -1.505 0.205 100 73 32
2.105 -1.595 0.295 100 73 32
2.195 -1.595 0.295 100 73 32
2.105 -1.505 0.295 100 73 32
2.195 -1.505 0.295 100 73 32
2.205 -1.595 0.205 100 73 32
2.295 -1.595 0.205 100 73 32
2.205 -1.505 0.205 100 73 32
2.295 -1.505 0.205 100 73 32
2.205 -1.595 0.295 100 73 32
2.295 -1.595 0.295 100 73 32
2.205 -1.505 0.295 100 73 32
2.295 -1.505 0.295 100 73 32
2.305 -1.595 0.205 111 84 43
2.395 -1.595 0.205 111 84 43
2.305 -1.505 0.205 111 84 43
2.395 -1.505 0.205 111 84 43
2.305 -1.595 0.295 111 84 43
2.395 -1.595 0.295 111 84 43
2.305 -1.505 0.295 111 84 43
2.395 -1.505 0.295 111 84 43
2.405 -1.595 0.205 100 73 32
2.495 -1.595 0.205 100 73 32
2.405 -1.505 0.205 100 73 32
2.495 -1.505 0.205 100 73 32
2.405 -1.595 0.295 100 73 32
2.495 -1.595 0.295 100 73 32
2.405 -1.505 0.295 100 73 32
2.495 -1.505 0.295 100 73 32
1.705 -1.495 0.205 100 73 32
1.795 -1.495 0.205 100 73 32
1.705 -1.405 0.205 100 73 32
1.795 -1.405 0.205 100 73 32
1.705 -1.495 0.295 100 73 32
1.795 -1.495 0.295 100 73 32
1.705 -1.405 0.295 100 73 32
1.795 -1.405 0.295 100 73 32
1.805 -1.495 0.205 111 84 43
1.895 -1.495 0.205 111 84 43
1.805 -1.405 0.205 111 84 43
1.895 -1.405 0.205 111 84 43
1.805 -1.495 0.295 111 84 43
1.895 -1.495 0.295 111 84 43
1.805 -1.405 0.295 111 84 43
1.895 -1.405 0.295 111 84 43
1.905 -1.495 0.205 100 73 32
1.995 -1.495 0.205 100 73 32
1.905 -1.405 0.205 100 73 32
1.995 -1.405 0.205 100 73 32
1.905 -1.495 0.295 100 73 32
1.995 -1.495 0.295 100 73 32
1.905 -1.405 0.295 100 73 32
1.995 -1.405 0.295 100 73 32
2.005 -1.495 0.205 111 84 43
2.095 -1.495 0.205 111 84 43
2.005 -1.405 0.205 111 84 43
2.095 -1.405 0.205 111 84 43
2.005 -1.495 0.295 111 84 43
2.095 -1.495 0.295 111 84 43
2.005 -1.405 0.295 111 84 43
2.095 -1.405 0.295 111 84 43
2.105 -1.495 0.205 111 84 43
2.195 -1.495 0.205 111 84 43
2.105 -1.405 0.205 111 84 43
2.195 -1.405 0.205 111 84 43
2.105 -1.495 0.295 111 84 43
2.195 -1.495 0.295 111 84 43
2.105 -1.405 0.295 111 84 43
2.195 -1.405 0.295 111 84 43
2.205 -1.495 0.205 111 84 43
2.295 -1.495 0.205 111 84 43
2.205 -1.405 0.205 111 84 43
2.295 -1.405 0.205 111 84 43
2.205 -1.495 0.295 111 84 43
2.295 -1.495 0.295 111 84 43
2.205 -1.405 0.295 111 84 43
2.295 -1.405 0.295 111 84 43
2.305 -1.495 0.205 100 73 32
2.395 -1.495 0.205 100 73 32
2.305 -1.405 0.205 100 73 32
2.395 -1.405 0.205 100 73 32
2.305 -1.495 0.295 100 73 32
2.395 -1.495 0.295 100 73 32
2.305 -1.405 0.295 100 73 32
2.395 -1.405 0.295 100 73 32
2.405 -1.495 0.205 111 84 43
2.495 -1.495 0.205 111 84 43
2.405 -1.405 0.205 111 84 43
2.495 -1.405 0.205 111 84 43
2.405 -1.495 0.295 111 84 43
2.495 -1.495 0.295 111 84 43
2.405 -1.405 0.295 111 84 43
2.495 -1.405 0.295 111 84 43
2.505 -1.495 0.205 100 73 32
2.595 -1.495 0.205 100 73 32
2.505 -1.405 0.205 100 73 32
2.595 -1.405 0.205 100 73 32
2.505 -1.495 0.295 100 73 32
2.595 -1.495 0.295 100 73 32
2.505 -1.405 0.295 100 73 32
2.595 -1.405 0.295 100 73 32
1.705 -1.395 0.205 100 73 32
1.795 -1.395 0.205 100 73 32
1.705 -1.305 0.205 100 73 32
1.795 -1.305 0.205 100 73 32
1.705 -1.395 0.295 100 73 32
1.795 -1.395 0.295 100 73 32
1.705 -1.305 0.295 100 73 32
1.795 -1.305 0.295 100 73 32
1.805 -1.395 0.205 111 84 43
1.895 -1.395 0.205 111 84 43
1.805 -1.305 0.205 111 84 43
1.895 -1.305 0.205 111 84 43
1.805 -1.395 0.295 111 84 43
1.895 -1.395 0.295 111 84 43
1.805 -1.305 0.295 111 84 43
1.895 -1.305 0.295 111 84 43
1.905 -1.395 0.205 100 73 32
1.995 -1.395 0.205 100 73 32
1.905 -1.305 0.205 100 73 32
1.995 -1.305 0.205 100 73 32
1.905 -1.395 0.295 100 73 32
1.995 -1.395 0.295 100 73 32
1.905 -1.305 0.295 100 73 32
1.995 -1.305 0.295 100 73 32
2.005 -1.395 0.205 111 84 43
2.095 -1.395 0.205 111 84 43
2.005 -1.305 0.205 111 84 43
2.095 -1.305 0.205 111 84 43
2.005 -1.395 0.295 111 84 43
2.095 -1.395 0.295 111 84 43
2.005 -1.305 0.295 111 84 43
2.095 -1.305 0.295 111 84 43
2.105 -1.395 0.205 100 73 32
2.195 -1.395 0.205 100 73 32
2.105 -1.305 0.205 100 73 32
2.195 -1.305 0.205 100 73 32
2.105 -1.395 0.295 100 73 32
2.195 -1.395 0.295 100 73 32
2.105 -1.305 0.295 100 73 32
2.195 -1.305 0.295 100 73 32
2.205 -1.395 0.205 111 84 43
2.295 -1.395 0.205 111 84 43
2.205 -1.305 0.205 111 84 43
2.295 -1.305 0.205 111 84 43
2.205 -1.395 0.295 111 84 43
2.295 -1.395 0.295 111 84 43
2.205 -1.305 0.295 111 84 43
2.295 -1.305 0.295 111 84 43
2.305 -1.395 0.205 100 73 32
2.395 -1.395 0.205 100 73 32
2.305 -1.305 0.205 100 73 32
2.395 -1.305 0.205 100 73 32
2.305 -1.395 0.295 100 73 32
2.395 -1.395 0.295 100 73 32
2.305 -1.305 0.295 100 73 32
2.395 -1.305 0.295 100 73 32
2.405 -1.395 0.205 111 84 43
2.495 -1.395 0.205 111 84 43
2.405 -1.305 0.205 111 84 43
2.495 -1.305 0.205 111 84 43
2.405 -1.395 0.295 111 84 43
2.495 -1.395 0.295 111 84 43
2.405 -1.305 0.295 111 84 43
2.495 -1.305 0.295 111 84 43
2.505 -1.395 0.205 100 73 32
2.595 -1.395 0.205 100 73 32
2.505 -1.305 0.205 100 73 32
2.595 -1.305 0.205 100 73 32
2.505 -1.395 0.295 100 73 32
2.595 -1.395 0.295 100 73 32
2.505 -1.305 0.295 100 73 32
2.595 -1.305 0.295 100 73 32
1.705 -1.295 0.205 100 73 32
1.795 -1.295 0.205 100 73 32
1.705 -1.205 0.205 100 73 32
1.795 -1.205 0.205 100 73 32
1.705 -1.295 0.295 100 73 32
1.795 -1.295 0.295 100 73 32
1.705 -1.205 0.295 100 73 32
1.795 -1.205 0.295 100 73 32
1.805 -1.295 0.205 111 84 43
1.895 -1.295 0.205 111 84 43
1.805 -1.205 0.205 111 84 43
1.895 -1.205 0.205 111 84 43
1.805 -1.295 0.295 111 84 43
1.895 -1.295 0.295 111 84 43
1.805 -1.205 0.295 111 84 43
1.895 -1.205 0.295 111 84 43
1.905 -1.295 0.205 100 73 32
1.995 -1.295 0.205 100 73 32
1.905 -1.205 0.205 100 73 32
1.995 -1.205 0.205 100 73 32
1.905 -1.295 0.295 100 73 32
1.995 -1.295 0.295 100 73 32
1.905 -1.205 0.295 100 73 32
1.995 -1.205 0.295 100 73 32
2.005 -1.295 0.205 111 84 43
2.095 -1.295 0.205 111 84 43
2.005 -1.205 0.205 111 84 43
2.095 -1.205 0.205 111 84 43
2.005 -1.295 0.295 111 84 43
2.095 -1.295 0.295 111 84 43
2.005 -1.205 0.295 111 84 43
2.095 -1.205 0.295 111 84 43
2.105 -1.295 0.205 111 84 43
2.195 -1.295 0.205 111 84 43
2.105 -1.205 0.205 111 84 43
2.195 -1.205 0.205 111 84 43
2.105 -1.295 0.295 111 84 43
2.195 -1.295 0.295 111 84 43
2.105 -1.205 0.295 111 84 43
2.195 -1.205 0.295 111 84 43
2.205 -1.295 0.205 111 84 43
2.295 -1.295 0.205 111 84 43
2.205 -1.205 0.205 111 84 43
2.295 -1.205 0.205 111 84 43
2.205 -1.295 0.295 111 84 43
2.295 -1.295 0.295 111 84 43
2.205 -1.205 0.295 111 84 43
2.295 -1.205 0.295 111 84 43
2.305 -1.295 0.205 100 73 32
2.395 -1.295 0.205 100 73 32
2.305 -1.205 0.205 100 73 32
2.395 -1.205 0.205 100 73 32
2.305 -1.295 0.295 100 73 32
2.395 -1.295 0.295 100 73 32
2.305 -1.205 0.295 100 73 32
2.395 -1.205 0.295 100 73 32
2.405 -1.295 0.205 111 84 43
2.495 -1.295 0.205 111 84 43
2.405 -1.205 0.205 111 84 43
2.495 -1.205 0.205 111 84 43
2.405 -1.295 0.295 111 84 43
2.495 -1.295 0.295 111 84 43
2.405 -1.205 0.295 111 84 43
2.495 -1.205 0.295 111 84 43
2.505 -1.295 0.205 100 73 32
2.595 -1.295 0.205 100 73 32
2.505 -1.205 0.205 100 73 32
2.595 -1.205 0.205 100 73 32
2.505 -1.295 0.295 100 73 32
2.595 -1.295 0.295 100 73 32
2.505 -1.205 0.295 100 73 32
2.595 -1.205 0.295 100 73 32
1.805 -1.195 0.205 100 73 32
1.895 -1.195 0.205 100 73 32
1.805 -1.105 0.205 100 73 32
1.895 -1.105 0.205 100 73 32
1.805 -1.195 0.295 100 73 32
1.895 -1.195 0.295 100 73 32
1.805 -1.105 0.295 100 73 32
1.895 -1.105 0.295 100 73 32
1.905 -1.195 0.205 111 84 43
1.995 -1.195 0.205 111 84 43
1.905 -1.105 0.205 111 84 43
1.995 -1.105 0.205 111 84 43
1.905 -1.195 0.295 111 84 43
1.995 -1.195 0.295 111 84 43
1.905 -1.105 0.295 111 84 43
1.995 -1.105 0.295 111 84 43
2.005 -1.195 0.205 100 73 32
2.095 -1.195 0.205 100 73 32
2.005 -1.105 0.205 100 73 32
2.095 -1.105 0.205 100 73 32
2.005 -1.195 0.295 100 73 32
2.095 -1.195 0.295 100 73 32
2.005 -1.105 0.295 100 73 32
2.095 -1.105 0.295 100 73 32
2.105 -1.195 0.205 100 73 32
2.195 -1.195 0.205 100 73 32
2.105 -1.105 0.205 100 73 32
2.195 -1.105 0.205 100 73 32
2.105 -1.195 0.295 100 73 32
2.195 -1.195 0.295 100 73 32
2.105 -1.105 0.295 100 73 32
2.195 -1.105 0.295 100 73 32
2.205 -1.195 0.205 100 73 32
2.295 -1.195 0.205 100 73 32
2.205 -1.105 0.205 100 73 32
2.295 -1.105 0.205 100 73 32
2.205 -1.195 0.295 100 73 32
2.295 -1.195 0.295 100 73 32
2.205 -1.105 0.295 100 73 32
2.295 -1.105 0.295 100 73 32
2.305 -1.195 0.205 111 84 43
2.395 -1.195 0.205 111 84 43
2.305 -1.105 0.205 111 84 43
2.395 -1.105 0.205 111 84 43
2.305 -1.195 0.295 111 84 43
2.395 -1.195 0.295 111 84 43
2.305 -1.105 0.295 111 84 43
2.395 -1.105 0.295 111 84 43
2.405 -1.195 0.205 100 73 32
2.495 -1.195 0.205 100 73 32
2.405 -1.105 0.205 100 73 32
2.495 -1.105 0.205 100 73 32
2.405 -1.195 0.295 100 73 32
2.495 -1.195 0.295 100 73 32
2.405 -1.105 0.295 100 73 32
2.495 -1.105 0.295 100 73 32
1.805 -1.095 0.205 100 73 32
1.895 -1.095 0.205 100 73 32
1.805 -1.005 0.205 100 73 32
1.895 -1.005 0.205 100 73 32
1.805 -1.095 0.295 100 73 32
1.895 -1.095 0.295 100 73 32
1.805 -1.005 0.295 100 73 32
1.895 -1.005 0.295 100 73 32
1.905 -1.095 0.205 100 73 32
1.995 -1.095 0.205 100 73 32
1.905 -1.005 0.205 100 73 32
1.995 -1.005 0.205 100 73 32
1.905 -1.095 0.295 100 73 32
1.995 -1.095 0.295 100 73 32
1.905 -1.005 0.295 100 73 32
1.995 -1.005 0.295 100 73 32
2.005 -1.095 0.205 111 84 43
2.095 -1.095 0.205 111 84 43
2.005 -1.005 0.205 111 84 43
2.095 -1.005 0.205 111 84 43
2.005 -1.095 0.295 111 84 43
2.095 -1.095 0.295 111 84 43
2.005 -1.005 0.295 111 84 43
2.095 -1.005 0.295 111 84 43
2.105 -1.095 0.205 111 84 43
2.195 -1.095 0.205 111 84 43
2.105 -1.005 0.205 111 84 43
2.195 -1.005 0.205 111 84 43
2.105 -1.095 0.295 111 84 43
2.195 -1.095 0.295 111 84 43
2.105 -1.005 0.295 111 84 43
2.195 -1.005 0.295 111 84 43
2.205 -1.095 0.205 111 84 43
2.295 -1.095 0.205 111 84 43
2.205 -1.005 0.205 111 84 43
2.295 -1.005 0.205 111 84 43
2.205 -1.095 0.295 111 84 43
2.295 -1.095 0.295 111 84 43
2.205 -1.005 0.295 111 84 43
2.295 -1.005 0.295 111 84 43
2.305 -1.095 0.205 100 73 32
2.395 -1.095 0.205 100 73 32
2.305 -1.005 0.205 100 73 32
2.395 -1.005 0.205 100 73 32
2.305 -1.095 0.295 100 73 32
2.395 -1.095 0.295 100 73 32
2.305 -1.005 0.295 100 73 32
2.395 -1.005 0.295 100 73 32
2.405 -1.095 0.205 100 73 32
2.495 -1.095 0.205 100 73 32
2.405 -1.005 0.205 100 73 32
2.495 -1.005 0.205 100 73 32
2.405 -1.095 0.295 100 73 32
2.495 -1.095 0.295 100 73 32
2.405 -1.005 0.295 100 73 32
2.495 -1.005 0.295 100 73 32
2.005 -0.995 0.205 100 73 32
2.095 -0.995 0.205 100 73 32
2.005 -0.905 0.205 100 73 32
2.095 -0.905 0.205 100 73 32
2.005 -0.995 0.295 100 73 32
2.095 -0.995 0.295 100 73 32
2.005 -0.905 0.295 100 73 32
2.095 -0.905 0.295 100 73 32
2.105 -0.995 0.205 100 73 32
2.195 -0.995 0.205 100 73 32
2.105 -0.905 0.205 100 73 32
2.195 -0.905 0.205 100 73 32
2.105 -0.995 0.295 100 73 32
2.195 -0.995 0.295 100 73 32
2.105 -0.905 0.295 100 73 32
2.195 -0.905 0.295 100 73 32
2.205 -0.995 0.205 100 73 32
2.295 -0.995 0.205 100 73 32
2.205 -0.905 0.205 100 73 32
2.295 -0.905 0.205 100 73 32
2.205 -0.995 0.295 100 73 32
2.295 -0.995 0.295 100 73 32
2.205 -0.905 0.295 100 73 32
2.295 -0.905 0.295 100 73 32
2.005 -1.795 0.305 100 73 32
2.095 -1.795 0.305 100 73 32
2.005 -1.705 0.305 100 73 32
2.095 -1.705 0.305 100 73 32
2.005 -1.795 0.395 100 73 32
2.095 -1.795 0.395 100 73 32
2.005 -1.705 0.395 100 73 32
2.095 -1.705 0.395 100 73 32
2.105 -1.795 0.305 100 73 32
2.195 -1.795 0.305 100 73 32
2.105 -1.705 0.305 100 73 32
2.195 -1.705 0.305 100 73 32
2.105 -1.795 0.395 100 73 32
2.195 -1.795 0.395 100 73 32
2.105 -1.705 0.395 100 73 32
2.195 -1.705 0.395 100 73 32
2.205 -1.795 0.305 100 73 32
2.295 -1.795 0.305 100 73 32
2.205 -1.705 0.305 100 73 32
2.295 -1.705 0.305 100 73 32
2.205 -1.795 0.395 100 73 32
2.295 -1.795 0.395 100 73 32
2.205 -1.705 0.395 100 73 32
2.295 -1.705 0.395 100 73 32
1.805 -1.695 0.305 100 73 32
1.895 -1.695 0.305 100 73 32
1.805 -1.605 0.305 100 73 32
1.895 -1.605 0.305 100 73 32
1.805 -1.695 0.395 100 73 32
1.895 -1.695 0.395 100 73 32
1.805 -1.605 0.395 100 73 32
1.895 -1.605 0.395 100 73 32
1.905 -1.695 0.305 100 73 32
1.995 -1.695 0.305 100 73 32
1.905 -1.605 0.305 100 73 32
1.995 -1.605 0.305 100 73 32
1.905 -1.695 0.395 100 73 32
1.995 -1.695 0.395 100 73 32
1.905 -1.605 0.395 100 73 32
1.995 -1.605 0.395 100 73 32
2.305 -1.695 0.305 100 73 32
2.395 -1.695 0.305 100 73 32
2.305 -1.605 0.305 100 73 32
2.395 -1.605 0.305 100 73 32
2.305 -1.695 0.395 100 73 32
2.395 -1.695 0.395 100 73 32
2.305 -1.605 0.395 100 73 32
2.395 -1.605 0.395 100 73 32
2.405 -1.695 0.305 100 73 32
2.495 -1.695 0.305 100 73 32
2.405 -1.605 0.305 100 73 32
2.495 -1.605 0.305 100 73 32
2.405 -1.695 0.395 100 73 32
2.495 -1.695 0.395 100 73 32
2.405 -1.605 0.395 100 73 32
2.495 -1.605 0.395 100 73 32
1.805 -1.595 0.305 100 73 32
1.895 -1.595 0.305 100 73 32
1.805 -1.505 0.305 100 73 32
1.895 -1.505 0.305 100 73 32
1.805 -1.595 0.395 100 73 32
1.895 -1.595 0.395 100 73 32
1.805 -1.505 0.395 100 73 32
1.895 -1.505 0.395 100 73 32
2.405 -1.595 0.305 100 73 32
2.495 -1.595 0.305 100 73 32
2.405 -1.505 0.305 100 73 32
2.495 -1.505 0.305 100 73 32
2.405 -1.595 0.395 100 73 32
2.495 -1.595 0.395 100 73 32
2.405 -1.505 0.395 100 73 32
2.495 -1.505 0.395 100 73 32
1.705 -1.495 0.305 100 73 32
1.795 -1.495 0.305 100 73 32
1.705 -1.405 0.305 100 73 32
1.795 -1.405 0.305 100 73 32
1.705 -1.495 0.395 100 73 32
1.795 -1.495 0.395 100 73 32
1.705 -1.405 0.395 100 73 32
1.795 -1.405 0.395 100 73 32
2.505 -1.495 0.305 100 73 32
2.595 -1.495 0.305 100 73 32
2.505 -1.405 0.305 100 73 32
2.595 -1.405 0.305 100 73 32
2.505 -1.495 0.395 100 73 32
2.595 -1.495 0.395 100 73 32
2.505 -1.405 0.395 100 73 32
2.595 -1.405 0.395 100 73 32
1.705 -1.395 0.305 100 73 32
1.795 -1.395 0.305 100 73 32
1.705 -1.305 0.305 100 73 32
1.795 -1.305 0.305 100 73 32
1.705 -1.395 0.395 100 73 32
1.795 -1.395 0.395 100 73 32
1.705 -1.305 0.395 100 73 32
1.795 -1.305 0.395 100 73 32
2.505 -1.395 0.305 100 73 32
2.595 -1.395 0.305 100 73 32
2.505 -1.305 0.305 100 73 32
2.595 -1.305 0.305 100 73 32
2.505 -1.395 0.395 100 73 32
2.595 -1.395 0.395 100 73 32
2.505 -1.305 0.395 100 73 32
2.595 -1.305 0.395 100 73 32
1.705 -1.295 0.305 100 73 32
1.795 -1.295 0.305 100 73 32
1.705 -1.205 0.305 100 73 32
1.795 -1.205 0.305 100 73 32
1.705 -1.295 0.395 100 73 32
1.795 -1.295 0.395 100 73 32
1.705 -1.205 0.395 100 73 32
1.795 -1.205 0.395 100 73 32
2.505 -1.295 0.305 100 73 32
2.595 -1.295 0.305 100 73 32
2.505 -1.205 0.305 100 73 32
2.595 -1.205 0.305 100 73 32
2.505 -1.295 0.395 100 73 32
2.595 -1.295 0.395 100 73 32
2.505 -1.205 0.395 100 73 32
2.595 -1.205 0.395 100 73 32
1.805 -1.195 0.305 100 73 32
1.895 -1.195 0.305 100 73 32
1.805 -1.105 0.305 100 73 32
1.895 -1.105 0.305 100 73 32
1.805 -1.195 0.395 100 73 32
1.895 -1.195 0.395 100 73 32
1.805 -1.105 0.395 100 73 32
1.895 -1.105 0.395 100 73 32
2.405 -1.195 0.305 100 73 32
2.495 -1.195 0.305 100 73 32
2.405 -1.105 0.305 100 73 32
2.495 -1.105 0.305 100 73 32
2.405 -1.195 0.395 100 73 32
2.495 -1.195 0.395 100 73 32
2.405 -1.105 0.395 100 73 32
2.495 -1.105 0.395 100 73 32
1.805 -1.095 0.305 100 73 32
1.895 -1.095 0.305 100 73 32
1.805 -1.005 0.305 100 73 32
1.895 -1.005 0.305 100 73 32
1.805 -1.095 0.395 100 73 32
1.895 -1.095 0.395 100 73 32
1.805 -1.005 0.395 100 73 32
1.895 -1.005 0.395 100 73 32
1.905 -1.095 0.305 100 73 32
1.995 -1.095 0.305 100 73 32
1.905 -1.005 0.305 100 73 32
1.995 -1.005 0.305 100 73 32
1.905 -1.095 0.395 100 73 32
1.995 -1.095 0.395 100 73 32
1.905 -1.005 0.395 100 73 32
1.995 -1.005 0.395 100 73 32
2.305 -1.095 0.305 100 73 32
2.395 -1.095 0.305 100 73 32
2.305 -1.005 0.305 100 73 32
2.395 -1.005 0.305 100 73 32
2.305 -1.095 0.395 100 73 32
2.395 -1.095 0.395 100 73 32
2.305 -1.005 0.395 100 73 32
2.395 -1.005 0.395 100 73 32
2.405 -1.095 0.305 100 73 32
2.495 -1.095 0.305 100 73 32
2.405 -1.005 0.305 100 73 32
2.495 -1.005 0.305 100 73 32
2.405 -1.095 0.395 100 73 32
2.495 -1.095 0.395 100 73 32
2.405 -1.005 0.395 100 73 32
2.495 -1.005 0.395 100 73 32
2.005 -0.995 0.305 100 73 32
2.095 -0.995 0.305 100 73 32
2.005 -0.905 0.305 100 73 32
2.095 -0.905 0.305 100 73 32
2.005 -0.995 0.395 100 73 32
2.095 -0.995 0.395 100 73 32
2.005 -0.905 0.395 100 73 32
2.095 -0.905 0.395 100 73 32
2.105 -0.995 0.305 100 73 32
2.195 -0.995 0.305 100 73 32
2.105 -0.905 0.305 100 73 32
2.195 -0.905 0.305 100 73 32
2.105 -0.995 0.395 100 73 32
2.195 -0.995 0.395 100 73 32
2.105 -0.905 0.395 100 73 32
2.195 -0.905 0.395 100 73 32
2.205 -0.995 0.305 100 73 32
2.295 -0.995 0.305 100 73 32
2.205 -0.905 0.305 100 73 32
2.295 -0.905 0.305 100 73 32
2.205 -0.995 0.395 100 73 32
2.295 -0.995 0.395 100 73 32
2.205 -0.905 0.395 100 73 32
2.295 -0.905 0.395 100 73 32
4 0 4 6 2
4 1 3 7 5
4 0 1 5 4
4 2 6 7 3
4 0 2 3 1
4 4 5 7 6
4 8 12 14 10
4 9 11 15 13
4 8 9 13 12
4 10 14 15 11
4 8 10 11 9
4 12 13 15 14
4 16 20 22 18
4 17 19 23 21
4 16 17 21 20
4 18 22 23 19
4 16 18 19 17
4 20 21 23 22
4 24 28 30 26
4 25 27 31 29
4 24 25 29 28
4 26 30 31 27
4 24 26 27 25
4 28 29 31 30
4 32 36 38 34
4 33 35 39 37
4 32 33 37 36
4 34 38 39 35
4 32 34 35 33
4 36 37 39 38
4 40 44 46 42
4 41 43 47 45
4 40 41 45 44
4 42 46 47 43
4 40 42 43 41
4 44 45 47 46
4 48 52 54 50
4 49 51 55 53
4 48 49 53 52
4 50 54 55 51
4 48 50 51 49
4 52 53 55 54
4 56 60 62 58
4 57 59 63 61
4 56 57 61 60
4 58 62 63 59
4 56 58 59 57
4 60 61 63 62
4 64 68 70 66
4 65 67 71 69
4 64 65 69 68
4 66 70 71 67
4 64 66 67 65
4 68 69 71 70
4 72 76 78 74
4 73 75 79 77
4 72 73 77 76
4 74 78 79 75
4 72 74 75 73
4 76 77 79 78
4 80 84 86 82
4 81 83 87 85
4 80 81 85 84
4 82 86 87 83
4 80 82 83 81
4 84 85 87 86
4 88 92 94 90
4 89 91 95 93
4 88 89 93 92
4 90 94 95 91
4 88 90 91 89
4 92 93 95 94
4 96 100 102 98
4 97 99 103 101
4 96 97 101 100
4 98 102 103 99
4 96 98 99 97
4 100 101 103 102
4 104 108 110 106
4 105 107 111 109
4 104 105 109 108
4 106 110 111 107
4 104 106 107 105
4 108 109 111 110
4 112 116 118 114
4 113 115 119 117
4 112 113 117 116
4 114 118 119 115
4 112 114 115 113
4 116 117 119 118
4 120 124 126 122
4 121 123 127 125
4 120 121 125 124
4 122 126 127 123
4 120 122 123 121
4 124 125 127 126
4 128 132 134 130
4 129 131 135 133
4 128 129 133 132
4 130 134 135 131
4 128 130 131 129
4 132 133 135 134
4 136 140 142 138
4 137 139 143 141
4 136 137 141 140
4 138 142 143 139
4 136 138 139 137
4 140 141 143 142
4 144 148 150 146
4 145 147 151 149
4 144 145 149 148
4 146 150 151 147
4 144 146 147 145
4 148 149 151 150
4 152 156 158 154
4 153 155 159 157
4 152 153 157 156
4 154 158 159 155
4 152 154 155 153
4 156 157 159 158
4 160 164 166 162
4 161 163 167 165
4 160 161 165 164
4 162 166 167 163
4 160 162 163 161
4 164 165 167 166
4 168 172 174 170
4 169 171 175 173
4 168 169 173 172
4 170 174 175 171
4 168 170 171 169
4 172 173 175 174
4 176 180 182 178
4 177 179 183 181
4 176 177 181 180
4 178 182 183 179
4 176 178 179 177
4 180 181 183 182
4 184 188 190 186
4 185 187 191 189
4 184 185 189 188
4 186 190 191 187
4 184 186 187 185
4 188 189 191 190
4 192 196 198 194
4 193 195 199 197
4 192 193 197 196
4 194 198 199 195
4 192 194 195 193
4 196 197 199 198
4 200 204 206 202
4 201 203 207 205
4 200 201 205 204
4 202 206 207 203
4 200 202 203 201
4 204 205 207 206
4 208 212 214 210
4 209 211 215 213
4 208 209 213 212
4 210 214 215 211
4 208 210 211 209
4 212 213 215 214
4 216 220 222 218
4 217 219 223 221
4 216 217 221 220
4 218 222 223 219
4 216 218 219 217
4 220 221 223 222
4 224 228 230 226
4 225 227 231 229
4 224 225 229 228
4 226 230 231 227
4 224 226 227 225
4 228 229 231 230
4 232 236 238 234
4 233 235 239 237
4 232 233 237 236
4 234 238 239 235
4 232 234 235 233
4 236 237 239 238
4 240 244 246 242
4 241 243 247 245
4 240 241 245 244
4 242 246 247 243
4 240 242 243 241
4 244 245 247 246
4 248 252 254 250
4 249 251 255 253
4 248 249 253 252
4 250 254 255 251
4 248 250 251 249
4 252 253 255 254
4 256 260 262 258
4 257 259 263 261
4 256 257 261 260
4 258 262 263 259
4 256 258 259 257
4 260 261 263 262
4 264 268 270 266
4 265 267 271 269
4 264 265 269 268
4 266 270 271 267
4 264 266 267 265
4 268 269 271 270
4 272 276 278 274
4 273 275 279 277
4 272 273 277 276
4 274 278 279 275
4 272 274 275 273
4 276 277 279 278
4 280 284 286 282
4 281 283 287 285
4 280 281 285 284
4 282 286 287 283
4 280 282 283 281
4 284 285 287 286
4 288 292 294 290
4 289 291 295 293
4 288 289 293 292
4 290 294 295 291
4 288 290 291 289
4 292 293 295 294
4 296 300 302 298
4 297 299 303 301
4 296 297 301 300
4 298 302 303 299
4 296 298 299 297
4 300 301 303 302
4 304 308 310 306
4 305 307 311 309
4 304 305 309 308
4 306 310 311 307
4 304 306 307 305
4 308 309 311 310
4 312 316 318 314
4 313 315 319 317
4 312 313 317 316
4 314 318 319 315
4 312 314 315 313
4 316 317 319 318
4 320 324 326 322
4 321 323 327 325
4 320 321 325 324
4 322 326 327 323
4 320 322 323 321
4 324 325 327 326
4 328 332 334 330
4 329 331 335 333
4 328 329 333 332
4 330 334 335 331
4 328 330 331 329
4 332 333 335 334
4 336 340 342 338
4 337 339 343 341
4 336 337 341 340
4 338 342 343 339
4 336 338 339 337
4 340 341 343 342
4 344 348 350 346
4 345 347 351 349
4 344 345 349 348
4 346 350 351 347
4 344 346 347 345
4 348 349 351 350
4 352 356 358 354
4 353 355 359 357
4 352 353 357 356
4 354 358 359 355
4 352 354 355 353
4 356 357 359 358
4 360 364 366 362
4 361 363 367 365
4 360 361 365 364
4 362 366 367 363
4 360 362 363 361
4 364 365 367 366
4 368 372 374 370
4 369 371 375 373
4 368 369 373 372
4 370 374 375 371
4 368 370 371 369
4 372 373 375 374
4 376 380 382 378
4 377 379 383 381
4 376 377 381 380
4 378 382 383 379
4 376 378 379 377
4 380 381 383 382
4 384 388 390 386
4 385 387 391 389
4 384 385 389 388
4 386 390 391 387
4 384 386 387 385
4 388 389 391 390
4 392 396 398 394
4 393 395 399 397
4 392 393 397 396
4 394 398 399 395
4 392 394 395 393
4 396 397 399 398
4 400 404 406 402
4 401 403 407 405
4 400 401 405 404
4 402 406 407 403
4 400 402 403 401
4 404 405 407 406
4 408 412 414 410
4 409 411 415 413
4 408 409 413 412
4 410 414 415 411
4 408 410 411 409
4 412 413 415 414
4 416 420 422 418
4 417 419 423 421
4 416 417 421 420
4 418 422 423 419
4 416 418 419 417
4 420 421 423 422
4 424 428 430 426
4 425 427 431 429
4 424 425 429 428
4 426 430 431 427
4 424 426 427 425
4 428 429 431 430
4 432 436 438 434
4 433 435 439 437
4 432 433 437 436
4 434 438 439 435
4 432 434 435 433
4 436 437 439 438
4 440 444 446 442
4 441 443 447 445
4 440 441 445 444
4 442 446 447 443
4 440 442 443 441
4 444 445 447 446
4 448 452 454 450
4 449 451 455 453
4 448 449 453 452
4 450 454 455 451
4 448 450 451 449
4 452 453 455 454
4 456 460 462 458
4 457 459 463 461
4 456 457 461 460
4 458 462 463 459
4 456 458 459 457
4 460 461 463 462
4 464 468 470 466
4 465 467 471 469
4 464 465 469 468
4 466 470 471 467
4 464 466 467 465
4 468 469 471 470
4 472 476 478 474
4 473 475 479 477
4 472 473 477 476
4 474 478 479 475
4 472 474 475 473
4 476 477 479 478
4 480 484 486 482
4 481 483 487 485
4 480 481 485 484
4 482 486 487 483
4 480 482 483 481
4 484 485 487 486
4 488 492 494 490
4 489 491 495 493
4 488 489 493 492
4 490 494 495 491
4 488 490 491 489
4 492 493 495 494
4 496 500 502 498
4 497 499 503 501
4 496 497 501 500
4 498 502 503 499
4 496 498 499 497
4 500 501 503 502
4 504 508 510 506
4 505 507 511 509
4 504 505 509 508
4 506 510 511 507
4 504 506 507 505
4 508 509 511 510
4 512 516 518 514
4 513 515 519 517
4 512 513 517 516
4 514 518 519 515
4 512 514 515 513
4 516 517 519 518
4 520 524 526 522
4 521 523 527 525
4 520 521 525 524
4 522 526 527 523
4 520 522 523 521
4 524 525 527 526
4 528 532 534 530
4 529 531 535 533
4 528 529 533 532
4 530 534 535 531
4 528 530 531 529
4 532 533 535 534
4 536 540 542 538
4 537 539 543 541
4 536 537 541 540
4 538 542 543 539
4 536 538 539 537
4 540 541 543 542
4 544 548 550 546
4 545 547 551 549
4 544 545 549 548
4 546 550 551 547
4 544 546 547 545
4 548 549 551 550
4 552 556 558 554
4 553 555 559 557
4 552 553 557 556
4 554 558 559 555
4 552 554 555 553
4 556 557 559 558
4 560 564 566 562
4 561 563 567 565
4 560 561 565 564
4 562 566 567 563
4 560 562 563 561
4 564 565 567 566
4 568 572 574 570
4 569 571 575 573
4 568 569 573 572
4 570 574 575 571
4 568 570 571 569
4 572 573 575 574
4 576 580 582 578
4 577 579 583 581
4 576 577 581 580
4 578 582 583 579
4 576 578 579 577
4 580 581 583 582
4 584 588 590 586
4 585 587 591 589
4 584 585 589 588
4 586 590 591 587
4 584 586 587 585
4 588 589 591 590
4 592 596 598 594
4 593 595 599 597
4 592 593 597 596
4 594 598 599 595
4 592 594 595 593
4 596 597 599 598
4 600 604 606 602
4 601 603 607 605
4 600 601 605 604
4 602 606 607 603
4 600 602 603 601
4 604 605 607 606
4 608 612 614 610
4 609 611 615 613
4 608 609 613 612
4 610 614 615 611
4 608 610 611 609
4 612 613 615 614
4 616 620 622 618
4 617 619 623 621
4 616 617 621 620
4 618 622 623 619
4 616 618 619 617
4 620 621 623 622
4 624 628 630 626
4 625 627 631 629
4 624 625 629 628
4 626 630 631 627
4 624 626 627 625
4 628 629 631 630
4 632 636 638 634
4 633 635 639 637
4 632 633 637 636
4 634 638 639 635
4 632 634 635 633
4 636 637 639 638
4 640 644 646 642
4 641 643 647 645
4 640 641 645 644
4 642 646 647 643
4 640 642 643 641
4 644 645 647 646
4 648 652 654 650
4 649 651 655 653
4 648 649 653 652
4 650 654 655 651
4 648 650 651 649
4 652 653 655 654
4 656 660 662 658
4 657 659 663 661
4 656 657 661 660
4 658 662 663 659
4 656 658 659 657
4 660 661 663 662
4 664 668 670 666
4 665 667 671 669
4 664 665 669 668
4 666 670 671 667
4 664 666 667 665
4 668 669 671 670
4 672 676 678 674
4 673 675 679 677
4 672 673 677 676
4 674 678 679 675
4 672 674 675 673
4 676 677 679 678
4 680 684 686 682
4 681 683 687 685
4 680 681 685 684
4 682 686 687 683
4 680 682 683 681
4 684 685 687 686
4 688 692 694 690
4 689 691 695 693
4 688 689 693 692
4 690 694 695 691
4 688 690 691 689
4 692 693 695 694
4 696 700 702 698
4 697 699 703 701
4 696 697 701 700
4 698 702 703 699
4 696 698 699 697
4 700 701 703 702
4 704 708 710 706
4 705 707 711 709
4 704 705 709 708
4 706 710 711 707
4 704 706 707 705
4 708 709 711 710
4 712 716 718 714
4 713 715 719 717
4 712 713 717 716
4 714 718 719 715
4 712 714 715 713
4 716 717 719 718
4 720 724 726 722
4 721 723 727 725
4 720 721 725 724
4 722 726 727 723
4 720 722 723 721
4 724 725 727 726
4 728 732 734 730
4 729 731 735 733
4 728 729 733 732
4 730 734 735 731
4 728 730 731 729
4 732 733 735 734
4 736 740 742 738
4 737 739 743 741
4 736 737 741 740
4 738 742 743 739
4 736 738 739 737
4 740 741 743 742
4 744 748 750 746
4 745 747 751 749
4 744 745 749 748
4 746 750 751 747
4 744 746 747 745
4 748 749 751 750
4 752 756 758 754
4 753 755 759 757
4 752 753 757 756
4 754 758 759 755
4 752 754 755 753
4 756 757 759 758
4 760 764 766 762
4 761 763 767 765
4 760 761 765 764
4 762 766 767 763
4 760 762 763 761
4 764 765 767 766
4 768 772 774 770
4 769 771 775 773
4 768 769 773 772
4 770 774 775 771
4 768 770 771 769
4 772 773 775 774
4 776 780 782 778
4 777 779 783 781
4 776 777 781 780
4 778 782 783 779
4 776 778 779 777
4 780 781 783 782
4 784 788 790 786
4 785 787 791 789
4 784 785 789 788
4 786 790 791 787
4 784 786 787 785
4 788 789 791 790
4 792 796 798 794
4 793 795 799 797
4 792 793 797 796
4 794 798 799 795
4 792 794 795 793
4 796 797 799 798
4 800 804 806 802
4 801 803 807 805
4 800 801 805 804
4 802 806 807 803
4 800 802 803 801
4 804 805 807 806
4 808 812 814 810
4 809 811 815 813
4 808 809 813 812
4 810 814 815 811
4 808 810 811 809
4 812 813 815 814
4 816 820 822 818
4 817 819 823 821
4 816 817 821 820
4 818 822 823 819
4 816 818 819 817
4 820 821 823 822
4 824 828 830 826
4 825 827 831 829
4 824 825 829 828
4 826 830 831 827
4 824 826 827 825
4 828 829 831 830
4 832 836 838 834
4 833 835 839 837
4 832 833 837 836
4 834 838 839 835
4 832 834 835 833
4 836 837 839 838
4 840 844 846 842
4 841 843 847 845
4 840 841 845 844
4 842 846 847 843
4 840 842 843 841
4 844 845 847 846
4 848 852 854 850
4 849 851 855 853
4 848 849 853 852
4 850 854 855 851
4 848 850 851 849
4 852 853 855 854
4 856 860 862 858
4 857 859 863 861
4 856 857 861 860
4 858 862 863 859
4 856 858 859 857
4 860 861 863 862
4 864 868 870 866
4 865 867 871 869
4 864 865 869 868
4 866 870 871 867
4 864 866 867 865
4 868 869 871 870
4 872 876 878 874
4 873 875 879 877
4 872 873 877 876
4 874 878 879 875
4 872 874 875 873
4 876 877 879 878
4 880 884 886 882
4 881 883 887 885
4 880 881 885 884
4 882 886 887 883
4 880 882 883 881
4 884 885 887 886
4 888 892 894 890
4 889 891 895 893
4 888 889 893 892
4 890 894 895 891
4 888 890 891 889
4 892 893 895 894
4 896 900 902 898
4 897 899 903 901
4 896 897 901 900
4 898 902 903 899
4 896 898 899 897
4 900 901 903 902
4 904 908 910 906
4 905 907 911 909
4 904 905 909 908
4 906 910 911 907
4 904 906 907 905
4 908 909 911 910
4 912 916 918 914
4 913 915 919 917
4 912 913 917 916
4 914 918 919 915
4 912 914 915 913
4 916 917 919 918
4 920 924 926 922
4 921 923 927 925
4 920 921 925 924
4 922 926 927 923
4 920 922 923 921
4 924 925 927 926
4 928 932 934 930
4 929 931 935 933
4 928 929 933 932
4 930 934 935 931
4 928 930 931 929
4 932 933 935 934
4 936 940 942 938
4 937 939 943 941
4 936 937 941 940
4 938 942 943 939
4 936 938 939 937
4 940 941 943 942
4 944 948 950 946
4 945 947 951 949
4 944 945 949 948
4 946 950 951 947
4 944 946 947 945
4 948 949 951 950
4 952 956 958 954
4 953 955 959 957
4 952 953 957 956
4 954 958 959 955
4 952 954 955 953
4 956 957 959 958
4 960 964 966 962
4 961 963 967 965
4 960 961 965 964
4 962 966 967 963
4 960 962 963 961
4 964 965 967 966
4 968 972 974 970
4 969 971 975 973
4 968 969 973 972
4 970 974 975 971
4 968 970 971 969
4 972 973 975 974
4 976 980 982 978
4 977 979 983 981
4 976 977 981 980
4 978 982 983 979
4 976 978 979 977
4 980 981 983 982
4 984 988 990 986
4 985 987 991 989
4 984 985 989 988
4 986 990 991 987
4 984 986 987 985
4 988 989 991 990
4 992 996 998 994
4 993 995 999 997
4 992 993 997 996
4 994 998 999 995
4 992 994 995 993
4 996 997 999 998
4 1000 1004 1006 1002
4 1001 1003 1007 1005
4 1000 1001 1005 1004
4 1002 1006 1007 1003
4 1000 1002 1003 1001
4 1004 1005 1007 1006
4 1008 1012 1014 1010
4 1009 1011 1015 1013
4 1008 1009 1013 1012
4 1010 1014 1015 1011
4 1008 1010 1011 1009
4 1012 1013 1015 1014
4 1016 1020 1022 1018
4 1017 1019 1023 1021
4 1016 1017 1021 1020
4 1018 1022 1023 1019
4 1016 1018 1019 1017
4 1020 1021 1023 1022
4 1024 1028 1030 1026
4 1025 1027 1031 1029
4 1024 1025 1029 1028
4 1026 1030 1031 1027
4 1024 1026 1027 1025
4 1028 1029 1031 1030
4 1032 1036 1038 1034
4 1033 1035 1039 1037
4 1032 1033 1037 1036
4 1034 1038 1039 1035
4 1032 1034 1035 1033
4 1036 1037 1039 1038
4 1040 1044 1046 1042
4 1041 1043 1047 1045
4 1040 1041 1045 1044
4 1042 1046 1047 1043
4 1040 1042 1043 1041
4 1044 1045 1047 1046
4 1048 1052 1054 1050
4 1049 1051 1055 1053
4 1048 1049 1053 1052
4 1050 1054 1055 1051
4 1048 1050 1051 1049
4 1052 1053 1055 1054
4 1056 1060 1062 1058
4 1057 1059 1063 1061
4 1056 1057 1061 1060
4 1058 1062 1063 1059
4 1056 1058 1059 1057
4 1060 1061 1063 1062
4 1064 1068 1070 1066
4 1065 1067 1071 1069
4 1064 1065 1069 1068
4 1066 1070 1071 1067
4 1064 1066 1067 1065
4 1068 1069 1071 1070
4 1072 1076 1078 1074
4 1073 1075 1079 1077
4 1072 1073 1077 1076
4 1074 1078 1079 1075
4 1072 1074 1075 1073
4 1076 1077 1079 1078
4 1080 1084 1086 1082
4 1081 1083 1087 1085
4 1080 1081 1085 1084
4 1082 1086 1087 1083
4 1080 1082 1083 1081
4 1084 1085 1087 1086
4 1088 1092 1094 1090
4 1089 1091 1095 1093
4 1088 1089 1093 1092
4 1090 1094 1095 1091
4 1088 1090 1091 1089
4 1092 1093 1095 1094
4 1096 1100 1102 1098
4 1097 1099 1103 1101
4 1096 1097 1101 1100
4 1098 1102 1103 1099
4 1096 1098 1099 1097
4 1100 1101 1103 1102
4 1104 1108 1110 1106
4 1105 1107 1111 1109
4 1104 1105 1109 1108
4 1106 1110 1111 1107
4 1104 1106 1107 1105
4 1108 1109 1111 1110
4 1112 1116 1118 1114
4 1113 1115 1119 1117
4 1112 1113 1117 1116
4 1114 1118 1119 1115
4 1112 1114 1115 1113
4 1116 1117 1119 1118
4 1120 1124 1126 1122
4 1121 1123 1127 1125
4 1120 1121 1125 1124
4 1122 1126 1127 1123
4 1120 1122 1123 1121
4 1124 1125 1127 1126
4 1128 1132 1134 1130
4 1129 1131 1135 1133
4 1128 1129 1133 1132
4 1130 1134 1135 1131
4 1128 1130 1131 1129
4 1132 1133 1135 1134
4 1136 1140 1142 1138
4 1137 1139 1143 1141
4 1136 1137 1141 1140
4 1138 1142 1143 1139
4 1136 1138 1139 1137
4 1140 1141 1143 1142
4 1144 1148 1150 1146
4 1145 1147 1151 1149
4 1144 1145 1149 1148
4 1146 1150 1151 1147
4 1144 1146 1147 1145
4 1148 1149 1151 1150
4 1152 1156 1158 1154
4 1153 1155 1159 1157
4 1152 1153 1157 1156
4 1154 1158 1159 1155
4 1152 1154 1155 1153
4 1156 1157 1159 1158
4 1160 1164 1166 1162
4 1161 1163 1167 1165
4 1160 1161 1165 1164
4 1162 1166 1167 1163
4 1160 1162 1163 1161
4 1164 1165 1167 1166
4 1168 1172 1174 1170
4 1169 1171 1175 1173
4 1168 1169 1173 1172
4 1170 1174 1175 1171
4 1168 1170 1171 1169
4 1172 1173 1175 1174
4 1176 1180 1182 1178
4 1177 1179 1183 1181
4 1176 1177 1181 1180
4 1178 1182 1183 1179
4 1176 1178 1179 1177
4 1180 1181 1183 1182
4 1184 1188 1190 1186
4 1185 1187 1191 1189
4 1184 1185 1189 1188
4 1186 1190 1191 1187
4 1184 1186 1187 1185
4 1188 1189 1191 1190
4 1192 1196 1198 1194
4 1193 1195 1199 1197
4 1192 1193 1197 1196
4 1194 1198 1199 1195
4 1192 1194 1195 1193
4 1196 1197 1199 1198
4 1200 1204 1206 1202
4 1201 1203 1207 1205
4 1200 1201 1205 1204
4 1202 1206 1207 1203
4 1200 1202 1203 1201
4 1204 1205 1207 1206
4 1208 1212 1214 1210
4 1209 1211 1215 1213
4 1208 1209 1213 1212
4 1210 1214 1215 1211
4 1208 1210 1211 1209
4 1212 1213 1215 1214
4 1216 1220 1222 1218
4 1217 1219 1223 1221
4 1216 1217 1221 1220
4 1218 1222 1223 1219
4 1216 1218 1219 1217
4 1220 1221 1223 1222
4 1224 1228 1230 1226
4 1225 1227 1231 1229
4 1224 1225 1229 1228
4 1226 1230 1231 1227
4 1224 1226 1227 1225
4 1228 1229 1231 1230
4 1232 1236 1238 1234
4 1233 1235 1239 1237
4 1232 1233 1237 1236
4 1234 1238 1239 1235
4 1232 1234 1235 1233
4 1236 1237 1239 1238
4 1240 1244 1246 1242
4 1241 1243 1247 1245
4 1240 1241 1245 1244
4 1242 1246 1247 1243
4 1240 1242 1243 1241
4 1244 1245 1247 1246
4 1248 1252 1254 1250
4 1249 1251 1255 1253
4 1248 1249 1253 1252
4 1250 1254 1255 1251
4 1248 1250 1251 1249
4 1252 1253 1255 1254
4 1256 1260 1262 1258
4 1257 1259 1263 1261
4 1256 1257 1261 1260
4 1258 1262 1263 1259
4 1256 1258 1259 1257
4 1260 1261 1263 1262
4 1264 1268 1270 1266
4 1265 1267 1271 1269
4 1264 1265 1269 1268
4 1266 1270 1271 1267
4 1264 1266 1267 1265
4 1268 1269 1271 1270
4 1272 1276 1278 1274
4 1273 1275 1279 1277
4 1272 1273 1277 1276
4 1274 1278 1279 1275
4 1272 1274 1275 1273
4 1276 1277 1279 1278
4 1280 1284 1286 1282
4 1281 1283 1287 1285
4 1280 1281 1285 1284
4 1282 1286 1287 1283
4 1280 1282 1283 1281
4 1284 1285 1287 1286
4 1288 1292 1294 1290
4 1289 1291 1295 1293
4 1288 1289 1293 1292
4 1290 1294 1295 1291
4 1288 1290 1291 1289
4 1292 1293 1295 1294
4 1296 1300 1302 1298
4 1297 1299 1303 1301
4 1296 1297 1301 1300
4 1298 1302 1303 1299
4 1296 1298 1299 1297
4 1300 1301 1303 1302
4 1304 1308 1310 1306
4 1305 1307 1311 1309
4 1304 1305 1309 1308
4 1306 1310 1311 1307
4 1304 1306 1307 1305
4 1308 1309 1311 1310
4 1312 1316 1318 1314
4 1313 1315 1319 1317
4 1312 1313 1317 1316
4 1314 1318 1319 1315
4 1312 1314 1315 1313
4 1316 1317 1319 1318
4 1320 1324 1326 1322
4 1321 1323 1327 1325
4 1320 1321 1325 1324
4 1322 1326 1327 1323
4 1320 1322 1323 1321
4 1324 1325 1327 1326
4 1328 1332 1334 1330
4 1329 1331 1335 1333
4 1328 1329 1333 1332
4 1330 1334 1335 1331
4 1328 1330 1331 1329
4 1332 1333 1335 1334
4 1336 1340 1342 1338
4 1337 1339 1343 1341
4 1336 1337 1341 1340
4 1338 1342 1343 1339
4 1336 1338 1339 1337
4 1340 1341 1343 1342
4 1344 1348 1350 1346
4 1345 1347 1351 1349
4 1344 1345 1349 1348
4 1346 1350 1351 1347
4 1344 1346 1347 1345
4 1348 1349 1351 1350
4 1352 1356 1358 1354
4 1353 1355 1359 1357
4 1352 1353 1357 1356
4 1354 1358 1359 1355
4 1352 1354 1355 1353
4 1356 1357 1359 1358
4 1360 1364 1366 1362
4 1361 1363 1367 1365
4 1360 1361 1365 1364
4 1362 1366 1367 1363
4 1360 1362 1363 1361
4 1364 1365 1367 1366
4 1368 1372 1374 1370
4 1369 1371 1375 1373
4 1368 1369 1373 1372
4 1370 1374 1375 1371
4 1368 1370 1371 1369
4 1372 1373 1375 1374
4 1376 1380 1382 1378
4 1377 1379 1383 1381
4 1376 1377 1381 1380
4 1378 1382 1383 1379
4 1376 1378 1379 1377
4 1380 1381 1383 1382
4 1384 1388 1390 1386
4 1385 1387 1391 1389
4 1384 1385 1389 1388
4 1386 1390 1391 1387
4 1384 1386 1387 1385
4 1388 1389 1391 1390
4 1392 1396 1398 1394
4 1393 1395 1399 1397
4 1392 1393 1397 1396
4 1394 1398 1399 1395
4 1392 1394 1395 1393
4 1396 1397 1399 1398
4 1400 1404 1406 1402
4 1401 1403 1407 1405
4 1400 1401 1405 1404
4 1402 1406 1407 1403
4 1400 1402 1403 1401
4 1404 1405 1407 1406
4 1408 1412 1414 1410
4 1409 1411 1415 1413
4 1408 1409 1413 1412
4 1410 1414 1415 1411
4 1408 1410 1411 1409
4 1412 1413 1415 1414
4 1416 1420 1422 1418
4 1417 1419 1423 1421
4 1416 1417 1421 1420
4 1418 1422 1423 1419
4 1416 1418 1419 1417
4 1420 1421 1423 1422
4 1424 1428 1430 1426
4 1425 1427 1431 1429
4 1424 1425 1429 1428
4 1426 1430 1431 1427
4 1424 1426 1427 1425
4 1428 1429 1431 1430
4 1432 1436 1438 1434
4 1433 1435 1439 1437
4 1432 1433 1437 1436
4 1434 1438 1439 1435
4 1432 1434 1435 1433
4 1436 1437 1439 1438
4 1440 1444 1446 1442
4 1441 1443 1447 1445
4 1440 1441 1445 1444
4 1442 1446 1447 1443
4 1440 1442 1443 1441
4 1444 1445 1447 1446
4 1448 1452 1454 1450
4 1449 1451 1455 1453
4 1448 1449 1453 1452
4 1450 1454 1455 1451
4 1448 1450 1451 1449
4 1452 1453 1455 1454
4 1456 1460 1462 1458
4 1457 1459 1463 1461
4 1456 1457 1461 1460
4 1458 1462 1463 1459
4 1456 1458 1459 1457
4 1460 1461 1463 1462
4 1464 1468 1470 1466
4 1465 1467 1471 1469
4 1464 1465 1469 1468
4 1466 1470 1471 1467
4 1464 1466 1467 1465
4 1468 1469 1471 1470
4 1472 1476 1478 1474
4 1473 1475 1479 1477
4 1472 1473 1477 1476
4 1474 1478 1479 1475
4 1472 1474 1475 1473
4 1476 1477 1479 1478
4 1480 1484 1486 1482
4 1481 1483 1487 1485
4 1480 1481 1485 1484
4 1482 1486 1487 1483
4 1480 1482 1483 1481
4 1484 1485 1487 1486
4 1488 1492 1494 1490
4 1489 1491 1495 1493
4 1488 1489 1493 1492
4 1490 1494 1495 1491
4 1488 1490 1491 1489
4 1492 1493 1495 1494
4 1496 1500 1502 1498
4 1497 1499 1503 1501
4 1496 1497 1501 1500
4 1498 1502 1503 1499
4 1496 1498 1499 1497
4 1500 1501 1503 1502
4 1504 1508 1510 1506
4 1505 1507 1511 1509
4 1504 1505 1509 1508
4 1506 1510 1511 1507
4 1504 1506 1507 1505
4 1508 1509 1511 1510
4 1512 1516 1518 1514
4 1513 1515 1519 1517
4 1512 1513 1517 1516
4 1514 1518 1519 1515
4 1512 1514 1515 1513
4 1516 1517 1519 1518
4 1520 1524 1526 1522
4 1521 1523 1527 1525
4 1520 1521 1525 1524
4 1522 1526 1527 1523
4 1520 1522 1523 1521
4 1524 1525 1527 1526
4 1528 1532 1534 1530
4 1529 1531 1535 1533
4 1528 1529 1533 1532
4 1530 1534 1535 1531
4 1528 1530 1531 1529
4 1532 1533 1535 1534
4 1536 1540 1542 1538
4 1537 1539 1543 1541
4 1536 1537 1541 1540
4 1538 1542 1543 1539
4 1536 1538 1539 1537
4 1540 1541 1543 1542
4 1544 1548 1550 1546
4 1545 1547 1551 1549
4 1544 1545 1549 1548
4 1546 1550 1551 1547
4 1544 1546 1547 1545
4 1548 1549 1551 1550
4 1552 1556 1558 1554
4 1553 1555 1559 1557
4 1552 1553 1557 1556
4 1554 1558 1559 1555
4 1552 1554 1555 1553
4 1556 1557 1559 1558
4 1560 1564 1566 1562
4 1561 1563 1567 1565
4 1560 1561 1565 1564
4 1562 1566 1567 1563
4 1560 1562 1563 1561
4 1564 1565 1567 1566
4 1568 1572 1574 1570
4 1569 1571 1575 1573
4 1568 1569 1573 1572
4 1570 1574 1575 1571
4 1568 1570 1571 1569
4 1572 1573 1575 1574
4 1576 1580 1582 1578
4 1577 1579 1583 1581
4 1576 1577 1581 1580
4 1578 1582 1583 1579
4 1576 1578 1579 1577
4 1580 1581 1583 1582
4 1584 1588 1590 1586
4 1585 1587 1591 1589
4 1584 1585 1589 1588
4 1586 1590 1591 1587
4 1584 1586 1587 1585
4 1588 1589 1591 1590
4 1592 1596 1598 1594
4 1593 1595 1599 1597
4 1592 1593 1597 1596
4 1594 1598 1599 1595
4 1592 1594 1595 1593
4 1596 1597 1599 1598
4 1600 1604 1606 1602
4 1601 1603 1607 1605
4 1600 1601 1605 1604
4 1602 1606 1607 1603
4 1600 1602 1603 1601
4 1604 1605 1607 1606
4 1608 1612 1614 1610
4 1609 1611 1615 1613
4 1608 1609 1613 1612
4 1610 1614 1615 1611
4 1608 1610 1611 1609
4 1612 1613 1615 1614
4 1616 1620 1622 1618
4 1617 1619 1623 1621
4 1616 1617 1621 1620
4 1618 1622 1623 1619
4 1616 1618 1619 1617
4 1620 1621 1623 1622
4 1624 1628 1630 1626
4 1625 1627 1631 1629
4 1624 1625 1629 1628
4 1626 1630 1631 1627
4 1624 1626 1627 1625
4 1628 1629 1631 1630
4 1632 1636 1638 1634
4 1633 1635 1639 1637
4 1632 1633 1637 1636
4 1634 1638 1639 1635
4 1632 1634 1635 1633
4 1636 1637 1639 1638
4 1640 1644 1646 1642
4 1641 1643 1647 1645
4 1640 1641 1645 1644
4 1642 1646 1647 1643
4 1640 1642 1643 1641
4 1644 1645 1647 1646
4 1648 1652 1654 1650
4 1649 1651 1655 1653
4 1648 1649 1653 1652
4 1650 1654 1655 1651
4 1648 1650 1651 1649
4 1652 1653 1655 1654
4 1656 1660 1662 1658
4 1657 1659 1663 1661
4 1656 1657 1661 1660
4 1658 1662 1663 1659
4 1656 1658 1659 1657
4 1660 1661 1663 1662
4 1664 1668 1670 1666
4 1665 1667 1671 1669
4 1664 1665 1669 1668
4 1666 1670 1671 1667
4 1664 1666 1667 1665
4 1668 1669 1671 1670
4 1672 1676 1678 1674
4 1673 1675 1679 1677
4 1672 1673 1677 1676
4 1674 1678 1679 1675
4 1672 1674 1675 1673
4 1676 1677 1679 1678
4 1680 1684 1686 1682
4 1681 1683 1687 1685
4 1680 1681 1685 1684
4 1682 1686 1687 1683
4 1680 1682 1683 1681
4 1684 1685 1687 1686
4 1688 1692 1694 1690
4 1689 1691 1695 1693
4 1688 1689 1693 1692
4 1690 1694 1695 1691
4 1688 1690 1691 1689
4 1692 1693 1695 1694
4 1696 1700 1702 1698
4 1697 1699 1703 1701
4 1696 1697 1701 1700
4 1698 1702 1703 1699
4 1696 1698 1699 1697
4 1700 1701 1703 1702
4 1704 1708 1710 1706
4 1705 1707 1711 1709
4 1704 1705 1709 1708
4 1706 1710 1711 1707
4 1704 1706 1707 1705
4 1708 1709 1711 1710
4 1712 1716 1718 1714
4 1713 1715 1719 1717
4 1712 1713 1717 1716
4 1714 1718 1719 1715
4 1712 1714 1715 1713
4 1716 1717 1719 1718
4 1720 1724 1726 1722
4 1721 1723 1727 1725
4 1720 1721 1725 1724
4 1722 1726 1727 1723
4 1720 1722 1723 1721
4 1724 1725 1727 1726
4 1728 1732 1734 1730
4 1729 1731 1735 1733
4 1728 1729 1733 1732
4 1730 1734 1735 1731
4 1728 1730 1731 1729
4 1732 1733 1735 1734
4 1736 1740 1742 1738
4 1737 1739 1743 1741
4 1736 1737 1741 1740
4 1738 1742 1743 1739
4 1736 1738 1739 1737
4 1740 1741 1743 1742
4 1744 1748 1750 1746
4 1745 1747 1751 1749
4 1744 1745 1749 1748
4 1746 1750 1751 1747
4 1744 1746 1747 1745
4 1748 1749 1751 1750
4 1752 1756 1758 1754
4 1753 1755 1759 1757
4 1752 1753 1757 1756
4 1754 1758 1759 1755
4 1752 1754 1755 1753
4 1756 1757 1759 1758
4 1760 1764 1766 1762
4 1761 1763 1767 1765
4 1760 1761 1765 1764
4 1762 1766 1767 1763
4 1760 1762 1763 1761
4 1764 1765 1767 1766
4 1768 1772 1774 1770
4 1769 1771 1775 1773
4 1768 1769 1773 1772
4 1770 1774 1775 1771
4 1768 1770 1771 1769
4 1772 1773 1775 1774
4 1776 1780 1782 1778
4 1777 1779 1783 1781
4 1776 1777 1781 1780
4 1778 1782 1783 1779
4 1776 1778 1779 1777
4 1780 1781 1783 1782
4 1784 1788 1790 1786
4 1785 1787 1791 1789
4 1784 1785 1789 1788
4 1786 1790 1791 1787
4 1784 1786 1787 1785
4 1788 1789 1791 1790
4 1792 1796 1798 1794
4 1793 1795 1799 1797
4 1792 1793 1797 1796
4 1794 1798 1799 1795
4 1792 1794 1795 1793
4 1796 1797 1799 1798
4 1800 1804 1806 1802
4 1801 1803 1807 1805
4 1800 1801 1805 1804
4 1802 1806 1807 1803
4 1800 1802 1803 1801
4 1804 1805 1807 1806
4 1808 1812 1814 1810
4 1809 1811 1815 1813
4 1808 1809 1813 1812
4 1810 1814 1815 1811
4 1808 1810 1811 1809
4 1812 1813 1815 1814
4 1816 1820 1822 1818
4 1817 1819 1823 1821
4 1816 1817 1821 1820
4 1818 1822 1823 1819
4 1816 1818 1819 1817
4 1820 1821 1823 1822
4 1824 1828 1830 1826
4 1825 1827 1831 1829
4 1824 1825 1829 1828
4 1826 1830 1831 1827
4 1824 1826 1827 1825
4 1828 1829 1831 1830
4 1832 1836 1838 1834
4 1833 1835 1839 1837
4 1832 1833 1837 1836
4 1834 1838 1839 1835
4 1832 1834 1835 1833
4 1836 1837 1839 1838
4 1840 1844 1846 1842
4 1841 1843 1847 1845
4 1840 1841 1845 1844
4 1842 1846 1847 1843
4 1840 1842 1843 1841
4 1844 1845 1847 1846
4 1848 1852 1854 1850
4 1849 1851 1855 1853
4 1848 1849 1853 1852
4 1850 1854 1855 1851
4 1848 1850 1851 1849
4 1852 1853 1855 1854
4 1856 1860 1862 1858
4 1857 1859 1863 1861
4 1856 1857 1861 1860
4 1858 1862 1863 1859
4 1856 1858 1859 1857
4 1860 1861 1863 1862
4 1864 1868 1870 1866
4 1865 1867 1871 1869
4 1864 1865 1869 1868
4 1866 1870 1871 1867
4 1864 1866 1867 1865
4 1868 1869 1871 1870
4 1872 1876 1878 1874
4 1873 1875 1879 1877
4 1872 1873 1877 1876
4 1874 1878 1879 1875
4 1872 1874 1875 1873
4 1876 1877 1879 1878
4 1880 1884 1886 1882
4 1881 1883 1887 1885
4 1880 1881 1885 1884
4 1882 1886 1887 1883
4 1880 1882 1883 1881
4 1884 1885 1887 1886
4 1888 1892 1894 1890
4 1889 1891 1895 1893
4 1888 1889 1893 1892
4 1890 1894 1895 1891
4 1888 1890 1891 1889
4 1892 1893 1895 1894
4 1896 1900 1902 1898
4 1897 1899 1903 1901
4 1896 1897 1901 1900
4 1898 1902 1903 1899
4 1896 1898 1899 1897
4 1900 1901 1903 1902
4 1904 1908 1910 1906
4 1905 1907 1911 1909
4 1904 1905 1909 1908
4 1906 1910 1911 1907
4 1904 1906 1907 1905
4 1908 1909 1911 1910
