ply
format ascii 1.0
comment : MagicaVoxel @ Ephtracy
element vertex 992
property float x
property float y
property float z
property uchar red
property uchar green
property uchar blue
element face 744
property list uchar int vertex_index
end_header
0.705 -4.095 0.005 100 73 32
0.795 -4.095 0.005 100 73 32
0.705 -4.005 0.005 100 73 32
0.795 -4.005 0.005 100 73 32
0.705 -4.095 0.095 100 73 32
0.795 -4.095 0.095 100 73 32
0.705 -4.005 0.095 100 73 32
0.795 -4.005 0.095 100 73 32
0.805 -4.095 0.005 100 73 32
0.895 -4.095 0.005 100 73 32
0.805 -4.005 0.005 100 73 32
0.895 -4.005 0.005 100 73 32
0.805 -4.095 0.095 100 73 32
0.895 -4.095 0.095 100 73 32
0.805 -4.005 0.095 100 73 32
0.895 -4.005 0.095 100 73 32
0.705 -3.995 0.005 100 73 32
0.795 -3.995 0.005 100 73 32
0.705 -3.905 0.005 100 73 32
0.795 -3.905 0.005 100 73 32
0.705 -3.995 0.095 100 73 32
0.795 -3.995 0.095 100 73 32
0.705 -3.905 0.095 100 73 32
0.795 -3.905 0.095 100 73 32
0.805 -3.995 0.005 100 73 32
0.895 -3.995 0.005 100 73 32
0.805 -3.905 0.005 100 73 32
0.895 -3.905 0.005 100 73 32
0.805 -3.995 0.095 100 73 32
0.895 -3.995 0.095 100 73 32
0.805 -3.905 0.095 100 73 32
0.895 -3.905 0.095 100 73 32
0.705 -4.295 0.105 42 130 67
0.795 -4.295 0.105 42 130 67
0.705 -4.205 0.105 42 130 67
0.795 -4.205 0.105 42 130 67
0.705 -4.295 0.195 42 130 67
0.795 -4.295 0.195 42 130 67
0.705 -4.205 0.195 42 130 67
0.795 -4.205 0.195 42 130 67
0.805 -4.295 0.105 42 130 67
0.895 -4.295 0.105 42 130 67
0.805 -4.205 0.105 42 130 67
0.895 -4.205 0.105 42 130 67
0.805 -4.295 0.195 42 130 67
0.895 -4.295 0.195 42 130 67
0.805 -4.205 0.195 42 130 67
0.895 -4.205 0.195 42 130 67
0.605 -4.195 0.105 42 130 67
0.695 -4.195 0.105 42 130 67
0.605 -4.105 0.105 42 130 67
0.695 -4.105 0.105 42 130 67
0.605 -4.195 0.195 42 130 67
0.695 -4.195 0.195 42 130 67
0.605 -4.105 0.195 42 130 67
0.695 -4.105 0.195 42 130 67
0.705 -4.195 0.105 42 130 67
0.795 -4.195 0.105 42 130 67
0.705 -4.105 0.105 42 130 67
0.795 -4.105 0.105 42 130 67
0.705 -4.195 0.195 42 130 67
0.795 -4.195 0.195 42 130 67
0.705 -4.105 0.195 42 130 67
0.795 -4.105 0.195 42 130 67
0.805 -4.195 0.105 42 130 67
0.895 -4.195 0.105 42 130 67
0.805 -4.105 0.105 42 130 67
0.895 -4.105 0.105 42 130 67
0.805 -4.195 0.195 42 130 67
0.895 -4.195 0.195 42 130 67
0.805 -4.105 0.195 42 130 67
0.895 -4.105 0.195 42 130 67
0.905 -4.195 0.105 42 130 67
0.995 -4.195 0.105 42 130 67
0.905 -4.105 0.105 42 130 67
0.995 -4.105 0.105 42 130 67
0.905 -4.195 0.195 42 130 67
0.995 -4.195 0.195 42 130 67
0.905 -4.105 0.195 42 130 67
0.995 -4.105 0.195 42 130 67
0.505 -4.095 0.105 42 130 67
0.595 -4.095 0.105 42 130 67
0.505 -4.005 0.105 42 130 67
0.595 -4.005 0.105 42 130 67
0.505 -4.095 0.195 42 130 67
0.595 -4.095 0.195 42 130 67
0.505 -4.005 0.195 42 130 67
0.595 -4.005 0.195 42 130 67
0.605 -4.095 0.105 42 130 67
0.695 -4.095 0.105 42 130 67
0.605 -4.005 0.105 42 130 67
0.695 -4.005 0.105 42 130 67
0.605 -4.095 0.195 42 130 67
0.695 -4.095 0.195 42 130 67
0.605 -4.005 0.195 42 130 67
0.695 -4.005 0.195 42 130 67
0.705 -4.095 0.105 42 130 67
0.795 -4.095 0.105 42 130 67
0.705 -4.005 0.105 42 130 67
0.795 -4.005 0.105 42 130 67
0.705 -4.095 0.195 42 130 67
0.795 -4.095 0.195 42 130 67
0.705 -4.005 0.195 42 130 67
0.795 -4.005 0.195 42 130 67
0.805 -4.095 0.105 42 130 67
0.895 -4.095 0.105 42 130 67
0.805 -4.005 0.105 42 130 67
0.895 -4.005 0.105 42 130 67
0.805 -4.095 0.195 42 130 67
0.895 -4.095 0.195 42 130 67
0.805 -4.005 0.195 42 130 67
0.895 -4.005 0.195 42 130 67
0.905 -4.095 0.105 42 130 67
0.995 -4.095 0.105 42 130 67
0.905 -4.005 0.105 42 130 67
0.995 -4.005 0.105 42 130 67
0.905 -4.095 0.195 42 130 67
0.995 -4.095 0.195 42 130 67
0.905 -4.005 0.195 42 130 67
0.995 -4.005 0.195 42 130 67
1.005 -4.095 0.105 42 130 67
1.095 -4.095 0.105 42 130 67
1.005 -4.005 0.105 42 130 67
1.095 -4.005 0.105 42 130 67
1.005 -4.095 0.195 42 130 67
1.095 -4.095 0.195 42 130 67
1.005 -4.005 0.195 42 130 67
1.095 -4.005 0.195 42 130 67
0.505 -3.995 0.105 42 130 67
0.595 -3.995 0.105 42 130 67
0.505 -3.905 0.105 42 130 67
0.595 -3.905 0.105 42 130 67
0.505 -3.995 0.195 42 130 67
0.595 -3.995 0.195 42 130 67
0.505 -3.905 0.195 42 130 67
0.595 -3.905 0.195 42 130 67
0.605 -3.995 0.105 42 130 67
0.695 -3.995 0.105 42 130 67
0.605 -3.905 0.105 42 130 67
0.695 -3.905 0.105 42 130 67
0.605 -3.995 0.195 42 130 67
0.695 -3.995 0.195 42 130 67
0.605 -3.905 0.195 42 130 67
0.695 -3.905 0.195 42 130 67
0.705 -3.995 0.105 42 130 67
0.795 -3.995 0.105 42 130 67
0.705 -3.905 0.105 42 130 67
0.795 -3.905 0.105 42 130 67
0.705 -3.995 0.195 42 130 67
0.795 -3.995 0.195 42 130 67
0.705 -3.905 0.195 42 130 67
0.795 -3.905 0.195 42 130 67
0.805 -3.995 0.105 42 130 67
0.895 -3.995 0.105 42 130 67
0.805 -3.905 0.105 42 130 67
0.895 -3.905 0.105 42 130 67
0.805 -3.995 0.195 42 130 67
0.895 -3.995 0.195 42 130 67
0.805 -3.905 0.195 42 130 67
0.895 -3.905 0.195 42 130 67
0.905 -3.995 0.105 42 130 67
0.995 -3.995 0.105 42 130 67
0.905 -3.905 0.105 42 130 67
0.995 -3.905 0.105 42 130 67
0.905 -3.995 0.195 42 130 67
0.995 -3.995 0.195 42 130 67
0.905 -3.905 0.195 42 130 67
0.995 -3.905 0.195 42 130 67
1.005 -3.995 0.105 42 130 67
1.095 -3.995 0.105 42 130 67
1.005 -3.905 0.105 42 130 67
1.095 -3.905 0.105 42 130 67
1.005 -3.995 0.195 42 130 67
1.095 -3.995 0.195 42 130 67
1.005 -3.905 0.195 42 130 67
1.095 -3.905 0.195 42 130 67
0.605 -3.895 0.105 42 130 67
0.695 -3.895 0.105 42 130 67
0.605 -3.805 0.105 42 130 67
0.695 -3.805 0.105 42 130 67
0.605 -3.895 0.195 42 130 67
0.695 -3.895 0.195 42 130 67
0.605 -3.805 0.195 42 130 67
0.695 -3.805 0.195 42 130 67
0.705 -3.895 0.105 42 130 67
0.795 -3.895 0.105 42 130 67
0.705 -3.805 0.105 42 130 67
0.795 -3.805 0.105 42 130 67
0.705 -3.895 0.195 42 130 67
0.795 -3.895 0.195 42 130 67
0.705 -3.805 0.195 42 130 67
0.795 -3.805 0.195 42 130 67
0.805 -3.895 0.105 42 130 67
0.895 -3.895 0.105 42 130 67
0.805 -3.805 0.105 42 130 67
0.895 -3.805 0.105 42 130 67
0.805 -3.895 0.195 42 130 67
0.895 -3.895 0.195 42 130 67
0.805 -3.805 0.195 42 130 67
0.895 -3.805 0.195 42 130 67
0.905 -3.895 0.105 42 130 67
0.995 -3.895 0.105 42 130 67
0.905 -3.805 0.105 42 130 67
0.995 -3.805 0.105 42 130 67
0.905 -3.895 0.195 42 130 67
0.995 -3.895 0.195 42 130 67
0.905 -3.805 0.195 42 130 67
0.995 -3.805 0.195 42 130 67
0.705 -3.795 0.105 42 130 67
0.795 -3.795 0.105 42 130 67
0.705 -3.705 0.105 42 130 67
0.795 -3.705 0.105 42 130 67
0.705 -3.795 0.195 42 130 67
0.795 -3.795 0.195 42 130 67
0.705 -3.705 0.195 42 130 67
0.795 -3.705 0.195 42 130 67
0.805 -3.795 0.105 42 130 67
0.895 -3.795 0.105 42 130 67
0.805 -3.705 0.105 42 130 67
0.895 -3.705 0.105 42 130 67
0.805 -3.795 0.195 42 130 67
0.895 -3.795 0.195 42 130 67
0.805 -3.705 0.195 42 130 67
0.895 -3.705 0.195 42 130 67
0.705 -4.295 0.205 42 130 67
0.795 -4.295 0.205 42 130 67
0.705 -4.205 0.205 42 130 67
0.795 -4.205 0.205 42 130 67
0.705 -4.295 0.295 42 130 67
0.795 -4.295 0.295 42 130 67
0.705 -4.205 0.295 42 130 67
0.795 -4.205 0.295 42 130 67
0.805 -4.295 0.205 42 130 67
0.895 -4.295 0.205 42 130 67
0.805 -4.205 0.205 42 130 67
0.895 -4.205 0.205 42 130 67
0.805 -4.295 0.295 42 130 67
0.895 -4.295 0.295 42 130 67
0.805 -4.205 0.295 42 130 67
0.895 -4.205 0.295 42 130 67
0.605 -4.195 0.205 42 130 67
0.695 -4.195 0.205 42 130 67
0.605 -4.105 0.205 42 130 67
0.695 -4.105 0.205 42 130 67
0.605 -4.195 0.295 42 130 67
0.695 -4.195 0.295 42 130 67
0.605 -4.105 0.295 42 130 67
0.695 -4.105 0.295 42 130 67
0.705 -4.195 0.205 42 130 67
0.795 -4.195 0.205 42 130 67
0.705 -4.105 0.205 42 130 67
0.795 -4.105 0.205 42 130 67
0.705 -4.195 0.295 42 130 67
0.795 -4.195 0.295 42 130 67
0.705 -4.105 0.295 42 130 67
0.795 -4.105 0.295 42 130 67
0.805 -4.195 0.205 42 130 67
0.895 -4.195 0.205 42 130 67
0.805 -4.105 0.205 42 130 67
0.895 -4.105 0.205 42 130 67
0.805 -4.195 0.295 42 130 67
0.895 -4.195 0.295 42 130 67
0.805 -4.105 0.295 42 130 67
0.895 -4.105 0.295 42 130 67
0.905 -4.195 0.205 42 130 67
0.995 -4.195 0.205 42 130 67
0.905 -4.105 0.205 42 130 67
0.995 -4.105 0.205 42 130 67
0.905 -4.195 0.295 42 130 67
0.995 -4.195 0.295 42 130 67
0.905 -4.105 0.295 42 130 67
0.995 -4.105 0.295 42 130 67
0.505 -4.095 0.205 42 130 67
0.595 -4.095 0.205 42 130 67
0.505 -4.005 0.205 42 130 67
0.595 -4.005 0.205 42 130 67
0.505 -4.095 0.295 42 130 67
0.595 -4.095 0.295 42 130 67
0.505 -4.005 0.295 42 130 67
0.595 -4.005 0.295 42 130 67
0.605 -4.095 0.205 42 130 67
0.695 -4.095 0.205 42 130 67
0.605 -4.005 0.205 42 130 67
0.695 -4.005 0.205 42 130 67
0.605 -4.095 0.295 42 130 67
0.695 -4.095 0.295 42 130 67
0.605 -4.005 0.295 42 130 67
0.695 -4.005 0.295 42 130 67
0.705 -4.095 0.205 42 130 67
0.795 -4.095 0.205 42 130 67
0.705 -4.005 0.205 42 130 67
0.795 -4.005 0.205 42 130 67
0.705 -4.095 0.295 42 130 67
0.795 -4.095 0.295 42 130 67
0.705 -4.005 0.295 42 130 67
0.795 -4.005 0.295 42 130 67
0.805 -4.095 0.205 42 130 67
0.895 -4.095 0.205 42 130 67
0.805 -4.005 0.205 42 130 67
0.895 -4.005 0.205 42 130 67
0.805 -4.095 0.295 42 130 67
0.895 -4.095 0.295 42 130 67
0.805 -4.005 0.295 42 130 67
0.895 -4.005 0.295 42 130 67
0.905 -4.095 0.205 42 130 67
0.995 -4.095 0.205 42 130 67
0.905 -4.005 0.205 42 130 67
0.995 -4.005 0.205 42 130 67
0.905 -4.095 0.295 42 130 67
0.995 -4.095 0.295 42 130 67
0.905 -4.005 0.295 42 130 67
0.995 -4.005 0.295 42 130 67
1.005 -4.095 0.205 42 130 67
1.095 -4.095 0.205 42 130 67
1.005 -4.005 0.205 42 130 67
1.095 -4.005 0.205 42 130 67
1.005 -4.095 0.295 42 130 67
1.095 -4.095 0.295 42 130 67
1.005 -4.005 0.295 42 130 67
1.095 -4.005 0.295 42 130 67
0.505 -3.995 0.205 42 130 67
0.595 -3.995 0.205 42 130 67
0.505 -3.905 0.205 42 130 67
0.595 -3.905 0.205 42 130 67
0.505 -3.995 0.295 42 130 67
0.595 -3.995 0.295 42 130 67
0.505 -3.905 0.295 42 130 67
0.595 -3.905 0.295 42 130 67
0.605 -3.995 0.205 42 130 67
0.695 -3.995 0.205 42 130 67
0.605 -3.905 0.205 42 130 67
0.695 -3.905 0.205 42 130 67
0.605 -3.995 0.295 42 130 67
0.695 -3.995 0.295 42 130 67
0.605 -3.905 0.295 42 130 67
0.695 -3.905 0.295 42 130 67
0.705 -3.995 0.205 42 130 67
0.795 -3.995 0.205 42 130 67
0.705 -3.905 0.205 42 130 67
0.795 -3.905 0.205 42 130 67
0.705 -3.995 0.295 42 130 67
0.795 -3.995 0.295 42 130 67
0.705 -3.905 0.295 42 130 67
0.795 -3.905 0.295 42 130 67
0.805 -3.995 0.205 42 130 67
0.895 -3.995 0.205 42 130 67
0.805 -3.905 0.205 42 130 67
0.895 -3.905 0.205 42 130 67
0.805 -3.995 0.295 42 130 67
0.895 -3.995 0.295 42 130 67
0.805 -3.905 0.295 42 130 67
0.895 -3.905 0.295 42 130 67
0.905 -3.995 0.205 42 130 67
0.995 -3.995 0.205 42 130 67
0.905 -3.905 0.205 42 130 67
0.995 -3.905 0.205 42 130 67
0.905 -3.995 0.295 42 130 67
0.995 -3.995 0.295 42 130 67
0.905 -3.905 0.295 42 130 67
0.995 -3.905 0.295 42 130 67
1.005 -3.995 0.205 42 130 67
1.095 -3.995 0.205 42 130 67
1.005 -3.905 0.205 42 130 67
1.095 -3.905 0.205 42 130 67
1.005 -3.995 0.295 42 130 67
1.095 -3.995 0.295 42 130 67
1.005 -3.905 0.295 42 130 67
1.095 -3.905 0.295 42 130 67
0.605 -3.895 0.205 42 130 67
0.695 -3.895 0.205 42 130 67
0.605 -3.805 0.205 42 130 67
0.695 -3.805 0.205 42 130 67
0.605 -3.895 0.295 42 130 67
0.695 -3.895 0.295 42 130 67
0.605 -3.805 0.295 42 130 67
0.695 -3.805 0.295 42 130 67
0.705 -3.895 0.205 42 130 67
0.795 -3.895 0.205 42 130 67
0.705 -3.805 0.205 42 130 67
0.795 -3.805 0.205 42 130 67
0.705 -3.895 0.295 42 130 67
0.795 -3.895 0.295 42 130 67
0.705 -3.805 0.295 42 130 67
0.795 -3.805 0.295 42 130 67
0.805 -3.895 0.205 42 130 67
0.895 -3.895 0.205 42 130 67
0.805 -3.805 0.205 42 130 67
0.895 -3.805 0.205 42 130 67
0.805 -3.895 0.295 42 130 67
0.895 -3.895 0.295 42 130 67
0.805 -3.805 0.295 42 130 67
0.895 -3.805 0.295 42 130 67
0.905 -3.895 0.205 42 130 67
0.995 -3.895 0.205 42 130 67
0.905 -3.805 0.205 42 130 67
0.995 -3.805 0.205 42 130 67
0.905 -3.895 0.295 42 130 67
0.995 -3.895 0.295 42 130 67
0.905 -3.805 0.295 42 130 67
0.995 -3.805 0.295 42 130 67
0.705 -3.795 0.205 42 130 67
0.795 -3.795 0.205 42 130 67
0.705 -3.705 0.205 42 130 67
0.795 -3.705 0.205 42 130 67
0.705 -3.795 0.295 42 130 67
0.795 -3.795 0.295 42 130 67
0.705 -3.705 0.295 42 130 67
0.795 -3.705 0.295 42 130 67
0.805 -3.795 0.205 42 130 67
0.895 -3.795 0.205 42 130 67
0.805 -3.705 0.205 42 130 67
0.895 -3.705 0.205 42 130 67
0.805 -3.795 0.295 42 130 67
0.895 -3.795 0.295 42 130 67
0.805 -3.705 0.295 42 130 67
0.895 -3.705 0.295 42 130 67
0.705 -4.295 0.305 42 130 67
0.795 -4.295 0.305 42 130 67
0.705 -4.205 0.305 42 130 67
0.795 -4.205 0.305 42 130 67
0.705 -4.295 0.395 42 130 67
0.795 -4.295 0.395 42 130 67
0.705 -4.205 0.395 42 130 67
0.795 -4.205 0.395 42 130 67
0.805 -4.295 0.305 42 130 67
0.895 -4.295 0.305 42 130 67
0.805 -4.205 0.305 42 130 67
0.895 -4.205 0.305 42 130 67
0.805 -4.295 0.395 42 130 67
0.895 -4.295 0.395 42 130 67
0.805 -4.205 0.395 42 130 67
0.895 -4.205 0.395 42 130 67
0.605 -4.195 0.305 42 130 67
0.695 -4.195 0.305 42 130 67
0.605 -4.105 0.305 42 130 67
0.695 -4.105 0.305 42 130 67
0.605 -4.195 0.395 42 130 67
0.695 -4.195 0.395 42 130 67
0.605 -4.105 0.395 42 130 67
0.695 -4.105 0.395 42 130 67
0.705 -4.195 0.305 42 130 67
0.795 -4.195 0.305 42 130 67
0.705 -4.105 0.305 42 130 67
0.795 -4.105 0.305 42 130 67
0.705 -4.195 0.395 42 130 67
0.795 -4.195 0.395 42 130 67
0.705 -4.105 0.395 42 130 67
0.795 -4.105 0.395 42 130 67
0.805 -4.195 0.305 42 130 67
0.895 -4.195 0.305 42 130 67
0.805 -4.105 0.305 42 130 67
0.895 -4.105 0.305 42 130 67
0.805 -4.195 0.395 42 130 67
0.895 -4.195 0.395 42 130 67
0.805 -4.105 0.395 42 130 67
0.895 -4.105 0.395 42 130 67
0.905 -4.195 0.305 42 130 67
0.995 -4.195 0.305 42 130 67
0.905 -4.105 0.305 42 130 67
0.995 -4.105 0.305 42 130 67
0.905 -4.195 0.395 42 130 67
0.995 -4.195 0.395 42 130 67
0.905 -4.105 0.395 42 130 67
0.995 -4.105 0.395 42 130 67
0.505 -4.095 0.305 42 130 67
0.595 -4.095 0.305 42 130 67
0.505 -4.005 0.305 42 130 67
0.595 -4.005 0.305 42 130 67
0.505 -4.095 0.395 42 130 67
0.595 -4.095 0.395 42 130 67
0.505 -4.005 0.395 42 130 67
0.595 -4.005 0.395 42 130 67
0.605 -4.095 0.305 42 130 67
0.695 -4.095 0.305 42 130 67
0.605 -4.005 0.305 42 130 67
0.695 -4.005 0.305 42 130 67
0.605 -4.095 0.395 42 130 67
0.695 -4.095 0.395 42 130 67
0.605 -4.005 0.395 42 130 67
0.695 -4.005 0.395 42 130 67
0.705 -4.095 0.305 42 130 67
0.795 -4.095 0.305 42 130 67
0.705 -4.005 0.305 42 130 67
0.795 -4.005 0.305 42 130 67
0.705 -4.095 0.395 42 130 67
0.795 -4.095 0.395 42 130 67
0.705 -4.005 0.395 42 130 67
0.795 -4.005 0.395 42 130 67
0.805 -4.095 0.305 42 130 67
0.895 -4.095 0.305 42 130 67
0.805 -4.005 0.305 42 130 67
0.895 -4.005 0.305 42 130 67
0.805 -4.095 0.395 42 130 67
0.895 -4.095 0.395 42 130 67
0.805 -4.005 0.395 42 130 67
0.895 -4.005 0.395 42 130 67
0.905 -4.095 0.305 42 130 67
0.995 -4.095 0.305 42 130 67
0.905 -4.005 0.305 42 130 67
0.995 -4.005 0.305 42 130 67
0.905 -4.095 0.395 42 130 67
0.995 -4.095 0.395 42 130 67
0.905 -4.005 0.395 42 130 67
0.995 -4.005 0.395 42 130 67
1.005 -4.095 0.305 42 130 67
1.095 -4.095 0.305 42 130 67
1.005 -4.005 0.305 42 130 67
1.095 -4.005 0.305 42 130 67
1.005 -4.095 0.395 42 130 67
1.095 -4.095 0.395 42 130 67
1.005 -4.005 0.395 42 130 67
1.095 -4.005 0.395 42 130 67
0.505 -3.995 0.305 42 130 67
0.595 -3.995 0.305 42 130 67
0.505 -3.905 0.305 42 130 67
0.595 -3.905 0.305 42 130 67
0.505 -3.995 0.395 42 130 67
0.595 -3.995 0.395 42 130 67
0.505 -3.905 0.395 42 130 67
0.595 -3.905 0.395 42 130 67
0.605 -3.995 0.305 42 130 67
0.695 -3.995 0.305 42 130 67
0.605 -3.905 0.305 42 130 67
0.695 -3.905 0.305 42 130 67
0.605 -3.995 0.395 42 130 67
0.695 -3.995 0.395 42 130 67
0.605 -3.905 0.395 42 130 67
0.695 -3.905 0.395 42 130 67
0.705 -3.995 0.305 42 130 67
0.795 -3.995 0.305 42 130 67
0.705 -3.905 0.305 42 130 67
0.795 -3.905 0.305 42 130 67
0.705 -3.995 0.395 42 130 67
0.795 -3.995 0.395 42 130 67
0.705 -3.905 0.395 42 130 67
0.795 -3.905 0.395 42 130 67
0.805 -3.995 0.305 42 130 67
0.895 -3.995 0.305 42 130 67
0.805 -3.905 0.305 42 130 67
0.895 -3.905 0.305 42 130 67
0.805 -3.995 0.395 42 130 67
0.895 -3.995 0.395 42 130 67
0.805 -3.905 0.395 42 130 67
0.895 -3.905 0.395 42 130 67
0.905 -3.995 0.305 42 130 67
0.995 -3.995 0.305 42 130 67
0.905 -3.905 0.305 42 130 67
0.995 -3.905 0.305 42 130 67
0.905 -3.995 0.395 42 130 67
0.995 -3.995 0.395 42 130 67
0.905 -3.905 0.395 42 130 67
0.995 -3.905 0.395 42 130 67
1.005 -3.995 0.305 42 130 67
1.095 -3.995 0.305 42 130 67
1.005 -3.905 0.305 42 130 67
1.095 -3.905 0.305 42 130 67
1.005 -3.995 0.395 42 130 67
1.095 -3.995 0.395 42 130 67
1.005 -3.905 0.395 42 130 67
1.095 -3.905 0.395 42 130 67
0.605 -3.895 0.305 42 130 67
0.695 -3.895 0.305 42 130 67
0.605 -3.805 0.305 42 130 67
0.695 -3.805 0.305 42 130 67
0.605 -3.895 0.395 42 130 67
0.695 -3.895 0.395 42 130 67
0.605 -3.805 0.395 42 130 67
0.695 -3.805 0.395 42 130 67
0.705 -3.895 0.305 42 130 67
0.795 -3.895 0.305 42 130 67
0.705 -3.805 0.305 42 130 67
0.795 -3.805 0.305 42 130 67
0.705 -3.895 0.395 42 130 67
0.795 -3.895 0.395 42 130 67
0.705 -3.805 0.395 42 130 67
0.795 -3.805 0.395 42 130 67
0.805 -3.895 0.305 42 130 67
0.895 -3.895 0.305 42 130 67
0.805 -3.805 0.305 42 130 67
0.895 -3.805 0.305 42 130 67
0.805 -3.895 0.395 42 130 67
0.895 -3.895 0.395 42 130 67
0.805 -3.805 0.395 42 130 67
0.895 -3.805 0.395 42 130 67
0.905 -3.895 0.305 42 130 67
0.995 -3.895 0.305 42 130 67
0.905 -3.805 0.305 42 130 67
0.995 -3.805 0.305 42 130 67
0.905 -3.895 0.395 42 130 67
0.995 -3.895 0.395 42 130 67
0.905 -3.805 0.395 42 130 67
0.995 -3.805 0.395 42 130 67
0.705 -3.795 0.305 42 130 67
0.795 -3.795 0.305 42 130 67
0.705 -3.705 0.305 42 130 67
0.795 -3.705 0.305 42 130 67
0.705 -3.795 0.395 42 130 67
0.795 -3.795 0.395 42 130 67
0.705 -3.705 0.395 42 130 67
0.795 -3.705 0.395 42 130 67
0.805 -3.795 0.305 42 130 67
0.895 -3.795 0.305 42 130 67
0.805 -3.705 0.305 42 130 67
0.895 -3.705 0.305 42 130 67
0.805 -3.795 0.395 42 130 67
0.895 -3.795 0.395 42 130 67
0.805 -3.705 0.395 42 130 67
0.895 -3.705 0.395 42 130 67
0.605 -4.195 0.405 42 130 67
0.695 -4.195 0.405 42 130 67
0.605 -4.105 0.405 42 130 67
0.695 -4.105 0.405 42 130 67
0.605 -4.195 0.495 42 130 67
0.695 -4.195 0.495 42 130 67
0.605 -4.105 0.495 42 130 67
0.695 -4.105 0.495 42 130 67
0.705 -4.195 0.405 42 130 67
0.795 -4.195 0.405 42 130 67
0.705 -4.105 0.405 42 130 67
0.795 -4.105 0.405 42 130 67
0.705 -4.195 0.495 42 130 67
0.795 -4.195 0.495 42 130 67
0.705 -4.105 0.495 42 130 67
0.795 -4.105 0.495 42 130 67
0.805 -4.195 0.405 42 130 67
0.895 -4.195 0.405 42 130 67
0.805 -4.105 0.405 42 130 67
0.895 -4.105 0.405 42 130 67
0.805 -4.195 0.495 42 130 67
0.895 -4.195 0.495 42 130 67
0.805 -4.105 0.495 42 130 67
0.895 -4.105 0.495 42 130 67
0.905 -4.195 0.405 42 130 67
0.995 -4.195 0.405 42 130 67
0.905 -4.105 0.405 42 130 67
0.995 -4.105 0.405 42 130 67
0.905 -4.195 0.495 42 130 67
0.995 -4.195 0.495 42 130 67
0.905 -4.105 0.495 42 130 67
0.995 -4.105 0.495 42 130 67
0.605 -4.095 0.405 42 130 67
0.695 -4.095 0.405 42 130 67
0.605 -4.005 0.405 42 130 67
0.695 -4.005 0.405 42 130 67
0.605 -4.095 0.495 42 130 67
0.695 -4.095 0.495 42 130 67
0.605 -4.005 0.495 42 130 67
0.695 -4.005 0.495 42 130 67
0.705 -4.095 0.405 42 130 67
0.795 -4.095 0.405 42 130 67
0.705 -4.005 0.405 42 130 67
0.795 -4.005 0.405 42 130 67
0.705 -4.095 0.495 42 130 67
0.795 -4.095 0.495 42 130 67
0.705 -4.005 0.495 42 130 67
0.795 -4.005 0.495 42 130 67
0.805 -4.095 0.405 42 130 67
0.895 -4.095 0.405 42 130 67
0.805 -4.005 0.405 42 130 67
0.895 -4.005 0.405 42 130 67
0.805 -4.095 0.495 42 130 67
0.895 -4.095 0.495 42 130 67
0.805 -4.005 0.495 42 130 67
0.895 -4.005 0.495 42 130 67
0.905 -4.095 0.405 42 130 67
0.995 -4.095 0.405 42 130 67
0.905 -4.005 0.405 42 130 67
0.995 -4.005 0.405 42 130 67
0.905 -4.095 0.495 42 130 67
0.995 -4.095 0.495 42 130 67
0.905 -4.005 0.495 42 130 67
0.995 -4.005 0.495 42 130 67
0.605 -3.995 0.405 42 130 67
0.695 -3.995 0.405 42 130 67
0.605 -3.905 0.405 42 130 67
0.695 -3.905 0.405 42 130 67
0.605 -3.995 0.495 42 130 67
0.695 -3.995 0.495 42 130 67
0.605 -3.905 0.495 42 130 67
0.695 -3.905 0.495 42 130 67
0.705 -3.995 0.405 42 130 67
0.795 -3.995 0.405 42 130 67
0.705 -3.905 0.405 42 130 67
0.795 -3.905 0.405 42 130 67
0.705 -3.995 0.495 42 130 67
0.795 -3.995 0.495 42 130 67
0.705 -3.905 0.495 42 130 67
0.795 -3.905 0.495 42 130 67
0.805 -3.995 0.405 42 130 67
0.895 -3.995 0.405 42 130 67
0.805 -3.905 0.405 42 130 67
0.895 -3.905 0.405 42 130 67
0.805 -3.995 0.495 42 130 67
0.895 -3.995 0.495 42 130 67
0.805 -3.905 0.495 42 130 67
0.895 -3.905 0.495 42 130 67
0.905 -3.995 0.405 42 130 67
0.995 -3.995 0.405 42 130 67
0.905 -3.905 0.405 42 130 67
0.995 -3.905 0.405 42 130 67
0.905 -3.995 0.495 42 130 67
0.995 -3.995 0.495 42 130 67
0.905 -3.905 0.495 42 130 67
0.995 -3.905 0.495 42 130 67
0.605 -3.895 0.405 42 130 67
0.695 -3.895 0.405 42 130 67
0.605 -3.805 0.405 42 130 67
0.695 -3.805 0.405 42 130 67
0.605 -3.895 0.495 42 130 67
0.695 -3.895 0.495 42 130 67
0.605 -3.805 0.495 42 130 67
0.695 -3.805 0.495 42 130 67
0.705 -3.895 0.405 42 130 67
0.795 -3.895 0.405 42 130 67
0.705 -3.805 0.405 42 130 67
0.795 -3.805 0.405 42 130 67
0.705 -3.895 0.495 42 130 67
0.795 -3.895 0.495 42 130 67
0.705 -3.805 0.495 42 130 67
0.795 -3.805 0.495 42 130 67
0.805 -3.895 0.405 42 130 67
0.895 -3.895 0.405 42 130 67
0.805 -3.805 0.405 42 130 67
0.895 -3.805 0.405 42 130 67
0.805 -3.895 0.495 42 130 67
0.895 -3.895 0.495 42 130 67
0.805 -3.805 0.495 42 130 67
0.895 -3.805 0.495 42 130 67
0.905 -3.895 0.405 42 130 67
0.995 -3.895 0.405 42 130 67
0.905 -3.805 0.405 42 130 67
0.995 -3.805 0.405 42 130 67
0.905 -3.895 0.495 42 130 67
0.995 -3.895 0.495 42 130 67
0.905 -3.805 0.495 42 130 67
0.995 -3.805 0.495 42 130 67
0.705 -4.195 0.505 42 130 67
0.795 -4.195 0.505 42 130 67
0.705 -4.105 0.505 42 130 67
0.795 -4.105 0.505 42 130 67
0.705 -4.195 0.595 42 130 67
0.795 -4.195 0.595 42 130 67
0.705 -4.105 0.595 42 130 67
0.795 -4.105 0.595 42 130 67
0.805 -4.195 0.505 42 130 67
0.895 -4.195 0.505 42 130 67
0.805 -4.105 0.505 42 130 67
0.895 -4.105 0.505 42 130 67
0.805 -4.195 0.595 42 130 67
0.895 -4.195 0.595 42 130 67
0.805 -4.105 0.595 42 130 67
0.895 -4.105 0.595 42 130 67
0.605 -4.095 0.505 42 130 67
0.695 -4.095 0.505 42 130 67
0.605 -4.005 0.505 42 130 67
0.695 -4.005 0.505 42 130 67
0.605 -4.095 0.595 42 130 67
0.695 -4.095 0.595 42 130 67
0.605 -4.005 0.595 42 130 67
0.695 -4.005 0.595 42 130 67
0.705 -4.095 0.505 42 130 67
0.795 -4.095 0.505 42 130 67
0.705 -4.005 0.505 42 130 67
0.795 -4.005 0.505 42 130 67
0.705 -4.095 0.595 42 130 67
0.795 -4.095 0.595 42 130 67
0.705 -4.005 0.595 42 130 67
0.795 -4.005 0.595 42 130 67
0.805 -4.095 0.505 42 130 67
0.895 -4.095 0.505 42 130 67
0.805 -4.005 0.505 42 130 67
0.895 -4.005 0.505 42 130 67
0.805 -4.095 0.595 42 130 67
0.895 -4.095 0.595 42 130 67
0.805 -4.005 0.595 42 130 67
0.895 -4.005 0.595 42 130 67
0.905 -4.095 0.505 42 130 67
0.995 -4.095 0.505 42 130 67
0.905 -4.005 0.505 42 130 67
0.995 -4.005 0.505 42 130 67
0.905 -4.095 0.595 42 130 67
0.995 -4.095 0.595 42 130 67
0.905 -4.005 0.595 42 130 67
0.995 -4.005 0.595 42 130 67
0.605 -3.995 0.505 42 130 67
0.695 -3.995 0.505 42 130 67
0.605 -3.905 0.505 42 130 67
0.695 -3.905 0.505 42 130 67
0.605 -3.995 0.595 42 130 67
0.695 -3.995 0.595 42 130 67
0.605 -3.905 0.595 42 130 67
0.695 -3.905 0.595 42 130 67
0.705 -3.995 0.505 42 130 67
0.795 -3.995 0.505 42 130 67
0.705 -3.905 0.505 42 130 67
0.795 -3.905 0.505 42 130 67
0.705 -3.995 0.595 42 130 67
0.795 -3.995 0.595 42 130 67
0.705 -3.905 0.595 42 130 67
0.795 -3.905 0.595 42 130 67
0.805 -3.995 0.505 42 130 67
0.895 -3.995 0.505 42 130 67
0.805 -3.905 0.505 42 130 67
0.895 -3.905 0.505 42 130 67
0.805 -3.995 0.595 42 130 67
0.895 -3.995 0.595 42 130 67
0.805 -3.905 0.595 42 130 67
0.895 -3.905 0.595 42 130 67
0.905 -3.995 0.505 42 130 67
0.995 -3.995 0.505 42 130 67
0.905 -3.905 0.505 42 130 67
0.995 -3.905 0.505 42 130 67
0.905 -3.995 0.595 42 130 67
0.995 -3.995 0.595 42 130 67
0.905 -3.905 0.595 42 130 67
0.995 -3.905 0.595 42 130 67
0.705 -3.895 0.505 42 130 67
0.795 -3.895 0.505 42 130 67
0.705 -3.805 0.505 42 130 67
0.795 -3.805 0.505 42 130 67
0.705 -3.895 0.595 42 130 67
0.795 -3.895 0.595 42 130 67
0.705 -3.805 0.595 42 130 67
0.795 -3.805 0.595 42 130 67
0.805 -3.895 0.505 42 130 67
0.895 -3.895 0.505 42 130 67
0.805 -3.805 0.505 42 130 67
0.895 -3.805 0.505 42 130 67
0.805 -3.895 0.595 42 130 67
0.895 -3.895 0.595 42 130 67
0.805 -3.805 0.595 42 130 67
0.895 -3.805 0.595 42 130 67
0.705 -4.195 0.605 42 130 67
0.795 -4.195 0.605 42 130 67
0.705 -4.105 0.605 42 130 67
0.795 -4.105 0.605 42 130 67
0.705 -4.195 0.695 42 130 67
0.795 -4.195 0.695 42 130 67
0.705 -4.105 0.695 42 130 67
0.795 -4.105 0.695 42 130 67
0.805 -4.195 0.605 42 130 67
0.895 -4.195 0.605 42 130 67
0.805 -4.105 0.605 42 130 67
0.895 -4.105 0.605 42 130 67
0.805 -4.195 0.695 42 130 67
0.895 -4.195 0.695 42 130 67
0.805 -4.105 0.695 42 130 67
0.895 -4.105 0.695 42 130 67
0.605 -4.095 0.605 42 130 67
0.695 -4.095 0.605 42 130 67
0.605 -4.005 0.605 42 130 67
0.695 -4.005 0.605 42 130 67
0.605 -4.095 0.695 42 130 67
0.695 -4.095 0.695 42 130 67
0.605 -4.005 0.695 42 130 67
0.695 -4.005 0.695 42 130 67
0.705 -4.095 0.605 42 130 67
0.795 -4.095 0.605 42 130 67
0.705 -4.005 0.605 42 130 67
0.795 -4.005 0.605 42 130 67
0.705 -4.095 0.695 42 130 67
0.795 -4.095 0.695 42 130 67
0.705 -4.005 0.695 42 130 67
0.795 -4.005 0.695 42 130 67
0.805 -4.095 0.605 42 130 67
0.895 -4.095 0.605 42 130 67
0.805 -4.005 0.605 42 130 67
0.895 -4.005 0.605 42 130 67
0.805 -4.095 0.695 42 130 67
0.895 -4.095 0.695 42 130 67
0.805 -4.005 0.695 42 130 67
0.895 -4.005 0.695 42 130 67
0.905 -4.095 0.605 42 130 67
0.995 -4.095 0.605 42 130 67
0.905 -4.005 0.605 42 130 67
0.995 -4.005 0.605 42 130 67
0.905 -4.095 0.695 42 130 67
0.995 -4.095 0.695 42 130 67
0.905 -4.005 0.695 42 130 67
0.995 -4.005 0.695 42 130 67
0.605 -3.995 0.605 42 130 67
0.695 -3.995 0.605 42 130 67
0.605 -3.905 0.605 42 130 67
0.695 -3.905 0.605 42 130 67
0.605 -3.995 0.695 42 130 67
0.695 -3.995 0.695 42 130 67
0.605 -3.905 0.695 42 130 67
0.695 -3.905 0.695 42 130 67
0.705 -3.995 0.605 42 130 67
0.795 -3.995 0.605 42 130 67
0.705 -3.905 0.605 42 130 67
0.795 -3.905 0.605 42 130 67
0.705 -3.995 0.695 42 130 67
0.795 -3.995 0.695 42 130 67
0.705 -3.905 0.695 42 130 67
0.795 -3.905 0.695 42 130 67
0.805 -3.995 0.605 42 130 67
0.895 -3.995 0.605 42 130 67
0.805 -3.905 0.605 42 130 67
0.895 -3.905 0.605 42 130 67
0.805 -3.995 0.695 42 130 67
0.895 -3.995 0.695 42 130 67
0.805 -3.905 0.695 42 130 67
0.895 -3.905 0.695 42 130 67
0.905 -3.995 0.605 42 130 67
0.995 -3.995 0.605 42 130 67
0.905 -3.905 0.605 42 130 67
0.995 -3.905 0.605 42 130 67
0.905 -3.995 0.695 42 130 67
0.995 -3.995 0.695 42 130 67
0.905 -3.905 0.695 42 130 67
0.995 -3.905 0.695 42 130 67
0.705 -3.895 0.605 42 130 67
0.795 -3.895 0.605 42 130 67
0.705 -3.805 0.605 42 130 67
0.795 -3.805 0.605 42 130 67
0.705 -3.895 0.695 42 130 67
0.795 -3.895 0.695 42 130 67
0.705 -3.805 0.695 42 130 67
0.795 -3.805 0.695 42 130 67
0.805 -3.895 0.605 42 130 67
0.895 -3.895 0.605 42 130 67
0.805 -3.805 0.605 42 130 67
0.895 -3.805 0.605 42 130 67
0.805 -3.895 0.695 42 130 67
0.895 -3.895 0.695 42 130 67
0.805 -3.805 0.695 42 130 67
0.895 -3.805 0.695 42 130 67
0.705 -4.095 0.705 42 130 67
0.795 -4.095 0.705 42 130 67
0.705 -4.005 0.705 42 130 67
0.795 -4.005 0.705 42 130 67
0.705 -4.095 0.795 42 130 67
0.795 -4.095 0.795 42 130 67
0.705 -4.005 0.795 42 130 67
0.795 -4.005 0.795 42 130 67
0.805 -4.095 0.705 42 130 67
0.895 -4.095 0.705 42 130 67
0.805 -4.005 0.705 42 130 67
0.895 -4.005 0.705 42 130 67
0.805 -4.095 0.795 42 130 67
0.895 -4.095 0.795 42 130 67
0.805 -4.005 0.795 42 130 67
0.895 -4.005 0.795 42 130 67
0.705 -3.995 0.705 42 130 67
0.795 -3.995 0.705 42 130 67
0.705 -3.905 0.705 42 130 67
0.795 -3.905 0.705 42 130 67
0.705 -3.995 0.795 42 130 67
0.795 -3.995 0.795 42 130 67
0.705 -3.905 0.795 42 130 67
0.795 -3.905 0.795 42 130 67
0.805 -3.995 0.705 42 130 67
0.895 -3.995 0.705 42 130 67
0.805 -3.905 0.705 42 130 67
0.895 -3.905 0.705 42 130 67
0.805 -3.995 0.795 42 130 67
0.895 -3.995 0.795 42 130 67
0.805 -3.905 0.795 42 130 67
0.895 -3.905 0.795 42 130 67
0.705 -4.095 0.805 42 130 67
0.795 -4.095 0.805 42 130 67
0.705 -4.005 0.805 42 130 67
0.795 -4.005 0.805 42 130 67
0.705 -4.095 0.895 42 130 67
0.795 -4.095 0.895 42 130 67
0.705 -4.005 0.895 42 130 67
0.795 -4.005 0.895 42 130 67
0.805 -4.095 0.805 42 130 67
0.895 -4.095 0.805 42 130 67
0.805 -4.005 0.805 42 130 67
0.895 -4.005 0.805 42 130 67
0.805 -4.095 0.895 42 130 67
0.895 -4.095 0.895 42 130 67
0.805 -4.005 0.895 42 130 67
0.895 -4.005 0.895 42 130 67
0.705 -3.995 0.805 42 130 67
0.795 -3.995 0.805 42 130 67
0.705 -3.905 0.805 42 130 67
0.795 -3.905 0.805 42 130 67
0.705 -3.995 0.895 42 130 67
0.795 -3.995 0.895 42 130 67
0.705 -3.905 0.895 42 130 67
0.795 -3.905 0.895 42 130 67
0.805 -3.995 0.805 42 130 67
0.895 -3.995 0.805 42 130 67
0.805 -3.905 0.805 42 130 67
0.895 -3.905 0.805 42 130 67
0.805 -3.995 0.895 42 130 67
0.895 -3.995 0.895 42 130 67
0.805 -3.905 0.895 42 130 67
0.895 -3.905 0.895 42 130 67
4 0 4 6 2
4 1 3 7 5
4 0 1 5 4
4 2 6 7 3
4 0 2 3 1
4 4 5 7 6
4 8 12 14 10
4 9 11 15 13
4 8 9 13 12
4 10 14 15 11
4 8 10 11 9
4 12 13 15 14
4 16 20 22 18
4 17 19 23 21
4 16 17 21 20
4 18 22 23 19
4 16 18 19 17
4 20 21 23 22
4 24 28 30 26
4 25 27 31 29
4 24 25 29 28
4 26 30 31 27
4 24 26 27 25
4 28 29 31 30
4 32 36 38 34
4 33 35 39 37
4 32 33 37 36
4 34 38 39 35
4 32 34 35 33
4 36 37 39 38
4 40 44 46 42
4 41 43 47 45
4 40 41 45 44
4 42 46 47 43
4 40 42 43 41
4 44 45 47 46
4 48 52 54 50
4 49 51 55 53
4 48 49 53 52
4 50 54 55 51
4 48 50 51 49
4 52 53 55 54
4 56 60 62 58
4 57 59 63 61
4 56 57 61 60
4 58 62 63 59
4 56 58 59 57
4 60 61 63 62
4 64 68 70 66
4 65 67 71 69
4 64 65 69 68
4 66 70 71 67
4 64 66 67 65
4 68 69 71 70
4 72 76 78 74
4 73 75 79 77
4 72 73 77 76
4 74 78 79 75
4 72 74 75 73
4 76 77 79 78
4 80 84 86 82
4 81 83 87 85
4 80 81 85 84
4 82 86 87 83
4 80 82 83 81
4 84 85 87 86
4 88 92 94 90
4 89 91 95 93
4 88 89 93 92
4 90 94 95 91
4 88 90 91 89
4 92 93 95 94
4 96 100 102 98
4 97 99 103 101
4 96 97 101 100
4 98 102 103 99
4 96 98 99 97
4 100 101 103 102
4 104 108 110 106
4 105 107 111 109
4 104 105 109 108
4 106 110 111 107
4 104 106 107 105
4 108 109 111 110
4 112 116 118 114
4 113 115 119 117
4 112 113 117 116
4 114 118 119 115
4 112 114 115 113
4 116 117 119 118
4 120 124 126 122
4 121 123 127 125
4 120 121 125 124
4 122 126 127 123
4 120 122 123 121
4 124 125 127 126
4 128 132 134 130
4 129 131 135 133
4 128 129 133 132
4 130 134 135 131
4 128 130 131 129
4 132 133 135 134
4 136 140 142 138
4 137 139 143 141
4 136 137 141 140
4 138 142 143 139
4 136 138 139 137
4 140 141 143 142
4 144 148 150 146
4 145 147 151 149
4 144 145 149 148
4 146 150 151 147
4 144 146 147 145
4 148 149 151 150
4 152 156 158 154
4 153 155 159 157
4 152 153 157 156
4 154 158 159 155
4 152 154 155 153
4 156 157 159 158
4 160 164 166 162
4 161 163 167 165
4 160 161 165 164
4 162 166 167 163
4 160 162 163 161
4 164 165 167 166
4 168 172 174 170
4 169 171 175 173
4 168 169 173 172
4 170 174 175 171
4 168 170 171 169
4 172 173 175 174
4 176 180 182 178
4 177 179 183 181
4 176 177 181 180
4 178 182 183 179
4 176 178 179 177
4 180 181 183 182
4 184 188 190 186
4 185 187 191 189
4 184 185 189 188
4 186 190 191 187
4 184 186 187 185
4 188 189 191 190
4 192 196 198 194
4 193 195 199 197
4 192 193 197 196
4 194 198 199 195
4 192 194 195 193
4 196 197 199 198
4 200 204 206 202
4 201 203 207 205
4 200 201 205 204
4 202 206 207 203
4 200 202 203 201
4 204 205 207 206
4 208 212 214 210
4 209 211 215 213
4 208 209 213 212
4 210 214 215 211
4 208 210 211 209
4 212 213 215 214
4 216 220 222 218
4 217 219 223 221
4 216 217 221 220
4 218 222 223 219
4 216 218 219 217
4 220 221 223 222
4 224 228 230 226
4 225 227 231 229
4 224 225 229 228
4 226 230 231 227
4 224 226 227 225
4 228 229 231 230
4 232 236 238 234
4 233 235 239 237
4 232 233 237 236
4 234 238 239 235
4 232 234 235 233
4 236 237 239 238
4 240 244 246 242
4 241 243 247 245
4 240 241 245 244
4 242 246 247 243
4 240 242 243 241
4 244 245 247 246
4 248 252 254 250
4 249 251 255 253
4 248 249 253 252
4 250 254 255 251
4 248 250 251 249
4 252 253 255 254
4 256 260 262 258
4 257 259 263 261
4 256 257 261 260
4 258 262 263 259
4 256 258 259 257
4 260 261 263 262
4 264 268 270 266
4 265 267 271 269
4 264 265 269 268
4 266 270 271 267
4 264 266 267 265
4 268 269 271 270
4 272 276 278 274
4 273 275 279 277
4 272 273 277 276
4 274 278 279 275
4 272 274 275 273
4 276 277 279 278
4 280 284 286 282
4 281 283 287 285
4 280 281 285 284
4 282 286 287 283
4 280 282 283 281
4 284 285 287 286
4 288 292 294 290
4 289 291 295 293
4 288 289 293 292
4 290 294 295 291
4 288 290 291 289
4 292 293 295 294
4 296 300 302 298
4 297 299 303 301
4 296 297 301 300
4 298 302 303 299
4 296 298 299 297
4 300 301 303 302
4 304 308 310 306
4 305 307 311 309
4 304 305 309 308
4 306 310 311 307
4 304 306 307 305
4 308 309 311 310
4 312 316 318 314
4 313 315 319 317
4 312 313 317 316
4 314 318 319 315
4 312 314 315 313
4 316 317 319 318
4 320 324 326 322
4 321 323 327 325
4 320 321 325 324
4 322 326 327 323
4 320 322 323 321
4 324 325 327 326
4 328 332 334 330
4 329 331 335 333
4 328 329 333 332
4 330 334 335 331
4 328 330 331 329
4 332 333 335 334
4 336 340 342 338
4 337 339 343 341
4 336 337 341 340
4 338 342 343 339
4 336 338 339 337
4 340 341 343 342
4 344 348 350 346
4 345 347 351 349
4 344 345 349 348
4 346 350 351 347
4 344 346 347 345
4 348 349 351 350
4 352 356 358 354
4 353 355 359 357
4 352 353 357 356
4 354 358 359 355
4 352 354 355 353
4 356 357 359 358
4 360 364 366 362
4 361 363 367 365
4 360 361 365 364
4 362 366 367 363
4 360 362 363 361
4 364 365 367 366
4 368 372 374 370
4 369 371 375 373
4 368 369 373 372
4 370 374 375 371
4 368 370 371 369
4 372 373 375 374
4 376 380 382 378
4 377 379 383 381
4 376 377 381 380
4 378 382 383 379
4 376 378 379 377
4 380 381 383 382
4 384 388 390 386
4 385 387 391 389
4 384 385 389 388
4 386 390 391 387
4 384 386 387 385
4 388 389 391 390
4 392 396 398 394
4 393 395 399 397
4 392 393 397 396
4 394 398 399 395
4 392 394 395 393
4 396 397 399 398
4 400 404 406 402
4 401 403 407 405
4 400 401 405 404
4 402 406 407 403
4 400 402 403 401
4 404 405 407 406
4 408 412 414 410
4 409 411 415 413
4 408 409 413 412
4 410 414 415 411
4 408 410 411 409
4 412 413 415 414
4 416 420 422 418
4 417 419 423 421
4 416 417 421 420
4 418 422 423 419
4 416 418 419 417
4 420 421 423 422
4 424 428 430 426
4 425 427 431 429
4 424 425 429 428
4 426 430 431 427
4 424 426 427 425
4 428 429 431 430
4 432 436 438 434
4 433 435 439 437
4 432 433 437 436
4 434 438 439 435
4 432 434 435 433
4 436 437 439 438
4 440 444 446 442
4 441 443 447 445
4 440 441 445 444
4 442 446 447 443
4 440 442 443 441
4 444 445 447 446
4 448 452 454 450
4 449 451 455 453
4 448 449 453 452
4 450 454 455 451
4 448 450 451 449
4 452 453 455 454
4 456 460 462 458
4 457 459 463 461
4 456 457 461 460
4 458 462 463 459
4 456 458 459 457
4 460 461 463 462
4 464 468 470 466
4 465 467 471 469
4 464 465 469 468
4 466 470 471 467
4 464 466 467 465
4 468 469 471 470
4 472 476 478 474
4 473 475 479 477
4 472 473 477 476
4 474 478 479 475
4 472 474 475 473
4 476 477 479 478
4 480 484 486 482
4 481 483 487 485
4 480 481 485 484
4 482 486 487 483
4 480 482 483 481
4 484 485 487 486
4 488 492 494 490
4 489 491 495 493
4 488 489 493 492
4 490 494 495 491
4 488 490 491 489
4 492 493 495 494
4 496 500 502 498
4 497 499 503 501
4 496 497 501 500
4 498 502 503 499
4 496 498 499 497
4 500 501 503 502
4 504 508 510 506
4 505 507 511 509
4 504 505 509 508
4 506 510 511 507
4 504 506 507 505
4 508 509 511 510
4 512 516 518 514
4 513 515 519 517
4 512 513 517 516
4 514 518 519 515
4 512 514 515 513
4 516 517 519 518
4 520 524 526 522
4 521 523 527 525
4 520 521 525 524
4 522 526 527 523
4 520 522 523 521
4 524 525 527 526
4 528 532 534 530
4 529 531 535 533
4 528 529 533 532
4 530 534 535 531
4 528 530 531 529
4 532 533 535 534
4 536 540 542 538
4 537 539 543 541
4 536 537 541 540
4 538 542 543 539
4 536 538 539 537
4 540 541 543 542
4 544 548 550 546
4 545 547 551 549
4 544 545 549 548
4 546 550 551 547
4 544 546 547 545
4 548 549 551 550
4 552 556 558 554
4 553 555 559 557
4 552 553 557 556
4 554 558 559 555
4 552 554 555 553
4 556 557 559 558
4 560 564 566 562
4 561 563 567 565
4 560 561 565 564
4 562 566 567 563
4 560 562 563 561
4 564 565 567 566
4 568 572 574 570
4 569 571 575 573
4 568 569 573 572
4 570 574 575 571
4 568 570 571 569
4 572 573 575 574
4 576 580 582 578
4 577 579 583 581
4 576 577 581 580
4 578 582 583 579
4 576 578 579 577
4 580 581 583 582
4 584 588 590 586
4 585 587 591 589
4 584 585 589 588
4 586 590 591 587
4 584 586 587 585
4 588 589 591 590
4 592 596 598 594
4 593 595 599 597
4 592 593 597 596
4 594 598 599 595
4 592 594 595 593
4 596 597 599 598
4 600 604 606 602
4 601 603 607 605
4 600 601 605 604
4 602 606 607 603
4 600 602 603 601
4 604 605 607 606
4 608 612 614 610
4 609 611 615 613
4 608 609 613 612
4 610 614 615 611
4 608 610 611 609
4 612 613 615 614
4 616 620 622 618
4 617 619 623 621
4 616 617 621 620
4 618 622 623 619
4 616 618 619 617
4 620 621 623 622
4 624 628 630 626
4 625 627 631 629
4 624 625 629 628
4 626 630 631 627
4 624 626 627 625
4 628 629 631 630
4 632 636 638 634
4 633 635 639 637
4 632 633 637 636
4 634 638 639 635
4 632 634 635 633
4 636 637 639 638
4 640 644 646 642
4 641 643 647 645
4 640 641 645 644
4 642 646 647 643
4 640 642 643 641
4 644 645 647 646
4 648 652 654 650
4 649 651 655 653
4 648 649 653 652
4 650 654 655 651
4 648 650 651 649
4 652 653 655 654
4 656 660 662 658
4 657 659 663 661
4 656 657 661 660
4 658 662 663 659
4 656 658 659 657
4 660 661 663 662
4 664 668 670 666
4 665 667 671 669
4 664 665 669 668
4 666 670 671 667
4 664 666 667 665
4 668 669 671 670
4 672 676 678 674
4 673 675 679 677
4 672 673 677 676
4 674 678 679 675
4 672 674 675 673
4 676 677 679 678
4 680 684 686 682
4 681 683 687 685
4 680 681 685 684
4 682 686 687 683
4 680 682 683 681
4 684 685 687 686
4 688 692 694 690
4 689 691 695 693
4 688 689 693 692
4 690 694 695 691
4 688 690 691 689
4 692 693 695 694
4 696 700 702 698
4 697 699 703 701
4 696 697 701 700
4 698 702 703 699
4 696 698 699 697
4 700 701 703 702
4 704 708 710 706
4 705 707 711 709
4 704 705 709 708
4 706 710 711 707
4 704 706 707 705
4 708 709 711 710
4 712 716 718 714
4 713 715 719 717
4 712 713 717 716
4 714 718 719 715
4 712 714 715 713
4 716 717 719 718
4 720 724 726 722
4 721 723 727 725
4 720 721 725 724
4 722 726 727 723
4 720 722 723 721
4 724 725 727 726
4 728 732 734 730
4 729 731 735 733
4 728 729 733 732
4 730 734 735 731
4 728 730 731 729
4 732 733 735 734
4 736 740 742 738
4 737 739 743 741
4 736 737 741 740
4 738 742 743 739
4 736 738 739 737
4 740 741 743 742
4 744 748 750 746
4 745 747 751 749
4 744 745 749 748
4 746 750 751 747
4 744 746 747 745
4 748 749 751 750
4 752 756 758 754
4 753 755 759 757
4 752 753 757 756
4 754 758 759 755
4 752 754 755 753
4 756 757 759 758
4 760 764 766 762
4 761 763 767 765
4 760 761 765 764
4 762 766 767 763
4 760 762 763 761
4 764 765 767 766
4 768 772 774 770
4 769 771 775 773
4 768 769 773 772
4 770 774 775 771
4 768 770 771 769
4 772 773 775 774
4 776 780 782 778
4 777 779 783 781
4 776 777 781 780
4 778 782 783 779
4 776 778 779 777
4 780 781 783 782
4 784 788 790 786
4 785 787 791 789
4 784 785 789 788
4 786 790 791 787
4 784 786 787 785
4 788 789 791 790
4 792 796 798 794
4 793 795 799 797
4 792 793 797 796
4 794 798 799 795
4 792 794 795 793
4 796 797 799 798
4 800 804 806 802
4 801 803 807 805
4 800 801 805 804
4 802 806 807 803
4 800 802 803 801
4 804 805 807 806
4 808 812 814 810
4 809 811 815 813
4 808 809 813 812
4 810 814 815 811
4 808 810 811 809
4 812 813 815 814
4 816 820 822 818
4 817 819 823 821
4 816 817 821 820
4 818 822 823 819
4 816 818 819 817
4 820 821 823 822
4 824 828 830 826
4 825 827 831 829
4 824 825 829 828
4 826 830 831 827
4 824 826 827 825
4 828 829 831 830
4 832 836 838 834
4 833 835 839 837
4 832 833 837 836
4 834 838 839 835
4 832 834 835 833
4 836 837 839 838
4 840 844 846 842
4 841 843 847 845
4 840 841 845 844
4 842 846 847 843
4 840 842 843 841
4 844 845 847 846
4 848 852 854 850
4 849 851 855 853
4 848 849 853 852
4 850 854 855 851
4 848 850 851 849
4 852 853 855 854
4 856 860 862 858
4 857 859 863 861
4 856 857 861 860
4 858 862 863 859
4 856 858 859 857
4 860 861 863 862
4 864 868 870 866
4 865 867 871 869
4 864 865 869 868
4 866 870 871 867
4 864 866 867 865
4 868 869 871 870
4 872 876 878 874
4 873 875 879 877
4 872 873 877 876
4 874 878 879 875
4 872 874 875 873
4 876 877 879 878
4 880 884 886 882
4 881 883 887 885
4 880 881 885 884
4 882 886 887 883
4 880 882 883 881
4 884 885 887 886
4 888 892 894 890
4 889 891 895 893
4 888 889 893 892
4 890 894 895 891
4 888 890 891 889
4 892 893 895 894
4 896 900 902 898
4 897 899 903 901
4 896 897 901 900
4 898 902 903 899
4 896 898 899 897
4 900 901 903 902
4 904 908 910 906
4 905 907 911 909
4 904 905 909 908
4 906 910 911 907
4 904 906 907 905
4 908 909 911 910
4 912 916 918 914
4 913 915 919 917
4 912 913 917 916
4 914 918 919 915
4 912 914 915 913
4 916 917 919 918
4 920 924 926 922
4 921 923 927 925
4 920 921 925 924
4 922 926 927 923
4 920 922 923 921
4 924 925 927 926
4 928 932 934 930
4 929 931 935 933
4 928 929 933 932
4 930 934 935 931
4 928 930 931 929
4 932 933 935 934
4 936 940 942 938
4 937 939 943 941
4 936 937 941 940
4 938 942 943 939
4 936 938 939 937
4 940 941 943 942
4 944 948 950 946
4 945 947 951 949
4 944 945 949 948
4 946 950 951 947
4 944 946 947 945
4 948 949 951 950
4 952 956 958 954
4 953 955 959 957
4 952 953 957 956
4 954 958 959 955
4 952 954 955 953
4 956 957 959 958
4 960 964 966 962
4 961 963 967 965
4 960 961 965 964
4 962 966 967 963
4 960 962 963 961
4 964 965 967 966
4 968 972 974 970
4 969 971 975 973
4 968 969 973 972
4 970 974 975 971
4 968 970 971 969
4 972 973 975 974
4 976 980 982 978
4 977 979 983 981
4 976 977 981 980
4 978 982 983 979
4 976 978 979 977
4 980 981 983 982
4 984 988 990 986
4 985 987 991 989
4 984 985 989 988
4 986 990 991 987
4 984 986 987 985
4 988 989 991 990
