# MagicaVoxel @ Ephtracy

# group
o 

# material
mtllib corn_full.mtl
usemtl palette

# normals
vn -1 0 0
vn 1 0 0
vn 0 0 1
vn 0 0 -1
vn 0 -1 0
vn 0 1 0

# texcoords
vt 0.0371094 0.5
vt 0.162109 0.5
vt 0.166016 0.5

# verts
v -0.2 0.3 0
v -0.2 0.3 -0.1
v -0.2 0.4 0
v -0.2 0.4 -0.1
v -0.2 0.6 0
v -0.2 0.6 -0.1
v -0.2 0.7 0
v -0.2 0.7 -0.1
v -0.2 0.9 0
v -0.2 0.9 -0.1
v -0.2 1 0
v -0.2 1 -0.1
v -0.1 0.1 0
v -0.1 0.1 -0.1
v -0.1 0.3 0
v -0.1 0.3 -0.1
v -0.1 0.4 0
v -0.1 0.4 -0.1
v -0.1 0.6 0
v -0.1 0.6 -0.1
v -0.1 0.7 0
v -0.1 0.7 -0.1
v -0.1 0.9 0
v -0.1 0.9 -0.1
v -0.1 1 0
v -0.1 1 -0.1
v -0.1 1.1 0
v -0.1 1.1 -0.1
v 0 0 0
v 0 0 -0.1
v 0 0.1 0.1
v 0 0.1 0
v 0 0.1 -0.1
v 0 0.1 -0.2
v 0 0.3 0.2
v 0 0.3 0.1
v 0 0.3 0
v 0 0.3 -0.1
v 0 0.3 -0.2
v 0 0.3 -0.3
v 0 0.4 0.2
v 0 0.4 0.1
v 0 0.4 0
v 0 0.4 -0.1
v 0 0.4 -0.2
v 0 0.4 -0.3
v 0 0.6 0.2
v 0 0.6 0.1
v 0 0.6 0
v 0 0.6 -0.1
v 0 0.6 -0.2
v 0 0.6 -0.3
v 0 0.7 0.2
v 0 0.7 0.1
v 0 0.7 0
v 0 0.7 -0.1
v 0 0.7 -0.2
v 0 0.7 -0.3
v 0 0.9 0.2
v 0 0.9 0.1
v 0 0.9 0
v 0 0.9 -0.1
v 0 0.9 -0.2
v 0 0.9 -0.3
v 0 1 0.2
v 0 1 0.1
v 0 1 0
v 0 1 -0.1
v 0 1 -0.2
v 0 1 -0.3
v 0.1 1 0
v 0.1 1 -0.1
v 0.1 1.1 0
v 0.1 1.1 -0.1
v 0.2 0.3 0
v 0.2 0.3 -0.1
v 0.2 0.4 0
v 0.2 0.4 -0.1
v 0.2 0.6 0
v 0.2 0.6 -0.1
v 0.2 0.7 0
v 0.2 0.7 -0.1
v 0.2 0.9 0
v 0.2 0.9 -0.1
v 0.2 1 0
v 0.2 1 -0.1
v -0.1 0.3 0
v -0.1 0.3 -0.1
v -0.1 0.4 0
v -0.1 0.4 -0.1
v -0.1 0.6 0
v -0.1 0.6 -0.1
v -0.1 0.7 0
v -0.1 0.7 -0.1
v -0.1 0.9 0
v -0.1 0.9 -0.1
v -0.1 1 0
v -0.1 1 -0.1
v 0 1 0
v 0 1 -0.1
v 0 1.1 0
v 0 1.1 -0.1
v 0.1 0 0
v 0.1 0 -0.1
v 0.1 0.1 0.1
v 0.1 0.1 0
v 0.1 0.1 -0.1
v 0.1 0.1 -0.2
v 0.1 0.3 0.2
v 0.1 0.3 0.1
v 0.1 0.3 0
v 0.1 0.3 -0.1
v 0.1 0.3 -0.2
v 0.1 0.3 -0.3
v 0.1 0.4 0.2
v 0.1 0.4 0.1
v 0.1 0.4 0
v 0.1 0.4 -0.1
v 0.1 0.4 -0.2
v 0.1 0.4 -0.3
v 0.1 0.6 0.2
v 0.1 0.6 0.1
v 0.1 0.6 0
v 0.1 0.6 -0.1
v 0.1 0.6 -0.2
v 0.1 0.6 -0.3
v 0.1 0.7 0.2
v 0.1 0.7 0.1
v 0.1 0.7 0
v 0.1 0.7 -0.1
v 0.1 0.7 -0.2
v 0.1 0.7 -0.3
v 0.1 0.9 0.2
v 0.1 0.9 0.1
v 0.1 0.9 0
v 0.1 0.9 -0.1
v 0.1 0.9 -0.2
v 0.1 0.9 -0.3
v 0.1 1 0.2
v 0.1 1 0.1
v 0.1 1 0
v 0.1 1 -0.1
v 0.1 1 -0.2
v 0.1 1 -0.3
v 0.2 0.1 0
v 0.2 0.1 -0.1
v 0.2 0.3 0
v 0.2 0.3 -0.1
v 0.2 0.4 0
v 0.2 0.4 -0.1
v 0.2 0.6 0
v 0.2 0.6 -0.1
v 0.2 0.7 0
v 0.2 0.7 -0.1
v 0.2 0.9 0
v 0.2 0.9 -0.1
v 0.2 1 0
v 0.2 1 -0.1
v 0.2 1.1 0
v 0.2 1.1 -0.1
v 0.3 0.3 0
v 0.3 0.3 -0.1
v 0.3 0.4 0
v 0.3 0.4 -0.1
v 0.3 0.6 0
v 0.3 0.6 -0.1
v 0.3 0.7 0
v 0.3 0.7 -0.1
v 0.3 0.9 0
v 0.3 0.9 -0.1
v 0.3 1 0
v 0.3 1 -0.1
v 0 0.3 0.2
v 0 0.4 0.2
v 0 0.6 0.2
v 0 0.7 0.2
v 0 0.9 0.2
v 0 1 0.2
v 0.1 0.3 0.2
v 0.1 0.4 0.2
v 0.1 0.6 0.2
v 0.1 0.7 0.2
v 0.1 0.9 0.2
v 0.1 1 0.2
v 0 0.1 0.1
v 0 0.3 0.1
v 0 0.4 0.1
v 0 0.6 0.1
v 0 0.7 0.1
v 0 0.9 0.1
v 0.1 0.1 0.1
v 0.1 0.3 0.1
v 0.1 0.4 0.1
v 0.1 0.6 0.1
v 0.1 0.7 0.1
v 0.1 0.9 0.1
v -0.2 0.3 0
v -0.2 0.4 0
v -0.2 0.6 0
v -0.2 0.7 0
v -0.2 0.9 0
v -0.2 1 0
v -0.1 0.1 0
v -0.1 0.3 0
v -0.1 0.4 0
v -0.1 0.6 0
v -0.1 0.7 0
v -0.1 0.9 0
v -0.1 1 0
v -0.1 1.1 0
v 0 0 0
v 0 0.1 0
v 0 0.3 0
v 0 0.4 0
v 0 0.6 0
v 0 0.7 0
v 0 0.9 0
v 0 1 0
v 0 1.1 0
v 0.1 0 0
v 0.1 0.1 0
v 0.1 0.3 0
v 0.1 0.4 0
v 0.1 0.6 0
v 0.1 0.7 0
v 0.1 0.9 0
v 0.1 1 0
v 0.1 1.1 0
v 0.2 0.1 0
v 0.2 0.3 0
v 0.2 0.4 0
v 0.2 0.6 0
v 0.2 0.7 0
v 0.2 0.9 0
v 0.2 1 0
v 0.2 1.1 0
v 0.3 0.3 0
v 0.3 0.4 0
v 0.3 0.6 0
v 0.3 0.7 0
v 0.3 0.9 0
v 0.3 1 0
v 0 0.3 -0.2
v 0 0.4 -0.2
v 0 0.6 -0.2
v 0 0.7 -0.2
v 0 0.9 -0.2
v 0 1 -0.2
v 0.1 0.3 -0.2
v 0.1 0.4 -0.2
v 0.1 0.6 -0.2
v 0.1 0.7 -0.2
v 0.1 0.9 -0.2
v 0.1 1 -0.2
v 0 0.3 0.1
v 0 0.4 0.1
v 0 0.6 0.1
v 0 0.7 0.1
v 0 0.9 0.1
v 0 1 0.1
v 0.1 0.3 0.1
v 0.1 0.4 0.1
v 0.1 0.6 0.1
v 0.1 0.7 0.1
v 0.1 0.9 0.1
v 0.1 1 0.1
v -0.2 0.3 -0.1
v -0.2 0.4 -0.1
v -0.2 0.6 -0.1
v -0.2 0.7 -0.1
v -0.2 0.9 -0.1
v -0.2 1 -0.1
v -0.1 0.1 -0.1
v -0.1 0.3 -0.1
v -0.1 0.4 -0.1
v -0.1 0.6 -0.1
v -0.1 0.7 -0.1
v -0.1 0.9 -0.1
v -0.1 1 -0.1
v -0.1 1.1 -0.1
v 0 0 -0.1
v 0 0.1 -0.1
v 0 0.3 -0.1
v 0 0.4 -0.1
v 0 0.6 -0.1
v 0 0.7 -0.1
v 0 0.9 -0.1
v 0 1 -0.1
v 0 1.1 -0.1
v 0.1 0 -0.1
v 0.1 0.1 -0.1
v 0.1 0.3 -0.1
v 0.1 0.4 -0.1
v 0.1 0.6 -0.1
v 0.1 0.7 -0.1
v 0.1 0.9 -0.1
v 0.1 1 -0.1
v 0.1 1.1 -0.1
v 0.2 0.1 -0.1
v 0.2 0.3 -0.1
v 0.2 0.4 -0.1
v 0.2 0.6 -0.1
v 0.2 0.7 -0.1
v 0.2 0.9 -0.1
v 0.2 1 -0.1
v 0.2 1.1 -0.1
v 0.3 0.3 -0.1
v 0.3 0.4 -0.1
v 0.3 0.6 -0.1
v 0.3 0.7 -0.1
v 0.3 0.9 -0.1
v 0.3 1 -0.1
v 0 0.1 -0.2
v 0 0.3 -0.2
v 0 0.4 -0.2
v 0 0.6 -0.2
v 0 0.7 -0.2
v 0 0.9 -0.2
v 0.1 0.1 -0.2
v 0.1 0.3 -0.2
v 0.1 0.4 -0.2
v 0.1 0.6 -0.2
v 0.1 0.7 -0.2
v 0.1 0.9 -0.2
v 0 0.3 -0.3
v 0 0.4 -0.3
v 0 0.6 -0.3
v 0 0.7 -0.3
v 0 0.9 -0.3
v 0 1 -0.3
v 0.1 0.3 -0.3
v 0.1 0.4 -0.3
v 0.1 0.6 -0.3
v 0.1 0.7 -0.3
v 0.1 0.9 -0.3
v 0.1 1 -0.3
v 0 0 0
v 0.1 0 0
v 0 0 -0.1
v 0.1 0 -0.1
v 0 0.1 0.1
v 0.1 0.1 0.1
v -0.1 0.1 0
v 0 0.1 0
v 0.1 0.1 0
v 0.2 0.1 0
v -0.1 0.1 -0.1
v 0 0.1 -0.1
v 0.1 0.1 -0.1
v 0.2 0.1 -0.1
v 0 0.1 -0.2
v 0.1 0.1 -0.2
v 0 0.3 0.2
v 0.1 0.3 0.2
v 0 0.3 0.1
v 0.1 0.3 0.1
v -0.2 0.3 0
v -0.1 0.3 0
v 0.2 0.3 0
v 0.3 0.3 0
v -0.2 0.3 -0.1
v -0.1 0.3 -0.1
v 0.2 0.3 -0.1
v 0.3 0.3 -0.1
v 0 0.3 -0.2
v 0.1 0.3 -0.2
v 0 0.3 -0.3
v 0.1 0.3 -0.3
v 0 0.4 0.1
v 0.1 0.4 0.1
v -0.1 0.4 0
v 0 0.4 0
v 0.1 0.4 0
v 0.2 0.4 0
v -0.1 0.4 -0.1
v 0 0.4 -0.1
v 0.1 0.4 -0.1
v 0.2 0.4 -0.1
v 0 0.4 -0.2
v 0.1 0.4 -0.2
v 0 0.6 0.2
v 0.1 0.6 0.2
v 0 0.6 0.1
v 0.1 0.6 0.1
v -0.2 0.6 0
v -0.1 0.6 0
v 0.2 0.6 0
v 0.3 0.6 0
v -0.2 0.6 -0.1
v -0.1 0.6 -0.1
v 0.2 0.6 -0.1
v 0.3 0.6 -0.1
v 0 0.6 -0.2
v 0.1 0.6 -0.2
v 0 0.6 -0.3
v 0.1 0.6 -0.3
v 0 0.7 0.1
v 0.1 0.7 0.1
v -0.1 0.7 0
v 0 0.7 0
v 0.1 0.7 0
v 0.2 0.7 0
v -0.1 0.7 -0.1
v 0 0.7 -0.1
v 0.1 0.7 -0.1
v 0.2 0.7 -0.1
v 0 0.7 -0.2
v 0.1 0.7 -0.2
v 0 0.9 0.2
v 0.1 0.9 0.2
v 0 0.9 0.1
v 0.1 0.9 0.1
v -0.2 0.9 0
v -0.1 0.9 0
v 0.2 0.9 0
v 0.3 0.9 0
v -0.2 0.9 -0.1
v -0.1 0.9 -0.1
v 0.2 0.9 -0.1
v 0.3 0.9 -0.1
v 0 0.9 -0.2
v 0.1 0.9 -0.2
v 0 0.9 -0.3
v 0.1 0.9 -0.3
v -0.1 1 0
v 0 1 0
v 0.1 1 0
v 0.2 1 0
v -0.1 1 -0.1
v 0 1 -0.1
v 0.1 1 -0.1
v 0.2 1 -0.1
v 0 0.3 0.1
v 0.1 0.3 0.1
v -0.1 0.3 0
v 0 0.3 0
v 0.1 0.3 0
v 0.2 0.3 0
v -0.1 0.3 -0.1
v 0 0.3 -0.1
v 0.1 0.3 -0.1
v 0.2 0.3 -0.1
v 0 0.3 -0.2
v 0.1 0.3 -0.2
v 0 0.4 0.2
v 0.1 0.4 0.2
v 0 0.4 0.1
v 0.1 0.4 0.1
v -0.2 0.4 0
v -0.1 0.4 0
v 0.2 0.4 0
v 0.3 0.4 0
v -0.2 0.4 -0.1
v -0.1 0.4 -0.1
v 0.2 0.4 -0.1
v 0.3 0.4 -0.1
v 0 0.4 -0.2
v 0.1 0.4 -0.2
v 0 0.4 -0.3
v 0.1 0.4 -0.3
v 0 0.6 0.1
v 0.1 0.6 0.1
v -0.1 0.6 0
v 0 0.6 0
v 0.1 0.6 0
v 0.2 0.6 0
v -0.1 0.6 -0.1
v 0 0.6 -0.1
v 0.1 0.6 -0.1
v 0.2 0.6 -0.1
v 0 0.6 -0.2
v 0.1 0.6 -0.2
v 0 0.7 0.2
v 0.1 0.7 0.2
v 0 0.7 0.1
v 0.1 0.7 0.1
v -0.2 0.7 0
v -0.1 0.7 0
v 0.2 0.7 0
v 0.3 0.7 0
v -0.2 0.7 -0.1
v -0.1 0.7 -0.1
v 0.2 0.7 -0.1
v 0.3 0.7 -0.1
v 0 0.7 -0.2
v 0.1 0.7 -0.2
v 0 0.7 -0.3
v 0.1 0.7 -0.3
v 0 0.9 0.1
v 0.1 0.9 0.1
v -0.1 0.9 0
v 0 0.9 0
v 0.1 0.9 0
v 0.2 0.9 0
v -0.1 0.9 -0.1
v 0 0.9 -0.1
v 0.1 0.9 -0.1
v 0.2 0.9 -0.1
v 0 0.9 -0.2
v 0.1 0.9 -0.2
v 0 1 0.2
v 0.1 1 0.2
v 0 1 0.1
v 0.1 1 0.1
v -0.2 1 0
v -0.1 1 0
v 0 1 0
v 0.1 1 0
v 0.2 1 0
v 0.3 1 0
v -0.2 1 -0.1
v -0.1 1 -0.1
v 0 1 -0.1
v 0.1 1 -0.1
v 0.2 1 -0.1
v 0.3 1 -0.1
v 0 1 -0.2
v 0.1 1 -0.2
v 0 1 -0.3
v 0.1 1 -0.3
v -0.1 1.1 0
v 0 1.1 0
v 0.1 1.1 0
v 0.2 1.1 0
v -0.1 1.1 -0.1
v 0 1.1 -0.1
v 0.1 1.1 -0.1
v 0.2 1.1 -0.1

# faces
f 3/3/1 2/3/1 1/3/1
f 4/3/1 2/3/1 3/3/1
f 7/3/1 6/3/1 5/3/1
f 8/3/1 6/3/1 7/3/1
f 11/3/1 10/3/1 9/3/1
f 12/3/1 10/3/1 11/3/1
f 15/3/1 14/3/1 13/3/1
f 16/3/1 14/3/1 15/3/1
f 19/3/1 18/3/1 17/3/1
f 20/3/1 18/3/1 19/3/1
f 23/3/1 22/3/1 21/3/1
f 24/3/1 22/3/1 23/3/1
f 27/1/1 26/1/1 25/1/1
f 28/1/1 26/1/1 27/1/1
f 32/2/1 30/2/1 29/2/1
f 33/2/1 30/2/1 32/2/1
f 36/3/1 32/3/1 31/3/1
f 37/3/1 32/3/1 36/3/1
f 38/3/1 34/3/1 33/3/1
f 39/3/1 34/3/1 38/3/1
f 41/3/1 36/3/1 35/3/1
f 42/3/1 36/3/1 41/3/1
f 43/2/1 38/2/1 37/2/1
f 44/2/1 38/2/1 43/2/1
f 45/3/1 40/3/1 39/3/1
f 46/3/1 40/3/1 45/3/1
f 48/3/1 43/3/1 42/3/1
f 49/3/1 43/3/1 48/3/1
f 50/3/1 45/3/1 44/3/1
f 51/3/1 45/3/1 50/3/1
f 53/3/1 48/3/1 47/3/1
f 54/3/1 48/3/1 53/3/1
f 55/2/1 50/2/1 49/2/1
f 56/2/1 50/2/1 55/2/1
f 57/3/1 52/3/1 51/3/1
f 58/3/1 52/3/1 57/3/1
f 60/3/1 55/3/1 54/3/1
f 61/3/1 55/3/1 60/3/1
f 62/3/1 57/3/1 56/3/1
f 63/3/1 57/3/1 62/3/1
f 65/3/1 60/3/1 59/3/1
f 66/3/1 60/3/1 65/3/1
f 67/1/1 62/1/1 61/1/1
f 68/1/1 62/1/1 67/1/1
f 69/3/1 64/3/1 63/3/1
f 70/3/1 64/3/1 69/3/1
f 73/1/1 72/1/1 71/1/1
f 74/1/1 72/1/1 73/1/1
f 77/3/1 76/3/1 75/3/1
f 78/3/1 76/3/1 77/3/1
f 81/3/1 80/3/1 79/3/1
f 82/3/1 80/3/1 81/3/1
f 85/3/1 84/3/1 83/3/1
f 86/3/1 84/3/1 85/3/1
f 87/3/2 88/3/2 89/3/2
f 89/3/2 88/3/2 90/3/2
f 91/3/2 92/3/2 93/3/2
f 93/3/2 92/3/2 94/3/2
f 95/3/2 96/3/2 97/3/2
f 97/3/2 96/3/2 98/3/2
f 99/1/2 100/1/2 101/1/2
f 101/1/2 100/1/2 102/1/2
f 103/2/2 104/2/2 106/2/2
f 106/2/2 104/2/2 107/2/2
f 105/3/2 106/3/2 110/3/2
f 110/3/2 106/3/2 111/3/2
f 107/3/2 108/3/2 112/3/2
f 112/3/2 108/3/2 113/3/2
f 109/3/2 110/3/2 115/3/2
f 115/3/2 110/3/2 116/3/2
f 111/2/2 112/2/2 117/2/2
f 117/2/2 112/2/2 118/2/2
f 113/3/2 114/3/2 119/3/2
f 119/3/2 114/3/2 120/3/2
f 116/3/2 117/3/2 122/3/2
f 122/3/2 117/3/2 123/3/2
f 118/3/2 119/3/2 124/3/2
f 124/3/2 119/3/2 125/3/2
f 121/3/2 122/3/2 127/3/2
f 127/3/2 122/3/2 128/3/2
f 123/2/2 124/2/2 129/2/2
f 129/2/2 124/2/2 130/2/2
f 125/3/2 126/3/2 131/3/2
f 131/3/2 126/3/2 132/3/2
f 128/3/2 129/3/2 134/3/2
f 134/3/2 129/3/2 135/3/2
f 130/3/2 131/3/2 136/3/2
f 136/3/2 131/3/2 137/3/2
f 133/3/2 134/3/2 139/3/2
f 139/3/2 134/3/2 140/3/2
f 135/1/2 136/1/2 141/1/2
f 141/1/2 136/1/2 142/1/2
f 137/3/2 138/3/2 143/3/2
f 143/3/2 138/3/2 144/3/2
f 145/3/2 146/3/2 147/3/2
f 147/3/2 146/3/2 148/3/2
f 149/3/2 150/3/2 151/3/2
f 151/3/2 150/3/2 152/3/2
f 153/3/2 154/3/2 155/3/2
f 155/3/2 154/3/2 156/3/2
f 157/1/2 158/1/2 159/1/2
f 159/1/2 158/1/2 160/1/2
f 161/3/2 162/3/2 163/3/2
f 163/3/2 162/3/2 164/3/2
f 165/3/2 166/3/2 167/3/2
f 167/3/2 166/3/2 168/3/2
f 169/3/2 170/3/2 171/3/2
f 171/3/2 170/3/2 172/3/2
f 179/3/3 174/3/3 173/3/3
f 180/3/3 174/3/3 179/3/3
f 181/3/3 176/3/3 175/3/3
f 182/3/3 176/3/3 181/3/3
f 183/3/3 178/3/3 177/3/3
f 184/3/3 178/3/3 183/3/3
f 191/3/3 186/3/3 185/3/3
f 192/3/3 186/3/3 191/3/3
f 193/3/3 188/3/3 187/3/3
f 194/3/3 188/3/3 193/3/3
f 195/3/3 190/3/3 189/3/3
f 196/3/3 190/3/3 195/3/3
f 204/3/3 198/3/3 197/3/3
f 205/3/3 198/3/3 204/3/3
f 206/3/3 200/3/3 199/3/3
f 207/3/3 200/3/3 206/3/3
f 208/3/3 202/3/3 201/3/3
f 209/3/3 202/3/3 208/3/3
f 212/3/3 204/3/3 203/3/3
f 213/3/3 204/3/3 212/3/3
f 214/3/3 206/3/3 205/3/3
f 215/3/3 206/3/3 214/3/3
f 216/3/3 208/3/3 207/3/3
f 217/3/3 208/3/3 216/3/3
f 218/1/3 210/1/3 209/1/3
f 219/1/3 210/1/3 218/1/3
f 220/2/3 212/2/3 211/2/3
f 221/2/3 212/2/3 220/2/3
f 222/2/3 214/2/3 213/2/3
f 223/2/3 214/2/3 222/2/3
f 224/2/3 216/2/3 215/2/3
f 225/2/3 216/2/3 224/2/3
f 226/1/3 218/1/3 217/1/3
f 227/1/3 218/1/3 226/1/3
f 229/3/3 222/3/3 221/3/3
f 230/3/3 222/3/3 229/3/3
f 231/3/3 224/3/3 223/3/3
f 232/3/3 224/3/3 231/3/3
f 233/3/3 226/3/3 225/3/3
f 234/3/3 226/3/3 233/3/3
f 235/1/3 228/1/3 227/1/3
f 236/1/3 228/1/3 235/1/3
f 237/3/3 231/3/3 230/3/3
f 238/3/3 231/3/3 237/3/3
f 239/3/3 233/3/3 232/3/3
f 240/3/3 233/3/3 239/3/3
f 241/3/3 235/3/3 234/3/3
f 242/3/3 235/3/3 241/3/3
f 249/3/3 244/3/3 243/3/3
f 250/3/3 244/3/3 249/3/3
f 251/3/3 246/3/3 245/3/3
f 252/3/3 246/3/3 251/3/3
f 253/3/3 248/3/3 247/3/3
f 254/3/3 248/3/3 253/3/3
f 255/3/4 256/3/4 261/3/4
f 261/3/4 256/3/4 262/3/4
f 257/3/4 258/3/4 263/3/4
f 263/3/4 258/3/4 264/3/4
f 259/3/4 260/3/4 265/3/4
f 265/3/4 260/3/4 266/3/4
f 267/3/4 268/3/4 274/3/4
f 274/3/4 268/3/4 275/3/4
f 269/3/4 270/3/4 276/3/4
f 276/3/4 270/3/4 277/3/4
f 271/3/4 272/3/4 278/3/4
f 278/3/4 272/3/4 279/3/4
f 273/3/4 274/3/4 282/3/4
f 282/3/4 274/3/4 283/3/4
f 275/3/4 276/3/4 284/3/4
f 284/3/4 276/3/4 285/3/4
f 277/3/4 278/3/4 286/3/4
f 286/3/4 278/3/4 287/3/4
f 279/1/4 280/1/4 288/1/4
f 288/1/4 280/1/4 289/1/4
f 281/2/4 282/2/4 290/2/4
f 290/2/4 282/2/4 291/2/4
f 283/2/4 284/2/4 292/2/4
f 292/2/4 284/2/4 293/2/4
f 285/2/4 286/2/4 294/2/4
f 294/2/4 286/2/4 295/2/4
f 287/1/4 288/1/4 296/1/4
f 296/1/4 288/1/4 297/1/4
f 291/3/4 292/3/4 299/3/4
f 299/3/4 292/3/4 300/3/4
f 293/3/4 294/3/4 301/3/4
f 301/3/4 294/3/4 302/3/4
f 295/3/4 296/3/4 303/3/4
f 303/3/4 296/3/4 304/3/4
f 297/1/4 298/1/4 305/1/4
f 305/1/4 298/1/4 306/1/4
f 300/3/4 301/3/4 307/3/4
f 307/3/4 301/3/4 308/3/4
f 302/3/4 303/3/4 309/3/4
f 309/3/4 303/3/4 310/3/4
f 304/3/4 305/3/4 311/3/4
f 311/3/4 305/3/4 312/3/4
f 313/3/4 314/3/4 319/3/4
f 319/3/4 314/3/4 320/3/4
f 315/3/4 316/3/4 321/3/4
f 321/3/4 316/3/4 322/3/4
f 317/3/4 318/3/4 323/3/4
f 323/3/4 318/3/4 324/3/4
f 325/3/4 326/3/4 331/3/4
f 331/3/4 326/3/4 332/3/4
f 327/3/4 328/3/4 333/3/4
f 333/3/4 328/3/4 334/3/4
f 329/3/4 330/3/4 335/3/4
f 335/3/4 330/3/4 336/3/4
f 339/2/5 338/2/5 337/2/5
f 340/2/5 338/2/5 339/2/5
f 344/3/5 342/3/5 341/3/5
f 345/3/5 342/3/5 344/3/5
f 347/3/5 344/3/5 343/3/5
f 348/3/5 344/3/5 347/3/5
f 349/3/5 346/3/5 345/3/5
f 350/3/5 346/3/5 349/3/5
f 351/3/5 349/3/5 348/3/5
f 352/3/5 349/3/5 351/3/5
f 355/3/5 354/3/5 353/3/5
f 356/3/5 354/3/5 355/3/5
f 361/3/5 358/3/5 357/3/5
f 362/3/5 358/3/5 361/3/5
f 363/3/5 360/3/5 359/3/5
f 364/3/5 360/3/5 363/3/5
f 367/3/5 366/3/5 365/3/5
f 368/3/5 366/3/5 367/3/5
f 372/3/5 370/3/5 369/3/5
f 373/3/5 370/3/5 372/3/5
f 375/3/5 372/3/5 371/3/5
f 376/3/5 372/3/5 375/3/5
f 377/3/5 374/3/5 373/3/5
f 378/3/5 374/3/5 377/3/5
f 379/3/5 377/3/5 376/3/5
f 380/3/5 377/3/5 379/3/5
f 383/3/5 382/3/5 381/3/5
f 384/3/5 382/3/5 383/3/5
f 389/3/5 386/3/5 385/3/5
f 390/3/5 386/3/5 389/3/5
f 391/3/5 388/3/5 387/3/5
f 392/3/5 388/3/5 391/3/5
f 395/3/5 394/3/5 393/3/5
f 396/3/5 394/3/5 395/3/5
f 400/3/5 398/3/5 397/3/5
f 401/3/5 398/3/5 400/3/5
f 403/3/5 400/3/5 399/3/5
f 404/3/5 400/3/5 403/3/5
f 405/3/5 402/3/5 401/3/5
f 406/3/5 402/3/5 405/3/5
f 407/3/5 405/3/5 404/3/5
f 408/3/5 405/3/5 407/3/5
f 411/3/5 410/3/5 409/3/5
f 412/3/5 410/3/5 411/3/5
f 417/3/5 414/3/5 413/3/5
f 418/3/5 414/3/5 417/3/5
f 419/3/5 416/3/5 415/3/5
f 420/3/5 416/3/5 419/3/5
f 423/3/5 422/3/5 421/3/5
f 424/3/5 422/3/5 423/3/5
f 429/1/5 426/1/5 425/1/5
f 430/1/5 426/1/5 429/1/5
f 431/1/5 428/1/5 427/1/5
f 432/1/5 428/1/5 431/1/5
f 433/3/6 434/3/6 436/3/6
f 436/3/6 434/3/6 437/3/6
f 435/3/6 436/3/6 439/3/6
f 439/3/6 436/3/6 440/3/6
f 437/3/6 438/3/6 441/3/6
f 441/3/6 438/3/6 442/3/6
f 440/3/6 441/3/6 443/3/6
f 443/3/6 441/3/6 444/3/6
f 445/3/6 446/3/6 447/3/6
f 447/3/6 446/3/6 448/3/6
f 449/3/6 450/3/6 453/3/6
f 453/3/6 450/3/6 454/3/6
f 451/3/6 452/3/6 455/3/6
f 455/3/6 452/3/6 456/3/6
f 457/3/6 458/3/6 459/3/6
f 459/3/6 458/3/6 460/3/6
f 461/3/6 462/3/6 464/3/6
f 464/3/6 462/3/6 465/3/6
f 463/3/6 464/3/6 467/3/6
f 467/3/6 464/3/6 468/3/6
f 465/3/6 466/3/6 469/3/6
f 469/3/6 466/3/6 470/3/6
f 468/3/6 469/3/6 471/3/6
f 471/3/6 469/3/6 472/3/6
f 473/3/6 474/3/6 475/3/6
f 475/3/6 474/3/6 476/3/6
f 477/3/6 478/3/6 481/3/6
f 481/3/6 478/3/6 482/3/6
f 479/3/6 480/3/6 483/3/6
f 483/3/6 480/3/6 484/3/6
f 485/3/6 486/3/6 487/3/6
f 487/3/6 486/3/6 488/3/6
f 489/3/6 490/3/6 492/3/6
f 492/3/6 490/3/6 493/3/6
f 491/3/6 492/3/6 495/3/6
f 495/3/6 492/3/6 496/3/6
f 493/3/6 494/3/6 497/3/6
f 497/3/6 494/3/6 498/3/6
f 496/3/6 497/3/6 499/3/6
f 499/3/6 497/3/6 500/3/6
f 501/3/6 502/3/6 503/3/6
f 503/3/6 502/3/6 504/3/6
f 505/3/6 506/3/6 511/3/6
f 511/3/6 506/3/6 512/3/6
f 507/1/6 508/1/6 513/1/6
f 513/1/6 508/1/6 514/1/6
f 509/3/6 510/3/6 515/3/6
f 515/3/6 510/3/6 516/3/6
f 517/3/6 518/3/6 519/3/6
f 519/3/6 518/3/6 520/3/6
f 521/1/6 522/1/6 525/1/6
f 525/1/6 522/1/6 526/1/6
f 523/1/6 524/1/6 527/1/6
f 527/1/6 524/1/6 528/1/6
