ply
format ascii 1.0
comment : 
comment : MagicaVoxel @ Ephtracy
element vertex 120
property float x
property float y
property float z
property uchar red
property uchar green
property uchar blue
element face 40
property list uchar int vertex_index
end_header
5.35 -4.1 0.05 255 240 147
5.3 -4.05 0.05 255 240 147
5.35 -4.05 0 255 240 147
5.4 -4.05 0.05 255 240 147
5.35 -4.1 0.05 255 240 147
5.35 -4.05 0 255 240 147
5.35 -4.05 0 255 240 147
5.3 -4.05 0.05 255 240 147
5.35 -4 0.05 255 240 147
5.4 -4.05 0.05 255 240 147
5.35 -4.05 0 255 240 147
5.35 -4 0.05 255 240 147
5.35 -4.2 0.15 201 185 94
5.3 -4.15 0.15 201 185 94
5.35 -4.15 0.1 201 185 94
5.4 -4.15 0.15 201 185 94
5.35 -4.2 0.15 201 185 94
5.35 -4.15 0.1 201 185 94
5.25 -4.1 0.15 201 185 94
5.2 -4.05 0.15 201 185 94
5.25 -4.05 0.1 201 185 94
5.3 -4.15 0.15 201 185 94
5.35 -4.1 0.15 201 185 94
5.35 -4.15 0.1 201 185 94
5.25 -4.1 0.15 201 185 94
5.25 -4.05 0.1 201 185 94
5.3 -4.05 0.15 201 185 94
5.3 -4.05 0.05 255 240 147
5.35 -4.1 0.05 255 240 147
5.35 -4.05 0.1 255 240 147
5.45 -4.1 0.15 201 185 94
5.4 -4.05 0.15 201 185 94
5.45 -4.05 0.1 201 185 94
5.4 -4.15 0.15 201 185 94
5.35 -4.15 0.1 201 185 94
5.35 -4.1 0.15 201 185 94
5.35 -4.1 0.05 255 240 147
5.4 -4.05 0.05 255 240 147
5.35 -4.05 0.1 255 240 147
5.5 -4.05 0.15 201 185 94
5.45 -4.1 0.15 201 185 94
5.45 -4.05 0.1 201 185 94
5.25 -4.05 0.1 201 185 94
5.2 -4.05 0.15 201 185 94
5.25 -4 0.15 201 185 94
5.3 -4.05 0.05 255 240 147
5.35 -4.05 0.1 255 240 147
5.35 -4 0.05 255 240 147
5.25 -4.05 0.1 201 185 94
5.25 -4 0.15 201 185 94
5.3 -4.05 0.15 201 185 94
5.3 -3.95 0.15 201 185 94
5.35 -3.95 0.1 201 185 94
5.35 -4 0.15 201 185 94
5.45 -4.05 0.1 201 185 94
5.4 -4.05 0.15 201 185 94
5.45 -4 0.15 201 185 94
5.4 -4.05 0.05 255 240 147
5.35 -4 0.05 255 240 147
5.35 -4.05 0.1 255 240 147
5.35 -3.95 0.1 201 185 94
5.4 -3.95 0.15 201 185 94
5.35 -4 0.15 201 185 94
5.5 -4.05 0.15 201 185 94
5.45 -4.05 0.1 201 185 94
5.45 -4 0.15 201 185 94
5.35 -3.95 0.1 201 185 94
5.3 -3.95 0.15 201 185 94
5.35 -3.9 0.15 201 185 94
5.4 -3.95 0.15 201 185 94
5.35 -3.95 0.1 201 185 94
5.35 -3.9 0.15 201 185 94
5.35 -4.15 0.2 201 185 94
5.3 -4.15 0.15 201 185 94
5.35 -4.2 0.15 201 185 94
5.4 -4.15 0.15 201 185 94
5.35 -4.15 0.2 201 185 94
5.35 -4.2 0.15 201 185 94
5.25 -4.05 0.2 201 185 94
5.2 -4.05 0.15 201 185 94
5.25 -4.1 0.15 201 185 94
5.3 -4.05 0.15 201 185 94
5.25 -4.05 0.2 201 185 94
5.25 -4.1 0.15 201 185 94
5.3 -4.15 0.15 201 185 94
5.35 -4.15 0.2 201 185 94
5.35 -4.1 0.15 201 185 94
5.35 -4.1 0.15 201 185 94
5.35 -4.15 0.2 201 185 94
5.4 -4.15 0.15 201 185 94
5.45 -4.1 0.15 201 185 94
5.45 -4.05 0.2 201 185 94
5.4 -4.05 0.15 201 185 94
5.5 -4.05 0.15 201 185 94
5.45 -4.05 0.2 201 185 94
5.45 -4.1 0.15 201 185 94
5.25 -4 0.15 201 185 94
5.2 -4.05 0.15 201 185 94
5.25 -4.05 0.2 201 185 94
5.25 -4 0.15 201 185 94
5.25 -4.05 0.2 201 185 94
5.3 -4.05 0.15 201 185 94
5.35 -4 0.15 201 185 94
5.35 -3.95 0.2 201 185 94
5.3 -3.95 0.15 201 185 94
5.4 -3.95 0.15 201 185 94
5.35 -3.95 0.2 201 185 94
5.35 -4 0.15 201 185 94
5.4 -4.05 0.15 201 185 94
5.45 -4.05 0.2 201 185 94
5.45 -4 0.15 201 185 94
5.5 -4.05 0.15 201 185 94
5.45 -4 0.15 201 185 94
5.45 -4.05 0.2 201 185 94
5.35 -3.9 0.15 201 185 94
5.3 -3.95 0.15 201 185 94
5.35 -3.95 0.2 201 185 94
5.4 -3.95 0.15 201 185 94
5.35 -3.9 0.15 201 185 94
5.35 -3.95 0.2 201 185 94
3 0 1 2
3 3 4 5
3 6 7 8
3 9 10 11
3 12 13 14
3 15 16 17
3 18 19 20
3 21 22 23
3 24 25 26
3 27 28 29
3 30 31 32
3 33 34 35
3 36 37 38
3 39 40 41
3 42 43 44
3 45 46 47
3 48 49 50
3 51 52 53
3 54 55 56
3 57 58 59
3 60 61 62
3 63 64 65
3 66 67 68
3 69 70 71
3 72 73 74
3 75 76 77
3 78 79 80
3 81 82 83
3 84 85 86
3 87 88 89
3 90 91 92
3 93 94 95
3 96 97 98
3 99 100 101
3 102 103 104
3 105 106 107
3 108 109 110
3 111 112 113
3 114 115 116
3 117 118 119
