ply
format ascii 1.0
comment : MagicaVoxel @ Ephtracy
element vertex 456
property float x
property float y
property float z
property uchar red
property uchar green
property uchar blue
end_header
20 -31 0 90 90 90
21 -31 0 90 90 90
22 -31 0 90 90 90
23 -31 0 90 90 90
19 -30 0 90 90 90
20 -30 0 90 90 90
21 -30 0 90 90 90
22 -30 0 90 90 90
23 -30 0 90 90 90
24 -30 0 90 90 90
16 -29 0 90 90 90
17 -29 0 90 90 90
18 -29 0 90 90 90
19 -29 0 90 90 90
20 -29 0 90 90 90
21 -29 0 90 90 90
22 -29 0 90 90 90
23 -29 0 90 90 90
24 -29 0 90 90 90
25 -29 0 90 90 90
16 -28 0 90 90 90
17 -28 0 90 90 90
18 -28 0 90 90 90
19 -28 0 90 90 90
20 -28 0 90 90 90
21 -28 0 90 90 90
22 -28 0 90 90 90
23 -28 0 90 90 90
24 -28 0 90 90 90
25 -28 0 90 90 90
16 -27 0 90 90 90
17 -27 0 90 90 90
18 -27 0 90 90 90
19 -27 0 90 90 90
20 -27 0 90 90 90
21 -27 0 90 90 90
22 -27 0 90 90 90
23 -27 0 90 90 90
24 -27 0 90 90 90
25 -27 0 90 90 90
16 -26 0 90 90 90
17 -26 0 90 90 90
18 -26 0 90 90 90
19 -26 0 90 90 90
20 -26 0 90 90 90
21 -26 0 90 90 90
22 -26 0 90 90 90
23 -26 0 90 90 90
24 -26 0 90 90 90
25 -26 0 90 90 90
16 -25 0 90 90 90
17 -25 0 90 90 90
18 -25 0 90 90 90
19 -25 0 90 90 90
20 -25 0 90 90 90
21 -25 0 90 90 90
22 -25 0 90 90 90
23 -25 0 90 90 90
24 -25 0 90 90 90
25 -25 0 90 90 90
16 -24 0 90 90 90
17 -24 0 90 90 90
18 -24 0 90 90 90
19 -24 0 90 90 90
20 -24 0 90 90 90
21 -24 0 90 90 90
22 -24 0 90 90 90
23 -24 0 90 90 90
24 -24 0 90 90 90
25 -24 0 90 90 90
17 -23 0 90 90 90
18 -23 0 90 90 90
19 -23 0 90 90 90
20 -23 0 90 90 90
21 -23 0 90 90 90
22 -23 0 90 90 90
23 -23 0 90 90 90
24 -23 0 90 90 90
19 -22 0 90 90 90
20 -22 0 90 90 90
21 -22 0 90 90 90
22 -22 0 90 90 90
23 -22 0 90 90 90
20 -31 1 90 90 90
21 -31 1 90 90 90
22 -31 1 90 90 90
23 -31 1 90 90 90
19 -30 1 90 90 90
20 -30 1 90 90 90
21 -30 1 90 90 90
22 -30 1 90 90 90
23 -30 1 90 90 90
24 -30 1 90 90 90
16 -29 1 90 90 90
17 -29 1 90 90 90
18 -29 1 90 90 90
19 -29 1 90 90 90
20 -29 1 90 90 90
21 -29 1 90 90 90
22 -29 1 90 90 90
23 -29 1 90 90 90
24 -29 1 90 90 90
25 -29 1 90 90 90
16 -28 1 90 90 90
17 -28 1 90 90 90
18 -28 1 90 90 90
19 -28 1 90 90 90
20 -28 1 90 90 90
21 -28 1 90 90 90
22 -28 1 90 90 90
23 -28 1 90 90 90
24 -28 1 90 90 90
25 -28 1 90 90 90
16 -27 1 90 90 90
17 -27 1 90 90 90
18 -27 1 90 90 90
19 -27 1 90 90 90
20 -27 1 90 90 90
21 -27 1 90 90 90
22 -27 1 90 90 90
23 -27 1 90 90 90
24 -27 1 90 90 90
25 -27 1 90 90 90
16 -26 1 90 90 90
17 -26 1 90 90 90
18 -26 1 90 90 90
19 -26 1 90 90 90
20 -26 1 90 90 90
21 -26 1 90 90 90
22 -26 1 90 90 90
23 -26 1 90 90 90
24 -26 1 90 90 90
25 -26 1 90 90 90
16 -25 1 90 90 90
17 -25 1 90 90 90
18 -25 1 90 90 90
19 -25 1 90 90 90
20 -25 1 90 90 90
21 -25 1 90 90 90
22 -25 1 90 90 90
23 -25 1 90 90 90
24 -25 1 90 90 90
25 -25 1 90 90 90
16 -24 1 90 90 90
17 -24 1 90 90 90
18 -24 1 90 90 90
19 -24 1 90 90 90
20 -24 1 90 90 90
21 -24 1 90 90 90
22 -24 1 90 90 90
23 -24 1 90 90 90
24 -24 1 90 90 90
25 -24 1 90 90 90
17 -23 1 90 90 90
18 -23 1 90 90 90
19 -23 1 90 90 90
20 -23 1 90 90 90
21 -23 1 90 90 90
22 -23 1 90 90 90
23 -23 1 90 90 90
24 -23 1 90 90 90
19 -22 1 90 90 90
20 -22 1 90 90 90
21 -22 1 90 90 90
22 -22 1 90 90 90
23 -22 1 90 90 90
20 -31 2 90 90 90
21 -31 2 90 90 90
22 -31 2 90 90 90
23 -31 2 90 90 90
19 -30 2 90 90 90
20 -30 2 90 90 90
21 -30 2 90 90 90
22 -30 2 90 90 90
23 -30 2 90 90 90
24 -30 2 90 90 90
16 -29 2 90 90 90
17 -29 2 90 90 90
18 -29 2 90 90 90
19 -29 2 90 90 90
20 -29 2 90 90 90
21 -29 2 90 90 90
22 -29 2 90 90 90
23 -29 2 90 90 90
24 -29 2 90 90 90
25 -29 2 90 90 90
16 -28 2 90 90 90
17 -28 2 90 90 90
18 -28 2 90 90 90
19 -28 2 90 90 90
20 -28 2 90 90 90
21 -28 2 90 90 90
22 -28 2 90 90 90
23 -28 2 90 90 90
24 -28 2 90 90 90
25 -28 2 90 90 90
16 -27 2 90 90 90
17 -27 2 90 90 90
18 -27 2 90 90 90
19 -27 2 90 90 90
20 -27 2 90 90 90
21 -27 2 90 90 90
22 -27 2 90 90 90
23 -27 2 90 90 90
24 -27 2 90 90 90
25 -27 2 90 90 90
16 -26 2 90 90 90
17 -26 2 90 90 90
18 -26 2 90 90 90
19 -26 2 90 90 90
20 -26 2 90 90 90
21 -26 2 90 90 90
22 -26 2 90 90 90
23 -26 2 90 90 90
24 -26 2 90 90 90
25 -26 2 90 90 90
16 -25 2 90 90 90
17 -25 2 90 90 90
18 -25 2 90 90 90
19 -25 2 90 90 90
20 -25 2 90 90 90
21 -25 2 90 90 90
22 -25 2 90 90 90
23 -25 2 90 90 90
24 -25 2 90 90 90
25 -25 2 90 90 90
16 -24 2 90 90 90
17 -24 2 90 90 90
18 -24 2 90 90 90
19 -24 2 90 90 90
20 -24 2 90 90 90
21 -24 2 90 90 90
22 -24 2 90 90 90
23 -24 2 90 90 90
24 -24 2 90 90 90
25 -24 2 90 90 90
17 -23 2 90 90 90
18 -23 2 90 90 90
19 -23 2 90 90 90
20 -23 2 90 90 90
21 -23 2 90 90 90
22 -23 2 90 90 90
20 -31 3 90 90 90
21 -31 3 90 90 90
22 -31 3 90 90 90
23 -31 3 90 90 90
19 -30 3 90 90 90
20 -30 3 90 90 90
21 -30 3 90 90 90
22 -30 3 90 90 90
23 -30 3 90 90 90
24 -30 3 90 90 90
19 -29 3 90 90 90
20 -29 3 90 90 90
21 -29 3 90 90 90
22 -29 3 90 90 90
23 -29 3 90 90 90
24 -29 3 90 90 90
17 -28 3 90 90 90
18 -28 3 90 90 90
19 -28 3 90 90 90
20 -28 3 90 90 90
21 -28 3 90 90 90
22 -28 3 90 90 90
23 -28 3 90 90 90
24 -28 3 90 90 90
17 -27 3 90 90 90
18 -27 3 90 90 90
19 -27 3 90 90 90
20 -27 3 90 90 90
21 -27 3 90 90 90
22 -27 3 90 90 90
23 -27 3 90 90 90
24 -27 3 90 90 90
17 -26 3 90 90 90
18 -26 3 90 90 90
19 -26 3 90 90 90
20 -26 3 90 90 90
21 -26 3 90 90 90
22 -26 3 90 90 90
23 -26 3 90 90 90
24 -26 3 90 90 90
17 -25 3 90 90 90
18 -25 3 90 90 90
19 -25 3 90 90 90
20 -25 3 90 90 90
21 -25 3 90 90 90
22 -25 3 90 90 90
23 -25 3 90 90 90
24 -25 3 90 90 90
17 -24 3 90 90 90
18 -24 3 90 90 90
19 -24 3 90 90 90
20 -24 3 90 90 90
21 -24 3 90 90 90
22 -24 3 90 90 90
17 -23 3 90 90 90
18 -23 3 90 90 90
19 -23 3 90 90 90
20 -23 3 90 90 90
21 -23 3 90 90 90
22 -23 3 90 90 90
20 -31 4 90 90 90
21 -31 4 90 90 90
22 -31 4 90 90 90
23 -31 4 90 90 90
19 -30 4 90 90 90
20 -30 4 90 90 90
21 -30 4 90 90 90
22 -30 4 90 90 90
23 -30 4 90 90 90
24 -30 4 90 90 90
19 -29 4 90 90 90
20 -29 4 90 90 90
21 -29 4 90 90 90
22 -29 4 90 90 90
23 -29 4 90 90 90
24 -29 4 90 90 90
17 -28 4 90 90 90
18 -28 4 90 90 90
19 -28 4 90 90 90
20 -28 4 90 90 90
21 -28 4 90 90 90
22 -28 4 90 90 90
23 -28 4 90 90 90
24 -28 4 90 90 90
17 -27 4 90 90 90
18 -27 4 90 90 90
19 -27 4 90 90 90
20 -27 4 90 90 90
21 -27 4 90 90 90
22 -27 4 90 90 90
23 -27 4 90 90 90
24 -27 4 90 90 90
17 -26 4 90 90 90
18 -26 4 90 90 90
19 -26 4 90 90 90
20 -26 4 90 90 90
21 -26 4 90 90 90
22 -26 4 90 90 90
23 -26 4 90 90 90
24 -26 4 90 90 90
17 -25 4 90 90 90
18 -25 4 90 90 90
19 -25 4 90 90 90
20 -25 4 90 90 90
21 -25 4 90 90 90
22 -25 4 90 90 90
23 -25 4 90 90 90
24 -25 4 90 90 90
17 -24 4 90 90 90
18 -24 4 90 90 90
19 -24 4 90 90 90
20 -24 4 90 90 90
21 -24 4 90 90 90
22 -24 4 90 90 90
17 -23 4 90 90 90
18 -23 4 90 90 90
19 -23 4 90 90 90
20 -23 4 90 90 90
21 -23 4 90 90 90
22 -23 4 90 90 90
19 -30 5 90 90 90
20 -30 5 90 90 90
21 -30 5 90 90 90
22 -30 5 90 90 90
23 -30 5 90 90 90
24 -30 5 90 90 90
19 -29 5 90 90 90
20 -29 5 90 90 90
21 -29 5 90 90 90
22 -29 5 90 90 90
23 -29 5 90 90 90
24 -29 5 90 90 90
19 -28 5 90 90 90
20 -28 5 90 90 90
21 -28 5 90 90 90
22 -28 5 90 90 90
23 -28 5 90 90 90
24 -28 5 90 90 90
19 -27 5 90 90 90
20 -27 5 90 90 90
21 -27 5 90 90 90
22 -27 5 90 90 90
23 -27 5 90 90 90
24 -27 5 90 90 90
18 -26 5 90 90 90
19 -26 5 90 90 90
20 -26 5 90 90 90
21 -26 5 90 90 90
22 -26 5 90 90 90
23 -26 5 90 90 90
24 -26 5 90 90 90
18 -25 5 90 90 90
19 -25 5 90 90 90
20 -25 5 90 90 90
21 -25 5 90 90 90
22 -25 5 90 90 90
23 -25 5 90 90 90
24 -25 5 90 90 90
18 -24 5 90 90 90
19 -24 5 90 90 90
20 -24 5 90 90 90
21 -24 5 90 90 90
19 -30 6 90 90 90
20 -30 6 90 90 90
21 -30 6 90 90 90
22 -30 6 90 90 90
23 -30 6 90 90 90
24 -30 6 90 90 90
19 -29 6 90 90 90
20 -29 6 90 90 90
21 -29 6 90 90 90
22 -29 6 90 90 90
23 -29 6 90 90 90
24 -29 6 90 90 90
19 -28 6 90 90 90
20 -28 6 90 90 90
21 -28 6 90 90 90
22 -28 6 90 90 90
23 -28 6 90 90 90
24 -28 6 90 90 90
19 -27 6 90 90 90
20 -27 6 90 90 90
21 -27 6 90 90 90
22 -27 6 90 90 90
23 -27 6 90 90 90
24 -27 6 90 90 90
19 -26 6 90 90 90
20 -26 6 90 90 90
21 -26 6 90 90 90
22 -26 6 90 90 90
23 -26 6 90 90 90
24 -26 6 90 90 90
19 -25 6 90 90 90
20 -25 6 90 90 90
21 -25 6 90 90 90
22 -25 6 90 90 90
23 -25 6 90 90 90
24 -25 6 90 90 90
20 -29 7 90 90 90
21 -29 7 90 90 90
22 -29 7 90 90 90
23 -29 7 90 90 90
20 -28 7 90 90 90
21 -28 7 90 90 90
22 -28 7 90 90 90
23 -28 7 90 90 90
20 -27 7 90 90 90
21 -27 7 90 90 90
22 -27 7 90 90 90
23 -27 7 90 90 90
20 -26 7 90 90 90
21 -26 7 90 90 90
22 -26 7 90 90 90
23 -26 7 90 90 90
