ply
format ascii 1.0
comment : MagicaVoxel @ Ephtracy
element vertex 1032
property float x
property float y
property float z
property uchar red
property uchar green
property uchar blue
end_header
-19 -2 0 100 73 32
-18 -2 0 100 73 32
-17 -2 0 100 73 32
-16 -2 0 100 73 32
-19 -1 0 100 73 32
-18 -1 0 100 73 32
-17 -1 0 100 73 32
-16 -1 0 100 73 32
-19 0 0 100 73 32
-18 0 0 100 73 32
-17 0 0 100 73 32
-16 0 0 100 73 32
-19 1 0 100 73 32
-18 1 0 100 73 32
-17 1 0 100 73 32
-16 1 0 100 73 32
-19 -2 1 100 73 32
-18 -2 1 100 73 32
-17 -2 1 100 73 32
-16 -2 1 100 73 32
-19 -1 1 100 73 32
-18 -1 1 100 73 32
-17 -1 1 100 73 32
-16 -1 1 100 73 32
-19 0 1 100 73 32
-18 0 1 100 73 32
-17 0 1 100 73 32
-16 0 1 100 73 32
-19 1 1 100 73 32
-18 1 1 100 73 32
-17 1 1 100 73 32
-16 1 1 100 73 32
-22 -5 2 42 130 67
-21 -5 2 42 130 67
-20 -5 2 42 130 67
-19 -5 2 42 130 67
-18 -5 2 42 130 67
-17 -5 2 42 130 67
-16 -5 2 42 130 67
-15 -5 2 42 130 67
-14 -5 2 42 130 67
-13 -5 2 42 130 67
-22 -4 2 42 130 67
-21 -4 2 42 130 67
-20 -4 2 42 130 67
-19 -4 2 42 130 67
-18 -4 2 42 130 67
-17 -4 2 42 130 67
-16 -4 2 42 130 67
-15 -4 2 42 130 67
-14 -4 2 42 130 67
-13 -4 2 42 130 67
-22 -3 2 42 130 67
-21 -3 2 42 130 67
-20 -3 2 42 130 67
-19 -3 2 42 130 67
-18 -3 2 42 130 67
-17 -3 2 42 130 67
-16 -3 2 42 130 67
-15 -3 2 42 130 67
-14 -3 2 42 130 67
-13 -3 2 42 130 67
-22 -2 2 42 130 67
-21 -2 2 42 130 67
-20 -2 2 42 130 67
-19 -2 2 42 130 67
-18 -2 2 42 130 67
-17 -2 2 42 130 67
-16 -2 2 42 130 67
-15 -2 2 42 130 67
-14 -2 2 42 130 67
-13 -2 2 42 130 67
-22 -1 2 42 130 67
-21 -1 2 42 130 67
-20 -1 2 42 130 67
-19 -1 2 42 130 67
-18 -1 2 42 130 67
-17 -1 2 42 130 67
-16 -1 2 42 130 67
-15 -1 2 42 130 67
-14 -1 2 42 130 67
-13 -1 2 42 130 67
-22 0 2 42 130 67
-21 0 2 42 130 67
-20 0 2 42 130 67
-19 0 2 42 130 67
-18 0 2 42 130 67
-17 0 2 42 130 67
-16 0 2 42 130 67
-15 0 2 42 130 67
-14 0 2 42 130 67
-13 0 2 42 130 67
-22 1 2 42 130 67
-21 1 2 42 130 67
-20 1 2 42 130 67
-19 1 2 42 130 67
-18 1 2 42 130 67
-17 1 2 42 130 67
-16 1 2 42 130 67
-15 1 2 42 130 67
-14 1 2 42 130 67
-13 1 2 42 130 67
-22 2 2 42 130 67
-21 2 2 42 130 67
-20 2 2 42 130 67
-19 2 2 42 130 67
-18 2 2 42 130 67
-17 2 2 42 130 67
-16 2 2 42 130 67
-15 2 2 42 130 67
-14 2 2 42 130 67
-13 2 2 42 130 67
-22 3 2 42 130 67
-21 3 2 42 130 67
-20 3 2 42 130 67
-19 3 2 42 130 67
-18 3 2 42 130 67
-17 3 2 42 130 67
-16 3 2 42 130 67
-15 3 2 42 130 67
-14 3 2 42 130 67
-13 3 2 42 130 67
-22 4 2 42 130 67
-21 4 2 42 130 67
-20 4 2 42 130 67
-19 4 2 42 130 67
-18 4 2 42 130 67
-17 4 2 42 130 67
-16 4 2 42 130 67
-15 4 2 42 130 67
-14 4 2 42 130 67
-13 4 2 42 130 67
-22 -5 3 42 130 67
-21 -5 3 42 130 67
-20 -5 3 42 130 67
-19 -5 3 42 130 67
-18 -5 3 42 130 67
-17 -5 3 42 130 67
-16 -5 3 42 130 67
-15 -5 3 42 130 67
-14 -5 3 42 130 67
-13 -5 3 42 130 67
-22 -4 3 42 130 67
-21 -4 3 42 130 67
-20 -4 3 42 130 67
-19 -4 3 42 130 67
-18 -4 3 42 130 67
-17 -4 3 42 130 67
-16 -4 3 42 130 67
-15 -4 3 42 130 67
-14 -4 3 42 130 67
-13 -4 3 42 130 67
-22 -3 3 42 130 67
-21 -3 3 42 130 67
-20 -3 3 42 130 67
-19 -3 3 42 130 67
-18 -3 3 42 130 67
-17 -3 3 42 130 67
-16 -3 3 42 130 67
-15 -3 3 42 130 67
-14 -3 3 42 130 67
-13 -3 3 42 130 67
-22 -2 3 42 130 67
-21 -2 3 42 130 67
-20 -2 3 42 130 67
-19 -2 3 42 130 67
-18 -2 3 42 130 67
-17 -2 3 42 130 67
-16 -2 3 42 130 67
-15 -2 3 42 130 67
-14 -2 3 42 130 67
-13 -2 3 42 130 67
-22 -1 3 42 130 67
-21 -1 3 42 130 67
-20 -1 3 42 130 67
-19 -1 3 42 130 67
-18 -1 3 42 130 67
-17 -1 3 42 130 67
-16 -1 3 42 130 67
-15 -1 3 42 130 67
-14 -1 3 42 130 67
-13 -1 3 42 130 67
-22 0 3 42 130 67
-21 0 3 42 130 67
-20 0 3 42 130 67
-19 0 3 42 130 67
-18 0 3 42 130 67
-17 0 3 42 130 67
-16 0 3 42 130 67
-15 0 3 42 130 67
-14 0 3 42 130 67
-13 0 3 42 130 67
-22 1 3 42 130 67
-21 1 3 42 130 67
-20 1 3 42 130 67
-19 1 3 42 130 67
-18 1 3 42 130 67
-17 1 3 42 130 67
-16 1 3 42 130 67
-15 1 3 42 130 67
-14 1 3 42 130 67
-13 1 3 42 130 67
-22 2 3 42 130 67
-21 2 3 42 130 67
-20 2 3 42 130 67
-19 2 3 42 130 67
-18 2 3 42 130 67
-17 2 3 42 130 67
-16 2 3 42 130 67
-15 2 3 42 130 67
-14 2 3 42 130 67
-13 2 3 42 130 67
-22 3 3 42 130 67
-21 3 3 42 130 67
-20 3 3 42 130 67
-19 3 3 42 130 67
-18 3 3 42 130 67
-17 3 3 42 130 67
-16 3 3 42 130 67
-15 3 3 42 130 67
-14 3 3 42 130 67
-13 3 3 42 130 67
-22 4 3 42 130 67
-21 4 3 42 130 67
-20 4 3 42 130 67
-19 4 3 42 130 67
-18 4 3 42 130 67
-17 4 3 42 130 67
-16 4 3 42 130 67
-15 4 3 42 130 67
-14 4 3 42 130 67
-13 4 3 42 130 67
-22 -5 4 42 130 67
-21 -5 4 42 130 67
-20 -5 4 42 130 67
-19 -5 4 42 130 67
-18 -5 4 42 130 67
-17 -5 4 42 130 67
-16 -5 4 42 130 67
-15 -5 4 42 130 67
-14 -5 4 42 130 67
-13 -5 4 42 130 67
-22 -4 4 42 130 67
-21 -4 4 42 130 67
-20 -4 4 42 130 67
-19 -4 4 42 130 67
-18 -4 4 42 130 67
-17 -4 4 42 130 67
-16 -4 4 42 130 67
-15 -4 4 42 130 67
-14 -4 4 42 130 67
-13 -4 4 42 130 67
-22 -3 4 42 130 67
-21 -3 4 42 130 67
-20 -3 4 42 130 67
-19 -3 4 42 130 67
-18 -3 4 42 130 67
-17 -3 4 42 130 67
-16 -3 4 42 130 67
-15 -3 4 42 130 67
-14 -3 4 42 130 67
-13 -3 4 42 130 67
-22 -2 4 42 130 67
-21 -2 4 42 130 67
-20 -2 4 42 130 67
-19 -2 4 42 130 67
-18 -2 4 42 130 67
-17 -2 4 42 130 67
-16 -2 4 42 130 67
-15 -2 4 42 130 67
-14 -2 4 42 130 67
-13 -2 4 42 130 67
-22 -1 4 42 130 67
-21 -1 4 42 130 67
-20 -1 4 42 130 67
-19 -1 4 42 130 67
-18 -1 4 42 130 67
-17 -1 4 42 130 67
-16 -1 4 42 130 67
-15 -1 4 42 130 67
-14 -1 4 42 130 67
-13 -1 4 42 130 67
-22 0 4 42 130 67
-21 0 4 42 130 67
-20 0 4 42 130 67
-19 0 4 42 130 67
-18 0 4 42 130 67
-17 0 4 42 130 67
-16 0 4 42 130 67
-15 0 4 42 130 67
-14 0 4 42 130 67
-13 0 4 42 130 67
-22 1 4 42 130 67
-21 1 4 42 130 67
-20 1 4 42 130 67
-19 1 4 42 130 67
-18 1 4 42 130 67
-17 1 4 42 130 67
-16 1 4 42 130 67
-15 1 4 42 130 67
-14 1 4 42 130 67
-13 1 4 42 130 67
-22 2 4 42 130 67
-21 2 4 42 130 67
-20 2 4 42 130 67
-19 2 4 42 130 67
-18 2 4 42 130 67
-17 2 4 42 130 67
-16 2 4 42 130 67
-15 2 4 42 130 67
-14 2 4 42 130 67
-13 2 4 42 130 67
-22 3 4 42 130 67
-21 3 4 42 130 67
-20 3 4 42 130 67
-19 3 4 42 130 67
-18 3 4 42 130 67
-17 3 4 42 130 67
-16 3 4 42 130 67
-15 3 4 42 130 67
-14 3 4 42 130 67
-13 3 4 42 130 67
-22 4 4 42 130 67
-21 4 4 42 130 67
-20 4 4 42 130 67
-19 4 4 42 130 67
-18 4 4 42 130 67
-17 4 4 42 130 67
-16 4 4 42 130 67
-15 4 4 42 130 67
-14 4 4 42 130 67
-13 4 4 42 130 67
-22 -5 5 38 116 60
-21 -5 5 38 116 60
-20 -5 5 38 116 60
-19 -5 5 38 116 60
-18 -5 5 38 116 60
-17 -5 5 38 116 60
-16 -5 5 38 116 60
-15 -5 5 38 116 60
-14 -5 5 38 116 60
-13 -5 5 38 116 60
-22 -4 5 38 116 60
-21 -4 5 38 116 60
-20 -4 5 38 116 60
-19 -4 5 38 116 60
-18 -4 5 38 116 60
-17 -4 5 38 116 60
-16 -4 5 38 116 60
-15 -4 5 38 116 60
-14 -4 5 38 116 60
-13 -4 5 38 116 60
-22 -3 5 38 116 60
-21 -3 5 38 116 60
-20 -3 5 38 116 60
-19 -3 5 38 116 60
-18 -3 5 38 116 60
-17 -3 5 38 116 60
-16 -3 5 38 116 60
-15 -3 5 38 116 60
-14 -3 5 38 116 60
-13 -3 5 38 116 60
-22 -2 5 38 116 60
-21 -2 5 38 116 60
-20 -2 5 38 116 60
-19 -2 5 38 116 60
-18 -2 5 38 116 60
-17 -2 5 38 116 60
-16 -2 5 38 116 60
-15 -2 5 38 116 60
-14 -2 5 38 116 60
-13 -2 5 38 116 60
-22 -1 5 38 116 60
-21 -1 5 38 116 60
-20 -1 5 38 116 60
-19 -1 5 38 116 60
-18 -1 5 38 116 60
-17 -1 5 38 116 60
-16 -1 5 38 116 60
-15 -1 5 38 116 60
-14 -1 5 38 116 60
-13 -1 5 38 116 60
-22 0 5 38 116 60
-21 0 5 38 116 60
-20 0 5 38 116 60
-19 0 5 38 116 60
-18 0 5 38 116 60
-17 0 5 38 116 60
-16 0 5 38 116 60
-15 0 5 38 116 60
-14 0 5 38 116 60
-13 0 5 38 116 60
-22 1 5 38 116 60
-21 1 5 38 116 60
-20 1 5 38 116 60
-19 1 5 38 116 60
-18 1 5 38 116 60
-17 1 5 38 116 60
-16 1 5 38 116 60
-15 1 5 38 116 60
-14 1 5 38 116 60
-13 1 5 38 116 60
-22 2 5 38 116 60
-21 2 5 38 116 60
-20 2 5 38 116 60
-19 2 5 38 116 60
-18 2 5 38 116 60
-17 2 5 38 116 60
-16 2 5 38 116 60
-15 2 5 38 116 60
-14 2 5 38 116 60
-13 2 5 38 116 60
-22 3 5 38 116 60
-21 3 5 38 116 60
-20 3 5 38 116 60
-19 3 5 38 116 60
-18 3 5 38 116 60
-17 3 5 38 116 60
-16 3 5 38 116 60
-15 3 5 38 116 60
-14 3 5 38 116 60
-13 3 5 38 116 60
-22 4 5 38 116 60
-21 4 5 38 116 60
-20 4 5 38 116 60
-19 4 5 38 116 60
-18 4 5 38 116 60
-17 4 5 38 116 60
-16 4 5 38 116 60
-15 4 5 38 116 60
-14 4 5 38 116 60
-13 4 5 38 116 60
-22 -5 6 42 130 67
-21 -5 6 42 130 67
-20 -5 6 42 130 67
-19 -5 6 42 130 67
-18 -5 6 42 130 67
-17 -5 6 42 130 67
-16 -5 6 42 130 67
-15 -5 6 42 130 67
-14 -5 6 42 130 67
-13 -5 6 42 130 67
-22 -4 6 42 130 67
-21 -4 6 42 130 67
-20 -4 6 42 130 67
-19 -4 6 42 130 67
-18 -4 6 42 130 67
-17 -4 6 42 130 67
-16 -4 6 42 130 67
-15 -4 6 42 130 67
-14 -4 6 42 130 67
-13 -4 6 42 130 67
-22 -3 6 42 130 67
-21 -3 6 42 130 67
-20 -3 6 42 130 67
-19 -3 6 42 130 67
-18 -3 6 42 130 67
-17 -3 6 42 130 67
-16 -3 6 42 130 67
-15 -3 6 42 130 67
-14 -3 6 42 130 67
-13 -3 6 42 130 67
-22 -2 6 42 130 67
-21 -2 6 42 130 67
-20 -2 6 42 130 67
-19 -2 6 42 130 67
-18 -2 6 42 130 67
-17 -2 6 42 130 67
-16 -2 6 42 130 67
-15 -2 6 42 130 67
-14 -2 6 42 130 67
-13 -2 6 42 130 67
-22 -1 6 42 130 67
-21 -1 6 42 130 67
-20 -1 6 42 130 67
-19 -1 6 42 130 67
-18 -1 6 42 130 67
-17 -1 6 42 130 67
-16 -1 6 42 130 67
-15 -1 6 42 130 67
-14 -1 6 42 130 67
-13 -1 6 42 130 67
-22 0 6 42 130 67
-21 0 6 42 130 67
-20 0 6 42 130 67
-19 0 6 42 130 67
-18 0 6 42 130 67
-17 0 6 42 130 67
-16 0 6 42 130 67
-15 0 6 42 130 67
-14 0 6 42 130 67
-13 0 6 42 130 67
-22 1 6 42 130 67
-21 1 6 42 130 67
-20 1 6 42 130 67
-19 1 6 42 130 67
-18 1 6 42 130 67
-17 1 6 42 130 67
-16 1 6 42 130 67
-15 1 6 42 130 67
-14 1 6 42 130 67
-13 1 6 42 130 67
-22 2 6 42 130 67
-21 2 6 42 130 67
-20 2 6 42 130 67
-19 2 6 42 130 67
-18 2 6 42 130 67
-17 2 6 42 130 67
-16 2 6 42 130 67
-15 2 6 42 130 67
-14 2 6 42 130 67
-13 2 6 42 130 67
-22 3 6 42 130 67
-21 3 6 42 130 67
-20 3 6 42 130 67
-19 3 6 42 130 67
-18 3 6 42 130 67
-17 3 6 42 130 67
-16 3 6 42 130 67
-15 3 6 42 130 67
-14 3 6 42 130 67
-13 3 6 42 130 67
-22 4 6 42 130 67
-21 4 6 42 130 67
-20 4 6 42 130 67
-19 4 6 42 130 67
-18 4 6 42 130 67
-17 4 6 42 130 67
-16 4 6 42 130 67
-15 4 6 42 130 67
-14 4 6 42 130 67
-13 4 6 42 130 67
-22 -5 7 42 130 67
-21 -5 7 42 130 67
-20 -5 7 42 130 67
-19 -5 7 42 130 67
-18 -5 7 42 130 67
-17 -5 7 42 130 67
-16 -5 7 42 130 67
-15 -5 7 42 130 67
-14 -5 7 42 130 67
-13 -5 7 42 130 67
-22 -4 7 42 130 67
-21 -4 7 42 130 67
-20 -4 7 42 130 67
-19 -4 7 42 130 67
-18 -4 7 42 130 67
-17 -4 7 42 130 67
-16 -4 7 42 130 67
-15 -4 7 42 130 67
-14 -4 7 42 130 67
-13 -4 7 42 130 67
-22 -3 7 42 130 67
-21 -3 7 42 130 67
-20 -3 7 42 130 67
-19 -3 7 42 130 67
-18 -3 7 42 130 67
-17 -3 7 42 130 67
-16 -3 7 42 130 67
-15 -3 7 42 130 67
-14 -3 7 42 130 67
-13 -3 7 42 130 67
-22 -2 7 42 130 67
-21 -2 7 42 130 67
-20 -2 7 42 130 67
-19 -2 7 42 130 67
-18 -2 7 42 130 67
-17 -2 7 42 130 67
-16 -2 7 42 130 67
-15 -2 7 42 130 67
-14 -2 7 42 130 67
-13 -2 7 42 130 67
-22 -1 7 42 130 67
-21 -1 7 42 130 67
-20 -1 7 42 130 67
-19 -1 7 42 130 67
-18 -1 7 42 130 67
-17 -1 7 42 130 67
-16 -1 7 42 130 67
-15 -1 7 42 130 67
-14 -1 7 42 130 67
-13 -1 7 42 130 67
-22 0 7 42 130 67
-21 0 7 42 130 67
-20 0 7 42 130 67
-19 0 7 42 130 67
-18 0 7 42 130 67
-17 0 7 42 130 67
-16 0 7 42 130 67
-15 0 7 42 130 67
-14 0 7 42 130 67
-13 0 7 42 130 67
-22 1 7 42 130 67
-21 1 7 42 130 67
-20 1 7 42 130 67
-19 1 7 42 130 67
-18 1 7 42 130 67
-17 1 7 42 130 67
-16 1 7 42 130 67
-15 1 7 42 130 67
-14 1 7 42 130 67
-13 1 7 42 130 67
-22 2 7 42 130 67
-21 2 7 42 130 67
-20 2 7 42 130 67
-19 2 7 42 130 67
-18 2 7 42 130 67
-17 2 7 42 130 67
-16 2 7 42 130 67
-15 2 7 42 130 67
-14 2 7 42 130 67
-13 2 7 42 130 67
-22 3 7 42 130 67
-21 3 7 42 130 67
-20 3 7 42 130 67
-19 3 7 42 130 67
-18 3 7 42 130 67
-17 3 7 42 130 67
-16 3 7 42 130 67
-15 3 7 42 130 67
-14 3 7 42 130 67
-13 3 7 42 130 67
-22 4 7 42 130 67
-21 4 7 42 130 67
-20 4 7 42 130 67
-19 4 7 42 130 67
-18 4 7 42 130 67
-17 4 7 42 130 67
-16 4 7 42 130 67
-15 4 7 42 130 67
-14 4 7 42 130 67
-13 4 7 42 130 67
-22 -5 8 38 116 60
-21 -5 8 38 116 60
-20 -5 8 38 116 60
-19 -5 8 38 116 60
-18 -5 8 38 116 60
-17 -5 8 38 116 60
-16 -5 8 38 116 60
-15 -5 8 38 116 60
-14 -5 8 38 116 60
-13 -5 8 38 116 60
-22 -4 8 38 116 60
-21 -4 8 38 116 60
-20 -4 8 38 116 60
-19 -4 8 38 116 60
-18 -4 8 38 116 60
-17 -4 8 38 116 60
-16 -4 8 38 116 60
-15 -4 8 38 116 60
-14 -4 8 38 116 60
-13 -4 8 38 116 60
-22 -3 8 38 116 60
-21 -3 8 38 116 60
-20 -3 8 38 116 60
-19 -3 8 38 116 60
-18 -3 8 38 116 60
-17 -3 8 38 116 60
-16 -3 8 38 116 60
-15 -3 8 38 116 60
-14 -3 8 38 116 60
-13 -3 8 38 116 60
-22 -2 8 38 116 60
-21 -2 8 38 116 60
-20 -2 8 38 116 60
-19 -2 8 38 116 60
-18 -2 8 38 116 60
-17 -2 8 38 116 60
-16 -2 8 38 116 60
-15 -2 8 38 116 60
-14 -2 8 38 116 60
-13 -2 8 38 116 60
-22 -1 8 38 116 60
-21 -1 8 38 116 60
-20 -1 8 38 116 60
-19 -1 8 38 116 60
-18 -1 8 38 116 60
-17 -1 8 38 116 60
-16 -1 8 38 116 60
-15 -1 8 38 116 60
-14 -1 8 38 116 60
-13 -1 8 38 116 60
-22 0 8 38 116 60
-21 0 8 38 116 60
-20 0 8 38 116 60
-19 0 8 38 116 60
-18 0 8 38 116 60
-17 0 8 38 116 60
-16 0 8 38 116 60
-15 0 8 38 116 60
-14 0 8 38 116 60
-13 0 8 38 116 60
-22 1 8 38 116 60
-21 1 8 38 116 60
-20 1 8 38 116 60
-19 1 8 38 116 60
-18 1 8 38 116 60
-17 1 8 38 116 60
-16 1 8 38 116 60
-15 1 8 38 116 60
-14 1 8 38 116 60
-13 1 8 38 116 60
-22 2 8 38 116 60
-21 2 8 38 116 60
-20 2 8 38 116 60
-19 2 8 38 116 60
-18 2 8 38 116 60
-17 2 8 38 116 60
-16 2 8 38 116 60
-15 2 8 38 116 60
-14 2 8 38 116 60
-13 2 8 38 116 60
-22 3 8 38 116 60
-21 3 8 38 116 60
-20 3 8 38 116 60
-19 3 8 38 116 60
-18 3 8 38 116 60
-17 3 8 38 116 60
-16 3 8 38 116 60
-15 3 8 38 116 60
-14 3 8 38 116 60
-13 3 8 38 116 60
-22 4 8 38 116 60
-21 4 8 38 116 60
-20 4 8 38 116 60
-19 4 8 38 116 60
-18 4 8 38 116 60
-17 4 8 38 116 60
-16 4 8 38 116 60
-15 4 8 38 116 60
-14 4 8 38 116 60
-13 4 8 38 116 60
-22 -5 9 38 116 60
-21 -5 9 38 116 60
-20 -5 9 38 116 60
-19 -5 9 38 116 60
-18 -5 9 38 116 60
-17 -5 9 38 116 60
-16 -5 9 38 116 60
-15 -5 9 38 116 60
-14 -5 9 38 116 60
-13 -5 9 38 116 60
-22 -4 9 38 116 60
-21 -4 9 38 116 60
-20 -4 9 38 116 60
-19 -4 9 38 116 60
-18 -4 9 38 116 60
-17 -4 9 38 116 60
-16 -4 9 38 116 60
-15 -4 9 38 116 60
-14 -4 9 38 116 60
-13 -4 9 38 116 60
-22 -3 9 38 116 60
-21 -3 9 38 116 60
-20 -3 9 38 116 60
-19 -3 9 38 116 60
-18 -3 9 38 116 60
-17 -3 9 38 116 60
-16 -3 9 38 116 60
-15 -3 9 38 116 60
-14 -3 9 38 116 60
-13 -3 9 38 116 60
-22 -2 9 38 116 60
-21 -2 9 38 116 60
-20 -2 9 38 116 60
-19 -2 9 38 116 60
-18 -2 9 38 116 60
-17 -2 9 38 116 60
-16 -2 9 38 116 60
-15 -2 9 38 116 60
-14 -2 9 38 116 60
-13 -2 9 38 116 60
-22 -1 9 38 116 60
-21 -1 9 38 116 60
-20 -1 9 38 116 60
-19 -1 9 38 116 60
-18 -1 9 38 116 60
-17 -1 9 38 116 60
-16 -1 9 38 116 60
-15 -1 9 38 116 60
-14 -1 9 38 116 60
-13 -1 9 38 116 60
-22 0 9 38 116 60
-21 0 9 38 116 60
-20 0 9 38 116 60
-19 0 9 38 116 60
-18 0 9 38 116 60
-17 0 9 38 116 60
-16 0 9 38 116 60
-15 0 9 38 116 60
-14 0 9 38 116 60
-13 0 9 38 116 60
-22 1 9 38 116 60
-21 1 9 38 116 60
-20 1 9 38 116 60
-19 1 9 38 116 60
-18 1 9 38 116 60
-17 1 9 38 116 60
-16 1 9 38 116 60
-15 1 9 38 116 60
-14 1 9 38 116 60
-13 1 9 38 116 60
-22 2 9 38 116 60
-21 2 9 38 116 60
-20 2 9 38 116 60
-19 2 9 38 116 60
-18 2 9 38 116 60
-17 2 9 38 116 60
-16 2 9 38 116 60
-15 2 9 38 116 60
-14 2 9 38 116 60
-13 2 9 38 116 60
-22 3 9 38 116 60
-21 3 9 38 116 60
-20 3 9 38 116 60
-19 3 9 38 116 60
-18 3 9 38 116 60
-17 3 9 38 116 60
-16 3 9 38 116 60
-15 3 9 38 116 60
-14 3 9 38 116 60
-13 3 9 38 116 60
-22 4 9 38 116 60
-21 4 9 38 116 60
-20 4 9 38 116 60
-19 4 9 38 116 60
-18 4 9 38 116 60
-17 4 9 38 116 60
-16 4 9 38 116 60
-15 4 9 38 116 60
-14 4 9 38 116 60
-13 4 9 38 116 60
-22 -5 10 42 130 67
-21 -5 10 42 130 67
-20 -5 10 42 130 67
-19 -5 10 42 130 67
-18 -5 10 42 130 67
-17 -5 10 42 130 67
-16 -5 10 42 130 67
-15 -5 10 42 130 67
-14 -5 10 42 130 67
-13 -5 10 42 130 67
-22 -4 10 42 130 67
-21 -4 10 42 130 67
-20 -4 10 42 130 67
-19 -4 10 42 130 67
-18 -4 10 42 130 67
-17 -4 10 42 130 67
-16 -4 10 42 130 67
-15 -4 10 42 130 67
-14 -4 10 42 130 67
-13 -4 10 42 130 67
-22 -3 10 42 130 67
-21 -3 10 42 130 67
-20 -3 10 42 130 67
-19 -3 10 42 130 67
-18 -3 10 42 130 67
-17 -3 10 42 130 67
-16 -3 10 42 130 67
-15 -3 10 42 130 67
-14 -3 10 42 130 67
-13 -3 10 42 130 67
-22 -2 10 42 130 67
-21 -2 10 42 130 67
-20 -2 10 42 130 67
-19 -2 10 42 130 67
-18 -2 10 42 130 67
-17 -2 10 42 130 67
-16 -2 10 42 130 67
-15 -2 10 42 130 67
-14 -2 10 42 130 67
-13 -2 10 42 130 67
-22 -1 10 42 130 67
-21 -1 10 42 130 67
-20 -1 10 42 130 67
-19 -1 10 42 130 67
-18 -1 10 42 130 67
-17 -1 10 42 130 67
-16 -1 10 42 130 67
-15 -1 10 42 130 67
-14 -1 10 42 130 67
-13 -1 10 42 130 67
-22 0 10 42 130 67
-21 0 10 42 130 67
-20 0 10 42 130 67
-19 0 10 42 130 67
-18 0 10 42 130 67
-17 0 10 42 130 67
-16 0 10 42 130 67
-15 0 10 42 130 67
-14 0 10 42 130 67
-13 0 10 42 130 67
-22 1 10 42 130 67
-21 1 10 42 130 67
-20 1 10 42 130 67
-19 1 10 42 130 67
-18 1 10 42 130 67
-17 1 10 42 130 67
-16 1 10 42 130 67
-15 1 10 42 130 67
-14 1 10 42 130 67
-13 1 10 42 130 67
-22 2 10 42 130 67
-21 2 10 42 130 67
-20 2 10 42 130 67
-19 2 10 42 130 67
-18 2 10 42 130 67
-17 2 10 42 130 67
-16 2 10 42 130 67
-15 2 10 42 130 67
-14 2 10 42 130 67
-13 2 10 42 130 67
-22 3 10 42 130 67
-21 3 10 42 130 67
-20 3 10 42 130 67
-19 3 10 42 130 67
-18 3 10 42 130 67
-17 3 10 42 130 67
-16 3 10 42 130 67
-15 3 10 42 130 67
-14 3 10 42 130 67
-13 3 10 42 130 67
-22 4 10 42 130 67
-21 4 10 42 130 67
-20 4 10 42 130 67
-19 4 10 42 130 67
-18 4 10 42 130 67
-17 4 10 42 130 67
-16 4 10 42 130 67
-15 4 10 42 130 67
-14 4 10 42 130 67
-13 4 10 42 130 67
-22 -5 11 38 116 60
-21 -5 11 38 116 60
-20 -5 11 38 116 60
-19 -5 11 38 116 60
-18 -5 11 38 116 60
-17 -5 11 38 116 60
-16 -5 11 38 116 60
-15 -5 11 38 116 60
-14 -5 11 38 116 60
-13 -5 11 38 116 60
-22 -4 11 38 116 60
-21 -4 11 38 116 60
-20 -4 11 38 116 60
-19 -4 11 38 116 60
-18 -4 11 38 116 60
-17 -4 11 38 116 60
-16 -4 11 38 116 60
-15 -4 11 38 116 60
-14 -4 11 38 116 60
-13 -4 11 38 116 60
-22 -3 11 38 116 60
-21 -3 11 38 116 60
-20 -3 11 38 116 60
-19 -3 11 38 116 60
-18 -3 11 38 116 60
-17 -3 11 38 116 60
-16 -3 11 38 116 60
-15 -3 11 38 116 60
-14 -3 11 38 116 60
-13 -3 11 38 116 60
-22 -2 11 38 116 60
-21 -2 11 38 116 60
-20 -2 11 38 116 60
-19 -2 11 38 116 60
-18 -2 11 38 116 60
-17 -2 11 38 116 60
-16 -2 11 38 116 60
-15 -2 11 38 116 60
-14 -2 11 38 116 60
-13 -2 11 38 116 60
-22 -1 11 38 116 60
-21 -1 11 38 116 60
-20 -1 11 38 116 60
-19 -1 11 38 116 60
-18 -1 11 38 116 60
-17 -1 11 38 116 60
-16 -1 11 38 116 60
-15 -1 11 38 116 60
-14 -1 11 38 116 60
-13 -1 11 38 116 60
-22 0 11 38 116 60
-21 0 11 38 116 60
-20 0 11 38 116 60
-19 0 11 38 116 60
-18 0 11 38 116 60
-17 0 11 38 116 60
-16 0 11 38 116 60
-15 0 11 38 116 60
-14 0 11 38 116 60
-13 0 11 38 116 60
-22 1 11 38 116 60
-21 1 11 38 116 60
-20 1 11 38 116 60
-19 1 11 38 116 60
-18 1 11 38 116 60
-17 1 11 38 116 60
-16 1 11 38 116 60
-15 1 11 38 116 60
-14 1 11 38 116 60
-13 1 11 38 116 60
-22 2 11 38 116 60
-21 2 11 38 116 60
-20 2 11 38 116 60
-19 2 11 38 116 60
-18 2 11 38 116 60
-17 2 11 38 116 60
-16 2 11 38 116 60
-15 2 11 38 116 60
-14 2 11 38 116 60
-13 2 11 38 116 60
-22 3 11 38 116 60
-21 3 11 38 116 60
-20 3 11 38 116 60
-19 3 11 38 116 60
-18 3 11 38 116 60
-17 3 11 38 116 60
-16 3 11 38 116 60
-15 3 11 38 116 60
-14 3 11 38 116 60
-13 3 11 38 116 60
-22 4 11 38 116 60
-21 4 11 38 116 60
-20 4 11 38 116 60
-19 4 11 38 116 60
-18 4 11 38 116 60
-17 4 11 38 116 60
-16 4 11 38 116 60
-15 4 11 38 116 60
-14 4 11 38 116 60
-13 4 11 38 116 60
