ply
format ascii 1.0
comment : MagicaVoxel @ Ephtracy
element vertex 239
property float x
property float y
property float z
property uchar red
property uchar green
property uchar blue
end_header
20 -19 0 100 73 32
21 -19 0 100 73 32
22 -19 0 100 73 32
19 -18 0 100 73 32
20 -18 0 100 73 32
21 -18 0 100 73 32
22 -18 0 100 73 32
23 -18 0 100 73 32
18 -17 0 100 73 32
19 -17 0 100 73 32
20 -17 0 111 84 43
21 -17 0 111 84 43
22 -17 0 111 84 43
23 -17 0 100 73 32
24 -17 0 100 73 32
17 -16 0 100 73 32
18 -16 0 100 73 32
19 -16 0 111 84 43
20 -16 0 111 84 43
21 -16 0 111 84 43
22 -16 0 111 84 43
23 -16 0 111 84 43
24 -16 0 100 73 32
25 -16 0 100 73 32
16 -15 0 100 73 32
17 -15 0 100 73 32
18 -15 0 111 84 43
19 -15 0 111 84 43
20 -15 0 111 84 43
21 -15 0 111 84 43
22 -15 0 111 84 43
23 -15 0 111 84 43
24 -15 0 111 84 43
25 -15 0 100 73 32
26 -15 0 100 73 32
16 -14 0 100 73 32
17 -14 0 100 73 32
18 -14 0 111 84 43
19 -14 0 111 84 43
20 -14 0 111 84 43
21 -14 0 100 73 32
22 -14 0 111 84 43
23 -14 0 111 84 43
24 -14 0 111 84 43
25 -14 0 100 73 32
26 -14 0 100 73 32
16 -13 0 100 73 32
17 -13 0 100 73 32
18 -13 0 111 84 43
19 -13 0 111 84 43
20 -13 0 111 84 43
21 -13 0 111 84 43
22 -13 0 111 84 43
23 -13 0 111 84 43
24 -13 0 111 84 43
25 -13 0 100 73 32
26 -13 0 100 73 32
17 -12 0 100 73 32
18 -12 0 100 73 32
19 -12 0 111 84 43
20 -12 0 100 73 32
21 -12 0 100 73 32
22 -12 0 100 73 32
23 -12 0 111 84 43
24 -12 0 100 73 32
25 -12 0 100 73 32
18 -11 0 100 73 32
19 -11 0 100 73 32
20 -11 0 111 84 43
21 -11 0 111 84 43
22 -11 0 111 84 43
23 -11 0 100 73 32
24 -11 0 100 73 32
19 -10 0 100 73 32
20 -10 0 100 73 32
21 -10 0 100 73 32
22 -10 0 100 73 32
23 -10 0 100 73 32
20 -9 0 100 73 32
21 -9 0 100 73 32
22 -9 0 100 73 32
21 -19 1 100 73 32
19 -18 1 100 73 32
20 -18 1 100 73 32
21 -18 1 100 73 32
22 -18 1 100 73 32
23 -18 1 100 73 32
18 -17 1 100 73 32
19 -17 1 100 73 32
20 -17 1 111 84 43
21 -17 1 111 84 43
22 -17 1 111 84 43
23 -17 1 100 73 32
24 -17 1 100 73 32
17 -16 1 100 73 32
18 -16 1 100 73 32
19 -16 1 111 84 43
20 -16 1 100 73 32
21 -16 1 100 73 32
22 -16 1 100 73 32
23 -16 1 111 84 43
24 -16 1 100 73 32
25 -16 1 100 73 32
17 -15 1 100 73 32
18 -15 1 111 84 43
19 -15 1 100 73 32
20 -15 1 111 84 43
21 -15 1 111 84 43
22 -15 1 111 84 43
23 -15 1 111 84 43
24 -15 1 111 84 43
25 -15 1 100 73 32
16 -14 1 100 73 32
17 -14 1 100 73 32
18 -14 1 111 84 43
19 -14 1 100 73 32
20 -14 1 111 84 43
21 -14 1 100 73 32
22 -14 1 111 84 43
23 -14 1 111 84 43
24 -14 1 111 84 43
25 -14 1 100 73 32
26 -14 1 100 73 32
17 -13 1 100 73 32
18 -13 1 111 84 43
19 -13 1 100 73 32
20 -13 1 111 84 43
21 -13 1 111 84 43
22 -13 1 111 84 43
23 -13 1 111 84 43
24 -13 1 111 84 43
25 -13 1 100 73 32
17 -12 1 100 73 32
18 -12 1 100 73 32
19 -12 1 111 84 43
20 -12 1 100 73 32
21 -12 1 100 73 32
22 -12 1 100 73 32
23 -12 1 111 84 43
24 -12 1 100 73 32
25 -12 1 100 73 32
18 -11 1 100 73 32
19 -11 1 100 73 32
20 -11 1 111 84 43
21 -11 1 111 84 43
22 -11 1 111 84 43
23 -11 1 100 73 32
24 -11 1 100 73 32
19 -10 1 100 73 32
20 -10 1 100 73 32
21 -10 1 100 73 32
22 -10 1 100 73 32
23 -10 1 100 73 32
21 -9 1 100 73 32
20 -18 2 100 73 32
21 -18 2 100 73 32
22 -18 2 100 73 32
18 -17 2 100 73 32
19 -17 2 100 73 32
20 -17 2 111 84 43
21 -17 2 111 84 43
22 -17 2 111 84 43
23 -17 2 100 73 32
24 -17 2 100 73 32
18 -16 2 100 73 32
19 -16 2 111 84 43
20 -16 2 100 73 32
21 -16 2 100 73 32
22 -16 2 100 73 32
23 -16 2 111 84 43
24 -16 2 100 73 32
17 -15 2 100 73 32
18 -15 2 111 84 43
19 -15 2 100 73 32
20 -15 2 111 84 43
21 -15 2 111 84 43
22 -15 2 111 84 43
23 -15 2 100 73 32
24 -15 2 111 84 43
25 -15 2 100 73 32
17 -14 2 100 73 32
18 -14 2 111 84 43
19 -14 2 100 73 32
20 -14 2 111 84 43
21 -14 2 100 73 32
22 -14 2 111 84 43
23 -14 2 100 73 32
24 -14 2 111 84 43
25 -14 2 100 73 32
17 -13 2 100 73 32
18 -13 2 111 84 43
19 -13 2 100 73 32
20 -13 2 111 84 43
21 -13 2 111 84 43
22 -13 2 111 84 43
23 -13 2 100 73 32
24 -13 2 111 84 43
25 -13 2 100 73 32
18 -12 2 100 73 32
19 -12 2 111 84 43
20 -12 2 100 73 32
21 -12 2 100 73 32
22 -12 2 100 73 32
23 -12 2 111 84 43
24 -12 2 100 73 32
18 -11 2 100 73 32
19 -11 2 100 73 32
20 -11 2 111 84 43
21 -11 2 111 84 43
22 -11 2 111 84 43
23 -11 2 100 73 32
24 -11 2 100 73 32
20 -10 2 100 73 32
21 -10 2 100 73 32
22 -10 2 100 73 32
20 -18 3 100 73 32
21 -18 3 100 73 32
22 -18 3 100 73 32
18 -17 3 100 73 32
19 -17 3 100 73 32
23 -17 3 100 73 32
24 -17 3 100 73 32
18 -16 3 100 73 32
24 -16 3 100 73 32
17 -15 3 100 73 32
25 -15 3 100 73 32
17 -14 3 100 73 32
25 -14 3 100 73 32
17 -13 3 100 73 32
25 -13 3 100 73 32
18 -12 3 100 73 32
24 -12 3 100 73 32
18 -11 3 100 73 32
19 -11 3 100 73 32
23 -11 3 100 73 32
24 -11 3 100 73 32
20 -10 3 100 73 32
21 -10 3 100 73 32
22 -10 3 100 73 32
