ply
format ascii 1.0
comment : MagicaVoxel @ Ephtracy
element vertex 18
property float x
property float y
property float z
property uchar red
property uchar green
property uchar blue
end_header
-20 -43 0 42 130 67
-24 -42 0 42 130 67
-22 -42 0 38 116 60
-23 -40 0 38 116 60
-20 -40 0 38 116 60
-25 -39 0 38 116 60
-21 -38 0 42 130 67
-24 -37 0 42 130 67
-19 -37 0 38 116 60
-20 -43 1 255 240 147
-22 -42 1 38 116 60
-23 -40 1 42 130 67
-20 -40 1 42 130 67
-21 -38 1 38 116 60
-24 -37 1 255 240 147
-19 -37 1 255 240 147
-23 -40 2 255 240 147
-20 -40 2 42 130 67
