ply
format ascii 1.0
comment : MagicaVoxel @ Ephtracy
element vertex 40
property float x
property float y
property float z
property uchar red
property uchar green
property uchar blue
end_header
-12 -34 0 42 130 67
-16 -33 0 42 130 67
-14 -33 0 42 130 67
-15 -31 0 42 130 67
-12 -31 0 38 116 60
-17 -30 0 38 116 60
-13 -29 0 38 116 60
-16 -28 0 38 116 60
-11 -28 0 42 130 67
-12 -34 1 38 116 60
-16 -33 1 38 116 60
-14 -33 1 42 130 67
-15 -31 1 38 116 60
-12 -31 1 42 130 67
-17 -30 1 42 130 67
-13 -29 1 42 130 67
-16 -28 1 42 130 67
-11 -28 1 38 116 60
-12 -34 2 42 130 67
-16 -33 2 42 130 67
-14 -33 2 42 130 67
-15 -31 2 38 116 60
-12 -31 2 38 116 60
-17 -30 2 42 130 67
-13 -29 2 42 130 67
-16 -28 2 42 130 67
-12 -34 3 38 116 60
-16 -33 3 42 130 67
-14 -33 3 38 116 60
-15 -31 3 42 130 67
-12 -31 3 38 116 60
-17 -30 3 42 130 67
-13 -29 3 38 116 60
-12 -34 4 38 116 60
-14 -33 4 38 116 60
-15 -31 4 38 116 60
-13 -29 4 42 130 67
-14 -33 5 42 130 67
-15 -31 5 42 130 67
-14 -33 6 42 130 67
