ply
format ascii 1.0
comment : MagicaVoxel @ Ephtracy
element vertex 84
property float x
property float y
property float z
property uchar red
property uchar green
property uchar blue
end_header
28 -41 0 100 73 32
29 -41 0 100 73 32
28 -40 0 100 73 32
29 -40 0 100 73 32
28 -43 1 42 130 67
29 -43 1 42 130 67
27 -42 1 42 130 67
28 -42 1 42 130 67
29 -42 1 42 130 67
30 -42 1 42 130 67
26 -41 1 42 130 67
27 -41 1 42 130 67
28 -41 1 42 130 67
29 -41 1 42 130 67
30 -41 1 42 130 67
31 -41 1 42 130 67
26 -40 1 42 130 67
27 -40 1 42 130 67
28 -40 1 42 130 67
29 -40 1 42 130 67
30 -40 1 42 130 67
31 -40 1 42 130 67
27 -39 1 42 130 67
28 -39 1 42 130 67
29 -39 1 42 130 67
30 -39 1 42 130 67
28 -38 1 42 130 67
29 -38 1 42 130 67
28 -43 2 42 130 67
29 -43 2 42 130 67
27 -42 2 42 130 67
28 -42 2 42 130 67
29 -42 2 42 130 67
30 -42 2 42 130 67
26 -41 2 42 130 67
27 -41 2 42 130 67
28 -41 2 42 130 67
29 -41 2 42 130 67
30 -41 2 42 130 67
31 -41 2 42 130 67
26 -40 2 42 130 67
27 -40 2 42 130 67
28 -40 2 42 130 67
29 -40 2 42 130 67
30 -40 2 42 130 67
31 -40 2 42 130 67
27 -39 2 42 130 67
28 -39 2 42 130 67
29 -39 2 42 130 67
30 -39 2 42 130 67
28 -38 2 42 130 67
29 -38 2 42 130 67
27 -42 3 42 130 67
28 -42 3 42 130 67
29 -42 3 42 130 67
30 -42 3 42 130 67
27 -41 3 42 130 67
28 -41 3 42 130 67
29 -41 3 42 130 67
30 -41 3 42 130 67
27 -40 3 42 130 67
28 -40 3 42 130 67
29 -40 3 42 130 67
30 -40 3 42 130 67
27 -39 3 42 130 67
28 -39 3 42 130 67
29 -39 3 42 130 67
30 -39 3 42 130 67
28 -42 4 42 130 67
29 -42 4 42 130 67
27 -41 4 42 130 67
28 -41 4 42 130 67
29 -41 4 42 130 67
30 -41 4 42 130 67
27 -40 4 42 130 67
28 -40 4 42 130 67
29 -40 4 42 130 67
30 -40 4 42 130 67
28 -39 4 42 130 67
29 -39 4 42 130 67
28 -41 5 42 130 67
29 -41 5 42 130 67
28 -40 5 42 130 67
29 -40 5 42 130 67
