ply
format ascii 1.0
comment : MagicaVoxel @ Ephtracy
element vertex 4844
property float x
property float y
property float z
property uchar red
property uchar green
property uchar blue
end_header
20 -2 0 111 84 43
21 -2 0 111 84 43
22 -2 0 111 84 43
23 -2 0 111 84 43
20 -1 0 100 73 32
21 -1 0 100 73 32
22 -1 0 100 73 32
23 -1 0 111 84 43
20 0 0 100 73 32
21 0 0 100 73 32
22 0 0 100 73 32
23 0 0 111 84 43
20 1 0 100 73 32
21 1 0 100 73 32
22 1 0 100 73 32
23 1 0 111 84 43
20 -2 1 100 73 32
21 -2 1 100 73 32
22 -2 1 111 84 43
23 -2 1 111 84 43
20 -1 1 100 73 32
21 -1 1 100 73 32
22 -1 1 100 73 32
23 -1 1 111 84 43
20 0 1 100 73 32
21 0 1 100 73 32
22 0 1 100 73 32
23 0 1 100 73 32
20 1 1 100 73 32
21 1 1 100 73 32
22 1 1 100 73 32
23 1 1 100 73 32
20 -2 2 100 73 32
21 -2 2 100 73 32
22 -2 2 100 73 32
23 -2 2 100 73 32
20 -1 2 100 73 32
21 -1 2 100 73 32
22 -1 2 100 73 32
23 -1 2 100 73 32
20 0 2 100 73 32
21 0 2 100 73 32
22 0 2 100 73 32
23 0 2 100 73 32
20 1 2 100 73 32
21 1 2 100 73 32
22 1 2 100 73 32
23 1 2 100 73 32
20 -2 3 100 73 32
21 -2 3 100 73 32
22 -2 3 100 73 32
23 -2 3 100 73 32
20 -1 3 100 73 32
21 -1 3 100 73 32
22 -1 3 100 73 32
23 -1 3 100 73 32
20 0 3 111 84 43
21 0 3 100 73 32
22 0 3 100 73 32
23 0 3 100 73 32
20 1 3 111 84 43
21 1 3 111 84 43
22 1 3 100 73 32
23 1 3 100 73 32
20 -2 4 100 73 32
21 -2 4 100 73 32
22 -2 4 100 73 32
23 -2 4 100 73 32
20 -1 4 100 73 32
21 -1 4 100 73 32
22 -1 4 100 73 32
23 -1 4 100 73 32
20 0 4 111 84 43
21 0 4 100 73 32
22 0 4 100 73 32
23 0 4 100 73 32
20 1 4 111 84 43
21 1 4 111 84 43
22 1 4 111 84 43
23 1 4 111 84 43
20 -2 5 111 84 43
21 -2 5 100 73 32
22 -2 5 100 73 32
23 -2 5 100 73 32
20 -1 5 111 84 43
21 -1 5 100 73 32
22 -1 5 100 73 32
23 -1 5 111 84 43
20 0 5 111 84 43
21 0 5 100 73 32
22 0 5 100 73 32
23 0 5 111 84 43
20 1 5 111 84 43
21 1 5 100 73 32
22 1 5 111 84 43
23 1 5 111 84 43
20 -2 6 111 84 43
21 -2 6 111 84 43
22 -2 6 111 84 43
23 -2 6 111 84 43
20 -1 6 111 84 43
21 -1 6 100 73 32
22 -1 6 100 73 32
23 -1 6 111 84 43
20 0 6 111 84 43
21 0 6 100 73 32
22 0 6 100 73 32
23 0 6 111 84 43
20 1 6 100 73 32
21 1 6 100 73 32
22 1 6 100 73 32
23 1 6 111 84 43
20 -2 7 111 84 43
21 -2 7 111 84 43
22 -2 7 111 84 43
23 -2 7 111 84 43
20 -1 7 100 73 32
21 -1 7 100 73 32
22 -1 7 100 73 32
23 -1 7 100 73 32
20 0 7 100 73 32
21 0 7 100 73 32
22 0 7 100 73 32
23 0 7 100 73 32
20 1 7 100 73 32
21 1 7 100 73 32
22 1 7 100 73 32
23 1 7 100 73 32
20 -2 8 100 73 32
21 -2 8 100 73 32
22 -2 8 100 73 32
23 -2 8 100 73 32
20 -1 8 100 73 32
21 -1 8 100 73 32
22 -1 8 100 73 32
23 -1 8 100 73 32
20 0 8 100 73 32
21 0 8 100 73 32
22 0 8 100 73 32
23 0 8 100 73 32
20 1 8 100 73 32
21 1 8 100 73 32
22 1 8 100 73 32
23 1 8 100 73 32
20 -2 9 100 73 32
21 -2 9 100 73 32
22 -2 9 100 73 32
23 -2 9 100 73 32
20 -1 9 100 73 32
21 -1 9 100 73 32
22 -1 9 100 73 32
23 -1 9 100 73 32
20 0 9 100 73 32
21 0 9 100 73 32
22 0 9 100 73 32
23 0 9 100 73 32
20 1 9 100 73 32
21 1 9 100 73 32
22 1 9 100 73 32
23 1 9 100 73 32
20 -2 10 100 73 32
21 -2 10 100 73 32
22 -2 10 100 73 32
23 -2 10 100 73 32
20 -1 10 100 73 32
21 -1 10 100 73 32
22 -1 10 100 73 32
23 -1 10 100 73 32
20 0 10 100 73 32
21 0 10 100 73 32
22 0 10 100 73 32
23 0 10 100 73 32
20 1 10 100 73 32
21 1 10 100 73 32
22 1 10 100 73 32
23 1 10 100 73 32
20 -2 11 111 84 43
21 -2 11 111 84 43
22 -2 11 111 84 43
23 -2 11 111 84 43
20 -1 11 111 84 43
21 -1 11 100 73 32
22 -1 11 100 73 32
23 -1 11 111 84 43
20 0 11 111 84 43
21 0 11 100 73 32
22 0 11 100 73 32
23 0 11 111 84 43
20 1 11 100 73 32
21 1 11 100 73 32
22 1 11 100 73 32
23 1 11 111 84 43
20 -2 12 100 73 32
21 -2 12 100 73 32
22 -2 12 100 73 32
23 -2 12 100 73 32
20 -1 12 111 84 43
21 -1 12 100 73 32
22 -1 12 100 73 32
23 -1 12 111 84 43
20 0 12 111 84 43
21 0 12 100 73 32
22 0 12 100 73 32
23 0 12 111 84 43
20 1 12 111 84 43
21 1 12 111 84 43
22 1 12 111 84 43
23 1 12 111 84 43
20 -2 13 100 73 32
21 -2 13 100 73 32
22 -2 13 100 73 32
23 -2 13 100 73 32
20 -1 13 100 73 32
21 -1 13 100 73 32
22 -1 13 100 73 32
23 -1 13 100 73 32
20 0 13 100 73 32
21 0 13 100 73 32
22 0 13 100 73 32
23 0 13 100 73 32
20 1 13 111 84 43
21 1 13 111 84 43
22 1 13 100 73 32
23 1 13 100 73 32
20 -2 14 100 73 32
21 -2 14 100 73 32
22 -2 14 100 73 32
23 -2 14 100 73 32
20 -1 14 100 73 32
21 -1 14 100 73 32
22 -1 14 100 73 32
23 -1 14 100 73 32
20 0 14 100 73 32
21 0 14 100 73 32
22 0 14 100 73 32
23 0 14 100 73 32
20 1 14 100 73 32
21 1 14 100 73 32
22 1 14 100 73 32
23 1 14 100 73 32
20 -2 15 100 73 32
21 -2 15 100 73 32
22 -2 15 100 73 32
23 -2 15 100 73 32
20 -1 15 100 73 32
21 -1 15 100 73 32
22 -1 15 100 73 32
23 -1 15 100 73 32
20 0 15 100 73 32
21 0 15 100 73 32
22 0 15 100 73 32
23 0 15 100 73 32
20 1 15 100 73 32
21 1 15 100 73 32
22 1 15 100 73 32
23 1 15 100 73 32
20 -2 16 100 73 32
21 -2 16 100 73 32
22 -2 16 100 73 32
23 -2 16 100 73 32
20 -1 16 100 73 32
21 -1 16 100 73 32
22 -1 16 100 73 32
23 -1 16 100 73 32
20 0 16 100 73 32
21 0 16 100 73 32
22 0 16 100 73 32
23 0 16 100 73 32
20 1 16 100 73 32
21 1 16 100 73 32
22 1 16 100 73 32
23 1 16 100 73 32
20 -2 17 100 73 32
21 -2 17 100 73 32
22 -2 17 100 73 32
23 -2 17 100 73 32
20 -1 17 100 73 32
21 -1 17 100 73 32
22 -1 17 100 73 32
23 -1 17 100 73 32
20 0 17 100 73 32
21 0 17 100 73 32
22 0 17 100 73 32
23 0 17 100 73 32
20 1 17 100 73 32
21 1 17 100 73 32
22 1 17 100 73 32
23 1 17 100 73 32
20 -2 18 100 73 32
21 -2 18 100 73 32
22 -2 18 100 73 32
23 -2 18 100 73 32
20 -1 18 100 73 32
21 -1 18 100 73 32
22 -1 18 100 73 32
23 -1 18 100 73 32
20 0 18 100 73 32
21 0 18 100 73 32
22 0 18 100 73 32
23 0 18 100 73 32
20 1 18 100 73 32
21 1 18 100 73 32
22 1 18 100 73 32
23 1 18 100 73 32
20 -2 19 100 73 32
21 -2 19 100 73 32
22 -2 19 111 84 43
23 -2 19 111 84 43
20 -1 19 111 84 43
21 -1 19 100 73 32
22 -1 19 100 73 32
23 -1 19 100 73 32
20 0 19 111 84 43
21 0 19 100 73 32
22 0 19 100 73 32
23 0 19 100 73 32
20 1 19 111 84 43
21 1 19 111 84 43
22 1 19 100 73 32
23 1 19 100 73 32
20 -2 20 111 84 43
21 -2 20 111 84 43
22 -2 20 111 84 43
23 -2 20 111 84 43
20 -1 20 111 84 43
21 -1 20 100 73 32
22 -1 20 100 73 32
23 -1 20 111 84 43
20 0 20 111 84 43
21 0 20 100 73 32
22 0 20 100 73 32
23 0 20 111 84 43
20 1 20 111 84 43
21 1 20 111 84 43
22 1 20 111 84 43
23 1 20 100 73 32
15 -7 21 42 130 67
16 -7 21 42 130 67
17 -7 21 42 130 67
18 -7 21 42 130 67
19 -7 21 42 130 67
20 -7 21 42 130 67
21 -7 21 42 130 67
22 -7 21 42 130 67
23 -7 21 42 130 67
24 -7 21 42 130 67
25 -7 21 42 130 67
26 -7 21 42 130 67
27 -7 21 42 130 67
28 -7 21 42 130 67
15 -6 21 42 130 67
16 -6 21 42 130 67
17 -6 21 42 130 67
18 -6 21 42 130 67
19 -6 21 42 130 67
20 -6 21 42 130 67
21 -6 21 42 130 67
22 -6 21 42 130 67
23 -6 21 42 130 67
24 -6 21 42 130 67
25 -6 21 42 130 67
26 -6 21 42 130 67
27 -6 21 42 130 67
28 -6 21 42 130 67
15 -5 21 42 130 67
16 -5 21 42 130 67
17 -5 21 42 130 67
18 -5 21 42 130 67
19 -5 21 42 130 67
20 -5 21 42 130 67
21 -5 21 42 130 67
22 -5 21 42 130 67
23 -5 21 42 130 67
24 -5 21 42 130 67
25 -5 21 42 130 67
26 -5 21 42 130 67
27 -5 21 42 130 67
28 -5 21 42 130 67
15 -4 21 42 130 67
16 -4 21 42 130 67
17 -4 21 42 130 67
18 -4 21 42 130 67
19 -4 21 42 130 67
20 -4 21 42 130 67
21 -4 21 42 130 67
22 -4 21 42 130 67
23 -4 21 42 130 67
24 -4 21 42 130 67
25 -4 21 42 130 67
26 -4 21 42 130 67
27 -4 21 42 130 67
28 -4 21 42 130 67
15 -3 21 42 130 67
16 -3 21 42 130 67
17 -3 21 42 130 67
18 -3 21 42 130 67
19 -3 21 42 130 67
20 -3 21 42 130 67
21 -3 21 42 130 67
22 -3 21 42 130 67
23 -3 21 42 130 67
24 -3 21 42 130 67
25 -3 21 42 130 67
26 -3 21 42 130 67
27 -3 21 42 130 67
28 -3 21 42 130 67
15 -2 21 42 130 67
16 -2 21 42 130 67
17 -2 21 42 130 67
18 -2 21 42 130 67
19 -2 21 42 130 67
20 -2 21 42 130 67
21 -2 21 42 130 67
22 -2 21 42 130 67
23 -2 21 42 130 67
24 -2 21 42 130 67
25 -2 21 42 130 67
26 -2 21 42 130 67
27 -2 21 42 130 67
28 -2 21 42 130 67
15 -1 21 42 130 67
16 -1 21 42 130 67
17 -1 21 42 130 67
18 -1 21 42 130 67
19 -1 21 42 130 67
20 -1 21 42 130 67
21 -1 21 42 130 67
22 -1 21 42 130 67
23 -1 21 42 130 67
24 -1 21 42 130 67
25 -1 21 42 130 67
26 -1 21 42 130 67
27 -1 21 42 130 67
28 -1 21 42 130 67
15 0 21 42 130 67
16 0 21 42 130 67
17 0 21 42 130 67
18 0 21 42 130 67
19 0 21 42 130 67
20 0 21 42 130 67
21 0 21 42 130 67
22 0 21 42 130 67
23 0 21 42 130 67
24 0 21 42 130 67
25 0 21 42 130 67
26 0 21 42 130 67
27 0 21 42 130 67
28 0 21 42 130 67
15 1 21 42 130 67
16 1 21 42 130 67
17 1 21 42 130 67
18 1 21 42 130 67
19 1 21 42 130 67
20 1 21 42 130 67
21 1 21 42 130 67
22 1 21 42 130 67
23 1 21 42 130 67
24 1 21 42 130 67
25 1 21 42 130 67
26 1 21 42 130 67
27 1 21 42 130 67
28 1 21 42 130 67
15 2 21 42 130 67
16 2 21 42 130 67
17 2 21 42 130 67
18 2 21 42 130 67
19 2 21 42 130 67
20 2 21 42 130 67
21 2 21 42 130 67
22 2 21 42 130 67
23 2 21 42 130 67
24 2 21 42 130 67
25 2 21 42 130 67
26 2 21 42 130 67
27 2 21 42 130 67
28 2 21 42 130 67
15 3 21 42 130 67
16 3 21 42 130 67
17 3 21 42 130 67
18 3 21 42 130 67
19 3 21 42 130 67
20 3 21 42 130 67
21 3 21 42 130 67
22 3 21 42 130 67
23 3 21 42 130 67
24 3 21 42 130 67
25 3 21 42 130 67
26 3 21 42 130 67
27 3 21 42 130 67
28 3 21 42 130 67
15 4 21 42 130 67
16 4 21 42 130 67
17 4 21 42 130 67
18 4 21 42 130 67
19 4 21 42 130 67
20 4 21 42 130 67
21 4 21 42 130 67
22 4 21 42 130 67
23 4 21 42 130 67
24 4 21 42 130 67
25 4 21 42 130 67
26 4 21 42 130 67
27 4 21 42 130 67
28 4 21 42 130 67
15 5 21 42 130 67
16 5 21 42 130 67
17 5 21 42 130 67
18 5 21 42 130 67
19 5 21 42 130 67
20 5 21 42 130 67
21 5 21 42 130 67
22 5 21 42 130 67
23 5 21 42 130 67
24 5 21 42 130 67
25 5 21 42 130 67
26 5 21 42 130 67
27 5 21 42 130 67
28 5 21 42 130 67
15 6 21 42 130 67
16 6 21 42 130 67
17 6 21 42 130 67
18 6 21 42 130 67
19 6 21 42 130 67
20 6 21 42 130 67
21 6 21 42 130 67
22 6 21 42 130 67
23 6 21 42 130 67
24 6 21 42 130 67
25 6 21 42 130 67
26 6 21 42 130 67
27 6 21 42 130 67
28 6 21 42 130 67
15 -7 22 42 130 67
16 -7 22 42 130 67
17 -7 22 42 130 67
18 -7 22 42 130 67
19 -7 22 42 130 67
20 -7 22 42 130 67
21 -7 22 42 130 67
22 -7 22 42 130 67
23 -7 22 42 130 67
24 -7 22 42 130 67
25 -7 22 42 130 67
26 -7 22 42 130 67
27 -7 22 42 130 67
28 -7 22 42 130 67
15 -6 22 42 130 67
16 -6 22 42 130 67
17 -6 22 42 130 67
18 -6 22 42 130 67
19 -6 22 42 130 67
20 -6 22 42 130 67
21 -6 22 42 130 67
22 -6 22 42 130 67
23 -6 22 42 130 67
24 -6 22 42 130 67
25 -6 22 42 130 67
26 -6 22 42 130 67
27 -6 22 42 130 67
28 -6 22 42 130 67
15 -5 22 42 130 67
16 -5 22 42 130 67
17 -5 22 42 130 67
18 -5 22 42 130 67
19 -5 22 42 130 67
20 -5 22 42 130 67
21 -5 22 42 130 67
22 -5 22 42 130 67
23 -5 22 42 130 67
24 -5 22 42 130 67
25 -5 22 42 130 67
26 -5 22 42 130 67
27 -5 22 42 130 67
28 -5 22 42 130 67
15 -4 22 42 130 67
16 -4 22 42 130 67
17 -4 22 42 130 67
18 -4 22 42 130 67
19 -4 22 42 130 67
20 -4 22 42 130 67
21 -4 22 42 130 67
22 -4 22 42 130 67
23 -4 22 42 130 67
24 -4 22 42 130 67
25 -4 22 42 130 67
26 -4 22 42 130 67
27 -4 22 42 130 67
28 -4 22 42 130 67
15 -3 22 42 130 67
16 -3 22 42 130 67
17 -3 22 42 130 67
18 -3 22 42 130 67
19 -3 22 42 130 67
20 -3 22 42 130 67
21 -3 22 42 130 67
22 -3 22 42 130 67
23 -3 22 42 130 67
24 -3 22 42 130 67
25 -3 22 42 130 67
26 -3 22 42 130 67
27 -3 22 42 130 67
28 -3 22 42 130 67
15 -2 22 42 130 67
16 -2 22 42 130 67
17 -2 22 42 130 67
18 -2 22 42 130 67
19 -2 22 42 130 67
20 -2 22 42 130 67
21 -2 22 42 130 67
22 -2 22 42 130 67
23 -2 22 42 130 67
24 -2 22 42 130 67
25 -2 22 42 130 67
26 -2 22 42 130 67
27 -2 22 42 130 67
28 -2 22 42 130 67
15 -1 22 42 130 67
16 -1 22 42 130 67
17 -1 22 42 130 67
18 -1 22 42 130 67
19 -1 22 42 130 67
20 -1 22 42 130 67
21 -1 22 42 130 67
22 -1 22 42 130 67
23 -1 22 42 130 67
24 -1 22 42 130 67
25 -1 22 42 130 67
26 -1 22 42 130 67
27 -1 22 42 130 67
28 -1 22 42 130 67
15 0 22 42 130 67
16 0 22 42 130 67
17 0 22 42 130 67
18 0 22 42 130 67
19 0 22 42 130 67
20 0 22 42 130 67
21 0 22 42 130 67
22 0 22 42 130 67
23 0 22 42 130 67
24 0 22 42 130 67
25 0 22 42 130 67
26 0 22 42 130 67
27 0 22 42 130 67
28 0 22 42 130 67
15 1 22 42 130 67
16 1 22 42 130 67
17 1 22 42 130 67
18 1 22 42 130 67
19 1 22 42 130 67
20 1 22 42 130 67
21 1 22 42 130 67
22 1 22 42 130 67
23 1 22 42 130 67
24 1 22 42 130 67
25 1 22 42 130 67
26 1 22 42 130 67
27 1 22 42 130 67
28 1 22 42 130 67
15 2 22 42 130 67
16 2 22 42 130 67
17 2 22 42 130 67
18 2 22 42 130 67
19 2 22 42 130 67
20 2 22 42 130 67
21 2 22 42 130 67
22 2 22 42 130 67
23 2 22 42 130 67
24 2 22 42 130 67
25 2 22 42 130 67
26 2 22 42 130 67
27 2 22 42 130 67
28 2 22 42 130 67
15 3 22 42 130 67
16 3 22 42 130 67
17 3 22 42 130 67
18 3 22 42 130 67
19 3 22 42 130 67
20 3 22 42 130 67
21 3 22 42 130 67
22 3 22 42 130 67
23 3 22 42 130 67
24 3 22 42 130 67
25 3 22 42 130 67
26 3 22 42 130 67
27 3 22 42 130 67
28 3 22 42 130 67
15 4 22 42 130 67
16 4 22 42 130 67
17 4 22 42 130 67
18 4 22 42 130 67
19 4 22 42 130 67
20 4 22 42 130 67
21 4 22 42 130 67
22 4 22 42 130 67
23 4 22 42 130 67
24 4 22 42 130 67
25 4 22 42 130 67
26 4 22 42 130 67
27 4 22 42 130 67
28 4 22 42 130 67
15 5 22 42 130 67
16 5 22 42 130 67
17 5 22 42 130 67
18 5 22 42 130 67
19 5 22 42 130 67
20 5 22 42 130 67
21 5 22 42 130 67
22 5 22 42 130 67
23 5 22 42 130 67
24 5 22 42 130 67
25 5 22 42 130 67
26 5 22 42 130 67
27 5 22 42 130 67
28 5 22 42 130 67
15 6 22 42 130 67
16 6 22 42 130 67
17 6 22 42 130 67
18 6 22 42 130 67
19 6 22 42 130 67
20 6 22 42 130 67
21 6 22 42 130 67
22 6 22 42 130 67
23 6 22 42 130 67
24 6 22 42 130 67
25 6 22 42 130 67
26 6 22 42 130 67
27 6 22 42 130 67
28 6 22 42 130 67
15 -7 23 42 130 67
16 -7 23 42 130 67
17 -7 23 42 130 67
18 -7 23 42 130 67
19 -7 23 42 130 67
20 -7 23 42 130 67
21 -7 23 42 130 67
22 -7 23 42 130 67
23 -7 23 42 130 67
24 -7 23 42 130 67
25 -7 23 42 130 67
26 -7 23 42 130 67
27 -7 23 42 130 67
28 -7 23 42 130 67
15 -6 23 42 130 67
16 -6 23 42 130 67
17 -6 23 42 130 67
18 -6 23 42 130 67
19 -6 23 42 130 67
20 -6 23 42 130 67
21 -6 23 42 130 67
22 -6 23 42 130 67
23 -6 23 42 130 67
24 -6 23 42 130 67
25 -6 23 42 130 67
26 -6 23 42 130 67
27 -6 23 42 130 67
28 -6 23 42 130 67
15 -5 23 42 130 67
16 -5 23 42 130 67
17 -5 23 42 130 67
18 -5 23 42 130 67
19 -5 23 42 130 67
20 -5 23 42 130 67
21 -5 23 42 130 67
22 -5 23 42 130 67
23 -5 23 42 130 67
24 -5 23 42 130 67
25 -5 23 42 130 67
26 -5 23 42 130 67
27 -5 23 42 130 67
28 -5 23 42 130 67
15 -4 23 42 130 67
16 -4 23 42 130 67
17 -4 23 42 130 67
18 -4 23 42 130 67
19 -4 23 42 130 67
20 -4 23 42 130 67
21 -4 23 42 130 67
22 -4 23 42 130 67
23 -4 23 42 130 67
24 -4 23 42 130 67
25 -4 23 42 130 67
26 -4 23 42 130 67
27 -4 23 42 130 67
28 -4 23 42 130 67
15 -3 23 42 130 67
16 -3 23 42 130 67
17 -3 23 42 130 67
18 -3 23 42 130 67
19 -3 23 42 130 67
20 -3 23 42 130 67
21 -3 23 42 130 67
22 -3 23 42 130 67
23 -3 23 42 130 67
24 -3 23 42 130 67
25 -3 23 42 130 67
26 -3 23 42 130 67
27 -3 23 42 130 67
28 -3 23 42 130 67
15 -2 23 42 130 67
16 -2 23 42 130 67
17 -2 23 42 130 67
18 -2 23 42 130 67
19 -2 23 42 130 67
20 -2 23 42 130 67
21 -2 23 42 130 67
22 -2 23 42 130 67
23 -2 23 42 130 67
24 -2 23 42 130 67
25 -2 23 42 130 67
26 -2 23 42 130 67
27 -2 23 42 130 67
28 -2 23 42 130 67
15 -1 23 42 130 67
16 -1 23 42 130 67
17 -1 23 42 130 67
18 -1 23 42 130 67
19 -1 23 42 130 67
20 -1 23 42 130 67
21 -1 23 42 130 67
22 -1 23 42 130 67
23 -1 23 42 130 67
24 -1 23 42 130 67
25 -1 23 42 130 67
26 -1 23 42 130 67
27 -1 23 42 130 67
28 -1 23 42 130 67
15 0 23 42 130 67
16 0 23 42 130 67
17 0 23 42 130 67
18 0 23 42 130 67
19 0 23 42 130 67
20 0 23 42 130 67
21 0 23 42 130 67
22 0 23 42 130 67
23 0 23 42 130 67
24 0 23 42 130 67
25 0 23 42 130 67
26 0 23 42 130 67
27 0 23 42 130 67
28 0 23 42 130 67
15 1 23 42 130 67
16 1 23 42 130 67
17 1 23 42 130 67
18 1 23 42 130 67
19 1 23 42 130 67
20 1 23 42 130 67
21 1 23 42 130 67
22 1 23 42 130 67
23 1 23 42 130 67
24 1 23 42 130 67
25 1 23 42 130 67
26 1 23 42 130 67
27 1 23 42 130 67
28 1 23 42 130 67
15 2 23 42 130 67
16 2 23 42 130 67
17 2 23 42 130 67
18 2 23 42 130 67
19 2 23 42 130 67
20 2 23 42 130 67
21 2 23 42 130 67
22 2 23 42 130 67
23 2 23 42 130 67
24 2 23 42 130 67
25 2 23 42 130 67
26 2 23 42 130 67
27 2 23 42 130 67
28 2 23 42 130 67
15 3 23 42 130 67
16 3 23 42 130 67
17 3 23 42 130 67
18 3 23 42 130 67
19 3 23 42 130 67
20 3 23 42 130 67
21 3 23 42 130 67
22 3 23 42 130 67
23 3 23 42 130 67
24 3 23 42 130 67
25 3 23 42 130 67
26 3 23 42 130 67
27 3 23 42 130 67
28 3 23 42 130 67
15 4 23 42 130 67
16 4 23 42 130 67
17 4 23 42 130 67
18 4 23 42 130 67
19 4 23 42 130 67
20 4 23 42 130 67
21 4 23 42 130 67
22 4 23 42 130 67
23 4 23 42 130 67
24 4 23 42 130 67
25 4 23 42 130 67
26 4 23 42 130 67
27 4 23 42 130 67
28 4 23 42 130 67
15 5 23 42 130 67
16 5 23 42 130 67
17 5 23 42 130 67
18 5 23 42 130 67
19 5 23 42 130 67
20 5 23 42 130 67
21 5 23 42 130 67
22 5 23 42 130 67
23 5 23 42 130 67
24 5 23 42 130 67
25 5 23 42 130 67
26 5 23 42 130 67
27 5 23 42 130 67
28 5 23 42 130 67
15 6 23 42 130 67
16 6 23 42 130 67
17 6 23 42 130 67
18 6 23 42 130 67
19 6 23 42 130 67
20 6 23 42 130 67
21 6 23 42 130 67
22 6 23 42 130 67
23 6 23 42 130 67
24 6 23 42 130 67
25 6 23 42 130 67
26 6 23 42 130 67
27 6 23 42 130 67
28 6 23 42 130 67
15 -7 24 42 130 67
16 -7 24 42 130 67
17 -7 24 42 130 67
18 -7 24 42 130 67
19 -7 24 42 130 67
20 -7 24 42 130 67
21 -7 24 42 130 67
22 -7 24 42 130 67
23 -7 24 42 130 67
24 -7 24 42 130 67
25 -7 24 42 130 67
26 -7 24 42 130 67
27 -7 24 42 130 67
28 -7 24 42 130 67
15 -6 24 42 130 67
16 -6 24 42 130 67
17 -6 24 42 130 67
18 -6 24 42 130 67
19 -6 24 42 130 67
20 -6 24 42 130 67
21 -6 24 42 130 67
22 -6 24 42 130 67
23 -6 24 42 130 67
24 -6 24 42 130 67
25 -6 24 42 130 67
26 -6 24 42 130 67
27 -6 24 42 130 67
28 -6 24 42 130 67
15 -5 24 42 130 67
16 -5 24 42 130 67
17 -5 24 42 130 67
18 -5 24 42 130 67
19 -5 24 42 130 67
20 -5 24 42 130 67
21 -5 24 42 130 67
22 -5 24 42 130 67
23 -5 24 42 130 67
24 -5 24 42 130 67
25 -5 24 42 130 67
26 -5 24 42 130 67
27 -5 24 42 130 67
28 -5 24 42 130 67
15 -4 24 42 130 67
16 -4 24 42 130 67
17 -4 24 42 130 67
18 -4 24 42 130 67
19 -4 24 42 130 67
20 -4 24 42 130 67
21 -4 24 42 130 67
22 -4 24 42 130 67
23 -4 24 42 130 67
24 -4 24 42 130 67
25 -4 24 42 130 67
26 -4 24 42 130 67
27 -4 24 42 130 67
28 -4 24 42 130 67
15 -3 24 42 130 67
16 -3 24 42 130 67
17 -3 24 42 130 67
18 -3 24 42 130 67
19 -3 24 42 130 67
20 -3 24 42 130 67
21 -3 24 42 130 67
22 -3 24 42 130 67
23 -3 24 42 130 67
24 -3 24 42 130 67
25 -3 24 42 130 67
26 -3 24 42 130 67
27 -3 24 42 130 67
28 -3 24 42 130 67
15 -2 24 42 130 67
16 -2 24 42 130 67
17 -2 24 42 130 67
18 -2 24 42 130 67
19 -2 24 42 130 67
20 -2 24 42 130 67
21 -2 24 42 130 67
22 -2 24 42 130 67
23 -2 24 42 130 67
24 -2 24 42 130 67
25 -2 24 42 130 67
26 -2 24 42 130 67
27 -2 24 42 130 67
28 -2 24 42 130 67
15 -1 24 42 130 67
16 -1 24 42 130 67
17 -1 24 42 130 67
18 -1 24 42 130 67
19 -1 24 42 130 67
20 -1 24 42 130 67
21 -1 24 42 130 67
22 -1 24 42 130 67
23 -1 24 42 130 67
24 -1 24 42 130 67
25 -1 24 42 130 67
26 -1 24 42 130 67
27 -1 24 42 130 67
28 -1 24 42 130 67
15 0 24 42 130 67
16 0 24 42 130 67
17 0 24 42 130 67
18 0 24 42 130 67
19 0 24 42 130 67
20 0 24 42 130 67
21 0 24 42 130 67
22 0 24 42 130 67
23 0 24 42 130 67
24 0 24 42 130 67
25 0 24 42 130 67
26 0 24 42 130 67
27 0 24 42 130 67
28 0 24 42 130 67
15 1 24 42 130 67
16 1 24 42 130 67
17 1 24 42 130 67
18 1 24 42 130 67
19 1 24 42 130 67
20 1 24 42 130 67
21 1 24 42 130 67
22 1 24 42 130 67
23 1 24 42 130 67
24 1 24 42 130 67
25 1 24 42 130 67
26 1 24 42 130 67
27 1 24 42 130 67
28 1 24 42 130 67
15 2 24 42 130 67
16 2 24 42 130 67
17 2 24 42 130 67
18 2 24 42 130 67
19 2 24 42 130 67
20 2 24 42 130 67
21 2 24 42 130 67
22 2 24 42 130 67
23 2 24 42 130 67
24 2 24 42 130 67
25 2 24 42 130 67
26 2 24 42 130 67
27 2 24 42 130 67
28 2 24 42 130 67
15 3 24 42 130 67
16 3 24 42 130 67
17 3 24 42 130 67
18 3 24 42 130 67
19 3 24 42 130 67
20 3 24 42 130 67
21 3 24 42 130 67
22 3 24 42 130 67
23 3 24 42 130 67
24 3 24 42 130 67
25 3 24 42 130 67
26 3 24 42 130 67
27 3 24 42 130 67
28 3 24 42 130 67
15 4 24 42 130 67
16 4 24 42 130 67
17 4 24 42 130 67
18 4 24 42 130 67
19 4 24 42 130 67
20 4 24 42 130 67
21 4 24 42 130 67
22 4 24 42 130 67
23 4 24 42 130 67
24 4 24 42 130 67
25 4 24 42 130 67
26 4 24 42 130 67
27 4 24 42 130 67
28 4 24 42 130 67
15 5 24 42 130 67
16 5 24 42 130 67
17 5 24 42 130 67
18 5 24 42 130 67
19 5 24 42 130 67
20 5 24 42 130 67
21 5 24 42 130 67
22 5 24 42 130 67
23 5 24 42 130 67
24 5 24 42 130 67
25 5 24 42 130 67
26 5 24 42 130 67
27 5 24 42 130 67
28 5 24 42 130 67
15 6 24 42 130 67
16 6 24 42 130 67
17 6 24 42 130 67
18 6 24 42 130 67
19 6 24 42 130 67
20 6 24 42 130 67
21 6 24 42 130 67
22 6 24 42 130 67
23 6 24 42 130 67
24 6 24 42 130 67
25 6 24 42 130 67
26 6 24 42 130 67
27 6 24 42 130 67
28 6 24 42 130 67
15 -7 25 38 116 60
16 -7 25 38 116 60
17 -7 25 38 116 60
18 -7 25 38 116 60
19 -7 25 38 116 60
20 -7 25 38 116 60
21 -7 25 38 116 60
22 -7 25 38 116 60
23 -7 25 38 116 60
24 -7 25 38 116 60
25 -7 25 38 116 60
26 -7 25 38 116 60
27 -7 25 38 116 60
28 -7 25 38 116 60
15 -6 25 38 116 60
16 -6 25 38 116 60
17 -6 25 38 116 60
18 -6 25 38 116 60
19 -6 25 38 116 60
20 -6 25 38 116 60
21 -6 25 38 116 60
22 -6 25 38 116 60
23 -6 25 38 116 60
24 -6 25 38 116 60
25 -6 25 38 116 60
26 -6 25 38 116 60
27 -6 25 38 116 60
28 -6 25 38 116 60
15 -5 25 38 116 60
16 -5 25 38 116 60
17 -5 25 38 116 60
18 -5 25 38 116 60
19 -5 25 38 116 60
20 -5 25 38 116 60
21 -5 25 38 116 60
22 -5 25 38 116 60
23 -5 25 38 116 60
24 -5 25 38 116 60
25 -5 25 38 116 60
26 -5 25 38 116 60
27 -5 25 38 116 60
28 -5 25 38 116 60
15 -4 25 38 116 60
16 -4 25 38 116 60
17 -4 25 38 116 60
18 -4 25 38 116 60
19 -4 25 38 116 60
20 -4 25 38 116 60
21 -4 25 38 116 60
22 -4 25 38 116 60
23 -4 25 38 116 60
24 -4 25 38 116 60
25 -4 25 38 116 60
26 -4 25 38 116 60
27 -4 25 38 116 60
28 -4 25 38 116 60
15 -3 25 38 116 60
16 -3 25 38 116 60
17 -3 25 38 116 60
18 -3 25 38 116 60
19 -3 25 38 116 60
20 -3 25 38 116 60
21 -3 25 38 116 60
22 -3 25 38 116 60
23 -3 25 38 116 60
24 -3 25 38 116 60
25 -3 25 38 116 60
26 -3 25 38 116 60
27 -3 25 38 116 60
28 -3 25 38 116 60
15 -2 25 38 116 60
16 -2 25 38 116 60
17 -2 25 38 116 60
18 -2 25 38 116 60
19 -2 25 38 116 60
20 -2 25 38 116 60
21 -2 25 38 116 60
22 -2 25 38 116 60
23 -2 25 38 116 60
24 -2 25 38 116 60
25 -2 25 38 116 60
26 -2 25 38 116 60
27 -2 25 38 116 60
28 -2 25 38 116 60
15 -1 25 38 116 60
16 -1 25 38 116 60
17 -1 25 38 116 60
18 -1 25 38 116 60
19 -1 25 38 116 60
20 -1 25 38 116 60
21 -1 25 38 116 60
22 -1 25 38 116 60
23 -1 25 38 116 60
24 -1 25 38 116 60
25 -1 25 38 116 60
26 -1 25 38 116 60
27 -1 25 38 116 60
28 -1 25 38 116 60
15 0 25 38 116 60
16 0 25 38 116 60
17 0 25 38 116 60
18 0 25 38 116 60
19 0 25 38 116 60
20 0 25 38 116 60
21 0 25 38 116 60
22 0 25 38 116 60
23 0 25 38 116 60
24 0 25 38 116 60
25 0 25 38 116 60
26 0 25 38 116 60
27 0 25 38 116 60
28 0 25 38 116 60
15 1 25 38 116 60
16 1 25 38 116 60
17 1 25 38 116 60
18 1 25 38 116 60
19 1 25 38 116 60
20 1 25 38 116 60
21 1 25 38 116 60
22 1 25 38 116 60
23 1 25 38 116 60
24 1 25 38 116 60
25 1 25 38 116 60
26 1 25 38 116 60
27 1 25 38 116 60
28 1 25 38 116 60
15 2 25 38 116 60
16 2 25 38 116 60
17 2 25 38 116 60
18 2 25 38 116 60
19 2 25 38 116 60
20 2 25 38 116 60
21 2 25 38 116 60
22 2 25 38 116 60
23 2 25 38 116 60
24 2 25 38 116 60
25 2 25 38 116 60
26 2 25 38 116 60
27 2 25 38 116 60
28 2 25 38 116 60
15 3 25 38 116 60
16 3 25 38 116 60
17 3 25 38 116 60
18 3 25 38 116 60
19 3 25 38 116 60
20 3 25 38 116 60
21 3 25 38 116 60
22 3 25 38 116 60
23 3 25 38 116 60
24 3 25 38 116 60
25 3 25 38 116 60
26 3 25 38 116 60
27 3 25 38 116 60
28 3 25 38 116 60
15 4 25 38 116 60
16 4 25 38 116 60
17 4 25 38 116 60
18 4 25 38 116 60
19 4 25 38 116 60
20 4 25 38 116 60
21 4 25 38 116 60
22 4 25 38 116 60
23 4 25 38 116 60
24 4 25 38 116 60
25 4 25 38 116 60
26 4 25 38 116 60
27 4 25 38 116 60
28 4 25 38 116 60
15 5 25 38 116 60
16 5 25 38 116 60
17 5 25 38 116 60
18 5 25 38 116 60
19 5 25 38 116 60
20 5 25 38 116 60
21 5 25 38 116 60
22 5 25 38 116 60
23 5 25 38 116 60
24 5 25 38 116 60
25 5 25 38 116 60
26 5 25 38 116 60
27 5 25 38 116 60
28 5 25 38 116 60
15 6 25 38 116 60
16 6 25 38 116 60
17 6 25 38 116 60
18 6 25 38 116 60
19 6 25 38 116 60
20 6 25 38 116 60
21 6 25 38 116 60
22 6 25 38 116 60
23 6 25 38 116 60
24 6 25 38 116 60
25 6 25 38 116 60
26 6 25 38 116 60
27 6 25 38 116 60
28 6 25 38 116 60
15 -7 26 38 116 60
16 -7 26 38 116 60
17 -7 26 38 116 60
18 -7 26 38 116 60
19 -7 26 38 116 60
20 -7 26 38 116 60
21 -7 26 38 116 60
22 -7 26 38 116 60
23 -7 26 38 116 60
24 -7 26 38 116 60
25 -7 26 38 116 60
26 -7 26 38 116 60
27 -7 26 38 116 60
28 -7 26 38 116 60
15 -6 26 38 116 60
16 -6 26 38 116 60
17 -6 26 38 116 60
18 -6 26 38 116 60
19 -6 26 38 116 60
20 -6 26 38 116 60
21 -6 26 38 116 60
22 -6 26 38 116 60
23 -6 26 38 116 60
24 -6 26 38 116 60
25 -6 26 38 116 60
26 -6 26 38 116 60
27 -6 26 38 116 60
28 -6 26 38 116 60
15 -5 26 38 116 60
16 -5 26 38 116 60
17 -5 26 38 116 60
18 -5 26 38 116 60
19 -5 26 38 116 60
20 -5 26 38 116 60
21 -5 26 38 116 60
22 -5 26 38 116 60
23 -5 26 38 116 60
24 -5 26 38 116 60
25 -5 26 38 116 60
26 -5 26 38 116 60
27 -5 26 38 116 60
28 -5 26 38 116 60
15 -4 26 38 116 60
16 -4 26 38 116 60
17 -4 26 38 116 60
18 -4 26 38 116 60
19 -4 26 38 116 60
20 -4 26 38 116 60
21 -4 26 38 116 60
22 -4 26 38 116 60
23 -4 26 38 116 60
24 -4 26 38 116 60
25 -4 26 38 116 60
26 -4 26 38 116 60
27 -4 26 38 116 60
28 -4 26 38 116 60
15 -3 26 38 116 60
16 -3 26 38 116 60
17 -3 26 38 116 60
18 -3 26 38 116 60
19 -3 26 38 116 60
20 -3 26 38 116 60
21 -3 26 38 116 60
22 -3 26 38 116 60
23 -3 26 38 116 60
24 -3 26 38 116 60
25 -3 26 38 116 60
26 -3 26 38 116 60
27 -3 26 38 116 60
28 -3 26 38 116 60
15 -2 26 38 116 60
16 -2 26 38 116 60
17 -2 26 38 116 60
18 -2 26 38 116 60
19 -2 26 38 116 60
20 -2 26 38 116 60
21 -2 26 38 116 60
22 -2 26 38 116 60
23 -2 26 38 116 60
24 -2 26 38 116 60
25 -2 26 38 116 60
26 -2 26 38 116 60
27 -2 26 38 116 60
28 -2 26 38 116 60
15 -1 26 38 116 60
16 -1 26 38 116 60
17 -1 26 38 116 60
18 -1 26 38 116 60
19 -1 26 38 116 60
20 -1 26 38 116 60
21 -1 26 38 116 60
22 -1 26 38 116 60
23 -1 26 38 116 60
24 -1 26 38 116 60
25 -1 26 38 116 60
26 -1 26 38 116 60
27 -1 26 38 116 60
28 -1 26 38 116 60
15 0 26 38 116 60
16 0 26 38 116 60
17 0 26 38 116 60
18 0 26 38 116 60
19 0 26 38 116 60
20 0 26 38 116 60
21 0 26 38 116 60
22 0 26 38 116 60
23 0 26 38 116 60
24 0 26 38 116 60
25 0 26 38 116 60
26 0 26 38 116 60
27 0 26 38 116 60
28 0 26 38 116 60
15 1 26 38 116 60
16 1 26 38 116 60
17 1 26 38 116 60
18 1 26 38 116 60
19 1 26 38 116 60
20 1 26 38 116 60
21 1 26 38 116 60
22 1 26 38 116 60
23 1 26 38 116 60
24 1 26 38 116 60
25 1 26 38 116 60
26 1 26 38 116 60
27 1 26 38 116 60
28 1 26 38 116 60
15 2 26 38 116 60
16 2 26 38 116 60
17 2 26 38 116 60
18 2 26 38 116 60
19 2 26 38 116 60
20 2 26 38 116 60
21 2 26 38 116 60
22 2 26 38 116 60
23 2 26 38 116 60
24 2 26 38 116 60
25 2 26 38 116 60
26 2 26 38 116 60
27 2 26 38 116 60
28 2 26 38 116 60
15 3 26 38 116 60
16 3 26 38 116 60
17 3 26 38 116 60
18 3 26 38 116 60
19 3 26 38 116 60
20 3 26 38 116 60
21 3 26 38 116 60
22 3 26 38 116 60
23 3 26 38 116 60
24 3 26 38 116 60
25 3 26 38 116 60
26 3 26 38 116 60
27 3 26 38 116 60
28 3 26 38 116 60
15 4 26 38 116 60
16 4 26 38 116 60
17 4 26 38 116 60
18 4 26 38 116 60
19 4 26 38 116 60
20 4 26 38 116 60
21 4 26 38 116 60
22 4 26 38 116 60
23 4 26 38 116 60
24 4 26 38 116 60
25 4 26 38 116 60
26 4 26 38 116 60
27 4 26 38 116 60
28 4 26 38 116 60
15 5 26 38 116 60
16 5 26 38 116 60
17 5 26 38 116 60
18 5 26 38 116 60
19 5 26 38 116 60
20 5 26 38 116 60
21 5 26 38 116 60
22 5 26 38 116 60
23 5 26 38 116 60
24 5 26 38 116 60
25 5 26 38 116 60
26 5 26 38 116 60
27 5 26 38 116 60
28 5 26 38 116 60
15 6 26 38 116 60
16 6 26 38 116 60
17 6 26 38 116 60
18 6 26 38 116 60
19 6 26 38 116 60
20 6 26 38 116 60
21 6 26 38 116 60
22 6 26 38 116 60
23 6 26 38 116 60
24 6 26 38 116 60
25 6 26 38 116 60
26 6 26 38 116 60
27 6 26 38 116 60
28 6 26 38 116 60
15 -7 27 38 116 60
16 -7 27 38 116 60
17 -7 27 38 116 60
18 -7 27 38 116 60
19 -7 27 38 116 60
20 -7 27 38 116 60
21 -7 27 38 116 60
22 -7 27 38 116 60
23 -7 27 38 116 60
24 -7 27 38 116 60
25 -7 27 38 116 60
26 -7 27 38 116 60
27 -7 27 38 116 60
28 -7 27 38 116 60
15 -6 27 38 116 60
16 -6 27 38 116 60
17 -6 27 38 116 60
18 -6 27 38 116 60
19 -6 27 38 116 60
20 -6 27 38 116 60
21 -6 27 38 116 60
22 -6 27 38 116 60
23 -6 27 38 116 60
24 -6 27 38 116 60
25 -6 27 38 116 60
26 -6 27 38 116 60
27 -6 27 38 116 60
28 -6 27 38 116 60
15 -5 27 38 116 60
16 -5 27 38 116 60
17 -5 27 38 116 60
18 -5 27 38 116 60
19 -5 27 38 116 60
20 -5 27 38 116 60
21 -5 27 38 116 60
22 -5 27 38 116 60
23 -5 27 38 116 60
24 -5 27 38 116 60
25 -5 27 38 116 60
26 -5 27 38 116 60
27 -5 27 38 116 60
28 -5 27 38 116 60
15 -4 27 38 116 60
16 -4 27 38 116 60
17 -4 27 38 116 60
18 -4 27 38 116 60
19 -4 27 38 116 60
20 -4 27 38 116 60
21 -4 27 38 116 60
22 -4 27 38 116 60
23 -4 27 38 116 60
24 -4 27 38 116 60
25 -4 27 38 116 60
26 -4 27 38 116 60
27 -4 27 38 116 60
28 -4 27 38 116 60
15 -3 27 38 116 60
16 -3 27 38 116 60
17 -3 27 38 116 60
18 -3 27 38 116 60
19 -3 27 38 116 60
20 -3 27 38 116 60
21 -3 27 38 116 60
22 -3 27 38 116 60
23 -3 27 38 116 60
24 -3 27 38 116 60
25 -3 27 38 116 60
26 -3 27 38 116 60
27 -3 27 38 116 60
28 -3 27 38 116 60
15 -2 27 38 116 60
16 -2 27 38 116 60
17 -2 27 38 116 60
18 -2 27 38 116 60
19 -2 27 38 116 60
20 -2 27 38 116 60
21 -2 27 38 116 60
22 -2 27 38 116 60
23 -2 27 38 116 60
24 -2 27 38 116 60
25 -2 27 38 116 60
26 -2 27 38 116 60
27 -2 27 38 116 60
28 -2 27 38 116 60
15 -1 27 38 116 60
16 -1 27 38 116 60
17 -1 27 38 116 60
18 -1 27 38 116 60
19 -1 27 38 116 60
20 -1 27 38 116 60
21 -1 27 38 116 60
22 -1 27 38 116 60
23 -1 27 38 116 60
24 -1 27 38 116 60
25 -1 27 38 116 60
26 -1 27 38 116 60
27 -1 27 38 116 60
28 -1 27 38 116 60
15 0 27 38 116 60
16 0 27 38 116 60
17 0 27 38 116 60
18 0 27 38 116 60
19 0 27 38 116 60
20 0 27 38 116 60
21 0 27 38 116 60
22 0 27 38 116 60
23 0 27 38 116 60
24 0 27 38 116 60
25 0 27 38 116 60
26 0 27 38 116 60
27 0 27 38 116 60
28 0 27 38 116 60
15 1 27 38 116 60
16 1 27 38 116 60
17 1 27 38 116 60
18 1 27 38 116 60
19 1 27 38 116 60
20 1 27 38 116 60
21 1 27 38 116 60
22 1 27 38 116 60
23 1 27 38 116 60
24 1 27 38 116 60
25 1 27 38 116 60
26 1 27 38 116 60
27 1 27 38 116 60
28 1 27 38 116 60
15 2 27 38 116 60
16 2 27 38 116 60
17 2 27 38 116 60
18 2 27 38 116 60
19 2 27 38 116 60
20 2 27 38 116 60
21 2 27 38 116 60
22 2 27 38 116 60
23 2 27 38 116 60
24 2 27 38 116 60
25 2 27 38 116 60
26 2 27 38 116 60
27 2 27 38 116 60
28 2 27 38 116 60
15 3 27 38 116 60
16 3 27 38 116 60
17 3 27 38 116 60
18 3 27 38 116 60
19 3 27 38 116 60
20 3 27 38 116 60
21 3 27 38 116 60
22 3 27 38 116 60
23 3 27 38 116 60
24 3 27 38 116 60
25 3 27 38 116 60
26 3 27 38 116 60
27 3 27 38 116 60
28 3 27 38 116 60
15 4 27 38 116 60
16 4 27 38 116 60
17 4 27 38 116 60
18 4 27 38 116 60
19 4 27 38 116 60
20 4 27 38 116 60
21 4 27 38 116 60
22 4 27 38 116 60
23 4 27 38 116 60
24 4 27 38 116 60
25 4 27 38 116 60
26 4 27 38 116 60
27 4 27 38 116 60
28 4 27 38 116 60
15 5 27 38 116 60
16 5 27 38 116 60
17 5 27 38 116 60
18 5 27 38 116 60
19 5 27 38 116 60
20 5 27 38 116 60
21 5 27 38 116 60
22 5 27 38 116 60
23 5 27 38 116 60
24 5 27 38 116 60
25 5 27 38 116 60
26 5 27 38 116 60
27 5 27 38 116 60
28 5 27 38 116 60
15 6 27 38 116 60
16 6 27 38 116 60
17 6 27 38 116 60
18 6 27 38 116 60
19 6 27 38 116 60
20 6 27 38 116 60
21 6 27 38 116 60
22 6 27 38 116 60
23 6 27 38 116 60
24 6 27 38 116 60
25 6 27 38 116 60
26 6 27 38 116 60
27 6 27 38 116 60
28 6 27 38 116 60
15 -7 28 42 130 67
16 -7 28 42 130 67
17 -7 28 42 130 67
18 -7 28 42 130 67
19 -7 28 42 130 67
20 -7 28 42 130 67
21 -7 28 42 130 67
22 -7 28 42 130 67
23 -7 28 42 130 67
24 -7 28 42 130 67
25 -7 28 42 130 67
26 -7 28 42 130 67
27 -7 28 42 130 67
28 -7 28 42 130 67
15 -6 28 42 130 67
16 -6 28 42 130 67
17 -6 28 42 130 67
18 -6 28 42 130 67
19 -6 28 42 130 67
20 -6 28 42 130 67
21 -6 28 42 130 67
22 -6 28 42 130 67
23 -6 28 42 130 67
24 -6 28 42 130 67
25 -6 28 42 130 67
26 -6 28 42 130 67
27 -6 28 42 130 67
28 -6 28 42 130 67
15 -5 28 42 130 67
16 -5 28 42 130 67
17 -5 28 42 130 67
18 -5 28 42 130 67
19 -5 28 42 130 67
20 -5 28 42 130 67
21 -5 28 42 130 67
22 -5 28 42 130 67
23 -5 28 42 130 67
24 -5 28 42 130 67
25 -5 28 42 130 67
26 -5 28 42 130 67
27 -5 28 42 130 67
28 -5 28 42 130 67
15 -4 28 42 130 67
16 -4 28 42 130 67
17 -4 28 42 130 67
18 -4 28 42 130 67
19 -4 28 42 130 67
20 -4 28 42 130 67
21 -4 28 42 130 67
22 -4 28 42 130 67
23 -4 28 42 130 67
24 -4 28 42 130 67
25 -4 28 42 130 67
26 -4 28 42 130 67
27 -4 28 42 130 67
28 -4 28 42 130 67
15 -3 28 42 130 67
16 -3 28 42 130 67
17 -3 28 42 130 67
18 -3 28 42 130 67
19 -3 28 42 130 67
20 -3 28 42 130 67
21 -3 28 42 130 67
22 -3 28 42 130 67
23 -3 28 42 130 67
24 -3 28 42 130 67
25 -3 28 42 130 67
26 -3 28 42 130 67
27 -3 28 42 130 67
28 -3 28 42 130 67
15 -2 28 42 130 67
16 -2 28 42 130 67
17 -2 28 42 130 67
18 -2 28 42 130 67
19 -2 28 42 130 67
20 -2 28 42 130 67
21 -2 28 42 130 67
22 -2 28 42 130 67
23 -2 28 42 130 67
24 -2 28 42 130 67
25 -2 28 42 130 67
26 -2 28 42 130 67
27 -2 28 42 130 67
28 -2 28 42 130 67
15 -1 28 42 130 67
16 -1 28 42 130 67
17 -1 28 42 130 67
18 -1 28 42 130 67
19 -1 28 42 130 67
20 -1 28 42 130 67
21 -1 28 42 130 67
22 -1 28 42 130 67
23 -1 28 42 130 67
24 -1 28 42 130 67
25 -1 28 42 130 67
26 -1 28 42 130 67
27 -1 28 42 130 67
28 -1 28 42 130 67
15 0 28 42 130 67
16 0 28 42 130 67
17 0 28 42 130 67
18 0 28 42 130 67
19 0 28 42 130 67
20 0 28 42 130 67
21 0 28 42 130 67
22 0 28 42 130 67
23 0 28 42 130 67
24 0 28 42 130 67
25 0 28 42 130 67
26 0 28 42 130 67
27 0 28 42 130 67
28 0 28 42 130 67
15 1 28 42 130 67
16 1 28 42 130 67
17 1 28 42 130 67
18 1 28 42 130 67
19 1 28 42 130 67
20 1 28 42 130 67
21 1 28 42 130 67
22 1 28 42 130 67
23 1 28 42 130 67
24 1 28 42 130 67
25 1 28 42 130 67
26 1 28 42 130 67
27 1 28 42 130 67
28 1 28 42 130 67
15 2 28 42 130 67
16 2 28 42 130 67
17 2 28 42 130 67
18 2 28 42 130 67
19 2 28 42 130 67
20 2 28 42 130 67
21 2 28 42 130 67
22 2 28 42 130 67
23 2 28 42 130 67
24 2 28 42 130 67
25 2 28 42 130 67
26 2 28 42 130 67
27 2 28 42 130 67
28 2 28 42 130 67
15 3 28 42 130 67
16 3 28 42 130 67
17 3 28 42 130 67
18 3 28 42 130 67
19 3 28 42 130 67
20 3 28 42 130 67
21 3 28 42 130 67
22 3 28 42 130 67
23 3 28 42 130 67
24 3 28 42 130 67
25 3 28 42 130 67
26 3 28 42 130 67
27 3 28 42 130 67
28 3 28 42 130 67
15 4 28 42 130 67
16 4 28 42 130 67
17 4 28 42 130 67
18 4 28 42 130 67
19 4 28 42 130 67
20 4 28 42 130 67
21 4 28 42 130 67
22 4 28 42 130 67
23 4 28 42 130 67
24 4 28 42 130 67
25 4 28 42 130 67
26 4 28 42 130 67
27 4 28 42 130 67
28 4 28 42 130 67
15 5 28 42 130 67
16 5 28 42 130 67
17 5 28 42 130 67
18 5 28 42 130 67
19 5 28 42 130 67
20 5 28 42 130 67
21 5 28 42 130 67
22 5 28 42 130 67
23 5 28 42 130 67
24 5 28 42 130 67
25 5 28 42 130 67
26 5 28 42 130 67
27 5 28 42 130 67
28 5 28 42 130 67
15 6 28 42 130 67
16 6 28 42 130 67
17 6 28 42 130 67
18 6 28 42 130 67
19 6 28 42 130 67
20 6 28 42 130 67
21 6 28 42 130 67
22 6 28 42 130 67
23 6 28 42 130 67
24 6 28 42 130 67
25 6 28 42 130 67
26 6 28 42 130 67
27 6 28 42 130 67
28 6 28 42 130 67
15 -7 29 38 116 60
16 -7 29 38 116 60
17 -7 29 38 116 60
18 -7 29 38 116 60
19 -7 29 38 116 60
20 -7 29 38 116 60
21 -7 29 38 116 60
22 -7 29 38 116 60
23 -7 29 38 116 60
24 -7 29 38 116 60
25 -7 29 38 116 60
26 -7 29 38 116 60
27 -7 29 38 116 60
28 -7 29 38 116 60
15 -6 29 38 116 60
16 -6 29 38 116 60
17 -6 29 38 116 60
18 -6 29 38 116 60
19 -6 29 38 116 60
20 -6 29 38 116 60
21 -6 29 38 116 60
22 -6 29 38 116 60
23 -6 29 38 116 60
24 -6 29 38 116 60
25 -6 29 38 116 60
26 -6 29 38 116 60
27 -6 29 38 116 60
28 -6 29 38 116 60
15 -5 29 38 116 60
16 -5 29 38 116 60
17 -5 29 38 116 60
18 -5 29 38 116 60
19 -5 29 38 116 60
20 -5 29 38 116 60
21 -5 29 38 116 60
22 -5 29 38 116 60
23 -5 29 38 116 60
24 -5 29 38 116 60
25 -5 29 38 116 60
26 -5 29 38 116 60
27 -5 29 38 116 60
28 -5 29 38 116 60
15 -4 29 38 116 60
16 -4 29 38 116 60
17 -4 29 38 116 60
18 -4 29 38 116 60
19 -4 29 38 116 60
20 -4 29 38 116 60
21 -4 29 38 116 60
22 -4 29 38 116 60
23 -4 29 38 116 60
24 -4 29 38 116 60
25 -4 29 38 116 60
26 -4 29 38 116 60
27 -4 29 38 116 60
28 -4 29 38 116 60
15 -3 29 38 116 60
16 -3 29 38 116 60
17 -3 29 38 116 60
18 -3 29 38 116 60
19 -3 29 38 116 60
20 -3 29 38 116 60
21 -3 29 38 116 60
22 -3 29 38 116 60
23 -3 29 38 116 60
24 -3 29 38 116 60
25 -3 29 38 116 60
26 -3 29 38 116 60
27 -3 29 38 116 60
28 -3 29 38 116 60
15 -2 29 38 116 60
16 -2 29 38 116 60
17 -2 29 38 116 60
18 -2 29 38 116 60
19 -2 29 38 116 60
20 -2 29 38 116 60
21 -2 29 38 116 60
22 -2 29 38 116 60
23 -2 29 38 116 60
24 -2 29 38 116 60
25 -2 29 38 116 60
26 -2 29 38 116 60
27 -2 29 38 116 60
28 -2 29 38 116 60
15 -1 29 38 116 60
16 -1 29 38 116 60
17 -1 29 38 116 60
18 -1 29 38 116 60
19 -1 29 38 116 60
20 -1 29 38 116 60
21 -1 29 38 116 60
22 -1 29 38 116 60
23 -1 29 38 116 60
24 -1 29 38 116 60
25 -1 29 38 116 60
26 -1 29 38 116 60
27 -1 29 38 116 60
28 -1 29 38 116 60
15 0 29 38 116 60
16 0 29 38 116 60
17 0 29 38 116 60
18 0 29 38 116 60
19 0 29 38 116 60
20 0 29 38 116 60
21 0 29 38 116 60
22 0 29 38 116 60
23 0 29 38 116 60
24 0 29 38 116 60
25 0 29 38 116 60
26 0 29 38 116 60
27 0 29 38 116 60
28 0 29 38 116 60
15 1 29 38 116 60
16 1 29 38 116 60
17 1 29 38 116 60
18 1 29 38 116 60
19 1 29 38 116 60
20 1 29 38 116 60
21 1 29 38 116 60
22 1 29 38 116 60
23 1 29 38 116 60
24 1 29 38 116 60
25 1 29 38 116 60
26 1 29 38 116 60
27 1 29 38 116 60
28 1 29 38 116 60
15 2 29 38 116 60
16 2 29 38 116 60
17 2 29 38 116 60
18 2 29 38 116 60
19 2 29 38 116 60
20 2 29 38 116 60
21 2 29 38 116 60
22 2 29 38 116 60
23 2 29 38 116 60
24 2 29 38 116 60
25 2 29 38 116 60
26 2 29 38 116 60
27 2 29 38 116 60
28 2 29 38 116 60
15 3 29 38 116 60
16 3 29 38 116 60
17 3 29 38 116 60
18 3 29 38 116 60
19 3 29 38 116 60
20 3 29 38 116 60
21 3 29 38 116 60
22 3 29 38 116 60
23 3 29 38 116 60
24 3 29 38 116 60
25 3 29 38 116 60
26 3 29 38 116 60
27 3 29 38 116 60
28 3 29 38 116 60
15 4 29 38 116 60
16 4 29 38 116 60
17 4 29 38 116 60
18 4 29 38 116 60
19 4 29 38 116 60
20 4 29 38 116 60
21 4 29 38 116 60
22 4 29 38 116 60
23 4 29 38 116 60
24 4 29 38 116 60
25 4 29 38 116 60
26 4 29 38 116 60
27 4 29 38 116 60
28 4 29 38 116 60
15 5 29 38 116 60
16 5 29 38 116 60
17 5 29 38 116 60
18 5 29 38 116 60
19 5 29 38 116 60
20 5 29 38 116 60
21 5 29 38 116 60
22 5 29 38 116 60
23 5 29 38 116 60
24 5 29 38 116 60
25 5 29 38 116 60
26 5 29 38 116 60
27 5 29 38 116 60
28 5 29 38 116 60
15 6 29 38 116 60
16 6 29 38 116 60
17 6 29 38 116 60
18 6 29 38 116 60
19 6 29 38 116 60
20 6 29 38 116 60
21 6 29 38 116 60
22 6 29 38 116 60
23 6 29 38 116 60
24 6 29 38 116 60
25 6 29 38 116 60
26 6 29 38 116 60
27 6 29 38 116 60
28 6 29 38 116 60
15 -7 30 42 130 67
16 -7 30 42 130 67
17 -7 30 42 130 67
18 -7 30 42 130 67
19 -7 30 42 130 67
20 -7 30 42 130 67
21 -7 30 42 130 67
22 -7 30 42 130 67
23 -7 30 42 130 67
24 -7 30 42 130 67
25 -7 30 42 130 67
26 -7 30 42 130 67
27 -7 30 42 130 67
28 -7 30 42 130 67
15 -6 30 42 130 67
16 -6 30 42 130 67
17 -6 30 42 130 67
18 -6 30 42 130 67
19 -6 30 42 130 67
20 -6 30 42 130 67
21 -6 30 42 130 67
22 -6 30 42 130 67
23 -6 30 42 130 67
24 -6 30 42 130 67
25 -6 30 42 130 67
26 -6 30 42 130 67
27 -6 30 42 130 67
28 -6 30 42 130 67
15 -5 30 42 130 67
16 -5 30 42 130 67
17 -5 30 42 130 67
18 -5 30 42 130 67
19 -5 30 42 130 67
20 -5 30 42 130 67
21 -5 30 42 130 67
22 -5 30 42 130 67
23 -5 30 42 130 67
24 -5 30 42 130 67
25 -5 30 42 130 67
26 -5 30 42 130 67
27 -5 30 42 130 67
28 -5 30 42 130 67
15 -4 30 42 130 67
16 -4 30 42 130 67
17 -4 30 42 130 67
18 -4 30 42 130 67
19 -4 30 42 130 67
20 -4 30 42 130 67
21 -4 30 42 130 67
22 -4 30 42 130 67
23 -4 30 42 130 67
24 -4 30 42 130 67
25 -4 30 42 130 67
26 -4 30 42 130 67
27 -4 30 42 130 67
28 -4 30 42 130 67
15 -3 30 42 130 67
16 -3 30 42 130 67
17 -3 30 42 130 67
18 -3 30 42 130 67
19 -3 30 42 130 67
20 -3 30 42 130 67
21 -3 30 42 130 67
22 -3 30 42 130 67
23 -3 30 42 130 67
24 -3 30 42 130 67
25 -3 30 42 130 67
26 -3 30 42 130 67
27 -3 30 42 130 67
28 -3 30 42 130 67
15 -2 30 42 130 67
16 -2 30 42 130 67
17 -2 30 42 130 67
18 -2 30 42 130 67
19 -2 30 42 130 67
20 -2 30 42 130 67
21 -2 30 42 130 67
22 -2 30 42 130 67
23 -2 30 42 130 67
24 -2 30 42 130 67
25 -2 30 42 130 67
26 -2 30 42 130 67
27 -2 30 42 130 67
28 -2 30 42 130 67
15 -1 30 42 130 67
16 -1 30 42 130 67
17 -1 30 42 130 67
18 -1 30 42 130 67
19 -1 30 42 130 67
20 -1 30 42 130 67
21 -1 30 42 130 67
22 -1 30 42 130 67
23 -1 30 42 130 67
24 -1 30 42 130 67
25 -1 30 42 130 67
26 -1 30 42 130 67
27 -1 30 42 130 67
28 -1 30 42 130 67
15 0 30 42 130 67
16 0 30 42 130 67
17 0 30 42 130 67
18 0 30 42 130 67
19 0 30 42 130 67
20 0 30 42 130 67
21 0 30 42 130 67
22 0 30 42 130 67
23 0 30 42 130 67
24 0 30 42 130 67
25 0 30 42 130 67
26 0 30 42 130 67
27 0 30 42 130 67
28 0 30 42 130 67
15 1 30 42 130 67
16 1 30 42 130 67
17 1 30 42 130 67
18 1 30 42 130 67
19 1 30 42 130 67
20 1 30 42 130 67
21 1 30 42 130 67
22 1 30 42 130 67
23 1 30 42 130 67
24 1 30 42 130 67
25 1 30 42 130 67
26 1 30 42 130 67
27 1 30 42 130 67
28 1 30 42 130 67
15 2 30 42 130 67
16 2 30 42 130 67
17 2 30 42 130 67
18 2 30 42 130 67
19 2 30 42 130 67
20 2 30 42 130 67
21 2 30 42 130 67
22 2 30 42 130 67
23 2 30 42 130 67
24 2 30 42 130 67
25 2 30 42 130 67
26 2 30 42 130 67
27 2 30 42 130 67
28 2 30 42 130 67
15 3 30 42 130 67
16 3 30 42 130 67
17 3 30 42 130 67
18 3 30 42 130 67
19 3 30 42 130 67
20 3 30 42 130 67
21 3 30 42 130 67
22 3 30 42 130 67
23 3 30 42 130 67
24 3 30 42 130 67
25 3 30 42 130 67
26 3 30 42 130 67
27 3 30 42 130 67
28 3 30 42 130 67
15 4 30 42 130 67
16 4 30 42 130 67
17 4 30 42 130 67
18 4 30 42 130 67
19 4 30 42 130 67
20 4 30 42 130 67
21 4 30 42 130 67
22 4 30 42 130 67
23 4 30 42 130 67
24 4 30 42 130 67
25 4 30 42 130 67
26 4 30 42 130 67
27 4 30 42 130 67
28 4 30 42 130 67
15 5 30 42 130 67
16 5 30 42 130 67
17 5 30 42 130 67
18 5 30 42 130 67
19 5 30 42 130 67
20 5 30 42 130 67
21 5 30 42 130 67
22 5 30 42 130 67
23 5 30 42 130 67
24 5 30 42 130 67
25 5 30 42 130 67
26 5 30 42 130 67
27 5 30 42 130 67
28 5 30 42 130 67
15 6 30 42 130 67
16 6 30 42 130 67
17 6 30 42 130 67
18 6 30 42 130 67
19 6 30 42 130 67
20 6 30 42 130 67
21 6 30 42 130 67
22 6 30 42 130 67
23 6 30 42 130 67
24 6 30 42 130 67
25 6 30 42 130 67
26 6 30 42 130 67
27 6 30 42 130 67
28 6 30 42 130 67
15 -7 31 42 130 67
16 -7 31 42 130 67
17 -7 31 42 130 67
18 -7 31 42 130 67
19 -7 31 42 130 67
20 -7 31 42 130 67
21 -7 31 42 130 67
22 -7 31 42 130 67
23 -7 31 42 130 67
24 -7 31 42 130 67
25 -7 31 42 130 67
26 -7 31 42 130 67
27 -7 31 42 130 67
28 -7 31 42 130 67
15 -6 31 42 130 67
16 -6 31 42 130 67
17 -6 31 42 130 67
18 -6 31 42 130 67
19 -6 31 42 130 67
20 -6 31 42 130 67
21 -6 31 42 130 67
22 -6 31 42 130 67
23 -6 31 42 130 67
24 -6 31 42 130 67
25 -6 31 42 130 67
26 -6 31 42 130 67
27 -6 31 42 130 67
28 -6 31 42 130 67
15 -5 31 42 130 67
16 -5 31 42 130 67
17 -5 31 42 130 67
18 -5 31 42 130 67
19 -5 31 42 130 67
20 -5 31 42 130 67
21 -5 31 42 130 67
22 -5 31 42 130 67
23 -5 31 42 130 67
24 -5 31 42 130 67
25 -5 31 42 130 67
26 -5 31 42 130 67
27 -5 31 42 130 67
28 -5 31 42 130 67
15 -4 31 42 130 67
16 -4 31 42 130 67
17 -4 31 42 130 67
18 -4 31 42 130 67
19 -4 31 42 130 67
20 -4 31 42 130 67
21 -4 31 42 130 67
22 -4 31 42 130 67
23 -4 31 42 130 67
24 -4 31 42 130 67
25 -4 31 42 130 67
26 -4 31 42 130 67
27 -4 31 42 130 67
28 -4 31 42 130 67
15 -3 31 42 130 67
16 -3 31 42 130 67
17 -3 31 42 130 67
18 -3 31 42 130 67
19 -3 31 42 130 67
20 -3 31 42 130 67
21 -3 31 42 130 67
22 -3 31 42 130 67
23 -3 31 42 130 67
24 -3 31 42 130 67
25 -3 31 42 130 67
26 -3 31 42 130 67
27 -3 31 42 130 67
28 -3 31 42 130 67
15 -2 31 42 130 67
16 -2 31 42 130 67
17 -2 31 42 130 67
18 -2 31 42 130 67
19 -2 31 42 130 67
20 -2 31 42 130 67
21 -2 31 42 130 67
22 -2 31 42 130 67
23 -2 31 42 130 67
24 -2 31 42 130 67
25 -2 31 42 130 67
26 -2 31 42 130 67
27 -2 31 42 130 67
28 -2 31 42 130 67
15 -1 31 42 130 67
16 -1 31 42 130 67
17 -1 31 42 130 67
18 -1 31 42 130 67
19 -1 31 42 130 67
20 -1 31 42 130 67
21 -1 31 42 130 67
22 -1 31 42 130 67
23 -1 31 42 130 67
24 -1 31 42 130 67
25 -1 31 42 130 67
26 -1 31 42 130 67
27 -1 31 42 130 67
28 -1 31 42 130 67
15 0 31 42 130 67
16 0 31 42 130 67
17 0 31 42 130 67
18 0 31 42 130 67
19 0 31 42 130 67
20 0 31 42 130 67
21 0 31 42 130 67
22 0 31 42 130 67
23 0 31 42 130 67
24 0 31 42 130 67
25 0 31 42 130 67
26 0 31 42 130 67
27 0 31 42 130 67
28 0 31 42 130 67
15 1 31 42 130 67
16 1 31 42 130 67
17 1 31 42 130 67
18 1 31 42 130 67
19 1 31 42 130 67
20 1 31 42 130 67
21 1 31 42 130 67
22 1 31 42 130 67
23 1 31 42 130 67
24 1 31 42 130 67
25 1 31 42 130 67
26 1 31 42 130 67
27 1 31 42 130 67
28 1 31 42 130 67
15 2 31 42 130 67
16 2 31 42 130 67
17 2 31 42 130 67
18 2 31 42 130 67
19 2 31 42 130 67
20 2 31 42 130 67
21 2 31 42 130 67
22 2 31 42 130 67
23 2 31 42 130 67
24 2 31 42 130 67
25 2 31 42 130 67
26 2 31 42 130 67
27 2 31 42 130 67
28 2 31 42 130 67
15 3 31 42 130 67
16 3 31 42 130 67
17 3 31 42 130 67
18 3 31 42 130 67
19 3 31 42 130 67
20 3 31 42 130 67
21 3 31 42 130 67
22 3 31 42 130 67
23 3 31 42 130 67
24 3 31 42 130 67
25 3 31 42 130 67
26 3 31 42 130 67
27 3 31 42 130 67
28 3 31 42 130 67
15 4 31 42 130 67
16 4 31 42 130 67
17 4 31 42 130 67
18 4 31 42 130 67
19 4 31 42 130 67
20 4 31 42 130 67
21 4 31 42 130 67
22 4 31 42 130 67
23 4 31 42 130 67
24 4 31 42 130 67
25 4 31 42 130 67
26 4 31 42 130 67
27 4 31 42 130 67
28 4 31 42 130 67
15 5 31 42 130 67
16 5 31 42 130 67
17 5 31 42 130 67
18 5 31 42 130 67
19 5 31 42 130 67
20 5 31 42 130 67
21 5 31 42 130 67
22 5 31 42 130 67
23 5 31 42 130 67
24 5 31 42 130 67
25 5 31 42 130 67
26 5 31 42 130 67
27 5 31 42 130 67
28 5 31 42 130 67
15 6 31 42 130 67
16 6 31 42 130 67
17 6 31 42 130 67
18 6 31 42 130 67
19 6 31 42 130 67
20 6 31 42 130 67
21 6 31 42 130 67
22 6 31 42 130 67
23 6 31 42 130 67
24 6 31 42 130 67
25 6 31 42 130 67
26 6 31 42 130 67
27 6 31 42 130 67
28 6 31 42 130 67
15 -7 32 42 130 67
16 -7 32 42 130 67
17 -7 32 42 130 67
18 -7 32 42 130 67
19 -7 32 42 130 67
20 -7 32 42 130 67
21 -7 32 42 130 67
22 -7 32 42 130 67
23 -7 32 42 130 67
24 -7 32 42 130 67
25 -7 32 42 130 67
26 -7 32 42 130 67
27 -7 32 42 130 67
28 -7 32 42 130 67
15 -6 32 42 130 67
16 -6 32 42 130 67
17 -6 32 42 130 67
18 -6 32 42 130 67
19 -6 32 42 130 67
20 -6 32 42 130 67
21 -6 32 42 130 67
22 -6 32 42 130 67
23 -6 32 42 130 67
24 -6 32 42 130 67
25 -6 32 42 130 67
26 -6 32 42 130 67
27 -6 32 42 130 67
28 -6 32 42 130 67
15 -5 32 42 130 67
16 -5 32 42 130 67
17 -5 32 42 130 67
18 -5 32 42 130 67
19 -5 32 42 130 67
20 -5 32 42 130 67
21 -5 32 42 130 67
22 -5 32 42 130 67
23 -5 32 42 130 67
24 -5 32 42 130 67
25 -5 32 42 130 67
26 -5 32 42 130 67
27 -5 32 42 130 67
28 -5 32 42 130 67
15 -4 32 42 130 67
16 -4 32 42 130 67
17 -4 32 42 130 67
18 -4 32 42 130 67
19 -4 32 42 130 67
20 -4 32 42 130 67
21 -4 32 42 130 67
22 -4 32 42 130 67
23 -4 32 42 130 67
24 -4 32 42 130 67
25 -4 32 42 130 67
26 -4 32 42 130 67
27 -4 32 42 130 67
28 -4 32 42 130 67
15 -3 32 42 130 67
16 -3 32 42 130 67
17 -3 32 42 130 67
18 -3 32 42 130 67
19 -3 32 42 130 67
20 -3 32 42 130 67
21 -3 32 42 130 67
22 -3 32 42 130 67
23 -3 32 42 130 67
24 -3 32 42 130 67
25 -3 32 42 130 67
26 -3 32 42 130 67
27 -3 32 42 130 67
28 -3 32 42 130 67
15 -2 32 42 130 67
16 -2 32 42 130 67
17 -2 32 42 130 67
18 -2 32 42 130 67
19 -2 32 42 130 67
20 -2 32 42 130 67
21 -2 32 42 130 67
22 -2 32 42 130 67
23 -2 32 42 130 67
24 -2 32 42 130 67
25 -2 32 42 130 67
26 -2 32 42 130 67
27 -2 32 42 130 67
28 -2 32 42 130 67
15 -1 32 42 130 67
16 -1 32 42 130 67
17 -1 32 42 130 67
18 -1 32 42 130 67
19 -1 32 42 130 67
20 -1 32 42 130 67
21 -1 32 42 130 67
22 -1 32 42 130 67
23 -1 32 42 130 67
24 -1 32 42 130 67
25 -1 32 42 130 67
26 -1 32 42 130 67
27 -1 32 42 130 67
28 -1 32 42 130 67
15 0 32 42 130 67
16 0 32 42 130 67
17 0 32 42 130 67
18 0 32 42 130 67
19 0 32 42 130 67
20 0 32 42 130 67
21 0 32 42 130 67
22 0 32 42 130 67
23 0 32 42 130 67
24 0 32 42 130 67
25 0 32 42 130 67
26 0 32 42 130 67
27 0 32 42 130 67
28 0 32 42 130 67
15 1 32 42 130 67
16 1 32 42 130 67
17 1 32 42 130 67
18 1 32 42 130 67
19 1 32 42 130 67
20 1 32 42 130 67
21 1 32 42 130 67
22 1 32 42 130 67
23 1 32 42 130 67
24 1 32 42 130 67
25 1 32 42 130 67
26 1 32 42 130 67
27 1 32 42 130 67
28 1 32 42 130 67
15 2 32 42 130 67
16 2 32 42 130 67
17 2 32 42 130 67
18 2 32 42 130 67
19 2 32 42 130 67
20 2 32 42 130 67
21 2 32 42 130 67
22 2 32 42 130 67
23 2 32 42 130 67
24 2 32 42 130 67
25 2 32 42 130 67
26 2 32 42 130 67
27 2 32 42 130 67
28 2 32 42 130 67
15 3 32 42 130 67
16 3 32 42 130 67
17 3 32 42 130 67
18 3 32 42 130 67
19 3 32 42 130 67
20 3 32 42 130 67
21 3 32 42 130 67
22 3 32 42 130 67
23 3 32 42 130 67
24 3 32 42 130 67
25 3 32 42 130 67
26 3 32 42 130 67
27 3 32 42 130 67
28 3 32 42 130 67
15 4 32 42 130 67
16 4 32 42 130 67
17 4 32 42 130 67
18 4 32 42 130 67
19 4 32 42 130 67
20 4 32 42 130 67
21 4 32 42 130 67
22 4 32 42 130 67
23 4 32 42 130 67
24 4 32 42 130 67
25 4 32 42 130 67
26 4 32 42 130 67
27 4 32 42 130 67
28 4 32 42 130 67
15 5 32 42 130 67
16 5 32 42 130 67
17 5 32 42 130 67
18 5 32 42 130 67
19 5 32 42 130 67
20 5 32 42 130 67
21 5 32 42 130 67
22 5 32 42 130 67
23 5 32 42 130 67
24 5 32 42 130 67
25 5 32 42 130 67
26 5 32 42 130 67
27 5 32 42 130 67
28 5 32 42 130 67
15 6 32 42 130 67
16 6 32 42 130 67
17 6 32 42 130 67
18 6 32 42 130 67
19 6 32 42 130 67
20 6 32 42 130 67
21 6 32 42 130 67
22 6 32 42 130 67
23 6 32 42 130 67
24 6 32 42 130 67
25 6 32 42 130 67
26 6 32 42 130 67
27 6 32 42 130 67
28 6 32 42 130 67
15 -7 33 38 116 60
16 -7 33 38 116 60
17 -7 33 38 116 60
18 -7 33 38 116 60
19 -7 33 38 116 60
20 -7 33 38 116 60
21 -7 33 38 116 60
22 -7 33 38 116 60
23 -7 33 38 116 60
24 -7 33 38 116 60
25 -7 33 38 116 60
26 -7 33 38 116 60
27 -7 33 38 116 60
28 -7 33 38 116 60
15 -6 33 38 116 60
16 -6 33 38 116 60
17 -6 33 38 116 60
18 -6 33 38 116 60
19 -6 33 38 116 60
20 -6 33 38 116 60
21 -6 33 38 116 60
22 -6 33 38 116 60
23 -6 33 38 116 60
24 -6 33 38 116 60
25 -6 33 38 116 60
26 -6 33 38 116 60
27 -6 33 38 116 60
28 -6 33 38 116 60
15 -5 33 38 116 60
16 -5 33 38 116 60
17 -5 33 38 116 60
18 -5 33 38 116 60
19 -5 33 38 116 60
20 -5 33 38 116 60
21 -5 33 38 116 60
22 -5 33 38 116 60
23 -5 33 38 116 60
24 -5 33 38 116 60
25 -5 33 38 116 60
26 -5 33 38 116 60
27 -5 33 38 116 60
28 -5 33 38 116 60
15 -4 33 38 116 60
16 -4 33 38 116 60
17 -4 33 38 116 60
18 -4 33 38 116 60
19 -4 33 38 116 60
20 -4 33 38 116 60
21 -4 33 38 116 60
22 -4 33 38 116 60
23 -4 33 38 116 60
24 -4 33 38 116 60
25 -4 33 38 116 60
26 -4 33 38 116 60
27 -4 33 38 116 60
28 -4 33 38 116 60
15 -3 33 38 116 60
16 -3 33 38 116 60
17 -3 33 38 116 60
18 -3 33 38 116 60
19 -3 33 38 116 60
20 -3 33 38 116 60
21 -3 33 38 116 60
22 -3 33 38 116 60
23 -3 33 38 116 60
24 -3 33 38 116 60
25 -3 33 38 116 60
26 -3 33 38 116 60
27 -3 33 38 116 60
28 -3 33 38 116 60
15 -2 33 38 116 60
16 -2 33 38 116 60
17 -2 33 38 116 60
18 -2 33 38 116 60
19 -2 33 38 116 60
20 -2 33 38 116 60
21 -2 33 38 116 60
22 -2 33 38 116 60
23 -2 33 38 116 60
24 -2 33 38 116 60
25 -2 33 38 116 60
26 -2 33 38 116 60
27 -2 33 38 116 60
28 -2 33 38 116 60
15 -1 33 38 116 60
16 -1 33 38 116 60
17 -1 33 38 116 60
18 -1 33 38 116 60
19 -1 33 38 116 60
20 -1 33 38 116 60
21 -1 33 38 116 60
22 -1 33 38 116 60
23 -1 33 38 116 60
24 -1 33 38 116 60
25 -1 33 38 116 60
26 -1 33 38 116 60
27 -1 33 38 116 60
28 -1 33 38 116 60
15 0 33 38 116 60
16 0 33 38 116 60
17 0 33 38 116 60
18 0 33 38 116 60
19 0 33 38 116 60
20 0 33 38 116 60
21 0 33 38 116 60
22 0 33 38 116 60
23 0 33 38 116 60
24 0 33 38 116 60
25 0 33 38 116 60
26 0 33 38 116 60
27 0 33 38 116 60
28 0 33 38 116 60
15 1 33 38 116 60
16 1 33 38 116 60
17 1 33 38 116 60
18 1 33 38 116 60
19 1 33 38 116 60
20 1 33 38 116 60
21 1 33 38 116 60
22 1 33 38 116 60
23 1 33 38 116 60
24 1 33 38 116 60
25 1 33 38 116 60
26 1 33 38 116 60
27 1 33 38 116 60
28 1 33 38 116 60
15 2 33 38 116 60
16 2 33 38 116 60
17 2 33 38 116 60
18 2 33 38 116 60
19 2 33 38 116 60
20 2 33 38 116 60
21 2 33 38 116 60
22 2 33 38 116 60
23 2 33 38 116 60
24 2 33 38 116 60
25 2 33 38 116 60
26 2 33 38 116 60
27 2 33 38 116 60
28 2 33 38 116 60
15 3 33 38 116 60
16 3 33 38 116 60
17 3 33 38 116 60
18 3 33 38 116 60
19 3 33 38 116 60
20 3 33 38 116 60
21 3 33 38 116 60
22 3 33 38 116 60
23 3 33 38 116 60
24 3 33 38 116 60
25 3 33 38 116 60
26 3 33 38 116 60
27 3 33 38 116 60
28 3 33 38 116 60
15 4 33 38 116 60
16 4 33 38 116 60
17 4 33 38 116 60
18 4 33 38 116 60
19 4 33 38 116 60
20 4 33 38 116 60
21 4 33 38 116 60
22 4 33 38 116 60
23 4 33 38 116 60
24 4 33 38 116 60
25 4 33 38 116 60
26 4 33 38 116 60
27 4 33 38 116 60
28 4 33 38 116 60
15 5 33 38 116 60
16 5 33 38 116 60
17 5 33 38 116 60
18 5 33 38 116 60
19 5 33 38 116 60
20 5 33 38 116 60
21 5 33 38 116 60
22 5 33 38 116 60
23 5 33 38 116 60
24 5 33 38 116 60
25 5 33 38 116 60
26 5 33 38 116 60
27 5 33 38 116 60
28 5 33 38 116 60
15 6 33 38 116 60
16 6 33 38 116 60
17 6 33 38 116 60
18 6 33 38 116 60
19 6 33 38 116 60
20 6 33 38 116 60
21 6 33 38 116 60
22 6 33 38 116 60
23 6 33 38 116 60
24 6 33 38 116 60
25 6 33 38 116 60
26 6 33 38 116 60
27 6 33 38 116 60
28 6 33 38 116 60
15 -7 34 38 116 60
16 -7 34 38 116 60
17 -7 34 38 116 60
18 -7 34 38 116 60
19 -7 34 38 116 60
20 -7 34 38 116 60
21 -7 34 38 116 60
22 -7 34 38 116 60
23 -7 34 38 116 60
24 -7 34 38 116 60
25 -7 34 38 116 60
26 -7 34 38 116 60
27 -7 34 38 116 60
28 -7 34 38 116 60
15 -6 34 38 116 60
16 -6 34 38 116 60
17 -6 34 38 116 60
18 -6 34 38 116 60
19 -6 34 38 116 60
20 -6 34 38 116 60
21 -6 34 38 116 60
22 -6 34 38 116 60
23 -6 34 38 116 60
24 -6 34 38 116 60
25 -6 34 38 116 60
26 -6 34 38 116 60
27 -6 34 38 116 60
28 -6 34 38 116 60
15 -5 34 38 116 60
16 -5 34 38 116 60
17 -5 34 38 116 60
18 -5 34 38 116 60
19 -5 34 38 116 60
20 -5 34 38 116 60
21 -5 34 38 116 60
22 -5 34 38 116 60
23 -5 34 38 116 60
24 -5 34 38 116 60
25 -5 34 38 116 60
26 -5 34 38 116 60
27 -5 34 38 116 60
28 -5 34 38 116 60
15 -4 34 38 116 60
16 -4 34 38 116 60
17 -4 34 38 116 60
18 -4 34 38 116 60
19 -4 34 38 116 60
20 -4 34 38 116 60
21 -4 34 38 116 60
22 -4 34 38 116 60
23 -4 34 38 116 60
24 -4 34 38 116 60
25 -4 34 38 116 60
26 -4 34 38 116 60
27 -4 34 38 116 60
28 -4 34 38 116 60
15 -3 34 38 116 60
16 -3 34 38 116 60
17 -3 34 38 116 60
18 -3 34 38 116 60
19 -3 34 38 116 60
20 -3 34 38 116 60
21 -3 34 38 116 60
22 -3 34 38 116 60
23 -3 34 38 116 60
24 -3 34 38 116 60
25 -3 34 38 116 60
26 -3 34 38 116 60
27 -3 34 38 116 60
28 -3 34 38 116 60
15 -2 34 38 116 60
16 -2 34 38 116 60
17 -2 34 38 116 60
18 -2 34 38 116 60
19 -2 34 38 116 60
20 -2 34 38 116 60
21 -2 34 38 116 60
22 -2 34 38 116 60
23 -2 34 38 116 60
24 -2 34 38 116 60
25 -2 34 38 116 60
26 -2 34 38 116 60
27 -2 34 38 116 60
28 -2 34 38 116 60
15 -1 34 38 116 60
16 -1 34 38 116 60
17 -1 34 38 116 60
18 -1 34 38 116 60
19 -1 34 38 116 60
20 -1 34 38 116 60
21 -1 34 38 116 60
22 -1 34 38 116 60
23 -1 34 38 116 60
24 -1 34 38 116 60
25 -1 34 38 116 60
26 -1 34 38 116 60
27 -1 34 38 116 60
28 -1 34 38 116 60
15 0 34 38 116 60
16 0 34 38 116 60
17 0 34 38 116 60
18 0 34 38 116 60
19 0 34 38 116 60
20 0 34 38 116 60
21 0 34 38 116 60
22 0 34 38 116 60
23 0 34 38 116 60
24 0 34 38 116 60
25 0 34 38 116 60
26 0 34 38 116 60
27 0 34 38 116 60
28 0 34 38 116 60
15 1 34 38 116 60
16 1 34 38 116 60
17 1 34 38 116 60
18 1 34 38 116 60
19 1 34 38 116 60
20 1 34 38 116 60
21 1 34 38 116 60
22 1 34 38 116 60
23 1 34 38 116 60
24 1 34 38 116 60
25 1 34 38 116 60
26 1 34 38 116 60
27 1 34 38 116 60
28 1 34 38 116 60
15 2 34 38 116 60
16 2 34 38 116 60
17 2 34 38 116 60
18 2 34 38 116 60
19 2 34 38 116 60
20 2 34 38 116 60
21 2 34 38 116 60
22 2 34 38 116 60
23 2 34 38 116 60
24 2 34 38 116 60
25 2 34 38 116 60
26 2 34 38 116 60
27 2 34 38 116 60
28 2 34 38 116 60
15 3 34 38 116 60
16 3 34 38 116 60
17 3 34 38 116 60
18 3 34 38 116 60
19 3 34 38 116 60
20 3 34 38 116 60
21 3 34 38 116 60
22 3 34 38 116 60
23 3 34 38 116 60
24 3 34 38 116 60
25 3 34 38 116 60
26 3 34 38 116 60
27 3 34 38 116 60
28 3 34 38 116 60
15 4 34 38 116 60
16 4 34 38 116 60
17 4 34 38 116 60
18 4 34 38 116 60
19 4 34 38 116 60
20 4 34 38 116 60
21 4 34 38 116 60
22 4 34 38 116 60
23 4 34 38 116 60
24 4 34 38 116 60
25 4 34 38 116 60
26 4 34 38 116 60
27 4 34 38 116 60
28 4 34 38 116 60
15 5 34 38 116 60
16 5 34 38 116 60
17 5 34 38 116 60
18 5 34 38 116 60
19 5 34 38 116 60
20 5 34 38 116 60
21 5 34 38 116 60
22 5 34 38 116 60
23 5 34 38 116 60
24 5 34 38 116 60
25 5 34 38 116 60
26 5 34 38 116 60
27 5 34 38 116 60
28 5 34 38 116 60
15 6 34 38 116 60
16 6 34 38 116 60
17 6 34 38 116 60
18 6 34 38 116 60
19 6 34 38 116 60
20 6 34 38 116 60
21 6 34 38 116 60
22 6 34 38 116 60
23 6 34 38 116 60
24 6 34 38 116 60
25 6 34 38 116 60
26 6 34 38 116 60
27 6 34 38 116 60
28 6 34 38 116 60
15 -7 35 38 116 60
16 -7 35 38 116 60
17 -7 35 38 116 60
18 -7 35 38 116 60
19 -7 35 38 116 60
20 -7 35 38 116 60
21 -7 35 38 116 60
22 -7 35 38 116 60
23 -7 35 38 116 60
24 -7 35 38 116 60
25 -7 35 38 116 60
26 -7 35 38 116 60
27 -7 35 38 116 60
28 -7 35 38 116 60
15 -6 35 38 116 60
16 -6 35 38 116 60
17 -6 35 38 116 60
18 -6 35 38 116 60
19 -6 35 38 116 60
20 -6 35 38 116 60
21 -6 35 38 116 60
22 -6 35 38 116 60
23 -6 35 38 116 60
24 -6 35 38 116 60
25 -6 35 38 116 60
26 -6 35 38 116 60
27 -6 35 38 116 60
28 -6 35 38 116 60
15 -5 35 38 116 60
16 -5 35 38 116 60
17 -5 35 38 116 60
18 -5 35 38 116 60
19 -5 35 38 116 60
20 -5 35 38 116 60
21 -5 35 38 116 60
22 -5 35 38 116 60
23 -5 35 38 116 60
24 -5 35 38 116 60
25 -5 35 38 116 60
26 -5 35 38 116 60
27 -5 35 38 116 60
28 -5 35 38 116 60
15 -4 35 38 116 60
16 -4 35 38 116 60
17 -4 35 38 116 60
18 -4 35 38 116 60
19 -4 35 38 116 60
20 -4 35 38 116 60
21 -4 35 38 116 60
22 -4 35 38 116 60
23 -4 35 38 116 60
24 -4 35 38 116 60
25 -4 35 38 116 60
26 -4 35 38 116 60
27 -4 35 38 116 60
28 -4 35 38 116 60
15 -3 35 38 116 60
16 -3 35 38 116 60
17 -3 35 38 116 60
18 -3 35 38 116 60
19 -3 35 38 116 60
20 -3 35 38 116 60
21 -3 35 38 116 60
22 -3 35 38 116 60
23 -3 35 38 116 60
24 -3 35 38 116 60
25 -3 35 38 116 60
26 -3 35 38 116 60
27 -3 35 38 116 60
28 -3 35 38 116 60
15 -2 35 38 116 60
16 -2 35 38 116 60
17 -2 35 38 116 60
18 -2 35 38 116 60
19 -2 35 38 116 60
20 -2 35 38 116 60
21 -2 35 38 116 60
22 -2 35 38 116 60
23 -2 35 38 116 60
24 -2 35 38 116 60
25 -2 35 38 116 60
26 -2 35 38 116 60
27 -2 35 38 116 60
28 -2 35 38 116 60
15 -1 35 38 116 60
16 -1 35 38 116 60
17 -1 35 38 116 60
18 -1 35 38 116 60
19 -1 35 38 116 60
20 -1 35 38 116 60
21 -1 35 38 116 60
22 -1 35 38 116 60
23 -1 35 38 116 60
24 -1 35 38 116 60
25 -1 35 38 116 60
26 -1 35 38 116 60
27 -1 35 38 116 60
28 -1 35 38 116 60
15 0 35 38 116 60
16 0 35 38 116 60
17 0 35 38 116 60
18 0 35 38 116 60
19 0 35 38 116 60
20 0 35 38 116 60
21 0 35 38 116 60
22 0 35 38 116 60
23 0 35 38 116 60
24 0 35 38 116 60
25 0 35 38 116 60
26 0 35 38 116 60
27 0 35 38 116 60
28 0 35 38 116 60
15 1 35 38 116 60
16 1 35 38 116 60
17 1 35 38 116 60
18 1 35 38 116 60
19 1 35 38 116 60
20 1 35 38 116 60
21 1 35 38 116 60
22 1 35 38 116 60
23 1 35 38 116 60
24 1 35 38 116 60
25 1 35 38 116 60
26 1 35 38 116 60
27 1 35 38 116 60
28 1 35 38 116 60
15 2 35 38 116 60
16 2 35 38 116 60
17 2 35 38 116 60
18 2 35 38 116 60
19 2 35 38 116 60
20 2 35 38 116 60
21 2 35 38 116 60
22 2 35 38 116 60
23 2 35 38 116 60
24 2 35 38 116 60
25 2 35 38 116 60
26 2 35 38 116 60
27 2 35 38 116 60
28 2 35 38 116 60
15 3 35 38 116 60
16 3 35 38 116 60
17 3 35 38 116 60
18 3 35 38 116 60
19 3 35 38 116 60
20 3 35 38 116 60
21 3 35 38 116 60
22 3 35 38 116 60
23 3 35 38 116 60
24 3 35 38 116 60
25 3 35 38 116 60
26 3 35 38 116 60
27 3 35 38 116 60
28 3 35 38 116 60
15 4 35 38 116 60
16 4 35 38 116 60
17 4 35 38 116 60
18 4 35 38 116 60
19 4 35 38 116 60
20 4 35 38 116 60
21 4 35 38 116 60
22 4 35 38 116 60
23 4 35 38 116 60
24 4 35 38 116 60
25 4 35 38 116 60
26 4 35 38 116 60
27 4 35 38 116 60
28 4 35 38 116 60
15 5 35 38 116 60
16 5 35 38 116 60
17 5 35 38 116 60
18 5 35 38 116 60
19 5 35 38 116 60
20 5 35 38 116 60
21 5 35 38 116 60
22 5 35 38 116 60
23 5 35 38 116 60
24 5 35 38 116 60
25 5 35 38 116 60
26 5 35 38 116 60
27 5 35 38 116 60
28 5 35 38 116 60
15 6 35 38 116 60
16 6 35 38 116 60
17 6 35 38 116 60
18 6 35 38 116 60
19 6 35 38 116 60
20 6 35 38 116 60
21 6 35 38 116 60
22 6 35 38 116 60
23 6 35 38 116 60
24 6 35 38 116 60
25 6 35 38 116 60
26 6 35 38 116 60
27 6 35 38 116 60
28 6 35 38 116 60
15 -7 36 42 130 67
16 -7 36 42 130 67
17 -7 36 42 130 67
18 -7 36 42 130 67
19 -7 36 42 130 67
20 -7 36 42 130 67
21 -7 36 42 130 67
22 -7 36 42 130 67
23 -7 36 42 130 67
24 -7 36 42 130 67
25 -7 36 42 130 67
26 -7 36 42 130 67
27 -7 36 42 130 67
28 -7 36 42 130 67
15 -6 36 42 130 67
16 -6 36 42 130 67
17 -6 36 42 130 67
18 -6 36 42 130 67
19 -6 36 42 130 67
20 -6 36 42 130 67
21 -6 36 42 130 67
22 -6 36 42 130 67
23 -6 36 42 130 67
24 -6 36 42 130 67
25 -6 36 42 130 67
26 -6 36 42 130 67
27 -6 36 42 130 67
28 -6 36 42 130 67
15 -5 36 42 130 67
16 -5 36 42 130 67
17 -5 36 42 130 67
18 -5 36 42 130 67
19 -5 36 42 130 67
20 -5 36 42 130 67
21 -5 36 42 130 67
22 -5 36 42 130 67
23 -5 36 42 130 67
24 -5 36 42 130 67
25 -5 36 42 130 67
26 -5 36 42 130 67
27 -5 36 42 130 67
28 -5 36 42 130 67
15 -4 36 42 130 67
16 -4 36 42 130 67
17 -4 36 42 130 67
18 -4 36 42 130 67
19 -4 36 42 130 67
20 -4 36 42 130 67
21 -4 36 42 130 67
22 -4 36 42 130 67
23 -4 36 42 130 67
24 -4 36 42 130 67
25 -4 36 42 130 67
26 -4 36 42 130 67
27 -4 36 42 130 67
28 -4 36 42 130 67
15 -3 36 42 130 67
16 -3 36 42 130 67
17 -3 36 42 130 67
18 -3 36 42 130 67
19 -3 36 42 130 67
20 -3 36 42 130 67
21 -3 36 42 130 67
22 -3 36 42 130 67
23 -3 36 42 130 67
24 -3 36 42 130 67
25 -3 36 42 130 67
26 -3 36 42 130 67
27 -3 36 42 130 67
28 -3 36 42 130 67
15 -2 36 42 130 67
16 -2 36 42 130 67
17 -2 36 42 130 67
18 -2 36 42 130 67
19 -2 36 42 130 67
20 -2 36 42 130 67
21 -2 36 42 130 67
22 -2 36 42 130 67
23 -2 36 42 130 67
24 -2 36 42 130 67
25 -2 36 42 130 67
26 -2 36 42 130 67
27 -2 36 42 130 67
28 -2 36 42 130 67
15 -1 36 42 130 67
16 -1 36 42 130 67
17 -1 36 42 130 67
18 -1 36 42 130 67
19 -1 36 42 130 67
20 -1 36 42 130 67
21 -1 36 42 130 67
22 -1 36 42 130 67
23 -1 36 42 130 67
24 -1 36 42 130 67
25 -1 36 42 130 67
26 -1 36 42 130 67
27 -1 36 42 130 67
28 -1 36 42 130 67
15 0 36 42 130 67
16 0 36 42 130 67
17 0 36 42 130 67
18 0 36 42 130 67
19 0 36 42 130 67
20 0 36 42 130 67
21 0 36 42 130 67
22 0 36 42 130 67
23 0 36 42 130 67
24 0 36 42 130 67
25 0 36 42 130 67
26 0 36 42 130 67
27 0 36 42 130 67
28 0 36 42 130 67
15 1 36 42 130 67
16 1 36 42 130 67
17 1 36 42 130 67
18 1 36 42 130 67
19 1 36 42 130 67
20 1 36 42 130 67
21 1 36 42 130 67
22 1 36 42 130 67
23 1 36 42 130 67
24 1 36 42 130 67
25 1 36 42 130 67
26 1 36 42 130 67
27 1 36 42 130 67
28 1 36 42 130 67
15 2 36 42 130 67
16 2 36 42 130 67
17 2 36 42 130 67
18 2 36 42 130 67
19 2 36 42 130 67
20 2 36 42 130 67
21 2 36 42 130 67
22 2 36 42 130 67
23 2 36 42 130 67
24 2 36 42 130 67
25 2 36 42 130 67
26 2 36 42 130 67
27 2 36 42 130 67
28 2 36 42 130 67
15 3 36 42 130 67
16 3 36 42 130 67
17 3 36 42 130 67
18 3 36 42 130 67
19 3 36 42 130 67
20 3 36 42 130 67
21 3 36 42 130 67
22 3 36 42 130 67
23 3 36 42 130 67
24 3 36 42 130 67
25 3 36 42 130 67
26 3 36 42 130 67
27 3 36 42 130 67
28 3 36 42 130 67
15 4 36 42 130 67
16 4 36 42 130 67
17 4 36 42 130 67
18 4 36 42 130 67
19 4 36 42 130 67
20 4 36 42 130 67
21 4 36 42 130 67
22 4 36 42 130 67
23 4 36 42 130 67
24 4 36 42 130 67
25 4 36 42 130 67
26 4 36 42 130 67
27 4 36 42 130 67
28 4 36 42 130 67
15 5 36 42 130 67
16 5 36 42 130 67
17 5 36 42 130 67
18 5 36 42 130 67
19 5 36 42 130 67
20 5 36 42 130 67
21 5 36 42 130 67
22 5 36 42 130 67
23 5 36 42 130 67
24 5 36 42 130 67
25 5 36 42 130 67
26 5 36 42 130 67
27 5 36 42 130 67
28 5 36 42 130 67
15 6 36 42 130 67
16 6 36 42 130 67
17 6 36 42 130 67
18 6 36 42 130 67
19 6 36 42 130 67
20 6 36 42 130 67
21 6 36 42 130 67
22 6 36 42 130 67
23 6 36 42 130 67
24 6 36 42 130 67
25 6 36 42 130 67
26 6 36 42 130 67
27 6 36 42 130 67
28 6 36 42 130 67
15 -7 37 42 130 67
16 -7 37 42 130 67
17 -7 37 42 130 67
18 -7 37 42 130 67
19 -7 37 42 130 67
20 -7 37 42 130 67
21 -7 37 42 130 67
22 -7 37 42 130 67
23 -7 37 42 130 67
24 -7 37 42 130 67
25 -7 37 42 130 67
26 -7 37 42 130 67
27 -7 37 42 130 67
28 -7 37 42 130 67
15 -6 37 42 130 67
16 -6 37 42 130 67
17 -6 37 42 130 67
18 -6 37 42 130 67
19 -6 37 42 130 67
20 -6 37 42 130 67
21 -6 37 42 130 67
22 -6 37 42 130 67
23 -6 37 42 130 67
24 -6 37 42 130 67
25 -6 37 42 130 67
26 -6 37 42 130 67
27 -6 37 42 130 67
28 -6 37 42 130 67
15 -5 37 42 130 67
16 -5 37 42 130 67
17 -5 37 42 130 67
18 -5 37 42 130 67
19 -5 37 42 130 67
20 -5 37 42 130 67
21 -5 37 42 130 67
22 -5 37 42 130 67
23 -5 37 42 130 67
24 -5 37 42 130 67
25 -5 37 42 130 67
26 -5 37 42 130 67
27 -5 37 42 130 67
28 -5 37 42 130 67
15 -4 37 42 130 67
16 -4 37 42 130 67
17 -4 37 42 130 67
18 -4 37 42 130 67
19 -4 37 42 130 67
20 -4 37 42 130 67
21 -4 37 42 130 67
22 -4 37 42 130 67
23 -4 37 42 130 67
24 -4 37 42 130 67
25 -4 37 42 130 67
26 -4 37 42 130 67
27 -4 37 42 130 67
28 -4 37 42 130 67
15 -3 37 42 130 67
16 -3 37 42 130 67
17 -3 37 42 130 67
18 -3 37 42 130 67
19 -3 37 42 130 67
20 -3 37 42 130 67
21 -3 37 42 130 67
22 -3 37 42 130 67
23 -3 37 42 130 67
24 -3 37 42 130 67
25 -3 37 42 130 67
26 -3 37 42 130 67
27 -3 37 42 130 67
28 -3 37 42 130 67
15 -2 37 42 130 67
16 -2 37 42 130 67
17 -2 37 42 130 67
18 -2 37 42 130 67
19 -2 37 42 130 67
20 -2 37 42 130 67
21 -2 37 42 130 67
22 -2 37 42 130 67
23 -2 37 42 130 67
24 -2 37 42 130 67
25 -2 37 42 130 67
26 -2 37 42 130 67
27 -2 37 42 130 67
28 -2 37 42 130 67
15 -1 37 42 130 67
16 -1 37 42 130 67
17 -1 37 42 130 67
18 -1 37 42 130 67
19 -1 37 42 130 67
20 -1 37 42 130 67
21 -1 37 42 130 67
22 -1 37 42 130 67
23 -1 37 42 130 67
24 -1 37 42 130 67
25 -1 37 42 130 67
26 -1 37 42 130 67
27 -1 37 42 130 67
28 -1 37 42 130 67
15 0 37 42 130 67
16 0 37 42 130 67
17 0 37 42 130 67
18 0 37 42 130 67
19 0 37 42 130 67
20 0 37 42 130 67
21 0 37 42 130 67
22 0 37 42 130 67
23 0 37 42 130 67
24 0 37 42 130 67
25 0 37 42 130 67
26 0 37 42 130 67
27 0 37 42 130 67
28 0 37 42 130 67
15 1 37 42 130 67
16 1 37 42 130 67
17 1 37 42 130 67
18 1 37 42 130 67
19 1 37 42 130 67
20 1 37 42 130 67
21 1 37 42 130 67
22 1 37 42 130 67
23 1 37 42 130 67
24 1 37 42 130 67
25 1 37 42 130 67
26 1 37 42 130 67
27 1 37 42 130 67
28 1 37 42 130 67
15 2 37 42 130 67
16 2 37 42 130 67
17 2 37 42 130 67
18 2 37 42 130 67
19 2 37 42 130 67
20 2 37 42 130 67
21 2 37 42 130 67
22 2 37 42 130 67
23 2 37 42 130 67
24 2 37 42 130 67
25 2 37 42 130 67
26 2 37 42 130 67
27 2 37 42 130 67
28 2 37 42 130 67
15 3 37 42 130 67
16 3 37 42 130 67
17 3 37 42 130 67
18 3 37 42 130 67
19 3 37 42 130 67
20 3 37 42 130 67
21 3 37 42 130 67
22 3 37 42 130 67
23 3 37 42 130 67
24 3 37 42 130 67
25 3 37 42 130 67
26 3 37 42 130 67
27 3 37 42 130 67
28 3 37 42 130 67
15 4 37 42 130 67
16 4 37 42 130 67
17 4 37 42 130 67
18 4 37 42 130 67
19 4 37 42 130 67
20 4 37 42 130 67
21 4 37 42 130 67
22 4 37 42 130 67
23 4 37 42 130 67
24 4 37 42 130 67
25 4 37 42 130 67
26 4 37 42 130 67
27 4 37 42 130 67
28 4 37 42 130 67
15 5 37 42 130 67
16 5 37 42 130 67
17 5 37 42 130 67
18 5 37 42 130 67
19 5 37 42 130 67
20 5 37 42 130 67
21 5 37 42 130 67
22 5 37 42 130 67
23 5 37 42 130 67
24 5 37 42 130 67
25 5 37 42 130 67
26 5 37 42 130 67
27 5 37 42 130 67
28 5 37 42 130 67
15 6 37 42 130 67
16 6 37 42 130 67
17 6 37 42 130 67
18 6 37 42 130 67
19 6 37 42 130 67
20 6 37 42 130 67
21 6 37 42 130 67
22 6 37 42 130 67
23 6 37 42 130 67
24 6 37 42 130 67
25 6 37 42 130 67
26 6 37 42 130 67
27 6 37 42 130 67
28 6 37 42 130 67
15 -7 38 42 130 67
16 -7 38 42 130 67
17 -7 38 42 130 67
18 -7 38 42 130 67
19 -7 38 42 130 67
20 -7 38 42 130 67
21 -7 38 42 130 67
22 -7 38 42 130 67
23 -7 38 42 130 67
24 -7 38 42 130 67
25 -7 38 42 130 67
26 -7 38 42 130 67
27 -7 38 42 130 67
28 -7 38 42 130 67
15 -6 38 42 130 67
16 -6 38 42 130 67
17 -6 38 42 130 67
18 -6 38 42 130 67
19 -6 38 42 130 67
20 -6 38 42 130 67
21 -6 38 42 130 67
22 -6 38 42 130 67
23 -6 38 42 130 67
24 -6 38 42 130 67
25 -6 38 42 130 67
26 -6 38 42 130 67
27 -6 38 42 130 67
28 -6 38 42 130 67
15 -5 38 42 130 67
16 -5 38 42 130 67
17 -5 38 42 130 67
18 -5 38 42 130 67
19 -5 38 42 130 67
20 -5 38 42 130 67
21 -5 38 42 130 67
22 -5 38 42 130 67
23 -5 38 42 130 67
24 -5 38 42 130 67
25 -5 38 42 130 67
26 -5 38 42 130 67
27 -5 38 42 130 67
28 -5 38 42 130 67
15 -4 38 42 130 67
16 -4 38 42 130 67
17 -4 38 42 130 67
18 -4 38 42 130 67
19 -4 38 42 130 67
20 -4 38 42 130 67
21 -4 38 42 130 67
22 -4 38 42 130 67
23 -4 38 42 130 67
24 -4 38 42 130 67
25 -4 38 42 130 67
26 -4 38 42 130 67
27 -4 38 42 130 67
28 -4 38 42 130 67
15 -3 38 42 130 67
16 -3 38 42 130 67
17 -3 38 42 130 67
18 -3 38 42 130 67
19 -3 38 42 130 67
20 -3 38 42 130 67
21 -3 38 42 130 67
22 -3 38 42 130 67
23 -3 38 42 130 67
24 -3 38 42 130 67
25 -3 38 42 130 67
26 -3 38 42 130 67
27 -3 38 42 130 67
28 -3 38 42 130 67
15 -2 38 42 130 67
16 -2 38 42 130 67
17 -2 38 42 130 67
18 -2 38 42 130 67
19 -2 38 42 130 67
20 -2 38 42 130 67
21 -2 38 42 130 67
22 -2 38 42 130 67
23 -2 38 42 130 67
24 -2 38 42 130 67
25 -2 38 42 130 67
26 -2 38 42 130 67
27 -2 38 42 130 67
28 -2 38 42 130 67
15 -1 38 42 130 67
16 -1 38 42 130 67
17 -1 38 42 130 67
18 -1 38 42 130 67
19 -1 38 42 130 67
20 -1 38 42 130 67
21 -1 38 42 130 67
22 -1 38 42 130 67
23 -1 38 42 130 67
24 -1 38 42 130 67
25 -1 38 42 130 67
26 -1 38 42 130 67
27 -1 38 42 130 67
28 -1 38 42 130 67
15 0 38 42 130 67
16 0 38 42 130 67
17 0 38 42 130 67
18 0 38 42 130 67
19 0 38 42 130 67
20 0 38 42 130 67
21 0 38 42 130 67
22 0 38 42 130 67
23 0 38 42 130 67
24 0 38 42 130 67
25 0 38 42 130 67
26 0 38 42 130 67
27 0 38 42 130 67
28 0 38 42 130 67
15 1 38 42 130 67
16 1 38 42 130 67
17 1 38 42 130 67
18 1 38 42 130 67
19 1 38 42 130 67
20 1 38 42 130 67
21 1 38 42 130 67
22 1 38 42 130 67
23 1 38 42 130 67
24 1 38 42 130 67
25 1 38 42 130 67
26 1 38 42 130 67
27 1 38 42 130 67
28 1 38 42 130 67
15 2 38 42 130 67
16 2 38 42 130 67
17 2 38 42 130 67
18 2 38 42 130 67
19 2 38 42 130 67
20 2 38 42 130 67
21 2 38 42 130 67
22 2 38 42 130 67
23 2 38 42 130 67
24 2 38 42 130 67
25 2 38 42 130 67
26 2 38 42 130 67
27 2 38 42 130 67
28 2 38 42 130 67
15 3 38 42 130 67
16 3 38 42 130 67
17 3 38 42 130 67
18 3 38 42 130 67
19 3 38 42 130 67
20 3 38 42 130 67
21 3 38 42 130 67
22 3 38 42 130 67
23 3 38 42 130 67
24 3 38 42 130 67
25 3 38 42 130 67
26 3 38 42 130 67
27 3 38 42 130 67
28 3 38 42 130 67
15 4 38 42 130 67
16 4 38 42 130 67
17 4 38 42 130 67
18 4 38 42 130 67
19 4 38 42 130 67
20 4 38 42 130 67
21 4 38 42 130 67
22 4 38 42 130 67
23 4 38 42 130 67
24 4 38 42 130 67
25 4 38 42 130 67
26 4 38 42 130 67
27 4 38 42 130 67
28 4 38 42 130 67
15 5 38 42 130 67
16 5 38 42 130 67
17 5 38 42 130 67
18 5 38 42 130 67
19 5 38 42 130 67
20 5 38 42 130 67
21 5 38 42 130 67
22 5 38 42 130 67
23 5 38 42 130 67
24 5 38 42 130 67
25 5 38 42 130 67
26 5 38 42 130 67
27 5 38 42 130 67
28 5 38 42 130 67
15 6 38 42 130 67
16 6 38 42 130 67
17 6 38 42 130 67
18 6 38 42 130 67
19 6 38 42 130 67
20 6 38 42 130 67
21 6 38 42 130 67
22 6 38 42 130 67
23 6 38 42 130 67
24 6 38 42 130 67
25 6 38 42 130 67
26 6 38 42 130 67
27 6 38 42 130 67
28 6 38 42 130 67
15 -7 39 38 116 60
16 -7 39 38 116 60
17 -7 39 38 116 60
18 -7 39 38 116 60
19 -7 39 38 116 60
20 -7 39 38 116 60
21 -7 39 38 116 60
22 -7 39 38 116 60
23 -7 39 38 116 60
24 -7 39 38 116 60
25 -7 39 38 116 60
26 -7 39 38 116 60
27 -7 39 38 116 60
28 -7 39 38 116 60
15 -6 39 38 116 60
16 -6 39 38 116 60
17 -6 39 38 116 60
18 -6 39 38 116 60
19 -6 39 38 116 60
20 -6 39 38 116 60
21 -6 39 38 116 60
22 -6 39 38 116 60
23 -6 39 38 116 60
24 -6 39 38 116 60
25 -6 39 38 116 60
26 -6 39 38 116 60
27 -6 39 38 116 60
28 -6 39 38 116 60
15 -5 39 38 116 60
16 -5 39 38 116 60
17 -5 39 38 116 60
18 -5 39 38 116 60
19 -5 39 38 116 60
20 -5 39 38 116 60
21 -5 39 38 116 60
22 -5 39 38 116 60
23 -5 39 38 116 60
24 -5 39 38 116 60
25 -5 39 38 116 60
26 -5 39 38 116 60
27 -5 39 38 116 60
28 -5 39 38 116 60
15 -4 39 38 116 60
16 -4 39 38 116 60
17 -4 39 38 116 60
18 -4 39 38 116 60
19 -4 39 38 116 60
20 -4 39 38 116 60
21 -4 39 38 116 60
22 -4 39 38 116 60
23 -4 39 38 116 60
24 -4 39 38 116 60
25 -4 39 38 116 60
26 -4 39 38 116 60
27 -4 39 38 116 60
28 -4 39 38 116 60
15 -3 39 38 116 60
16 -3 39 38 116 60
17 -3 39 38 116 60
18 -3 39 38 116 60
19 -3 39 38 116 60
20 -3 39 38 116 60
21 -3 39 38 116 60
22 -3 39 38 116 60
23 -3 39 38 116 60
24 -3 39 38 116 60
25 -3 39 38 116 60
26 -3 39 38 116 60
27 -3 39 38 116 60
28 -3 39 38 116 60
15 -2 39 38 116 60
16 -2 39 38 116 60
17 -2 39 38 116 60
18 -2 39 38 116 60
19 -2 39 38 116 60
20 -2 39 38 116 60
21 -2 39 38 116 60
22 -2 39 38 116 60
23 -2 39 38 116 60
24 -2 39 38 116 60
25 -2 39 38 116 60
26 -2 39 38 116 60
27 -2 39 38 116 60
28 -2 39 38 116 60
15 -1 39 38 116 60
16 -1 39 38 116 60
17 -1 39 38 116 60
18 -1 39 38 116 60
19 -1 39 38 116 60
20 -1 39 38 116 60
21 -1 39 38 116 60
22 -1 39 38 116 60
23 -1 39 38 116 60
24 -1 39 38 116 60
25 -1 39 38 116 60
26 -1 39 38 116 60
27 -1 39 38 116 60
28 -1 39 38 116 60
15 0 39 38 116 60
16 0 39 38 116 60
17 0 39 38 116 60
18 0 39 38 116 60
19 0 39 38 116 60
20 0 39 38 116 60
21 0 39 38 116 60
22 0 39 38 116 60
23 0 39 38 116 60
24 0 39 38 116 60
25 0 39 38 116 60
26 0 39 38 116 60
27 0 39 38 116 60
28 0 39 38 116 60
15 1 39 38 116 60
16 1 39 38 116 60
17 1 39 38 116 60
18 1 39 38 116 60
19 1 39 38 116 60
20 1 39 38 116 60
21 1 39 38 116 60
22 1 39 38 116 60
23 1 39 38 116 60
24 1 39 38 116 60
25 1 39 38 116 60
26 1 39 38 116 60
27 1 39 38 116 60
28 1 39 38 116 60
15 2 39 38 116 60
16 2 39 38 116 60
17 2 39 38 116 60
18 2 39 38 116 60
19 2 39 38 116 60
20 2 39 38 116 60
21 2 39 38 116 60
22 2 39 38 116 60
23 2 39 38 116 60
24 2 39 38 116 60
25 2 39 38 116 60
26 2 39 38 116 60
27 2 39 38 116 60
28 2 39 38 116 60
15 3 39 38 116 60
16 3 39 38 116 60
17 3 39 38 116 60
18 3 39 38 116 60
19 3 39 38 116 60
20 3 39 38 116 60
21 3 39 38 116 60
22 3 39 38 116 60
23 3 39 38 116 60
24 3 39 38 116 60
25 3 39 38 116 60
26 3 39 38 116 60
27 3 39 38 116 60
28 3 39 38 116 60
15 4 39 38 116 60
16 4 39 38 116 60
17 4 39 38 116 60
18 4 39 38 116 60
19 4 39 38 116 60
20 4 39 38 116 60
21 4 39 38 116 60
22 4 39 38 116 60
23 4 39 38 116 60
24 4 39 38 116 60
25 4 39 38 116 60
26 4 39 38 116 60
27 4 39 38 116 60
28 4 39 38 116 60
15 5 39 38 116 60
16 5 39 38 116 60
17 5 39 38 116 60
18 5 39 38 116 60
19 5 39 38 116 60
20 5 39 38 116 60
21 5 39 38 116 60
22 5 39 38 116 60
23 5 39 38 116 60
24 5 39 38 116 60
25 5 39 38 116 60
26 5 39 38 116 60
27 5 39 38 116 60
28 5 39 38 116 60
15 6 39 38 116 60
16 6 39 38 116 60
17 6 39 38 116 60
18 6 39 38 116 60
19 6 39 38 116 60
20 6 39 38 116 60
21 6 39 38 116 60
22 6 39 38 116 60
23 6 39 38 116 60
24 6 39 38 116 60
25 6 39 38 116 60
26 6 39 38 116 60
27 6 39 38 116 60
28 6 39 38 116 60
15 -7 40 42 130 67
16 -7 40 42 130 67
17 -7 40 42 130 67
18 -7 40 42 130 67
19 -7 40 42 130 67
20 -7 40 42 130 67
21 -7 40 42 130 67
22 -7 40 42 130 67
23 -7 40 42 130 67
24 -7 40 42 130 67
25 -7 40 42 130 67
26 -7 40 42 130 67
27 -7 40 42 130 67
28 -7 40 42 130 67
15 -6 40 42 130 67
16 -6 40 42 130 67
17 -6 40 42 130 67
18 -6 40 42 130 67
19 -6 40 42 130 67
20 -6 40 42 130 67
21 -6 40 42 130 67
22 -6 40 42 130 67
23 -6 40 42 130 67
24 -6 40 42 130 67
25 -6 40 42 130 67
26 -6 40 42 130 67
27 -6 40 42 130 67
28 -6 40 42 130 67
15 -5 40 42 130 67
16 -5 40 42 130 67
17 -5 40 42 130 67
18 -5 40 42 130 67
19 -5 40 42 130 67
20 -5 40 42 130 67
21 -5 40 42 130 67
22 -5 40 42 130 67
23 -5 40 42 130 67
24 -5 40 42 130 67
25 -5 40 42 130 67
26 -5 40 42 130 67
27 -5 40 42 130 67
28 -5 40 42 130 67
15 -4 40 42 130 67
16 -4 40 42 130 67
17 -4 40 42 130 67
18 -4 40 42 130 67
19 -4 40 42 130 67
20 -4 40 42 130 67
21 -4 40 42 130 67
22 -4 40 42 130 67
23 -4 40 42 130 67
24 -4 40 42 130 67
25 -4 40 42 130 67
26 -4 40 42 130 67
27 -4 40 42 130 67
28 -4 40 42 130 67
15 -3 40 42 130 67
16 -3 40 42 130 67
17 -3 40 42 130 67
18 -3 40 42 130 67
19 -3 40 42 130 67
20 -3 40 42 130 67
21 -3 40 42 130 67
22 -3 40 42 130 67
23 -3 40 42 130 67
24 -3 40 42 130 67
25 -3 40 42 130 67
26 -3 40 42 130 67
27 -3 40 42 130 67
28 -3 40 42 130 67
15 -2 40 42 130 67
16 -2 40 42 130 67
17 -2 40 42 130 67
18 -2 40 42 130 67
19 -2 40 42 130 67
20 -2 40 42 130 67
21 -2 40 42 130 67
22 -2 40 42 130 67
23 -2 40 42 130 67
24 -2 40 42 130 67
25 -2 40 42 130 67
26 -2 40 42 130 67
27 -2 40 42 130 67
28 -2 40 42 130 67
15 -1 40 42 130 67
16 -1 40 42 130 67
17 -1 40 42 130 67
18 -1 40 42 130 67
19 -1 40 42 130 67
20 -1 40 42 130 67
21 -1 40 42 130 67
22 -1 40 42 130 67
23 -1 40 42 130 67
24 -1 40 42 130 67
25 -1 40 42 130 67
26 -1 40 42 130 67
27 -1 40 42 130 67
28 -1 40 42 130 67
15 0 40 42 130 67
16 0 40 42 130 67
17 0 40 42 130 67
18 0 40 42 130 67
19 0 40 42 130 67
20 0 40 42 130 67
21 0 40 42 130 67
22 0 40 42 130 67
23 0 40 42 130 67
24 0 40 42 130 67
25 0 40 42 130 67
26 0 40 42 130 67
27 0 40 42 130 67
28 0 40 42 130 67
15 1 40 42 130 67
16 1 40 42 130 67
17 1 40 42 130 67
18 1 40 42 130 67
19 1 40 42 130 67
20 1 40 42 130 67
21 1 40 42 130 67
22 1 40 42 130 67
23 1 40 42 130 67
24 1 40 42 130 67
25 1 40 42 130 67
26 1 40 42 130 67
27 1 40 42 130 67
28 1 40 42 130 67
15 2 40 42 130 67
16 2 40 42 130 67
17 2 40 42 130 67
18 2 40 42 130 67
19 2 40 42 130 67
20 2 40 42 130 67
21 2 40 42 130 67
22 2 40 42 130 67
23 2 40 42 130 67
24 2 40 42 130 67
25 2 40 42 130 67
26 2 40 42 130 67
27 2 40 42 130 67
28 2 40 42 130 67
15 3 40 42 130 67
16 3 40 42 130 67
17 3 40 42 130 67
18 3 40 42 130 67
19 3 40 42 130 67
20 3 40 42 130 67
21 3 40 42 130 67
22 3 40 42 130 67
23 3 40 42 130 67
24 3 40 42 130 67
25 3 40 42 130 67
26 3 40 42 130 67
27 3 40 42 130 67
28 3 40 42 130 67
15 4 40 42 130 67
16 4 40 42 130 67
17 4 40 42 130 67
18 4 40 42 130 67
19 4 40 42 130 67
20 4 40 42 130 67
21 4 40 42 130 67
22 4 40 42 130 67
23 4 40 42 130 67
24 4 40 42 130 67
25 4 40 42 130 67
26 4 40 42 130 67
27 4 40 42 130 67
28 4 40 42 130 67
15 5 40 42 130 67
16 5 40 42 130 67
17 5 40 42 130 67
18 5 40 42 130 67
19 5 40 42 130 67
20 5 40 42 130 67
21 5 40 42 130 67
22 5 40 42 130 67
23 5 40 42 130 67
24 5 40 42 130 67
25 5 40 42 130 67
26 5 40 42 130 67
27 5 40 42 130 67
28 5 40 42 130 67
15 6 40 42 130 67
16 6 40 42 130 67
17 6 40 42 130 67
18 6 40 42 130 67
19 6 40 42 130 67
20 6 40 42 130 67
21 6 40 42 130 67
22 6 40 42 130 67
23 6 40 42 130 67
24 6 40 42 130 67
25 6 40 42 130 67
26 6 40 42 130 67
27 6 40 42 130 67
28 6 40 42 130 67
15 -7 41 42 130 67
16 -7 41 42 130 67
17 -7 41 42 130 67
18 -7 41 42 130 67
19 -7 41 42 130 67
20 -7 41 42 130 67
21 -7 41 42 130 67
22 -7 41 42 130 67
23 -7 41 42 130 67
24 -7 41 42 130 67
25 -7 41 42 130 67
26 -7 41 42 130 67
27 -7 41 42 130 67
28 -7 41 42 130 67
15 -6 41 42 130 67
16 -6 41 42 130 67
17 -6 41 42 130 67
18 -6 41 42 130 67
19 -6 41 42 130 67
20 -6 41 42 130 67
21 -6 41 42 130 67
22 -6 41 42 130 67
23 -6 41 42 130 67
24 -6 41 42 130 67
25 -6 41 42 130 67
26 -6 41 42 130 67
27 -6 41 42 130 67
28 -6 41 42 130 67
15 -5 41 42 130 67
16 -5 41 42 130 67
17 -5 41 42 130 67
18 -5 41 42 130 67
19 -5 41 42 130 67
20 -5 41 42 130 67
21 -5 41 42 130 67
22 -5 41 42 130 67
23 -5 41 42 130 67
24 -5 41 42 130 67
25 -5 41 42 130 67
26 -5 41 42 130 67
27 -5 41 42 130 67
28 -5 41 42 130 67
15 -4 41 42 130 67
16 -4 41 42 130 67
17 -4 41 42 130 67
18 -4 41 42 130 67
19 -4 41 42 130 67
20 -4 41 42 130 67
21 -4 41 42 130 67
22 -4 41 42 130 67
23 -4 41 42 130 67
24 -4 41 42 130 67
25 -4 41 42 130 67
26 -4 41 42 130 67
27 -4 41 42 130 67
28 -4 41 42 130 67
15 -3 41 42 130 67
16 -3 41 42 130 67
17 -3 41 42 130 67
18 -3 41 42 130 67
19 -3 41 42 130 67
20 -3 41 42 130 67
21 -3 41 42 130 67
22 -3 41 42 130 67
23 -3 41 42 130 67
24 -3 41 42 130 67
25 -3 41 42 130 67
26 -3 41 42 130 67
27 -3 41 42 130 67
28 -3 41 42 130 67
15 -2 41 42 130 67
16 -2 41 42 130 67
17 -2 41 42 130 67
18 -2 41 42 130 67
19 -2 41 42 130 67
20 -2 41 42 130 67
21 -2 41 42 130 67
22 -2 41 42 130 67
23 -2 41 42 130 67
24 -2 41 42 130 67
25 -2 41 42 130 67
26 -2 41 42 130 67
27 -2 41 42 130 67
28 -2 41 42 130 67
15 -1 41 42 130 67
16 -1 41 42 130 67
17 -1 41 42 130 67
18 -1 41 42 130 67
19 -1 41 42 130 67
20 -1 41 42 130 67
21 -1 41 42 130 67
22 -1 41 42 130 67
23 -1 41 42 130 67
24 -1 41 42 130 67
25 -1 41 42 130 67
26 -1 41 42 130 67
27 -1 41 42 130 67
28 -1 41 42 130 67
15 0 41 42 130 67
16 0 41 42 130 67
17 0 41 42 130 67
18 0 41 42 130 67
19 0 41 42 130 67
20 0 41 42 130 67
21 0 41 42 130 67
22 0 41 42 130 67
23 0 41 42 130 67
24 0 41 42 130 67
25 0 41 42 130 67
26 0 41 42 130 67
27 0 41 42 130 67
28 0 41 42 130 67
15 1 41 42 130 67
16 1 41 42 130 67
17 1 41 42 130 67
18 1 41 42 130 67
19 1 41 42 130 67
20 1 41 42 130 67
21 1 41 42 130 67
22 1 41 42 130 67
23 1 41 42 130 67
24 1 41 42 130 67
25 1 41 42 130 67
26 1 41 42 130 67
27 1 41 42 130 67
28 1 41 42 130 67
15 2 41 42 130 67
16 2 41 42 130 67
17 2 41 42 130 67
18 2 41 42 130 67
19 2 41 42 130 67
20 2 41 42 130 67
21 2 41 42 130 67
22 2 41 42 130 67
23 2 41 42 130 67
24 2 41 42 130 67
25 2 41 42 130 67
26 2 41 42 130 67
27 2 41 42 130 67
28 2 41 42 130 67
15 3 41 42 130 67
16 3 41 42 130 67
17 3 41 42 130 67
18 3 41 42 130 67
19 3 41 42 130 67
20 3 41 42 130 67
21 3 41 42 130 67
22 3 41 42 130 67
23 3 41 42 130 67
24 3 41 42 130 67
25 3 41 42 130 67
26 3 41 42 130 67
27 3 41 42 130 67
28 3 41 42 130 67
15 4 41 42 130 67
16 4 41 42 130 67
17 4 41 42 130 67
18 4 41 42 130 67
19 4 41 42 130 67
20 4 41 42 130 67
21 4 41 42 130 67
22 4 41 42 130 67
23 4 41 42 130 67
24 4 41 42 130 67
25 4 41 42 130 67
26 4 41 42 130 67
27 4 41 42 130 67
28 4 41 42 130 67
15 5 41 42 130 67
16 5 41 42 130 67
17 5 41 42 130 67
18 5 41 42 130 67
19 5 41 42 130 67
20 5 41 42 130 67
21 5 41 42 130 67
22 5 41 42 130 67
23 5 41 42 130 67
24 5 41 42 130 67
25 5 41 42 130 67
26 5 41 42 130 67
27 5 41 42 130 67
28 5 41 42 130 67
15 6 41 42 130 67
16 6 41 42 130 67
17 6 41 42 130 67
18 6 41 42 130 67
19 6 41 42 130 67
20 6 41 42 130 67
21 6 41 42 130 67
22 6 41 42 130 67
23 6 41 42 130 67
24 6 41 42 130 67
25 6 41 42 130 67
26 6 41 42 130 67
27 6 41 42 130 67
28 6 41 42 130 67
15 -7 42 38 116 60
16 -7 42 38 116 60
17 -7 42 38 116 60
18 -7 42 38 116 60
19 -7 42 38 116 60
20 -7 42 38 116 60
21 -7 42 38 116 60
22 -7 42 38 116 60
23 -7 42 38 116 60
24 -7 42 38 116 60
25 -7 42 38 116 60
26 -7 42 38 116 60
27 -7 42 38 116 60
28 -7 42 38 116 60
15 -6 42 38 116 60
16 -6 42 38 116 60
17 -6 42 38 116 60
18 -6 42 38 116 60
19 -6 42 38 116 60
20 -6 42 38 116 60
21 -6 42 38 116 60
22 -6 42 38 116 60
23 -6 42 38 116 60
24 -6 42 38 116 60
25 -6 42 38 116 60
26 -6 42 38 116 60
27 -6 42 38 116 60
28 -6 42 38 116 60
15 -5 42 38 116 60
16 -5 42 38 116 60
17 -5 42 38 116 60
18 -5 42 38 116 60
19 -5 42 38 116 60
20 -5 42 38 116 60
21 -5 42 38 116 60
22 -5 42 38 116 60
23 -5 42 38 116 60
24 -5 42 38 116 60
25 -5 42 38 116 60
26 -5 42 38 116 60
27 -5 42 38 116 60
28 -5 42 38 116 60
15 -4 42 38 116 60
16 -4 42 38 116 60
17 -4 42 38 116 60
18 -4 42 38 116 60
19 -4 42 38 116 60
20 -4 42 38 116 60
21 -4 42 38 116 60
22 -4 42 38 116 60
23 -4 42 38 116 60
24 -4 42 38 116 60
25 -4 42 38 116 60
26 -4 42 38 116 60
27 -4 42 38 116 60
28 -4 42 38 116 60
15 -3 42 38 116 60
16 -3 42 38 116 60
17 -3 42 38 116 60
18 -3 42 38 116 60
19 -3 42 38 116 60
20 -3 42 38 116 60
21 -3 42 38 116 60
22 -3 42 38 116 60
23 -3 42 38 116 60
24 -3 42 38 116 60
25 -3 42 38 116 60
26 -3 42 38 116 60
27 -3 42 38 116 60
28 -3 42 38 116 60
15 -2 42 38 116 60
16 -2 42 38 116 60
17 -2 42 38 116 60
18 -2 42 38 116 60
19 -2 42 38 116 60
20 -2 42 38 116 60
21 -2 42 38 116 60
22 -2 42 38 116 60
23 -2 42 38 116 60
24 -2 42 38 116 60
25 -2 42 38 116 60
26 -2 42 38 116 60
27 -2 42 38 116 60
28 -2 42 38 116 60
15 -1 42 38 116 60
16 -1 42 38 116 60
17 -1 42 38 116 60
18 -1 42 38 116 60
19 -1 42 38 116 60
20 -1 42 38 116 60
21 -1 42 38 116 60
22 -1 42 38 116 60
23 -1 42 38 116 60
24 -1 42 38 116 60
25 -1 42 38 116 60
26 -1 42 38 116 60
27 -1 42 38 116 60
28 -1 42 38 116 60
15 0 42 38 116 60
16 0 42 38 116 60
17 0 42 38 116 60
18 0 42 38 116 60
19 0 42 38 116 60
20 0 42 38 116 60
21 0 42 38 116 60
22 0 42 38 116 60
23 0 42 38 116 60
24 0 42 38 116 60
25 0 42 38 116 60
26 0 42 38 116 60
27 0 42 38 116 60
28 0 42 38 116 60
15 1 42 38 116 60
16 1 42 38 116 60
17 1 42 38 116 60
18 1 42 38 116 60
19 1 42 38 116 60
20 1 42 38 116 60
21 1 42 38 116 60
22 1 42 38 116 60
23 1 42 38 116 60
24 1 42 38 116 60
25 1 42 38 116 60
26 1 42 38 116 60
27 1 42 38 116 60
28 1 42 38 116 60
15 2 42 38 116 60
16 2 42 38 116 60
17 2 42 38 116 60
18 2 42 38 116 60
19 2 42 38 116 60
20 2 42 38 116 60
21 2 42 38 116 60
22 2 42 38 116 60
23 2 42 38 116 60
24 2 42 38 116 60
25 2 42 38 116 60
26 2 42 38 116 60
27 2 42 38 116 60
28 2 42 38 116 60
15 3 42 38 116 60
16 3 42 38 116 60
17 3 42 38 116 60
18 3 42 38 116 60
19 3 42 38 116 60
20 3 42 38 116 60
21 3 42 38 116 60
22 3 42 38 116 60
23 3 42 38 116 60
24 3 42 38 116 60
25 3 42 38 116 60
26 3 42 38 116 60
27 3 42 38 116 60
28 3 42 38 116 60
15 4 42 38 116 60
16 4 42 38 116 60
17 4 42 38 116 60
18 4 42 38 116 60
19 4 42 38 116 60
20 4 42 38 116 60
21 4 42 38 116 60
22 4 42 38 116 60
23 4 42 38 116 60
24 4 42 38 116 60
25 4 42 38 116 60
26 4 42 38 116 60
27 4 42 38 116 60
28 4 42 38 116 60
15 5 42 38 116 60
16 5 42 38 116 60
17 5 42 38 116 60
18 5 42 38 116 60
19 5 42 38 116 60
20 5 42 38 116 60
21 5 42 38 116 60
22 5 42 38 116 60
23 5 42 38 116 60
24 5 42 38 116 60
25 5 42 38 116 60
26 5 42 38 116 60
27 5 42 38 116 60
28 5 42 38 116 60
15 6 42 38 116 60
16 6 42 38 116 60
17 6 42 38 116 60
18 6 42 38 116 60
19 6 42 38 116 60
20 6 42 38 116 60
21 6 42 38 116 60
22 6 42 38 116 60
23 6 42 38 116 60
24 6 42 38 116 60
25 6 42 38 116 60
26 6 42 38 116 60
27 6 42 38 116 60
28 6 42 38 116 60
15 -7 43 38 116 60
16 -7 43 38 116 60
17 -7 43 38 116 60
18 -7 43 38 116 60
19 -7 43 38 116 60
20 -7 43 38 116 60
21 -7 43 38 116 60
22 -7 43 38 116 60
23 -7 43 38 116 60
24 -7 43 38 116 60
25 -7 43 38 116 60
26 -7 43 38 116 60
27 -7 43 38 116 60
28 -7 43 38 116 60
15 -6 43 38 116 60
16 -6 43 38 116 60
17 -6 43 38 116 60
18 -6 43 38 116 60
19 -6 43 38 116 60
20 -6 43 38 116 60
21 -6 43 38 116 60
22 -6 43 38 116 60
23 -6 43 38 116 60
24 -6 43 38 116 60
25 -6 43 38 116 60
26 -6 43 38 116 60
27 -6 43 38 116 60
28 -6 43 38 116 60
15 -5 43 38 116 60
16 -5 43 38 116 60
17 -5 43 38 116 60
18 -5 43 38 116 60
19 -5 43 38 116 60
20 -5 43 38 116 60
21 -5 43 38 116 60
22 -5 43 38 116 60
23 -5 43 38 116 60
24 -5 43 38 116 60
25 -5 43 38 116 60
26 -5 43 38 116 60
27 -5 43 38 116 60
28 -5 43 38 116 60
15 -4 43 38 116 60
16 -4 43 38 116 60
17 -4 43 38 116 60
18 -4 43 38 116 60
19 -4 43 38 116 60
20 -4 43 38 116 60
21 -4 43 38 116 60
22 -4 43 38 116 60
23 -4 43 38 116 60
24 -4 43 38 116 60
25 -4 43 38 116 60
26 -4 43 38 116 60
27 -4 43 38 116 60
28 -4 43 38 116 60
15 -3 43 38 116 60
16 -3 43 38 116 60
17 -3 43 38 116 60
18 -3 43 38 116 60
19 -3 43 38 116 60
20 -3 43 38 116 60
21 -3 43 38 116 60
22 -3 43 38 116 60
23 -3 43 38 116 60
24 -3 43 38 116 60
25 -3 43 38 116 60
26 -3 43 38 116 60
27 -3 43 38 116 60
28 -3 43 38 116 60
15 -2 43 38 116 60
16 -2 43 38 116 60
17 -2 43 38 116 60
18 -2 43 38 116 60
19 -2 43 38 116 60
20 -2 43 38 116 60
21 -2 43 38 116 60
22 -2 43 38 116 60
23 -2 43 38 116 60
24 -2 43 38 116 60
25 -2 43 38 116 60
26 -2 43 38 116 60
27 -2 43 38 116 60
28 -2 43 38 116 60
15 -1 43 38 116 60
16 -1 43 38 116 60
17 -1 43 38 116 60
18 -1 43 38 116 60
19 -1 43 38 116 60
20 -1 43 38 116 60
21 -1 43 38 116 60
22 -1 43 38 116 60
23 -1 43 38 116 60
24 -1 43 38 116 60
25 -1 43 38 116 60
26 -1 43 38 116 60
27 -1 43 38 116 60
28 -1 43 38 116 60
15 0 43 38 116 60
16 0 43 38 116 60
17 0 43 38 116 60
18 0 43 38 116 60
19 0 43 38 116 60
20 0 43 38 116 60
21 0 43 38 116 60
22 0 43 38 116 60
23 0 43 38 116 60
24 0 43 38 116 60
25 0 43 38 116 60
26 0 43 38 116 60
27 0 43 38 116 60
28 0 43 38 116 60
15 1 43 38 116 60
16 1 43 38 116 60
17 1 43 38 116 60
18 1 43 38 116 60
19 1 43 38 116 60
20 1 43 38 116 60
21 1 43 38 116 60
22 1 43 38 116 60
23 1 43 38 116 60
24 1 43 38 116 60
25 1 43 38 116 60
26 1 43 38 116 60
27 1 43 38 116 60
28 1 43 38 116 60
15 2 43 38 116 60
16 2 43 38 116 60
17 2 43 38 116 60
18 2 43 38 116 60
19 2 43 38 116 60
20 2 43 38 116 60
21 2 43 38 116 60
22 2 43 38 116 60
23 2 43 38 116 60
24 2 43 38 116 60
25 2 43 38 116 60
26 2 43 38 116 60
27 2 43 38 116 60
28 2 43 38 116 60
15 3 43 38 116 60
16 3 43 38 116 60
17 3 43 38 116 60
18 3 43 38 116 60
19 3 43 38 116 60
20 3 43 38 116 60
21 3 43 38 116 60
22 3 43 38 116 60
23 3 43 38 116 60
24 3 43 38 116 60
25 3 43 38 116 60
26 3 43 38 116 60
27 3 43 38 116 60
28 3 43 38 116 60
15 4 43 38 116 60
16 4 43 38 116 60
17 4 43 38 116 60
18 4 43 38 116 60
19 4 43 38 116 60
20 4 43 38 116 60
21 4 43 38 116 60
22 4 43 38 116 60
23 4 43 38 116 60
24 4 43 38 116 60
25 4 43 38 116 60
26 4 43 38 116 60
27 4 43 38 116 60
28 4 43 38 116 60
15 5 43 38 116 60
16 5 43 38 116 60
17 5 43 38 116 60
18 5 43 38 116 60
19 5 43 38 116 60
20 5 43 38 116 60
21 5 43 38 116 60
22 5 43 38 116 60
23 5 43 38 116 60
24 5 43 38 116 60
25 5 43 38 116 60
26 5 43 38 116 60
27 5 43 38 116 60
28 5 43 38 116 60
15 6 43 38 116 60
16 6 43 38 116 60
17 6 43 38 116 60
18 6 43 38 116 60
19 6 43 38 116 60
20 6 43 38 116 60
21 6 43 38 116 60
22 6 43 38 116 60
23 6 43 38 116 60
24 6 43 38 116 60
25 6 43 38 116 60
26 6 43 38 116 60
27 6 43 38 116 60
28 6 43 38 116 60
