ply
format ascii 1.0
comment : MagicaVoxel @ Ephtracy
element vertex 33
property float x
property float y
property float z
property uchar red
property uchar green
property uchar blue
end_header
-24 -33 0 196 167 123
-20 -32 0 196 167 123
-23 -29 0 196 167 123
-25 -34 1 174 72 72
-24 -34 1 174 72 72
-23 -34 1 174 72 72
-25 -33 1 174 72 72
-24 -33 1 174 72 72
-23 -33 1 174 72 72
-25 -32 1 174 72 72
-24 -32 1 174 72 72
-23 -32 1 174 72 72
-20 -32 1 196 167 123
-23 -29 1 196 167 123
-21 -33 2 174 72 72
-20 -33 2 174 72 72
-19 -33 2 174 72 72
-21 -32 2 174 72 72
-20 -32 2 174 72 72
-19 -32 2 174 72 72
-21 -31 2 174 72 72
-20 -31 2 174 72 72
-19 -31 2 174 72 72
-23 -29 2 196 167 123
-24 -30 3 174 72 72
-23 -30 3 174 72 72
-22 -30 3 174 72 72
-24 -29 3 174 72 72
-23 -29 3 174 72 72
-22 -29 3 174 72 72
-24 -28 3 174 72 72
-23 -28 3 174 72 72
-22 -28 3 174 72 72
