ply
format ascii 1.0
comment : MagicaVoxel @ Ephtracy
element vertex 21
property float x
property float y
property float z
property uchar red
property uchar green
property uchar blue
end_header
-15 -24 0 42 130 67
-12 -22 0 42 130 67
-15 -20 0 42 130 67
-15 -25 1 163 163 163
-16 -24 1 163 163 163
-15 -24 1 196 196 196
-14 -24 1 163 163 163
-15 -23 1 163 163 163
-12 -22 1 42 130 67
-15 -20 1 42 130 67
-12 -23 2 163 163 163
-13 -22 2 163 163 163
-12 -22 2 196 196 196
-11 -22 2 163 163 163
-12 -21 2 163 163 163
-15 -20 2 42 130 67
-15 -21 3 163 163 163
-16 -20 3 163 163 163
-15 -20 3 196 196 196
-14 -20 3 163 163 163
-15 -19 3 163 163 163
