ply
format ascii 1.0
comment : MagicaVoxel @ Ephtracy
element vertex 132
property float x
property float y
property float z
property uchar red
property uchar green
property uchar blue
end_header
14 -41 0 100 73 32
15 -41 0 100 73 32
14 -40 0 100 73 32
15 -40 0 100 73 32
13 -42 1 42 130 67
14 -42 1 42 130 67
15 -42 1 42 130 67
16 -42 1 42 130 67
13 -41 1 42 130 67
14 -41 1 42 130 67
15 -41 1 42 130 67
16 -41 1 42 130 67
13 -40 1 42 130 67
14 -40 1 42 130 67
15 -40 1 42 130 67
16 -40 1 42 130 67
13 -39 1 42 130 67
14 -39 1 42 130 67
15 -39 1 42 130 67
16 -39 1 42 130 67
13 -42 2 42 130 67
14 -42 2 42 130 67
15 -42 2 42 130 67
16 -42 2 42 130 67
13 -41 2 42 130 67
14 -41 2 42 130 67
15 -41 2 42 130 67
16 -41 2 42 130 67
13 -40 2 42 130 67
14 -40 2 42 130 67
15 -40 2 42 130 67
16 -40 2 42 130 67
13 -39 2 42 130 67
14 -39 2 42 130 67
15 -39 2 42 130 67
16 -39 2 42 130 67
13 -42 3 42 130 67
14 -42 3 42 130 67
15 -42 3 42 130 67
16 -42 3 42 130 67
13 -41 3 42 130 67
14 -41 3 42 130 67
15 -41 3 42 130 67
16 -41 3 42 130 67
13 -40 3 42 130 67
14 -40 3 42 130 67
15 -40 3 42 130 67
16 -40 3 42 130 67
13 -39 3 42 130 67
14 -39 3 42 130 67
15 -39 3 42 130 67
16 -39 3 42 130 67
13 -42 4 42 130 67
14 -42 4 42 130 67
15 -42 4 42 130 67
16 -42 4 42 130 67
13 -41 4 42 130 67
14 -41 4 42 130 67
15 -41 4 42 130 67
16 -41 4 42 130 67
13 -40 4 42 130 67
14 -40 4 42 130 67
15 -40 4 42 130 67
16 -40 4 42 130 67
13 -39 4 42 130 67
14 -39 4 42 130 67
15 -39 4 42 130 67
16 -39 4 42 130 67
13 -42 5 42 130 67
14 -42 5 42 130 67
15 -42 5 42 130 67
16 -42 5 42 130 67
13 -41 5 42 130 67
14 -41 5 42 130 67
15 -41 5 42 130 67
16 -41 5 42 130 67
13 -40 5 42 130 67
14 -40 5 42 130 67
15 -40 5 42 130 67
16 -40 5 42 130 67
13 -39 5 42 130 67
14 -39 5 42 130 67
15 -39 5 42 130 67
16 -39 5 42 130 67
13 -42 6 42 130 67
14 -42 6 42 130 67
15 -42 6 42 130 67
16 -42 6 42 130 67
13 -41 6 42 130 67
14 -41 6 42 130 67
15 -41 6 42 130 67
16 -41 6 42 130 67
13 -40 6 42 130 67
14 -40 6 42 130 67
15 -40 6 42 130 67
16 -40 6 42 130 67
13 -39 6 42 130 67
14 -39 6 42 130 67
15 -39 6 42 130 67
16 -39 6 42 130 67
13 -42 7 42 130 67
14 -42 7 42 130 67
15 -42 7 42 130 67
16 -42 7 42 130 67
13 -41 7 42 130 67
14 -41 7 42 130 67
15 -41 7 42 130 67
16 -41 7 42 130 67
13 -40 7 42 130 67
14 -40 7 42 130 67
15 -40 7 42 130 67
16 -40 7 42 130 67
13 -39 7 42 130 67
14 -39 7 42 130 67
15 -39 7 42 130 67
16 -39 7 42 130 67
13 -42 8 42 130 67
14 -42 8 42 130 67
15 -42 8 42 130 67
16 -42 8 42 130 67
13 -41 8 42 130 67
14 -41 8 42 130 67
15 -41 8 42 130 67
16 -41 8 42 130 67
13 -40 8 42 130 67
14 -40 8 42 130 67
15 -40 8 42 130 67
16 -40 8 42 130 67
13 -39 8 42 130 67
14 -39 8 42 130 67
15 -39 8 42 130 67
16 -39 8 42 130 67
