ply
format ascii 1.0
comment : MagicaVoxel @ Ephtracy
element vertex 29
property float x
property float y
property float z
property uchar red
property uchar green
property uchar blue
end_header
41 -41 0 255 240 147
41 -42 1 201 185 94
40 -41 1 201 185 94
41 -41 1 255 240 147
42 -41 1 201 185 94
41 -40 1 201 185 94
41 -42 2 201 185 94
40 -41 2 201 185 94
41 -41 2 255 240 147
42 -41 2 201 185 94
41 -40 2 201 185 94
41 -43 3 201 185 94
39 -41 3 201 185 94
41 -41 3 255 240 147
43 -41 3 201 185 94
41 -39 3 201 185 94
41 -42 4 201 185 94
40 -41 4 201 185 94
41 -41 4 255 240 147
42 -41 4 201 185 94
41 -40 4 201 185 94
41 -42 5 201 185 94
40 -41 5 201 185 94
42 -41 5 201 185 94
41 -40 5 201 185 94
41 -43 6 201 185 94
39 -41 6 201 185 94
43 -41 6 201 185 94
41 -39 6 201 185 94
