ply
format ascii 1.0
comment : MagicaVoxel @ Ephtracy
element vertex 148
property float x
property float y
property float z
property uchar red
property uchar green
property uchar blue
end_header
21 -41 0 100 73 32
22 -41 0 100 73 32
21 -40 0 100 73 32
22 -40 0 100 73 32
21 -43 1 42 130 67
22 -43 1 42 130 67
20 -42 1 42 130 67
21 -42 1 42 130 67
22 -42 1 42 130 67
23 -42 1 42 130 67
19 -41 1 42 130 67
20 -41 1 42 130 67
21 -41 1 42 130 67
22 -41 1 42 130 67
23 -41 1 42 130 67
24 -41 1 42 130 67
19 -40 1 42 130 67
20 -40 1 42 130 67
21 -40 1 42 130 67
22 -40 1 42 130 67
23 -40 1 42 130 67
24 -40 1 42 130 67
20 -39 1 42 130 67
21 -39 1 42 130 67
22 -39 1 42 130 67
23 -39 1 42 130 67
21 -38 1 42 130 67
22 -38 1 42 130 67
21 -43 2 42 130 67
22 -43 2 42 130 67
20 -42 2 42 130 67
21 -42 2 42 130 67
22 -42 2 42 130 67
23 -42 2 42 130 67
19 -41 2 42 130 67
20 -41 2 42 130 67
21 -41 2 42 130 67
22 -41 2 42 130 67
23 -41 2 42 130 67
24 -41 2 42 130 67
19 -40 2 42 130 67
20 -40 2 42 130 67
21 -40 2 42 130 67
22 -40 2 42 130 67
23 -40 2 42 130 67
24 -40 2 42 130 67
20 -39 2 42 130 67
21 -39 2 42 130 67
22 -39 2 42 130 67
23 -39 2 42 130 67
21 -38 2 42 130 67
22 -38 2 42 130 67
21 -43 3 42 130 67
22 -43 3 42 130 67
20 -42 3 42 130 67
21 -42 3 42 130 67
22 -42 3 42 130 67
23 -42 3 42 130 67
19 -41 3 42 130 67
20 -41 3 42 130 67
21 -41 3 42 130 67
22 -41 3 42 130 67
23 -41 3 42 130 67
24 -41 3 42 130 67
19 -40 3 42 130 67
20 -40 3 42 130 67
21 -40 3 42 130 67
22 -40 3 42 130 67
23 -40 3 42 130 67
24 -40 3 42 130 67
20 -39 3 42 130 67
21 -39 3 42 130 67
22 -39 3 42 130 67
23 -39 3 42 130 67
21 -38 3 42 130 67
22 -38 3 42 130 67
21 -43 4 42 130 67
22 -43 4 42 130 67
20 -42 4 42 130 67
21 -42 4 42 130 67
22 -42 4 42 130 67
23 -42 4 42 130 67
19 -41 4 42 130 67
20 -41 4 42 130 67
21 -41 4 42 130 67
22 -41 4 42 130 67
23 -41 4 42 130 67
24 -41 4 42 130 67
19 -40 4 42 130 67
20 -40 4 42 130 67
21 -40 4 42 130 67
22 -40 4 42 130 67
23 -40 4 42 130 67
24 -40 4 42 130 67
20 -39 4 42 130 67
21 -39 4 42 130 67
22 -39 4 42 130 67
23 -39 4 42 130 67
21 -38 4 42 130 67
22 -38 4 42 130 67
20 -42 5 42 130 67
21 -42 5 42 130 67
22 -42 5 42 130 67
23 -42 5 42 130 67
20 -41 5 42 130 67
21 -41 5 42 130 67
22 -41 5 42 130 67
23 -41 5 42 130 67
20 -40 5 42 130 67
21 -40 5 42 130 67
22 -40 5 42 130 67
23 -40 5 42 130 67
20 -39 5 42 130 67
21 -39 5 42 130 67
22 -39 5 42 130 67
23 -39 5 42 130 67
20 -42 6 42 130 67
21 -42 6 42 130 67
22 -42 6 42 130 67
23 -42 6 42 130 67
20 -41 6 42 130 67
21 -41 6 42 130 67
22 -41 6 42 130 67
23 -41 6 42 130 67
20 -40 6 42 130 67
21 -40 6 42 130 67
22 -40 6 42 130 67
23 -40 6 42 130 67
20 -39 6 42 130 67
21 -39 6 42 130 67
22 -39 6 42 130 67
23 -39 6 42 130 67
21 -42 7 42 130 67
22 -42 7 42 130 67
20 -41 7 42 130 67
21 -41 7 42 130 67
22 -41 7 42 130 67
23 -41 7 42 130 67
20 -40 7 42 130 67
21 -40 7 42 130 67
22 -40 7 42 130 67
23 -40 7 42 130 67
21 -39 7 42 130 67
22 -39 7 42 130 67
21 -41 8 42 130 67
22 -41 8 42 130 67
21 -40 8 42 130 67
22 -40 8 42 130 67
