ply
format ascii 1.0
comment : MagicaVoxel @ Ephtracy
element vertex 48
property float x
property float y
property float z
property uchar red
property uchar green
property uchar blue
end_header
35 -41 0 255 240 147
35 -42 1 201 185 94
34 -41 1 201 185 94
35 -41 1 255 240 147
36 -41 1 201 185 94
35 -40 1 201 185 94
35 -42 2 201 185 94
34 -41 2 201 185 94
35 -41 2 255 240 147
36 -41 2 201 185 94
35 -40 2 201 185 94
35 -43 3 201 185 94
33 -41 3 201 185 94
35 -41 3 255 240 147
37 -41 3 201 185 94
35 -39 3 201 185 94
35 -42 4 201 185 94
34 -41 4 201 185 94
35 -41 4 255 240 147
36 -41 4 201 185 94
35 -40 4 201 185 94
35 -42 5 201 185 94
34 -41 5 201 185 94
35 -41 5 255 240 147
36 -41 5 201 185 94
35 -40 5 201 185 94
35 -43 6 201 185 94
33 -41 6 201 185 94
35 -41 6 255 240 147
37 -41 6 201 185 94
35 -39 6 201 185 94
35 -42 7 201 185 94
34 -41 7 201 185 94
35 -41 7 255 240 147
36 -41 7 201 185 94
35 -40 7 201 185 94
35 -42 8 201 185 94
34 -41 8 201 185 94
35 -41 8 255 240 147
36 -41 8 201 185 94
35 -40 8 201 185 94
35 -43 9 201 185 94
33 -41 9 201 185 94
35 -41 9 42 130 67
37 -41 9 201 185 94
35 -39 9 201 185 94
34 -41 10 42 130 67
36 -41 10 42 130 67
