ply
format ascii 1.0
comment : MagicaVoxel @ Ephtracy
element vertex 236
property float x
property float y
property float z
property uchar red
property uchar green
property uchar blue
end_header
43 -31 0 90 90 90
44 -31 0 90 90 90
45 -31 0 90 90 90
41 -30 0 90 90 90
42 -30 0 90 90 90
43 -30 0 90 90 90
44 -30 0 90 90 90
45 -30 0 90 90 90
46 -30 0 90 90 90
41 -29 0 90 90 90
42 -29 0 90 90 90
43 -29 0 90 90 90
44 -29 0 90 90 90
45 -29 0 90 90 90
46 -29 0 90 90 90
47 -29 0 90 90 90
41 -28 0 90 90 90
42 -28 0 90 90 90
43 -28 0 90 90 90
44 -28 0 90 90 90
45 -28 0 90 90 90
46 -28 0 90 90 90
47 -28 0 90 90 90
41 -27 0 90 90 90
42 -27 0 90 90 90
43 -27 0 90 90 90
44 -27 0 90 90 90
45 -27 0 90 90 90
46 -27 0 90 90 90
47 -27 0 90 90 90
48 -27 0 90 90 90
42 -26 0 90 90 90
43 -26 0 90 90 90
44 -26 0 90 90 90
45 -26 0 90 90 90
46 -26 0 90 90 90
47 -26 0 90 90 90
48 -26 0 90 90 90
49 -26 0 90 90 90
42 -25 0 90 90 90
43 -25 0 90 90 90
44 -25 0 90 90 90
45 -25 0 90 90 90
46 -25 0 90 90 90
47 -25 0 90 90 90
48 -25 0 90 90 90
49 -25 0 90 90 90
42 -24 0 90 90 90
43 -24 0 90 90 90
44 -24 0 90 90 90
45 -24 0 90 90 90
46 -24 0 90 90 90
47 -24 0 90 90 90
48 -24 0 90 90 90
49 -24 0 90 90 90
44 -23 0 90 90 90
45 -23 0 90 90 90
46 -23 0 90 90 90
47 -23 0 90 90 90
48 -23 0 90 90 90
49 -23 0 90 90 90
44 -22 0 90 90 90
45 -22 0 90 90 90
46 -22 0 90 90 90
47 -22 0 90 90 90
48 -22 0 90 90 90
43 -31 1 90 90 90
44 -31 1 90 90 90
45 -31 1 90 90 90
41 -30 1 90 90 90
42 -30 1 90 90 90
43 -30 1 90 90 90
44 -30 1 90 90 90
45 -30 1 90 90 90
46 -30 1 90 90 90
41 -29 1 90 90 90
42 -29 1 90 90 90
43 -29 1 90 90 90
44 -29 1 90 90 90
45 -29 1 90 90 90
46 -29 1 90 90 90
47 -29 1 90 90 90
41 -28 1 90 90 90
42 -28 1 90 90 90
43 -28 1 90 90 90
44 -28 1 90 90 90
45 -28 1 90 90 90
46 -28 1 90 90 90
47 -28 1 90 90 90
41 -27 1 90 90 90
42 -27 1 90 90 90
43 -27 1 90 90 90
44 -27 1 90 90 90
45 -27 1 90 90 90
46 -27 1 90 90 90
47 -27 1 90 90 90
48 -27 1 90 90 90
42 -26 1 90 90 90
43 -26 1 90 90 90
44 -26 1 90 90 90
45 -26 1 90 90 90
46 -26 1 90 90 90
47 -26 1 90 90 90
48 -26 1 90 90 90
49 -26 1 90 90 90
42 -25 1 90 90 90
43 -25 1 90 90 90
44 -25 1 90 90 90
45 -25 1 90 90 90
46 -25 1 90 90 90
47 -25 1 90 90 90
48 -25 1 90 90 90
49 -25 1 90 90 90
42 -24 1 90 90 90
43 -24 1 90 90 90
44 -24 1 90 90 90
45 -24 1 90 90 90
46 -24 1 90 90 90
47 -24 1 90 90 90
48 -24 1 90 90 90
49 -24 1 90 90 90
45 -23 1 90 90 90
46 -23 1 90 90 90
47 -23 1 90 90 90
48 -23 1 90 90 90
49 -23 1 90 90 90
41 -30 2 90 90 90
42 -30 2 90 90 90
43 -30 2 90 90 90
44 -30 2 90 90 90
41 -29 2 90 90 90
42 -29 2 90 90 90
43 -29 2 90 90 90
44 -29 2 90 90 90
45 -29 2 90 90 90
46 -29 2 90 90 90
47 -29 2 90 90 90
41 -28 2 90 90 90
42 -28 2 90 90 90
43 -28 2 90 90 90
44 -28 2 90 90 90
45 -28 2 90 90 90
46 -28 2 90 90 90
47 -28 2 90 90 90
41 -27 2 90 90 90
42 -27 2 90 90 90
43 -27 2 90 90 90
44 -27 2 90 90 90
45 -27 2 90 90 90
46 -27 2 90 90 90
47 -27 2 90 90 90
48 -27 2 90 90 90
43 -26 2 90 90 90
44 -26 2 90 90 90
45 -26 2 90 90 90
46 -26 2 90 90 90
47 -26 2 90 90 90
48 -26 2 90 90 90
49 -26 2 90 90 90
43 -25 2 90 90 90
44 -25 2 90 90 90
45 -25 2 90 90 90
46 -25 2 90 90 90
47 -25 2 90 90 90
48 -25 2 90 90 90
49 -25 2 90 90 90
45 -24 2 90 90 90
46 -24 2 90 90 90
47 -24 2 90 90 90
48 -24 2 90 90 90
49 -24 2 90 90 90
45 -23 2 90 90 90
46 -23 2 90 90 90
47 -23 2 90 90 90
48 -23 2 90 90 90
49 -23 2 90 90 90
43 -29 3 90 90 90
44 -29 3 90 90 90
45 -29 3 90 90 90
46 -29 3 90 90 90
47 -29 3 90 90 90
43 -28 3 90 90 90
44 -28 3 90 90 90
45 -28 3 90 90 90
46 -28 3 90 90 90
47 -28 3 90 90 90
43 -27 3 90 90 90
44 -27 3 90 90 90
45 -27 3 90 90 90
46 -27 3 90 90 90
47 -27 3 90 90 90
48 -27 3 90 90 90
43 -26 3 90 90 90
44 -26 3 90 90 90
45 -26 3 90 90 90
46 -26 3 90 90 90
47 -26 3 90 90 90
48 -26 3 90 90 90
43 -25 3 90 90 90
44 -25 3 90 90 90
45 -25 3 90 90 90
46 -25 3 90 90 90
47 -25 3 90 90 90
48 -25 3 90 90 90
46 -24 3 90 90 90
47 -24 3 90 90 90
44 -28 4 90 90 90
45 -28 4 90 90 90
44 -27 4 90 90 90
45 -27 4 90 90 90
46 -27 4 90 90 90
47 -27 4 90 90 90
48 -27 4 90 90 90
44 -26 4 90 90 90
45 -26 4 90 90 90
46 -26 4 90 90 90
47 -26 4 90 90 90
48 -26 4 90 90 90
45 -25 4 90 90 90
46 -25 4 90 90 90
47 -25 4 90 90 90
48 -25 4 90 90 90
46 -24 4 90 90 90
47 -24 4 90 90 90
45 -27 5 90 90 90
46 -27 5 90 90 90
47 -27 5 90 90 90
48 -27 5 90 90 90
45 -26 5 90 90 90
46 -26 5 90 90 90
47 -26 5 90 90 90
48 -26 5 90 90 90
45 -25 5 90 90 90
46 -25 5 90 90 90
47 -25 5 90 90 90
48 -25 5 90 90 90
