ply
format ascii 1.0
comment : MagicaVoxel @ Ephtracy
element vertex 124
property float x
property float y
property float z
property uchar red
property uchar green
property uchar blue
end_header
7 -41 0 100 73 32
8 -41 0 100 73 32
7 -40 0 100 73 32
8 -40 0 100 73 32
7 -43 1 42 130 67
8 -43 1 42 130 67
6 -42 1 42 130 67
7 -42 1 42 130 67
8 -42 1 42 130 67
9 -42 1 42 130 67
5 -41 1 42 130 67
6 -41 1 42 130 67
7 -41 1 42 130 67
8 -41 1 42 130 67
9 -41 1 42 130 67
10 -41 1 42 130 67
5 -40 1 42 130 67
6 -40 1 42 130 67
7 -40 1 42 130 67
8 -40 1 42 130 67
9 -40 1 42 130 67
10 -40 1 42 130 67
6 -39 1 42 130 67
7 -39 1 42 130 67
8 -39 1 42 130 67
9 -39 1 42 130 67
7 -38 1 42 130 67
8 -38 1 42 130 67
7 -43 2 42 130 67
8 -43 2 42 130 67
6 -42 2 42 130 67
7 -42 2 42 130 67
8 -42 2 42 130 67
9 -42 2 42 130 67
5 -41 2 42 130 67
6 -41 2 42 130 67
7 -41 2 42 130 67
8 -41 2 42 130 67
9 -41 2 42 130 67
10 -41 2 42 130 67
5 -40 2 42 130 67
6 -40 2 42 130 67
7 -40 2 42 130 67
8 -40 2 42 130 67
9 -40 2 42 130 67
10 -40 2 42 130 67
6 -39 2 42 130 67
7 -39 2 42 130 67
8 -39 2 42 130 67
9 -39 2 42 130 67
7 -38 2 42 130 67
8 -38 2 42 130 67
7 -43 3 42 130 67
8 -43 3 42 130 67
6 -42 3 42 130 67
7 -42 3 42 130 67
8 -42 3 42 130 67
9 -42 3 42 130 67
5 -41 3 42 130 67
6 -41 3 42 130 67
7 -41 3 42 130 67
8 -41 3 42 130 67
9 -41 3 42 130 67
10 -41 3 42 130 67
5 -40 3 42 130 67
6 -40 3 42 130 67
7 -40 3 42 130 67
8 -40 3 42 130 67
9 -40 3 42 130 67
10 -40 3 42 130 67
6 -39 3 42 130 67
7 -39 3 42 130 67
8 -39 3 42 130 67
9 -39 3 42 130 67
7 -38 3 42 130 67
8 -38 3 42 130 67
6 -42 4 42 130 67
7 -42 4 42 130 67
8 -42 4 42 130 67
9 -42 4 42 130 67
6 -41 4 42 130 67
7 -41 4 42 130 67
8 -41 4 42 130 67
9 -41 4 42 130 67
6 -40 4 42 130 67
7 -40 4 42 130 67
8 -40 4 42 130 67
9 -40 4 42 130 67
6 -39 4 42 130 67
7 -39 4 42 130 67
8 -39 4 42 130 67
9 -39 4 42 130 67
7 -42 5 42 130 67
8 -42 5 42 130 67
6 -41 5 42 130 67
7 -41 5 42 130 67
8 -41 5 42 130 67
9 -41 5 42 130 67
6 -40 5 42 130 67
7 -40 5 42 130 67
8 -40 5 42 130 67
9 -40 5 42 130 67
7 -39 5 42 130 67
8 -39 5 42 130 67
7 -42 6 42 130 67
8 -42 6 42 130 67
6 -41 6 42 130 67
7 -41 6 42 130 67
8 -41 6 42 130 67
9 -41 6 42 130 67
6 -40 6 42 130 67
7 -40 6 42 130 67
8 -40 6 42 130 67
9 -40 6 42 130 67
7 -39 6 42 130 67
8 -39 6 42 130 67
7 -41 7 42 130 67
8 -41 7 42 130 67
7 -40 7 42 130 67
8 -40 7 42 130 67
7 -41 8 42 130 67
8 -41 8 42 130 67
7 -40 8 42 130 67
8 -40 8 42 130 67
