ply
format ascii 1.0
comment : MagicaVoxel @ Ephtracy
element vertex 21
property float x
property float y
property float z
property uchar red
property uchar green
property uchar blue
end_header
-4 -43 0 42 130 67
-8 -42 0 42 130 67
-6 -42 0 38 116 60
-7 -40 0 38 116 60
-4 -40 0 38 116 60
-9 -39 0 38 116 60
-5 -38 0 42 130 67
-8 -37 0 42 130 67
-3 -37 0 38 116 60
-4 -43 1 255 240 147
-8 -42 1 99 171 217
-6 -42 1 38 116 60
-7 -40 1 42 130 67
-4 -40 1 42 130 67
-9 -39 1 255 240 147
-5 -38 1 38 116 60
-8 -37 1 99 171 217
-3 -37 1 35 102 141
-7 -40 2 35 102 141
-4 -40 2 42 130 67
-5 -38 2 255 240 147
