ply
format ascii 1.0
comment : MagicaVoxel @ Ephtracy
element vertex 14
property float x
property float y
property float z
property uchar red
property uchar green
property uchar blue
end_header
47 -41 0 255 240 147
47 -42 1 201 185 94
46 -41 1 201 185 94
47 -41 1 255 240 147
48 -41 1 201 185 94
47 -40 1 201 185 94
47 -42 2 201 185 94
46 -41 2 201 185 94
48 -41 2 201 185 94
47 -40 2 201 185 94
47 -43 3 201 185 94
45 -41 3 201 185 94
49 -41 3 201 185 94
47 -39 3 201 185 94
