ply
format ascii 1.0
comment : MagicaVoxel @ Ephtracy
element vertex 214
property float x
property float y
property float z
property uchar red
property uchar green
property uchar blue
end_header
28 -31 0 90 90 90
29 -31 0 90 90 90
28 -30 0 90 90 90
29 -30 0 90 90 90
30 -30 0 90 90 90
31 -30 0 90 90 90
32 -30 0 90 90 90
29 -29 0 90 90 90
30 -29 0 90 90 90
31 -29 0 90 90 90
32 -29 0 90 90 90
33 -29 0 90 90 90
34 -29 0 90 90 90
35 -29 0 90 90 90
29 -28 0 90 90 90
30 -28 0 90 90 90
31 -28 0 90 90 90
32 -28 0 90 90 90
33 -28 0 90 90 90
34 -28 0 90 90 90
35 -28 0 90 90 90
36 -28 0 90 90 90
29 -27 0 90 90 90
30 -27 0 90 90 90
31 -27 0 90 90 90
32 -27 0 90 90 90
33 -27 0 90 90 90
34 -27 0 90 90 90
35 -27 0 90 90 90
36 -27 0 90 90 90
30 -26 0 90 90 90
31 -26 0 90 90 90
32 -26 0 90 90 90
33 -26 0 90 90 90
34 -26 0 90 90 90
35 -26 0 90 90 90
36 -26 0 90 90 90
37 -26 0 90 90 90
30 -25 0 90 90 90
31 -25 0 90 90 90
32 -25 0 90 90 90
33 -25 0 90 90 90
34 -25 0 90 90 90
35 -25 0 90 90 90
36 -25 0 90 90 90
37 -25 0 90 90 90
30 -24 0 90 90 90
31 -24 0 90 90 90
32 -24 0 90 90 90
33 -24 0 90 90 90
34 -24 0 90 90 90
35 -24 0 90 90 90
36 -24 0 90 90 90
37 -24 0 90 90 90
32 -23 0 90 90 90
33 -23 0 90 90 90
34 -23 0 90 90 90
35 -23 0 90 90 90
36 -23 0 90 90 90
37 -23 0 90 90 90
35 -22 0 90 90 90
36 -22 0 90 90 90
37 -22 0 90 90 90
28 -31 1 90 90 90
29 -31 1 90 90 90
28 -30 1 90 90 90
29 -30 1 90 90 90
30 -30 1 90 90 90
31 -30 1 90 90 90
32 -30 1 90 90 90
29 -29 1 90 90 90
30 -29 1 90 90 90
31 -29 1 90 90 90
32 -29 1 90 90 90
33 -29 1 90 90 90
34 -29 1 90 90 90
35 -29 1 90 90 90
29 -28 1 90 90 90
30 -28 1 90 90 90
31 -28 1 90 90 90
32 -28 1 90 90 90
33 -28 1 90 90 90
34 -28 1 90 90 90
35 -28 1 90 90 90
36 -28 1 90 90 90
29 -27 1 90 90 90
30 -27 1 90 90 90
31 -27 1 90 90 90
32 -27 1 90 90 90
33 -27 1 90 90 90
34 -27 1 90 90 90
35 -27 1 90 90 90
36 -27 1 90 90 90
30 -26 1 90 90 90
31 -26 1 90 90 90
32 -26 1 90 90 90
33 -26 1 90 90 90
34 -26 1 90 90 90
35 -26 1 90 90 90
36 -26 1 90 90 90
30 -25 1 90 90 90
31 -25 1 90 90 90
32 -25 1 90 90 90
33 -25 1 90 90 90
34 -25 1 90 90 90
35 -25 1 90 90 90
36 -25 1 90 90 90
30 -24 1 90 90 90
31 -24 1 90 90 90
32 -24 1 90 90 90
33 -24 1 90 90 90
34 -24 1 90 90 90
35 -24 1 90 90 90
36 -24 1 90 90 90
32 -23 1 90 90 90
33 -23 1 90 90 90
34 -23 1 90 90 90
35 -23 1 90 90 90
36 -23 1 90 90 90
29 -30 2 90 90 90
30 -30 2 90 90 90
31 -30 2 90 90 90
32 -30 2 90 90 90
29 -29 2 90 90 90
30 -29 2 90 90 90
31 -29 2 90 90 90
32 -29 2 90 90 90
33 -29 2 90 90 90
34 -29 2 90 90 90
35 -29 2 90 90 90
29 -28 2 90 90 90
30 -28 2 90 90 90
31 -28 2 90 90 90
32 -28 2 90 90 90
33 -28 2 90 90 90
34 -28 2 90 90 90
35 -28 2 90 90 90
36 -28 2 90 90 90
29 -27 2 90 90 90
30 -27 2 90 90 90
31 -27 2 90 90 90
32 -27 2 90 90 90
33 -27 2 90 90 90
34 -27 2 90 90 90
35 -27 2 90 90 90
36 -27 2 90 90 90
30 -26 2 90 90 90
31 -26 2 90 90 90
32 -26 2 90 90 90
33 -26 2 90 90 90
34 -26 2 90 90 90
35 -26 2 90 90 90
36 -26 2 90 90 90
30 -25 2 90 90 90
31 -25 2 90 90 90
32 -25 2 90 90 90
33 -25 2 90 90 90
34 -25 2 90 90 90
35 -25 2 90 90 90
36 -25 2 90 90 90
30 -24 2 90 90 90
31 -24 2 90 90 90
32 -24 2 90 90 90
33 -24 2 90 90 90
34 -24 2 90 90 90
35 -24 2 90 90 90
36 -24 2 90 90 90
32 -23 2 90 90 90
33 -23 2 90 90 90
34 -23 2 90 90 90
35 -23 2 90 90 90
36 -23 2 90 90 90
31 -29 3 90 90 90
32 -29 3 90 90 90
33 -29 3 90 90 90
34 -29 3 90 90 90
35 -29 3 90 90 90
31 -28 3 90 90 90
32 -28 3 90 90 90
33 -28 3 90 90 90
34 -28 3 90 90 90
35 -28 3 90 90 90
31 -27 3 90 90 90
32 -27 3 90 90 90
33 -27 3 90 90 90
34 -27 3 90 90 90
35 -27 3 90 90 90
30 -26 3 90 90 90
31 -26 3 90 90 90
32 -26 3 90 90 90
33 -26 3 90 90 90
34 -26 3 90 90 90
35 -26 3 90 90 90
30 -25 3 90 90 90
31 -25 3 90 90 90
32 -25 3 90 90 90
33 -25 3 90 90 90
34 -25 3 90 90 90
35 -25 3 90 90 90
30 -24 3 90 90 90
31 -24 3 90 90 90
32 -24 3 90 90 90
33 -24 3 90 90 90
34 -24 3 90 90 90
35 -24 3 90 90 90
30 -26 4 90 90 90
31 -26 4 90 90 90
32 -26 4 90 90 90
30 -25 4 90 90 90
31 -25 4 90 90 90
32 -25 4 90 90 90
30 -24 4 90 90 90
31 -24 4 90 90 90
32 -24 4 90 90 90
