ply
format ascii 1.0
comment : MagicaVoxel @ Ephtracy
element vertex 18
property float x
property float y
property float z
property uchar red
property uchar green
property uchar blue
end_header
-14 -14 0 42 130 67
-14 -14 1 42 130 67
-14 -16 2 105 64 168
-16 -14 2 105 64 168
-14 -14 2 42 130 67
-12 -14 2 105 64 168
-14 -12 2 105 64 168
-14 -15 3 105 64 168
-15 -14 3 105 64 168
-14 -14 3 42 130 67
-13 -14 3 105 64 168
-14 -13 3 105 64 168
-14 -15 4 105 64 168
-15 -14 4 105 64 168
-14 -14 4 163 127 217
-13 -14 4 105 64 168
-14 -13 4 105 64 168
-14 -14 5 163 127 217
