ply
format ascii 1.0
comment : MagicaVoxel @ Ephtracy
element vertex 384
property float x
property float y
property float z
property uchar red
property uchar green
property uchar blue
end_header
8 -31 0 90 90 90
9 -31 0 90 90 90
10 -31 0 90 90 90
11 -31 0 90 90 90
12 -31 0 90 90 90
5 -30 0 90 90 90
6 -30 0 90 90 90
7 -30 0 90 90 90
8 -30 0 90 90 90
9 -30 0 90 90 90
10 -30 0 90 90 90
11 -30 0 90 90 90
12 -30 0 90 90 90
13 -30 0 90 90 90
5 -29 0 90 90 90
6 -29 0 90 90 90
7 -29 0 90 90 90
8 -29 0 90 90 90
9 -29 0 90 90 90
10 -29 0 90 90 90
11 -29 0 90 90 90
12 -29 0 90 90 90
13 -29 0 90 90 90
4 -28 0 90 90 90
5 -28 0 90 90 90
6 -28 0 90 90 90
7 -28 0 90 90 90
8 -28 0 90 90 90
9 -28 0 90 90 90
10 -28 0 90 90 90
11 -28 0 90 90 90
12 -28 0 90 90 90
13 -28 0 90 90 90
4 -27 0 90 90 90
5 -27 0 90 90 90
6 -27 0 90 90 90
7 -27 0 90 90 90
8 -27 0 90 90 90
9 -27 0 90 90 90
10 -27 0 90 90 90
11 -27 0 90 90 90
12 -27 0 90 90 90
13 -27 0 90 90 90
4 -26 0 90 90 90
5 -26 0 90 90 90
6 -26 0 90 90 90
7 -26 0 90 90 90
8 -26 0 90 90 90
9 -26 0 90 90 90
10 -26 0 90 90 90
11 -26 0 90 90 90
12 -26 0 90 90 90
13 -26 0 90 90 90
4 -25 0 90 90 90
5 -25 0 90 90 90
6 -25 0 90 90 90
7 -25 0 90 90 90
8 -25 0 90 90 90
9 -25 0 90 90 90
10 -25 0 90 90 90
11 -25 0 90 90 90
12 -25 0 90 90 90
5 -24 0 90 90 90
6 -24 0 90 90 90
7 -24 0 90 90 90
8 -24 0 90 90 90
9 -24 0 90 90 90
10 -24 0 90 90 90
11 -24 0 90 90 90
5 -23 0 90 90 90
6 -23 0 90 90 90
7 -23 0 90 90 90
8 -23 0 90 90 90
9 -23 0 90 90 90
10 -23 0 90 90 90
11 -23 0 90 90 90
6 -22 0 90 90 90
7 -22 0 90 90 90
8 -22 0 90 90 90
9 -22 0 90 90 90
10 -22 0 90 90 90
8 -31 1 90 90 90
9 -31 1 90 90 90
10 -31 1 90 90 90
11 -31 1 90 90 90
12 -31 1 90 90 90
5 -30 1 90 90 90
6 -30 1 90 90 90
7 -30 1 90 90 90
8 -30 1 90 90 90
9 -30 1 90 90 90
10 -30 1 90 90 90
11 -30 1 90 90 90
12 -30 1 90 90 90
13 -30 1 90 90 90
5 -29 1 90 90 90
6 -29 1 90 90 90
7 -29 1 90 90 90
8 -29 1 90 90 90
9 -29 1 90 90 90
10 -29 1 90 90 90
11 -29 1 90 90 90
12 -29 1 90 90 90
13 -29 1 90 90 90
5 -28 1 90 90 90
6 -28 1 90 90 90
7 -28 1 90 90 90
8 -28 1 90 90 90
9 -28 1 90 90 90
10 -28 1 90 90 90
11 -28 1 90 90 90
12 -28 1 90 90 90
13 -28 1 90 90 90
5 -27 1 90 90 90
6 -27 1 90 90 90
7 -27 1 90 90 90
8 -27 1 90 90 90
9 -27 1 90 90 90
10 -27 1 90 90 90
11 -27 1 90 90 90
12 -27 1 90 90 90
13 -27 1 90 90 90
5 -26 1 90 90 90
6 -26 1 90 90 90
7 -26 1 90 90 90
8 -26 1 90 90 90
9 -26 1 90 90 90
10 -26 1 90 90 90
11 -26 1 90 90 90
12 -26 1 90 90 90
13 -26 1 90 90 90
5 -25 1 90 90 90
6 -25 1 90 90 90
7 -25 1 90 90 90
8 -25 1 90 90 90
9 -25 1 90 90 90
10 -25 1 90 90 90
11 -25 1 90 90 90
12 -25 1 90 90 90
5 -24 1 90 90 90
6 -24 1 90 90 90
7 -24 1 90 90 90
8 -24 1 90 90 90
9 -24 1 90 90 90
10 -24 1 90 90 90
11 -24 1 90 90 90
5 -23 1 90 90 90
6 -23 1 90 90 90
7 -23 1 90 90 90
8 -23 1 90 90 90
9 -23 1 90 90 90
10 -23 1 90 90 90
11 -23 1 90 90 90
6 -22 1 90 90 90
7 -22 1 90 90 90
8 -22 1 90 90 90
9 -22 1 90 90 90
10 -22 1 90 90 90
5 -30 2 90 90 90
6 -30 2 90 90 90
7 -30 2 90 90 90
8 -30 2 90 90 90
9 -30 2 90 90 90
10 -30 2 90 90 90
11 -30 2 90 90 90
12 -30 2 90 90 90
13 -30 2 90 90 90
5 -29 2 90 90 90
6 -29 2 90 90 90
7 -29 2 90 90 90
8 -29 2 90 90 90
9 -29 2 90 90 90
10 -29 2 90 90 90
11 -29 2 90 90 90
12 -29 2 90 90 90
13 -29 2 90 90 90
5 -28 2 90 90 90
6 -28 2 90 90 90
7 -28 2 90 90 90
8 -28 2 90 90 90
9 -28 2 90 90 90
10 -28 2 90 90 90
11 -28 2 90 90 90
12 -28 2 90 90 90
13 -28 2 90 90 90
5 -27 2 90 90 90
6 -27 2 90 90 90
7 -27 2 90 90 90
8 -27 2 90 90 90
9 -27 2 90 90 90
10 -27 2 90 90 90
11 -27 2 90 90 90
12 -27 2 90 90 90
13 -27 2 90 90 90
5 -26 2 90 90 90
6 -26 2 90 90 90
7 -26 2 90 90 90
8 -26 2 90 90 90
9 -26 2 90 90 90
10 -26 2 90 90 90
11 -26 2 90 90 90
12 -26 2 90 90 90
13 -26 2 90 90 90
6 -25 2 90 90 90
7 -25 2 90 90 90
8 -25 2 90 90 90
9 -25 2 90 90 90
10 -25 2 90 90 90
11 -25 2 90 90 90
12 -25 2 90 90 90
6 -24 2 90 90 90
7 -24 2 90 90 90
8 -24 2 90 90 90
9 -24 2 90 90 90
10 -24 2 90 90 90
11 -24 2 90 90 90
6 -23 2 90 90 90
7 -23 2 90 90 90
8 -23 2 90 90 90
9 -23 2 90 90 90
10 -23 2 90 90 90
11 -23 2 90 90 90
6 -22 2 90 90 90
7 -22 2 90 90 90
8 -22 2 90 90 90
9 -22 2 90 90 90
10 -22 2 90 90 90
8 -30 3 90 90 90
9 -30 3 90 90 90
10 -30 3 90 90 90
11 -30 3 90 90 90
6 -29 3 90 90 90
7 -29 3 90 90 90
8 -29 3 90 90 90
9 -29 3 90 90 90
10 -29 3 90 90 90
11 -29 3 90 90 90
12 -29 3 90 90 90
6 -28 3 90 90 90
7 -28 3 90 90 90
8 -28 3 90 90 90
9 -28 3 90 90 90
10 -28 3 90 90 90
11 -28 3 90 90 90
12 -28 3 90 90 90
6 -27 3 90 90 90
7 -27 3 90 90 90
8 -27 3 90 90 90
9 -27 3 90 90 90
10 -27 3 90 90 90
11 -27 3 90 90 90
12 -27 3 90 90 90
6 -26 3 90 90 90
7 -26 3 90 90 90
8 -26 3 90 90 90
9 -26 3 90 90 90
10 -26 3 90 90 90
11 -26 3 90 90 90
12 -26 3 90 90 90
6 -25 3 90 90 90
7 -25 3 90 90 90
8 -25 3 90 90 90
9 -25 3 90 90 90
10 -25 3 90 90 90
11 -25 3 90 90 90
12 -25 3 90 90 90
7 -24 3 90 90 90
8 -24 3 90 90 90
9 -24 3 90 90 90
10 -24 3 90 90 90
11 -24 3 90 90 90
8 -23 3 90 90 90
9 -23 3 90 90 90
10 -23 3 90 90 90
11 -23 3 90 90 90
9 -22 3 90 90 90
10 -22 3 90 90 90
8 -30 4 90 90 90
9 -30 4 90 90 90
6 -29 4 90 90 90
7 -29 4 90 90 90
8 -29 4 90 90 90
9 -29 4 90 90 90
10 -29 4 90 90 90
11 -29 4 90 90 90
12 -29 4 90 90 90
6 -28 4 90 90 90
7 -28 4 90 90 90
8 -28 4 90 90 90
9 -28 4 90 90 90
10 -28 4 90 90 90
11 -28 4 90 90 90
12 -28 4 90 90 90
6 -27 4 90 90 90
7 -27 4 90 90 90
8 -27 4 90 90 90
9 -27 4 90 90 90
10 -27 4 90 90 90
11 -27 4 90 90 90
12 -27 4 90 90 90
7 -26 4 90 90 90
8 -26 4 90 90 90
9 -26 4 90 90 90
10 -26 4 90 90 90
11 -26 4 90 90 90
12 -26 4 90 90 90
7 -25 4 90 90 90
8 -25 4 90 90 90
9 -25 4 90 90 90
10 -25 4 90 90 90
11 -25 4 90 90 90
12 -25 4 90 90 90
7 -24 4 90 90 90
8 -24 4 90 90 90
9 -24 4 90 90 90
10 -24 4 90 90 90
11 -24 4 90 90 90
8 -23 4 90 90 90
9 -23 4 90 90 90
10 -23 4 90 90 90
11 -23 4 90 90 90
6 -29 5 90 90 90
7 -29 5 90 90 90
8 -29 5 90 90 90
9 -29 5 90 90 90
10 -29 5 90 90 90
11 -29 5 90 90 90
12 -29 5 90 90 90
6 -28 5 90 90 90
7 -28 5 90 90 90
8 -28 5 90 90 90
9 -28 5 90 90 90
10 -28 5 90 90 90
11 -28 5 90 90 90
12 -28 5 90 90 90
6 -27 5 90 90 90
7 -27 5 90 90 90
8 -27 5 90 90 90
9 -27 5 90 90 90
10 -27 5 90 90 90
11 -27 5 90 90 90
12 -27 5 90 90 90
7 -26 5 90 90 90
8 -26 5 90 90 90
9 -26 5 90 90 90
10 -26 5 90 90 90
11 -26 5 90 90 90
12 -26 5 90 90 90
7 -25 5 90 90 90
8 -25 5 90 90 90
9 -25 5 90 90 90
10 -25 5 90 90 90
11 -25 5 90 90 90
12 -25 5 90 90 90
9 -24 5 90 90 90
10 -24 5 90 90 90
11 -24 5 90 90 90
9 -23 5 90 90 90
10 -23 5 90 90 90
11 -23 5 90 90 90
7 -28 6 90 90 90
8 -28 6 90 90 90
9 -28 6 90 90 90
10 -28 6 90 90 90
11 -28 6 90 90 90
7 -27 6 90 90 90
8 -27 6 90 90 90
9 -27 6 90 90 90
10 -27 6 90 90 90
11 -27 6 90 90 90
7 -26 6 90 90 90
8 -26 6 90 90 90
9 -26 6 90 90 90
10 -26 6 90 90 90
11 -26 6 90 90 90
7 -25 6 90 90 90
8 -25 6 90 90 90
9 -25 6 90 90 90
10 -25 6 90 90 90
8 -27 7 90 90 90
9 -27 7 90 90 90
10 -27 7 90 90 90
8 -26 7 90 90 90
9 -26 7 90 90 90
