# MagicaVoxel @ Ephtracy

# group
o 

# material
mtllib rose.mtl
usemtl palette

# normals
vn -1 0 0
vn 1 0 0
vn 0 0 1
vn 0 0 -1
vn 0 -1 0
vn 0 1 0

# texcoords
vt 0.0332031 0.5
vt 0.0371094 0.5
vt 0.130859 0.5
vt 0.134766 0.5
vt 0.138672 0.5

# verts
v -0.1 0.4 0.1
v -0.1 0.4 1.49012e-008
v -0.1 0.4 -0.1
v -0.1 0.4 -0.2
v -0.1 0.5 0.1
v -0.1 0.5 1.49012e-008
v -0.1 0.5 -0.1
v -0.1 0.5 -0.2
v -0.1 0.6 1.49012e-008
v -0.1 0.6 -0.1
v -1.49012e-008 0 1.49012e-008
v -1.49012e-008 0 -0.1
v -1.49012e-008 0.2 0.1
v -1.49012e-008 0.2 1.49012e-008
v -1.49012e-008 0.3 0.1
v -1.49012e-008 0.3 1.49012e-008
v -1.49012e-008 0.4 1.49012e-008
v -1.49012e-008 0.4 -0.1
v -1.49012e-008 0.5 0.1
v -1.49012e-008 0.5 1.49012e-008
v -1.49012e-008 0.5 -0.1
v -1.49012e-008 0.5 -0.2
v -1.49012e-008 0.6 0.1
v -1.49012e-008 0.6 1.49012e-008
v -1.49012e-008 0.6 -0.1
v -1.49012e-008 0.6 -0.2
v 0.1 0 1.49012e-008
v 0.1 0 -0.1
v 0.1 0.1 1.49012e-008
v 0.1 0.1 -0.1
v 0.1 0.2 0.1
v 0.1 0.2 1.49012e-008
v 0.1 0.2 -0.1
v 0.1 0.3 0.1
v 0.1 0.3 1.49012e-008
v 0.1 0.4 1.49012e-008
v 0.1 0.4 -0.1
v 0.1 0.5 0.1
v 0.1 0.5 1.49012e-008
v 0.1 0.5 -0.1
v 0.1 0.5 -0.2
v 0.1 0.6 0.1
v 0.1 0.6 1.49012e-008
v 0.1 0.6 -0.1
v 0.1 0.6 -0.2
v 0.2 0.1 1.49012e-008
v 0.2 0.1 -0.1
v 0.2 0.2 1.49012e-008
v 0.2 0.2 -0.1
v 0.2 0.4 0.1
v 0.2 0.4 1.49012e-008
v 0.2 0.4 -0.1
v 0.2 0.4 -0.2
v 0.2 0.5 0.1
v 0.2 0.5 1.49012e-008
v 0.2 0.5 -0.1
v 0.2 0.5 -0.2
v 0.2 0.6 1.49012e-008
v 0.2 0.6 -0.1
v -0.1 0.4 0.1
v -0.1 0.5 0.1
v -1.49012e-008 0.2 0.1
v -1.49012e-008 0.3 0.1
v -1.49012e-008 0.4 0.1
v -1.49012e-008 0.5 0.1
v -1.49012e-008 0.6 0.1
v 0.1 0.2 0.1
v 0.1 0.3 0.1
v 0.1 0.4 0.1
v 0.1 0.5 0.1
v 0.1 0.6 0.1
v 0.2 0.4 0.1
v 0.2 0.5 0.1
v -0.1 0.5 1.49012e-008
v -0.1 0.6 1.49012e-008
v -1.49012e-008 0 1.49012e-008
v -1.49012e-008 0.2 1.49012e-008
v -1.49012e-008 0.3 1.49012e-008
v -1.49012e-008 0.4 1.49012e-008
v -1.49012e-008 0.5 1.49012e-008
v -1.49012e-008 0.6 1.49012e-008
v 0.1 0 1.49012e-008
v 0.1 0.1 1.49012e-008
v 0.1 0.2 1.49012e-008
v 0.1 0.3 1.49012e-008
v 0.1 0.4 1.49012e-008
v 0.1 0.5 1.49012e-008
v 0.1 0.6 1.49012e-008
v 0.2 0.1 1.49012e-008
v 0.2 0.2 1.49012e-008
v 0.2 0.5 1.49012e-008
v 0.2 0.6 1.49012e-008
v -0.1 0.5 -0.1
v -0.1 0.6 -0.1
v -1.49012e-008 0 -0.1
v -1.49012e-008 0.4 -0.1
v -1.49012e-008 0.5 -0.1
v -1.49012e-008 0.6 -0.1
v 0.1 0 -0.1
v 0.1 0.1 -0.1
v 0.1 0.2 -0.1
v 0.1 0.4 -0.1
v 0.1 0.5 -0.1
v 0.1 0.6 -0.1
v 0.2 0.1 -0.1
v 0.2 0.2 -0.1
v 0.2 0.5 -0.1
v 0.2 0.6 -0.1
v -0.1 0.4 -0.2
v -0.1 0.5 -0.2
v -1.49012e-008 0.4 -0.2
v -1.49012e-008 0.5 -0.2
v -1.49012e-008 0.6 -0.2
v 0.1 0.4 -0.2
v 0.1 0.5 -0.2
v 0.1 0.6 -0.2
v 0.2 0.4 -0.2
v 0.2 0.5 -0.2
v -1.49012e-008 0 1.49012e-008
v 0.1 0 1.49012e-008
v -1.49012e-008 0 -0.1
v 0.1 0 -0.1
v 0.1 0.1 1.49012e-008
v 0.2 0.1 1.49012e-008
v 0.1 0.1 -0.1
v 0.2 0.1 -0.1
v -1.49012e-008 0.2 0.1
v 0.1 0.2 0.1
v -1.49012e-008 0.2 1.49012e-008
v 0.1 0.2 1.49012e-008
v -0.1 0.4 0.1
v -1.49012e-008 0.4 0.1
v 0.1 0.4 0.1
v 0.2 0.4 0.1
v -0.1 0.4 1.49012e-008
v -1.49012e-008 0.4 1.49012e-008
v 0.1 0.4 1.49012e-008
v 0.2 0.4 1.49012e-008
v -0.1 0.4 -0.1
v -1.49012e-008 0.4 -0.1
v 0.1 0.4 -0.1
v 0.2 0.4 -0.1
v -0.1 0.4 -0.2
v -1.49012e-008 0.4 -0.2
v 0.1 0.4 -0.2
v 0.2 0.4 -0.2
v 0.1 0.2 1.49012e-008
v 0.2 0.2 1.49012e-008
v 0.1 0.2 -0.1
v 0.2 0.2 -0.1
v -1.49012e-008 0.3 0.1
v 0.1 0.3 0.1
v -1.49012e-008 0.3 1.49012e-008
v 0.1 0.3 1.49012e-008
v -0.1 0.5 0.1
v -1.49012e-008 0.5 0.1
v 0.1 0.5 0.1
v 0.2 0.5 0.1
v -0.1 0.5 1.49012e-008
v -1.49012e-008 0.5 1.49012e-008
v 0.1 0.5 1.49012e-008
v 0.2 0.5 1.49012e-008
v -0.1 0.5 -0.1
v -1.49012e-008 0.5 -0.1
v 0.1 0.5 -0.1
v 0.2 0.5 -0.1
v -0.1 0.5 -0.2
v -1.49012e-008 0.5 -0.2
v 0.1 0.5 -0.2
v 0.2 0.5 -0.2
v -1.49012e-008 0.6 0.1
v 0.1 0.6 0.1
v -0.1 0.6 1.49012e-008
v -1.49012e-008 0.6 1.49012e-008
v 0.1 0.6 1.49012e-008
v 0.2 0.6 1.49012e-008
v -0.1 0.6 -0.1
v -1.49012e-008 0.6 -0.1
v 0.1 0.6 -0.1
v 0.2 0.6 -0.1
v -1.49012e-008 0.6 -0.2
v 0.1 0.6 -0.2

# faces
f 5/4/1 2/4/1 1/4/1
f 6/3/1 3/3/1 2/3/1
f 6/4/1 2/4/1 5/4/1
f 7/4/1 4/4/1 3/4/1
f 7/3/1 3/3/1 6/3/1
f 8/4/1 4/4/1 7/4/1
f 9/4/1 7/4/1 6/4/1
f 10/4/1 7/4/1 9/4/1
f 14/2/1 12/2/1 11/2/1
f 15/1/1 14/1/1 13/1/1
f 16/2/1 12/2/1 14/2/1
f 16/1/1 14/1/1 15/1/1
f 17/2/1 12/2/1 16/2/1
f 18/2/1 12/2/1 17/2/1
f 23/4/1 20/4/1 19/4/1
f 24/4/1 20/4/1 23/4/1
f 25/4/1 22/4/1 21/4/1
f 26/4/1 22/4/1 25/4/1
f 27/2/2 28/2/2 29/2/2
f 29/2/2 28/2/2 30/2/2
f 31/1/2 32/1/2 34/1/2
f 32/2/2 33/2/2 35/2/2
f 34/1/2 32/1/2 35/1/2
f 35/2/2 33/2/2 36/2/2
f 36/2/2 33/2/2 37/2/2
f 38/4/2 39/4/2 42/4/2
f 42/4/2 39/4/2 43/4/2
f 40/4/2 41/4/2 44/4/2
f 44/4/2 41/4/2 45/4/2
f 46/1/2 47/1/2 48/1/2
f 48/1/2 47/1/2 49/1/2
f 50/4/2 51/4/2 54/4/2
f 51/3/2 52/3/2 55/3/2
f 54/4/2 51/4/2 55/4/2
f 52/4/2 53/4/2 56/4/2
f 55/3/2 52/3/2 56/3/2
f 56/4/2 53/4/2 57/4/2
f 55/4/2 56/4/2 58/4/2
f 58/4/2 56/4/2 59/4/2
f 64/4/3 61/4/3 60/4/3
f 65/4/3 61/4/3 64/4/3
f 67/1/3 63/1/3 62/1/3
f 68/1/3 63/1/3 67/1/3
f 69/3/3 65/3/3 64/3/3
f 70/4/3 66/4/3 65/4/3
f 70/3/3 65/3/3 69/3/3
f 71/4/3 66/4/3 70/4/3
f 72/4/3 70/4/3 69/4/3
f 73/4/3 70/4/3 72/4/3
f 80/4/3 75/4/3 74/4/3
f 81/4/3 75/4/3 80/4/3
f 82/2/3 77/2/3 76/2/3
f 83/2/3 77/2/3 82/2/3
f 84/2/3 77/2/3 83/2/3
f 85/2/3 79/2/3 78/2/3
f 86/2/3 79/2/3 85/2/3
f 89/1/3 84/1/3 83/1/3
f 90/1/3 84/1/3 89/1/3
f 91/4/3 88/4/3 87/4/3
f 92/4/3 88/4/3 91/4/3
f 93/4/4 94/4/4 97/4/4
f 97/4/4 94/4/4 98/4/4
f 95/2/4 96/2/4 99/2/4
f 99/2/4 96/2/4 100/2/4
f 100/2/4 96/2/4 101/2/4
f 101/2/4 96/2/4 102/2/4
f 100/1/4 101/1/4 105/1/4
f 105/1/4 101/1/4 106/1/4
f 103/4/4 104/4/4 107/4/4
f 107/4/4 104/4/4 108/4/4
f 109/4/4 110/4/4 111/4/4
f 111/4/4 110/4/4 112/4/4
f 111/3/4 112/3/4 114/3/4
f 112/4/4 113/4/4 115/4/4
f 114/3/4 112/3/4 115/3/4
f 115/4/4 113/4/4 116/4/4
f 114/4/4 115/4/4 117/4/4
f 117/4/4 115/4/4 118/4/4
f 121/2/5 120/2/5 119/2/5
f 122/2/5 120/2/5 121/2/5
f 125/1/5 124/1/5 123/1/5
f 126/1/5 124/1/5 125/1/5
f 129/1/5 128/1/5 127/1/5
f 130/1/5 128/1/5 129/1/5
f 135/4/5 132/4/5 131/4/5
f 136/3/5 133/3/5 132/3/5
f 136/4/5 132/4/5 135/4/5
f 137/4/5 134/4/5 133/4/5
f 137/3/5 133/3/5 136/3/5
f 138/4/5 134/4/5 137/4/5
f 139/3/5 136/3/5 135/3/5
f 140/3/5 136/3/5 139/3/5
f 141/3/5 138/3/5 137/3/5
f 142/3/5 138/3/5 141/3/5
f 143/4/5 140/4/5 139/4/5
f 144/3/5 141/3/5 140/3/5
f 144/4/5 140/4/5 143/4/5
f 145/4/5 142/4/5 141/4/5
f 145/3/5 141/3/5 144/3/5
f 146/4/5 142/4/5 145/4/5
f 147/1/6 148/1/6 149/1/6
f 149/1/6 148/1/6 150/1/6
f 151/1/6 152/1/6 153/1/6
f 153/1/6 152/1/6 154/1/6
f 155/4/6 156/4/6 159/4/6
f 159/4/6 156/4/6 160/4/6
f 157/4/6 158/4/6 161/4/6
f 161/4/6 158/4/6 162/4/6
f 163/4/6 164/4/6 167/4/6
f 167/4/6 164/4/6 168/4/6
f 165/4/6 166/4/6 169/4/6
f 169/4/6 166/4/6 170/4/6
f 171/4/6 172/4/6 174/4/6
f 174/4/6 172/4/6 175/4/6
f 173/4/6 174/4/6 177/4/6
f 174/3/6 175/3/6 178/3/6
f 177/4/6 174/4/6 178/4/6
f 175/4/6 176/4/6 179/4/6
f 178/3/6 175/3/6 179/3/6
f 179/4/6 176/4/6 180/4/6
f 178/4/6 179/4/6 181/4/6
f 181/4/6 179/4/6 182/4/6
