# MagicaVoxel @ Ephtracy

# group
o 

# material
mtllib mushroom.mtl
usemtl palette

# normals
vn -1 0 0
vn 1 0 0
vn 0 0 1
vn 0 0 -1
vn 0 -1 0
vn 0 1 0

# texcoords
vt 0.00976563 0.5
vt 0.134766 0.5

# verts
v -0.3 0.1 0.3
v -0.3 0.1 0
v -0.3 0.2 0.3
v -0.3 0.2 0
v -0.2 0 0.2
v -0.2 0 0.1
v -0.2 0.1 0.2
v -0.2 0.1 0.1
v -0.2 0.3 -0.1
v -0.2 0.3 -0.4
v -0.2 0.4 -0.1
v -0.2 0.4 -0.4
v -0.1 0 -0.2
v -0.1 0 -0.3
v -0.1 0.3 -0.2
v -0.1 0.3 -0.3
v 0.1 0.2 0.2
v 0.1 0.2 -0.1
v 0.1 0.3 0.2
v 0.1 0.3 -0.1
v 0.2 0 0.1
v 0.2 0 0
v 0.2 0.2 0.1
v 0.2 0.2 0
v -0.1 0 0.2
v -0.1 0 0.1
v -0.1 0.1 0.2
v -0.1 0.1 0.1
v 0 0 -0.2
v 0 0 -0.3
v 0 0.1 0.3
v 0 0.1 0
v 0 0.2 0.3
v 0 0.2 0
v 0 0.3 -0.2
v 0 0.3 -0.3
v 0.1 0.3 -0.1
v 0.1 0.3 -0.4
v 0.1 0.4 -0.1
v 0.1 0.4 -0.4
v 0.3 0 0.1
v 0.3 0 0
v 0.3 0.2 0.1
v 0.3 0.2 0
v 0.4 0.2 0.2
v 0.4 0.2 -0.1
v 0.4 0.3 0.2
v 0.4 0.3 -0.1
v -0.3 0.1 0.3
v -0.3 0.2 0.3
v 0 0.1 0.3
v 0 0.2 0.3
v -0.2 0 0.2
v -0.2 0.1 0.2
v -0.1 0 0.2
v -0.1 0.1 0.2
v 0.1 0.2 0.2
v 0.1 0.3 0.2
v 0.4 0.2 0.2
v 0.4 0.3 0.2
v 0.2 0 0.1
v 0.2 0.2 0.1
v 0.3 0 0.1
v 0.3 0.2 0.1
v -0.2 0.3 -0.1
v -0.2 0.4 -0.1
v 0.1 0.3 -0.1
v 0.1 0.4 -0.1
v -0.1 0 -0.2
v -0.1 0.3 -0.2
v 0 0 -0.2
v 0 0.3 -0.2
v -0.2 0 0.1
v -0.2 0.1 0.1
v -0.1 0 0.1
v -0.1 0.1 0.1
v -0.3 0.1 0
v -0.3 0.2 0
v 0 0.1 0
v 0 0.2 0
v 0.2 0 0
v 0.2 0.2 0
v 0.3 0 0
v 0.3 0.2 0
v 0.1 0.2 -0.1
v 0.1 0.3 -0.1
v 0.4 0.2 -0.1
v 0.4 0.3 -0.1
v -0.1 0 -0.3
v -0.1 0.3 -0.3
v 0 0 -0.3
v 0 0.3 -0.3
v -0.2 0.3 -0.4
v -0.2 0.4 -0.4
v 0.1 0.3 -0.4
v 0.1 0.4 -0.4
v -0.2 0 0.2
v -0.1 0 0.2
v -0.2 0 0.1
v -0.1 0 0.1
v 0.2 0 0.1
v 0.3 0 0.1
v 0.2 0 0
v 0.3 0 0
v -0.1 0 -0.2
v 0 0 -0.2
v -0.1 0 -0.3
v 0 0 -0.3
v -0.3 0.1 0.3
v 0 0.1 0.3
v -0.2 0.1 0.2
v -0.1 0.1 0.2
v -0.2 0.1 0.1
v -0.1 0.1 0.1
v -0.3 0.1 0
v 0 0.1 0
v 0.1 0.2 0.2
v 0.4 0.2 0.2
v 0.2 0.2 0.1
v 0.3 0.2 0.1
v 0.2 0.2 0
v 0.3 0.2 0
v 0.1 0.2 -0.1
v 0.4 0.2 -0.1
v -0.2 0.3 -0.1
v 0.1 0.3 -0.1
v -0.1 0.3 -0.2
v 0 0.3 -0.2
v -0.1 0.3 -0.3
v 0 0.3 -0.3
v -0.2 0.3 -0.4
v 0.1 0.3 -0.4
v -0.3 0.2 0.3
v 0 0.2 0.3
v -0.3 0.2 0
v 0 0.2 0
v 0.1 0.3 0.2
v 0.4 0.3 0.2
v 0.1 0.3 -0.1
v 0.4 0.3 -0.1
v -0.2 0.4 -0.1
v 0.1 0.4 -0.1
v -0.2 0.4 -0.4
v 0.1 0.4 -0.4

# faces
f 3/2/1 2/2/1 1/2/1
f 4/2/1 2/2/1 3/2/1
f 7/1/1 6/1/1 5/1/1
f 8/1/1 6/1/1 7/1/1
f 11/2/1 10/2/1 9/2/1
f 12/2/1 10/2/1 11/2/1
f 15/1/1 14/1/1 13/1/1
f 16/1/1 14/1/1 15/1/1
f 19/2/1 18/2/1 17/2/1
f 20/2/1 18/2/1 19/2/1
f 23/1/1 22/1/1 21/1/1
f 24/1/1 22/1/1 23/1/1
f 25/1/2 26/1/2 27/1/2
f 27/1/2 26/1/2 28/1/2
f 31/2/2 32/2/2 33/2/2
f 33/2/2 32/2/2 34/2/2
f 29/1/2 30/1/2 35/1/2
f 35/1/2 30/1/2 36/1/2
f 37/2/2 38/2/2 39/2/2
f 39/2/2 38/2/2 40/2/2
f 41/1/2 42/1/2 43/1/2
f 43/1/2 42/1/2 44/1/2
f 45/2/2 46/2/2 47/2/2
f 47/2/2 46/2/2 48/2/2
f 51/2/3 50/2/3 49/2/3
f 52/2/3 50/2/3 51/2/3
f 55/1/3 54/1/3 53/1/3
f 56/1/3 54/1/3 55/1/3
f 59/2/3 58/2/3 57/2/3
f 60/2/3 58/2/3 59/2/3
f 63/1/3 62/1/3 61/1/3
f 64/1/3 62/1/3 63/1/3
f 67/2/3 66/2/3 65/2/3
f 68/2/3 66/2/3 67/2/3
f 71/1/3 70/1/3 69/1/3
f 72/1/3 70/1/3 71/1/3
f 73/1/4 74/1/4 75/1/4
f 75/1/4 74/1/4 76/1/4
f 77/2/4 78/2/4 79/2/4
f 79/2/4 78/2/4 80/2/4
f 81/1/4 82/1/4 83/1/4
f 83/1/4 82/1/4 84/1/4
f 85/2/4 86/2/4 87/2/4
f 87/2/4 86/2/4 88/2/4
f 89/1/4 90/1/4 91/1/4
f 91/1/4 90/1/4 92/1/4
f 93/2/4 94/2/4 95/2/4
f 95/2/4 94/2/4 96/2/4
f 99/1/5 98/1/5 97/1/5
f 100/1/5 98/1/5 99/1/5
f 103/1/5 102/1/5 101/1/5
f 104/1/5 102/1/5 103/1/5
f 107/1/5 106/1/5 105/1/5
f 108/1/5 106/1/5 107/1/5
f 111/2/5 110/2/5 109/2/5
f 112/2/5 110/2/5 111/2/5
f 113/2/5 111/2/5 109/2/5
f 114/2/5 110/2/5 112/2/5
f 115/2/5 113/2/5 109/2/5
f 115/2/5 114/2/5 113/2/5
f 116/2/5 110/2/5 114/2/5
f 116/2/5 114/2/5 115/2/5
f 119/2/5 118/2/5 117/2/5
f 120/2/5 118/2/5 119/2/5
f 121/2/5 119/2/5 117/2/5
f 122/2/5 118/2/5 120/2/5
f 123/2/5 121/2/5 117/2/5
f 123/2/5 122/2/5 121/2/5
f 124/2/5 118/2/5 122/2/5
f 124/2/5 122/2/5 123/2/5
f 127/2/5 126/2/5 125/2/5
f 128/2/5 126/2/5 127/2/5
f 129/2/5 127/2/5 125/2/5
f 130/2/5 126/2/5 128/2/5
f 131/2/5 129/2/5 125/2/5
f 131/2/5 130/2/5 129/2/5
f 132/2/5 126/2/5 130/2/5
f 132/2/5 130/2/5 131/2/5
f 133/2/6 134/2/6 135/2/6
f 135/2/6 134/2/6 136/2/6
f 137/2/6 138/2/6 139/2/6
f 139/2/6 138/2/6 140/2/6
f 141/2/6 142/2/6 143/2/6
f 143/2/6 142/2/6 144/2/6
